<svg width="13" height="10" viewBox="0 0 13 10" fill="none" xmlns="http://www.w3.org/2000/svg">
<path d="M11.0621 1.43292H9.08714V1.18612C9.08714 0.607963 8.61687 0.137695 8.03927 0.137695H4.4034C3.8258 0.137695 3.35553 0.607963 3.35553 1.18612V1.43292H2.60442V0.694714C2.60442 0.601649 2.52508 0.525879 2.4268 0.525879H1.5505C1.45249 0.525879 1.37316 0.601649 1.37316 0.694714V1.43375C0.677499 1.43786 0.112793 2.00422 0.112793 2.70015V8.59758C0.112793 9.29598 0.681617 9.8648 1.38084 9.8648H11.0621C11.7611 9.8648 12.3299 9.29598 12.3299 8.59758V2.70015C12.3299 2.00175 11.7611 1.43292 11.0621 1.43292ZM3.47769 5.52313C3.47769 4.0102 4.70868 2.77921 6.22161 2.77921C7.73454 2.77921 8.96553 4.0102 8.96553 5.52313C8.96553 7.03606 7.73454 8.26704 6.22161 8.26704C4.70868 8.26704 3.47769 7.03606 3.47769 5.52313ZM9.60271 3.20803C9.60271 2.72705 9.99391 2.33557 10.4749 2.33557C10.9556 2.33557 11.3471 2.72705 11.3471 3.20803C11.3471 3.68873 10.9556 4.0802 10.4749 4.0802C9.99391 4.0802 9.60271 3.68873 9.60271 3.20803Z" fill="white"/>
<path d="M6.22282 7.50466C7.31545 7.50466 8.20465 6.61546 8.20465 5.52284C8.20465 4.43021 7.31545 3.54102 6.22282 3.54102C5.12965 3.54102 4.24072 4.43021 4.24072 5.52284C4.24072 6.61546 5.12965 7.50466 6.22282 7.50466Z" fill="white"/>
</svg>
