<svg width="48" height="49" viewBox="0 0 48 49" fill="none" xmlns="http://www.w3.org/2000/svg">
<path d="M19.8108 35.661C18.3417 35.2683 16.1671 36.5773 14.8799 35.8283C14.2326 35.4501 13.9199 34.6355 13.6362 33.7773L8.90168 42.0028C8.74168 42.2792 8.98895 42.6137 9.30168 42.5483L14.4071 41.3919C14.5962 41.3483 14.7853 41.4573 14.8362 41.6392L16.3999 46.6283C16.4944 46.9337 16.909 46.9773 17.069 46.701L22.349 37.5228C21.498 36.8392 20.6908 35.8937 19.8108 35.661Z" fill="#FF4823"/>
<path opacity="0.1" d="M16.4871 40.3592C16.429 40.1773 16.2399 40.0683 16.058 40.1119L10.9526 41.2683C10.6399 41.341 10.3926 41.0064 10.5526 40.7228L13.9999 34.7373C13.8617 34.4392 13.7453 34.1119 13.6362 33.7773L8.90168 42.0028C8.74168 42.2792 8.98895 42.6137 9.30168 42.5483L14.4071 41.3919C14.5962 41.3483 14.7853 41.4573 14.8362 41.6392L16.3999 46.6283C16.4944 46.9337 16.909 46.9773 17.069 46.701L17.978 45.1228L16.4871 40.3592Z" fill="black"/>
<path d="M38.9512 41.2215L34.2166 32.9961C33.933 33.8543 33.6203 34.6761 32.973 35.0543C31.6857 35.7961 29.5112 34.4943 28.0421 34.887C27.1621 35.1197 26.3548 36.0652 25.5039 36.7561L30.7839 45.9343C30.9439 46.2106 31.3585 46.167 31.453 45.8615L33.0166 40.8725C33.0748 40.6906 33.2639 40.5815 33.4457 40.6252L38.5512 41.7815C38.8639 41.8325 39.1112 41.4979 38.9512 41.2215Z" fill="#FF4823"/>
<path opacity="0.1" d="M31.658 44.7115L26.5453 35.8242C26.1962 36.1297 25.8544 36.4569 25.498 36.7406L30.778 45.9188C30.938 46.1951 31.3526 46.1515 31.4471 45.846L31.7671 44.8133C31.7308 44.7842 31.6871 44.7624 31.658 44.7115Z" fill="black"/>
<path d="M42.2384 20.0955C42.2384 21.6373 40.0056 22.8591 39.6274 24.2846C39.2347 25.7537 40.5438 27.9282 39.7947 29.2155C39.0384 30.5173 36.4929 30.4737 35.4311 31.5282C34.3693 32.59 34.4202 35.1355 33.1184 35.8846C31.8311 36.6264 29.6565 35.3246 28.1874 35.7173C26.7693 36.0955 25.5402 38.3282 23.9984 38.3282C22.4565 38.3282 21.2347 36.0955 19.8093 35.7173C18.3402 35.3246 16.1656 36.6337 14.8784 35.8846C13.5693 35.1282 13.6202 32.5827 12.5656 31.5209C11.5038 30.4591 8.95835 30.51 8.20926 29.2082C7.46744 27.9209 8.76926 25.7464 8.37653 24.2773C7.99835 22.8591 5.76562 21.63 5.76562 20.0882C5.76562 18.5464 7.99835 17.3246 8.37653 15.8991C8.76926 14.43 7.46017 12.2555 8.20926 10.9682C8.96563 9.66638 11.5111 9.71002 12.5729 8.65547C13.6347 7.59365 13.5838 5.0482 14.8856 4.29911C16.1729 3.55729 18.3474 4.85911 19.8165 4.46638C21.2347 4.0882 22.4565 1.85547 23.9984 1.85547C25.5402 1.85547 26.762 4.0882 28.1874 4.46638C29.6565 4.85911 31.8311 3.55001 33.1184 4.29911C34.4274 5.05547 34.3765 7.60092 35.4311 8.66274C36.4929 9.72456 39.0384 9.67365 39.7874 10.9755C40.5293 12.2627 39.2274 14.4373 39.6202 15.9064C40.0056 17.3246 42.2384 18.5537 42.2384 20.0955Z" fill="#FEC200"/>
<path opacity="0.35" d="M39.6215 15.9064C39.2288 14.4373 40.5379 12.2627 39.7888 10.9755C39.0325 9.67365 36.487 9.71729 35.4325 8.66274C34.3706 7.60092 34.4215 5.05547 33.1197 4.29911C31.8325 3.55729 29.6579 4.85911 28.1888 4.46638C26.7634 4.0882 25.5415 1.85547 23.9997 1.85547C23.9852 1.85547 23.9779 1.85547 23.9634 1.85547C22.7706 1.88456 22.6179 3.71729 23.7815 3.94274C23.8834 3.96456 23.9852 3.97183 24.087 3.97911C24.3125 4.0882 24.7852 4.51729 25.0761 4.77911C25.8179 5.45547 26.6615 6.21183 27.8034 6.52456C28.9743 6.83729 30.1088 6.59729 31.1125 6.38638C31.4397 6.31365 31.8979 6.21911 32.1815 6.19729C32.3052 6.45911 32.4579 6.91001 32.5597 7.23729C32.8725 8.20456 33.2288 9.30274 34.0725 10.1464C34.9234 10.9973 36.0143 11.3537 36.9815 11.6591C37.3088 11.7609 37.7597 11.9137 38.0215 12.0373C37.9997 12.3209 37.9052 12.7791 37.8325 13.1064C37.6215 14.11 37.3815 15.2373 37.6943 16.4155C37.9997 17.5573 38.7634 18.4009 39.4325 19.1427C39.6579 19.3973 40.0143 19.79 40.1743 20.0373C40.0143 20.2846 39.6579 20.6773 39.4325 20.9318C38.7561 21.6737 37.9997 22.5173 37.6943 23.6664C37.607 24.0009 37.6288 24.35 37.7525 24.67C37.7961 24.7718 37.8325 24.8664 37.8761 24.9609C38.2543 25.7973 39.4543 25.5282 39.5561 24.6118C39.5706 24.5027 39.5852 24.3937 39.6143 24.2918C39.9925 22.8736 42.2252 21.6446 42.2252 20.1027C42.2397 18.5537 40.007 17.3246 39.6215 15.9064Z" fill="white"/>
<path d="M24.1884 32.1776C30.8962 32.1776 36.3339 26.7399 36.3339 20.0322C36.3339 13.3244 30.8962 7.88672 24.1884 7.88672C17.4807 7.88672 12.043 13.3244 12.043 20.0322C12.043 26.7399 17.4807 32.1776 24.1884 32.1776Z" fill="#E6E9EE"/>
<path d="M18.8064 14.8555L14.9082 19.2555H33.4682L29.5628 14.8555H18.8064Z" fill="#004D9B"/>
<path d="M24.1882 28.149L33.4682 19.2617H14.9082L24.1882 28.149Z" fill="#004D9B"/>
<path opacity="0.1" d="M24.1892 28.149L28.9819 19.2617H19.3965L24.1892 28.149Z" fill="black"/>
<path opacity="0.25" d="M21.7892 14.8555L24.1892 19.2555H19.3965L21.7892 14.8555Z" fill="white"/>
<path opacity="0.25" d="M26.5964 14.8555L28.9818 19.2555H24.2109L26.5964 14.8555Z" fill="white"/>
<path opacity="0.25" d="M26.7638 23.3552L24.1892 28.1479L21.6074 23.3552L24.1892 19.2461L26.7638 23.3552Z" fill="#004D9B"/>
<path opacity="0.1" d="M29.6798 32.5643C19.5779 32.5643 11.3816 24.3752 11.3816 14.2661C11.3816 12.4188 11.6579 10.637 12.167 8.95703C10.967 9.71339 8.87249 9.80067 8.2034 10.9643C7.46158 12.2516 8.7634 14.4261 8.37067 15.8952C7.99249 17.3134 5.75977 18.5425 5.75977 20.0843C5.75977 21.6261 7.99249 22.8479 8.37067 24.2734C8.7634 25.7425 7.45431 27.917 8.2034 29.2043C8.95977 30.5061 11.5052 30.4625 12.567 31.517C13.6289 32.5789 13.5779 35.1243 14.8798 35.8807C16.167 36.6225 18.3416 35.3207 19.8107 35.7134C21.2289 36.0916 22.4579 38.3243 23.9998 38.3243C25.5416 38.3243 26.7634 36.0916 28.1889 35.7134C29.6579 35.3207 31.8325 36.6298 33.1198 35.8807C34.3634 35.1607 34.3779 32.8116 35.3016 31.677C33.527 32.2516 31.6434 32.5643 29.6798 32.5643Z" fill="black"/>
</svg>
