<svg width="44" height="45" viewBox="0 0 44 45" fill="none" xmlns="http://www.w3.org/2000/svg">
<path fill-rule="evenodd" clip-rule="evenodd" d="M22.0908 24.1795L19.107 38.8684C18.853 40.1192 18.3884 39.8173 17.6875 38.8414L14.83 34.8628L10.3659 36.8796C9.27102 37.3742 8.71767 37.4035 9.12301 36.1932L13.8833 21.9805L22.0908 24.1797V24.1795Z" fill="#F85647"/>
<path fill-rule="evenodd" clip-rule="evenodd" d="M17.7174 38.8938L14.4798 34.3904L8.99177 36.8847C8.98144 36.7254 9.02291 36.5024 9.12288 36.2039L13.7691 22.332L20.7043 24.1903L17.7174 38.8938Z" fill="#FD7A6E"/>
<path fill-rule="evenodd" clip-rule="evenodd" d="M21.6426 24.1797L24.6263 38.8685C24.8805 40.1193 25.3451 39.8174 26.046 38.8415L28.9036 34.863L33.3676 36.8797C34.4626 37.3743 35.0159 37.4036 34.6106 36.1933L29.8502 21.9805L21.6428 24.1797H21.6426Z" fill="#F85647"/>
<path fill-rule="evenodd" clip-rule="evenodd" d="M21.6427 24.1902L24.6264 38.8791L24.6295 38.8937L24.6595 38.8521L27.5171 34.8735L28.5639 35.3465L28.9036 34.8735L33.3551 36.8847C33.3656 36.7254 33.324 36.5024 33.224 36.2039L28.5778 22.332L21.6426 24.1903L21.6427 24.1902Z" fill="#FD7A6E"/>
<path fill-rule="evenodd" clip-rule="evenodd" d="M23.0933 6.33575L24.2354 5.52761C25.4033 4.70122 27.0233 5.24472 27.4565 6.60817L27.853 7.85656C28.1325 8.7361 28.9095 9.31207 29.8322 9.3235L31.2312 9.34102C32.6618 9.35889 33.6529 10.7508 33.2019 12.1085L32.789 13.3516C32.4981 14.2273 32.7881 15.15 33.5279 15.7018L34.6493 16.5382C35.7962 17.3935 35.7799 19.1021 34.617 19.9354L33.5522 20.6984C32.8021 21.236 32.4944 22.153 32.7687 23.0341L33.1844 24.3699C33.6094 25.736 32.592 27.1087 31.1613 27.0994L29.8515 27.0907C28.9286 27.0846 28.1408 27.6458 27.8447 28.5197L27.3958 29.8447C26.9367 31.1998 25.3066 31.7123 24.1548 30.8638L23.1001 30.0869C22.3572 29.5396 21.39 29.5304 20.6367 30.0634L19.4946 30.8715C18.3267 31.6979 16.7068 31.1544 16.2736 29.7909L15.877 28.5425C15.5975 27.6629 14.8205 27.087 13.8978 27.0755L12.4988 27.058C11.0682 27.0401 10.0771 25.6482 10.5281 24.2905L10.941 23.0473C11.2319 22.1716 10.9418 21.2489 10.2021 20.6971L9.08054 19.8607C7.9337 19.0054 7.94999 17.2968 9.11289 16.4635L10.1776 15.7005C10.9278 15.1629 11.2355 14.2459 10.9612 13.3648L10.5455 12.029C10.1205 10.6629 11.1379 9.29018 12.5686 9.29955L13.8784 9.30818C14.8013 9.31426 15.5891 8.75312 15.8852 7.87918L16.3341 6.55417C16.7932 5.19912 18.4233 4.68663 19.5751 5.53515L20.6297 6.31203C21.3728 6.85931 22.3399 6.86855 23.0932 6.3355L23.0933 6.33575Z" fill="#F1B70B"/>
<path fill-rule="evenodd" clip-rule="evenodd" d="M31.5964 12.1102L31.1835 13.3532C30.8926 14.229 31.1827 15.1517 31.9225 15.7035L33.0439 16.5398C34.1907 17.3951 34.1744 19.1037 33.0115 19.937L31.9468 20.7001C31.1967 21.2376 30.889 22.1546 31.1632 23.0357L31.5789 24.3716C32.0071 25.7476 30.9757 27.1101 29.5558 27.101L28.246 27.0924C27.3232 27.0863 26.5353 27.6474 26.2392 28.5214L25.7903 29.8464C25.1185 31.8293 24.1313 30.8482 23.1 30.0885C20.9946 28.5377 19.8052 29.5174 19.0312 30.065C18.6868 30.3144 16.8287 31.4809 16.2736 29.7925L15.877 28.5441C15.5975 27.6646 14.8205 27.0886 13.8978 27.0772L12.4988 27.0596C11.0682 27.0418 10.0771 25.6499 10.5281 24.2921L10.941 23.049C11.2319 22.1732 10.9418 21.2505 10.2021 20.6987L9.08054 19.8624C7.9337 19.007 7.95 17.2985 9.11289 16.4651L10.1776 15.7021C10.9278 15.1646 11.2355 14.2476 10.9612 13.3665L10.5455 12.0306C10.1382 10.7215 11.0555 9.40675 12.3916 9.30727C12.8763 9.28465 13.3906 9.30654 13.8784 9.3097C14.8013 9.31578 15.5891 8.75464 15.8852 7.8807L16.3341 6.55569C16.5578 5.89531 17.2824 5.03597 17.9697 5.53666L19.0244 6.31355C21.2229 7.933 22.3194 6.88466 23.0932 6.33702C24.1597 5.58239 25.2044 4.57455 25.8509 6.60944L26.2475 7.85784C26.5269 8.73737 27.3039 9.31335 28.2267 9.32478L29.6256 9.34229C31.0562 9.36017 32.0474 10.7521 31.5963 12.1098L31.5964 12.1102Z" fill="#FECA5D"/>
<path d="M22.0664 24.9702C25.8049 24.8655 28.7508 21.7499 28.6461 18.0113C28.5414 14.2727 25.4259 11.3269 21.6873 11.4316C17.9487 11.5362 15.0028 14.6518 15.1075 18.3904C15.2122 22.129 18.3278 25.0748 22.0664 24.9702Z" fill="#CCC4CC"/>
<path fill-rule="evenodd" clip-rule="evenodd" d="M22 10.9961C25.643 11.3124 28.5 14.3253 28.5 17.9961C28.5 21.6669 25.643 24.6797 22 24.9961C18.357 24.6798 15.5 21.6669 15.5 17.9961C15.5 14.3253 18.357 11.3125 22 10.9961Z" fill="#E8ECF9"/>
<path fill-rule="evenodd" clip-rule="evenodd" d="M19.6718 18.3635C19.4427 18.114 19.4427 17.7095 19.6718 17.4601C19.9008 17.2106 20.2722 17.2106 20.5013 17.4601L21.4138 18.4539L23.4987 16.1832C23.7278 15.9337 24.0992 15.9337 24.3282 16.1832C24.5573 16.4326 24.5573 16.8371 24.3282 17.0866L21.8285 19.809C21.5995 20.0585 21.2281 20.0585 20.9991 19.809L19.6718 18.3635Z" fill="#73DA8C"/>
</svg>
