<svg width="58" height="58" viewBox="0 0 58 58" fill="none" xmlns="http://www.w3.org/2000/svg">
<path d="M31.4367 4.65121C32.2578 4.16653 33.3068 4.32879 33.943 5.03888L37.3881 8.8839C37.7499 9.28767 38.2601 9.52728 38.8018 9.54783L43.9607 9.74357C44.9135 9.77972 45.7082 10.4834 45.8595 11.4247L46.679 16.5219C46.765 17.0572 47.0647 17.5346 47.5093 17.8447L51.7435 20.7985C52.5254 21.344 52.8136 22.3656 52.432 23.2394L50.3656 27.9704C50.1486 28.4672 50.1425 29.0309 50.3489 29.5322L52.3139 34.3062C52.6768 35.1879 52.3669 36.2031 51.5735 36.7318L47.2774 39.5946C46.8262 39.8953 46.5164 40.3662 46.419 40.8995L45.4911 45.978C45.3197 46.9159 44.5101 47.6025 43.5568 47.6183L38.3949 47.704C37.8528 47.713 37.3376 47.9416 36.9673 48.3376L33.441 52.1083C32.7898 52.8046 31.7376 52.9445 30.9271 52.4424L26.5382 49.7237C26.0774 49.4382 25.5203 49.3521 24.9947 49.485L19.9896 50.7506C19.0653 50.9843 18.1045 50.5331 17.6941 49.6725L15.4718 45.0127C15.2385 44.5233 14.8164 44.1497 14.3024 43.9773L9.40762 42.3361C8.50366 42.033 7.93934 41.134 8.05934 40.1881L8.70915 35.0665C8.77739 34.5287 8.62437 33.9862 8.28513 33.5633L5.05468 29.5363C4.45809 28.7926 4.46941 27.7312 5.08173 27.0004L8.39732 23.0431C8.7455 22.6276 8.91006 22.0885 8.85331 21.5493L8.31286 16.415C8.21306 15.4668 8.79643 14.58 9.70664 14.2963L14.6353 12.7598C15.1529 12.5985 15.5828 12.2339 15.8266 11.7496L18.1477 7.13823C18.5764 6.28661 19.5466 5.85598 20.4657 6.10937L25.4427 7.48145C25.9653 7.62553 26.5241 7.55127 26.9909 7.27567L31.4367 4.65121Z" fill="#FFCA40"/>
<path d="M18.0355 25.527L19.3196 17.2257L22.5689 17.7283C23.154 17.8188 23.6261 17.9849 23.9854 18.2267C24.3526 18.4697 24.6099 18.7685 24.7574 19.1232C24.9061 19.47 24.9481 19.853 24.8833 20.272C24.8185 20.691 24.6731 21.0287 24.4473 21.2852C24.2214 21.5417 23.9467 21.7218 23.623 21.8256C23.3072 21.9305 22.973 21.9719 22.6202 21.9498L22.8183 21.8468C23.1886 21.9122 23.5054 22.0624 23.7686 22.2974C24.0397 22.5336 24.2383 22.8193 24.3646 23.1546C24.492 23.4819 24.527 23.8313 24.4695 24.2029C24.4023 24.6378 24.235 25.0126 23.9677 25.3274C23.7096 25.6356 23.3636 25.8573 22.9299 25.9926C22.4973 26.12 21.9885 26.1384 21.4035 26.0479L18.0355 25.527ZM19.6384 24.5849L21.3698 24.8527C21.8362 24.9249 22.217 24.8704 22.5122 24.6894C22.8073 24.5084 22.9854 24.2203 23.0466 23.825C23.1077 23.4297 23.0216 23.0966 22.7883 22.8257C22.5562 22.547 22.2069 22.3715 21.7404 22.2994L20.0328 22.0352L19.6384 24.5849ZM20.1997 20.9561L21.8244 21.2074C22.2829 21.2783 22.6467 21.2293 22.9156 21.0605C23.1858 20.8837 23.3497 20.6095 23.4071 20.2379C23.4634 19.8743 23.3888 19.5713 23.1835 19.3291C22.9793 19.0789 22.644 18.9178 22.1775 18.8456L20.5647 18.5961L20.1997 20.9561ZM28.33 27.265C27.737 27.1733 27.2348 26.9661 26.8233 26.6434C26.413 26.3128 26.1174 25.8947 25.9366 25.3891C25.7558 24.8835 25.7124 24.3264 25.8066 23.7176C25.9044 23.0851 26.1126 22.5507 26.431 22.1142C26.7574 21.679 27.1667 21.3618 27.6589 21.1627C28.159 20.9649 28.7095 20.9124 29.3104 21.0053C29.8954 21.0958 30.3852 21.3051 30.7796 21.6333C31.1741 21.9615 31.4557 22.3652 31.6244 22.8447C31.7943 23.3162 31.8371 23.8247 31.7527 24.3702C31.7405 24.4493 31.727 24.5362 31.7124 24.6311C31.6977 24.726 31.6745 24.8236 31.6428 24.9239L26.7806 24.1718L26.9218 23.2587L30.3728 23.7925C30.4243 23.3552 30.3306 22.9926 30.0918 22.7047C29.8542 22.409 29.5299 22.2293 29.1188 22.1657C28.8262 22.1204 28.547 22.146 28.2812 22.2425C28.0153 22.339 27.7904 22.5107 27.6065 22.7575C27.4239 22.9963 27.3013 23.3174 27.239 23.7206L27.1858 24.0645C27.1283 24.4361 27.146 24.7667 27.2388 25.0563C27.3395 25.3471 27.4975 25.582 27.7126 25.761C27.9369 25.9333 28.1993 26.0427 28.4997 26.0892C28.8318 26.1405 29.1155 26.1116 29.351 26.0023C29.5944 25.8942 29.7858 25.7295 29.9253 25.5082L31.3721 25.732C31.2039 26.0865 30.9701 26.3944 30.6706 26.6557C30.3724 26.9091 30.024 27.094 29.6256 27.2104C29.2283 27.319 28.7964 27.3372 28.33 27.265ZM35.0516 28.3047C34.5219 28.2228 34.0723 28.0682 33.7026 27.8411C33.3421 27.6072 33.0705 27.3223 32.8877 26.9865C32.714 26.6439 32.638 26.2719 32.6596 25.8705L34.0827 26.0906C34.0965 26.2627 34.1438 26.4279 34.2246 26.5861C34.3066 26.7364 34.4284 26.8645 34.5901 26.9705C34.7597 27.0777 34.9671 27.1502 35.2122 27.1882C35.4494 27.2248 35.6479 27.2232 35.8079 27.1832C35.9692 27.1352 36.0939 27.0614 36.1822 26.9618C36.2705 26.8621 36.3244 26.749 36.3439 26.6225C36.3733 26.4328 36.3445 26.2786 36.2577 26.1599C36.1708 26.0412 36.0328 25.9389 35.8437 25.853C35.6637 25.7604 35.4436 25.6656 35.1834 25.5687C34.9073 25.4694 34.641 25.3593 34.3844 25.2387C34.137 25.1114 33.9163 24.968 33.7224 24.8085C33.5364 24.6502 33.3955 24.4624 33.2996 24.2452C33.2115 24.0292 33.1896 23.7789 33.2336 23.4943C33.2874 23.1464 33.4266 22.8482 33.6512 22.5996C33.8838 22.3523 34.1862 22.1764 34.5585 22.0721C34.94 21.9611 35.3758 21.9435 35.866 22.0193C36.5617 22.127 37.0901 22.3746 37.451 22.7624C37.8211 23.1434 37.9971 23.628 37.979 24.2162L36.6271 24.007C36.6218 23.7796 36.5374 23.5925 36.3739 23.4458C36.2116 23.2911 35.9803 23.1906 35.6799 23.1441C35.3715 23.0964 35.1252 23.119 34.9408 23.2119C34.7656 23.2982 34.6633 23.4361 34.6339 23.6259C34.6156 23.7445 34.6459 23.8625 34.7249 23.98C34.813 24.0907 34.9464 24.1964 35.1251 24.2969C35.3051 24.3895 35.5285 24.4888 35.7955 24.5948C36.2247 24.7503 36.6002 24.9136 36.9218 25.0848C37.2434 25.2559 37.4853 25.4715 37.6475 25.7313C37.8097 25.9911 37.8584 26.3306 37.7936 26.7496C37.7428 27.1303 37.592 27.451 37.3412 27.7117C37.0983 27.9737 36.7821 28.1596 36.3928 28.2693C36.0047 28.3712 35.5576 28.383 35.0516 28.3047ZM41.4046 29.1417C41.0014 29.0793 40.6594 28.9617 40.3785 28.7887C40.1056 28.617 39.9087 28.372 39.7879 28.0538C39.6672 27.7356 39.6453 27.3274 39.7223 26.8294L40.1516 24.0544L39.1317 23.8966L39.317 22.6989L40.3368 22.8566L40.7468 21.305L42.0039 21.4995L41.7599 23.0767L43.3846 23.328L43.1993 24.5258L41.5747 24.2745L41.1454 27.0495C41.0989 27.3499 41.1298 27.5692 41.2379 27.7074C41.3552 27.8388 41.568 27.9284 41.8764 27.9761L42.6116 28.0898L42.4245 29.2995L41.4046 29.1417ZM15.368 38.269L13.6042 29.4962L15.1341 29.7329L16.4593 36.9442L19.9369 30.4758L21.443 30.7087L17.0994 38.5368L15.368 38.269ZM22.5181 39.5207C22.028 39.4448 21.6336 39.2988 21.3352 39.0827C21.0367 38.8665 20.8298 38.6078 20.7145 38.3067C20.5992 38.0055 20.5666 37.6929 20.6167 37.3687C20.6754 36.9892 20.821 36.6758 21.0536 36.4284C21.294 36.1823 21.6156 36.0135 22.0184 35.922C22.4223 35.8225 22.901 35.8156 23.4544 35.9012L24.9605 36.1342C25.0094 35.818 25.0063 35.5503 24.9511 35.3313C24.8972 35.1044 24.7872 34.9255 24.6213 34.7946C24.4553 34.6637 24.2301 34.5762 23.9454 34.5322C23.6213 34.4821 23.333 34.5144 23.0805 34.6291C22.8292 34.736 22.6526 34.9353 22.5508 35.2272L21.1515 35.0107C21.2649 34.5912 21.4635 34.2495 21.7471 33.9857C22.032 33.7141 22.381 33.5252 22.7941 33.4191C23.2163 33.3063 23.6606 33.286 24.127 33.3582C24.6884 33.445 25.1514 33.6178 25.5161 33.8766C25.8821 34.1275 26.1397 34.4507 26.289 34.8461C26.4474 35.2349 26.4875 35.6823 26.4092 36.1883L25.8369 39.8883L24.6273 39.7012L24.6336 38.7186C24.5301 38.8645 24.4047 38.9949 24.2574 39.1097C24.118 39.2257 23.9613 39.3229 23.7873 39.4013C23.6145 39.4717 23.421 39.5186 23.2069 39.5422C23.0007 39.567 22.7711 39.5598 22.5181 39.5207ZM23.0126 38.4436C23.2419 38.479 23.4496 38.4707 23.6357 38.4185C23.831 38.3597 24.0035 38.265 24.1533 38.1343C24.3121 37.997 24.4418 37.8389 24.5423 37.6602C24.6428 37.4815 24.7214 37.2872 24.7782 37.0774L24.7818 37.0537L23.4655 36.8501C23.1888 36.8073 22.954 36.8074 22.7612 36.8504C22.5695 36.8855 22.4244 36.9602 22.3258 37.0745C22.2272 37.1888 22.165 37.3289 22.1393 37.4949C22.1136 37.661 22.1312 37.8094 22.1919 37.9402C22.2526 38.071 22.3532 38.1797 22.4936 38.2662C22.634 38.3526 22.807 38.4118 23.0126 38.4436ZM27.4761 40.1418L28.7968 31.6034L30.2199 31.8235L28.8991 40.362L27.4761 40.1418ZM32.8013 41.1113C32.3191 41.0367 31.9187 40.8776 31.6002 40.634C31.2908 40.3838 31.0751 40.0509 30.9532 39.6354C30.8325 39.212 30.8168 38.7117 30.9061 38.1346L31.4472 34.6362L32.8703 34.8563L32.3512 38.2124C32.2717 38.7263 32.3179 39.1341 32.4898 39.4359C32.6708 39.7311 32.9826 39.9129 33.4254 39.9814C33.71 40.0254 33.9734 39.9973 34.2155 39.8972C34.4656 39.7982 34.6735 39.632 34.8391 39.3986C35.0138 39.1585 35.13 38.8527 35.1874 38.4811L35.6809 35.291L37.1039 35.5111L36.1794 41.4881L34.9224 41.2936L34.9697 40.281C34.7341 40.6007 34.4264 40.8364 34.0468 40.9882C33.675 41.1412 33.2599 41.1822 32.8013 41.1113ZM40.6581 42.3265C40.0651 42.2348 39.5629 42.0276 39.1514 41.7049C38.7411 41.3743 38.4456 40.9562 38.2647 40.4506C38.0839 39.945 38.0405 39.3879 38.1347 38.7791C38.2325 38.1466 38.4407 37.6122 38.7591 37.1757C39.0855 36.7405 39.4948 36.4233 39.987 36.2242C40.4871 36.0264 41.0376 35.9739 41.6385 36.0668C42.2235 36.1573 42.7133 36.3667 43.1078 36.6948C43.5022 37.023 43.7838 37.4268 43.9525 37.9062C44.1224 38.3777 44.1652 38.8862 44.0808 39.4317C44.0686 39.5108 44.0551 39.5977 44.0405 39.6926C44.0258 39.7875 44.0026 39.8851 43.9709 39.9854L39.1087 39.2333L39.25 38.3202L42.7009 38.854C42.7524 38.4167 42.6587 38.0541 42.4199 37.7663C42.1823 37.4705 41.858 37.2908 41.4469 37.2272C41.1543 37.1819 40.8751 37.2076 40.6093 37.304C40.3434 37.4005 40.1185 37.5722 39.9346 37.819C39.752 38.0579 39.6294 38.3789 39.5671 38.7821L39.5139 39.126C39.4564 39.4976 39.4741 39.8282 39.5669 40.1178C39.6676 40.4086 39.8256 40.6435 40.0407 40.8225C40.265 40.9948 40.5274 41.1042 40.8278 41.1507C41.1599 41.202 41.4436 41.1731 41.6791 41.0638C41.9225 40.9557 42.1139 40.791 42.2534 40.5697L43.7002 40.7935C43.532 41.148 43.2982 41.4559 42.9987 41.7172C42.7005 41.9706 42.3521 42.1555 41.9537 42.2719C41.5564 42.3805 41.1245 42.3987 40.6581 42.3265Z" fill="black"/>
</svg>
