<svg width="44" height="45" viewBox="0 0 44 45" fill="none" xmlns="http://www.w3.org/2000/svg">
<path d="M3.46156 27.9258C3.10793 29.2147 2.28396 30.6615 2.75516 31.6382C3.41335 33.0025 6.28547 32.9821 7.22116 34.154C8.16148 35.3316 7.5063 38.1262 8.6839 39.0665C9.85583 40.0023 12.4336 38.7454 13.798 39.4036C15.1401 40.0511 15.7598 42.8563 17.2475 43.1945C18.6882 43.522 20.4597 41.2708 21.9997 41.2708C23.5396 41.2708 25.3111 43.522 26.7518 43.1945C28.2395 42.8563 28.8592 40.0512 30.2014 39.4037C31.5657 38.7455 34.1435 40.0024 35.3154 39.0666C36.493 38.1263 35.8378 35.3317 36.7782 34.1541C37.7139 32.9822 40.586 33.0026 41.2442 31.6383C41.7154 30.6616 40.8916 29.2148 40.5378 27.9259H3.46156V27.9258Z" fill="#FFE177"/>
<path d="M40.5379 16.813C40.8916 15.5241 41.7155 14.0772 41.2443 13.1006C40.5861 11.7362 37.714 11.7567 36.7783 10.5847C35.838 9.40713 36.4932 6.61253 35.3156 5.6722C34.1438 4.73643 31.5659 5.99335 30.2015 5.33515C28.8594 4.68761 28.2397 1.88244 26.752 1.54428C25.3112 1.21677 23.5397 3.46799 21.9998 3.46799C20.4598 3.46799 18.6883 1.21677 17.2476 1.54428C15.7599 1.88244 15.1402 4.68753 13.798 5.33507C12.4337 5.99326 9.85592 4.73634 8.68399 5.67211C7.50639 6.61244 8.16158 9.40704 7.22125 10.5846C6.28548 11.7566 3.41345 11.7361 2.75516 13.1005C2.28397 14.0771 3.10785 15.524 3.46157 16.8129H40.5379V16.813Z" fill="#FFE177"/>
<path d="M41.2452 13.0983C40.587 11.7339 37.7149 11.7544 36.7792 10.5825C35.8388 9.40485 36.494 6.61025 35.3164 5.66992C34.3934 4.93284 32.5985 5.55563 31.2109 5.53191C33.675 8.69948 35.2656 12.5792 35.6232 16.8107H40.5388C40.8924 15.5218 41.7164 14.075 41.2452 13.0983Z" fill="#FFD15B"/>
<path d="M40.5381 27.9258H33.5791C30.1461 35.0205 22.9033 39.9265 14.5078 39.9893C15.4126 41.0453 16.0481 42.9217 17.2478 43.1944C18.6885 43.5219 20.46 41.2707 21.9999 41.2707C23.5398 41.2707 25.3114 43.5219 26.7521 43.1944C28.2398 42.8562 28.8595 40.0511 30.2016 39.4036C31.566 38.7454 34.1438 40.0023 35.3157 39.0665C36.4933 38.1262 35.8381 35.3316 36.7784 34.154C37.7142 32.9821 40.5862 33.0025 41.2445 31.6382C41.7156 30.6615 40.8917 29.2147 40.5381 27.9258Z" fill="#FFD15B"/>
<path d="M35.6432 16.8098C33.4501 11.4294 28.168 7.63672 21.9993 7.63672C15.8307 7.63672 10.5486 11.4294 8.35547 16.8098H35.6432Z" fill="#FE9738"/>
<path d="M8.35547 27.918C10.5487 33.2983 15.8307 37.091 21.9993 37.091C28.168 37.091 33.4501 33.2983 35.6432 27.918H8.35547Z" fill="#FE9738"/>
<path d="M23.7121 19.9794C23.6441 19.6457 23.3592 19.3992 23.0191 19.3799C22.6794 19.3628 22.3683 19.5736 22.2631 19.8975C22.2607 19.9049 22.2585 19.9123 22.2563 19.9198L21.472 22.6713L20.6583 19.9134C20.6561 19.9056 20.6537 19.898 20.6511 19.8904C20.5426 19.5674 20.2284 19.3571 19.8894 19.3807C19.5495 19.4036 19.2672 19.6531 19.2015 19.9949L18.3776 24.5599C18.3143 24.9102 18.5471 25.2454 18.8974 25.3087C19.2475 25.3718 19.5829 25.1392 19.6462 24.7888L20.0662 22.4615L20.7624 24.8212C20.7646 24.8288 20.767 24.8364 20.7695 24.8439C20.8724 25.1503 21.158 25.3555 21.4809 25.3555H21.4847C21.8092 25.3539 22.0945 25.1455 22.1946 24.8368C22.197 24.8294 22.1994 24.8219 22.2014 24.8145L22.8735 22.4571L23.3203 24.7954C23.3871 25.1451 23.7254 25.3745 24.0743 25.3074C24.4239 25.2406 24.6532 24.903 24.5864 24.5534L23.7121 19.9794Z" fill="#004D9B"/>
<path d="M40.8599 24.5536L39.9856 19.9795C39.9176 19.6457 39.6327 19.3993 39.2926 19.38C38.9538 19.3628 38.6418 19.5737 38.5366 19.8976C38.5342 19.905 38.532 19.9124 38.5298 19.9199L37.7455 22.6715L36.9317 19.9134C36.9295 19.9057 36.927 19.898 36.9245 19.8905C36.816 19.5674 36.5018 19.3567 36.1629 19.3808C35.823 19.4036 35.5407 19.6532 35.4749 19.995L34.651 24.56C34.5878 24.9103 34.8205 25.2455 35.1708 25.3087C35.5207 25.3719 35.8564 25.1393 35.9196 24.7889L36.3396 22.4616L37.0358 24.8212C37.038 24.829 37.0405 24.8368 37.0431 24.8444C37.1462 25.1506 37.4316 25.3557 37.7543 25.3556H37.7583C38.0826 25.3539 38.3679 25.1455 38.4681 24.8371C38.4705 24.8296 38.4729 24.8221 38.475 24.8145L39.147 22.4572L39.5938 24.7954C39.6606 25.1451 39.9989 25.3746 40.3478 25.3075C40.6975 25.2409 40.9268 24.9033 40.8599 24.5536Z" fill="#004D9B"/>
<path d="M26.6445 19.3789C26.2885 19.3789 26 19.6674 26 20.0234V24.7112C26 25.0673 26.2885 25.3558 26.6445 25.3558C27.0006 25.3558 27.2891 25.0673 27.2891 24.7112V20.0234C27.2891 19.6674 27.0006 19.3789 26.6445 19.3789Z" fill="#004D9B"/>
<path d="M16.3209 20.668C16.6768 20.668 16.9654 20.3795 16.9654 20.0234C16.9654 19.6674 16.6768 19.3789 16.3209 19.3789H14.3457C13.9897 19.3789 13.7012 19.6674 13.7012 20.0234V24.7112C13.7012 25.0673 13.9897 25.3558 14.3457 25.3558H16.3209C16.6768 25.3558 16.9654 25.0673 16.9654 24.7112C16.9654 24.3552 16.6768 24.0667 16.3209 24.0667H14.9902V23.0118H16.1753C16.5313 23.0118 16.8198 22.7233 16.8198 22.3673C16.8198 22.0113 16.5313 21.7228 16.1753 21.7228H14.9902V20.668H16.3209Z" fill="#004D9B"/>
<path d="M32.5932 19.3789C32.2372 19.3789 31.9487 19.6674 31.9487 20.0234V23.2457C31.9487 23.4664 31.8859 23.7237 31.4198 23.9584C31.2751 24.0313 31.1176 24.0667 30.9382 24.0667C30.9376 24.0667 30.9369 24.0667 30.9364 24.0667C30.7409 24.0665 30.5715 24.0188 30.4184 23.921C30.0538 23.688 29.9805 23.4912 29.9805 23.2492V20.0235C29.9805 19.6675 29.692 19.379 29.3359 19.379C28.9799 19.379 28.6914 19.6675 28.6914 20.0235V23.2492C28.6914 23.9779 29.0389 24.5694 29.7244 25.0073C30.0853 25.238 30.4925 25.3552 30.9345 25.3559H30.9382C31.3185 25.3559 31.6757 25.273 31.9998 25.1098C33.0231 24.5945 33.2379 23.8117 33.2379 23.2459V20.0236C33.2378 19.6674 32.9492 19.3789 32.5932 19.3789Z" fill="#004D9B"/>
<path d="M12.3002 21.2418C12.3002 20.2146 11.4336 19.3789 10.3684 19.3789H9.12264C8.76686 19.3789 8.47828 19.6672 8.47811 20.023L8.47656 24.7112C8.47656 25.0673 8.76514 25.3558 9.12109 25.3558C9.47705 25.3558 9.76562 25.0673 9.76562 24.7112V23.5395L11.1717 25.1371C11.2991 25.2819 11.477 25.3558 11.6558 25.3558C11.8071 25.3558 11.9589 25.3028 12.0814 25.1951C12.3486 24.9599 12.3746 24.5526 12.1394 24.2854L11.0075 22.9994C11.7595 22.7444 12.3002 22.0529 12.3002 21.2418ZM10.3684 21.8156C10.2271 21.8156 9.99353 21.8165 9.76614 21.8175L9.76683 20.668H10.3684C10.7168 20.668 11.0111 20.9308 11.0111 21.2418C11.0111 21.5528 10.7168 21.8156 10.3684 21.8156Z" fill="#004D9B"/>
<path d="M5.0807 19.3789H3.77539C3.41944 19.3789 3.13086 19.6674 3.13086 20.0234V24.7112C3.13086 25.0673 3.41944 25.3558 3.77539 25.3558C4.13134 25.3558 4.41992 25.0673 4.41992 24.7112V23.316C4.66691 23.3148 4.92652 23.3137 5.0807 23.3137C6.17984 23.3137 7.07402 22.4311 7.07402 21.3463C7.07402 20.2614 6.17975 19.3789 5.0807 19.3789ZM5.0807 22.0247C4.92644 22.0247 4.66716 22.0258 4.41992 22.0269V20.668H5.0807C5.46243 20.668 5.78495 20.9786 5.78495 21.3464C5.78495 21.7141 5.46243 22.0247 5.0807 22.0247Z" fill="#004D9B"/>
<path d="M43.3555 17.457H0.644531C0.288578 17.457 0 17.1685 0 16.8125C0 16.4565 0.288578 16.168 0.644531 16.168H43.3555C43.7115 16.168 44 16.4565 44 16.8125C44 17.1685 43.7115 17.457 43.3555 17.457Z" fill="#004D9B"/>
<path d="M43.3555 28.5664H0.644531C0.288578 28.5664 0 28.2779 0 27.9219C0 27.5658 0.288578 27.2773 0.644531 27.2773H43.3555C43.7115 27.2773 44 27.5658 44 27.9219C44 28.2779 43.7115 28.5664 43.3555 28.5664Z" fill="#004D9B"/>
</svg>
