<svg width="18" height="17" viewBox="0 0 18 17" fill="none" xmlns="http://www.w3.org/2000/svg">
<g clip-path="url(#clip0_2039_134706)">
<path d="M15.8662 2.39453H14.2725V3.19141C14.2725 3.40275 14.1885 3.60544 14.0391 3.75488C13.8896 3.90433 13.6869 3.98828 13.4756 3.98828C13.2642 3.98828 13.0616 3.90433 12.9121 3.75488C12.7627 3.60544 12.6787 3.40275 12.6787 3.19141V2.39453H10.0225V3.19141C10.0225 3.40275 9.9385 3.60544 9.78906 3.75488C9.63962 3.90433 9.43693 3.98828 9.22559 3.98828C9.01424 3.98828 8.81155 3.90433 8.66211 3.75488C8.51267 3.60544 8.42871 3.40275 8.42871 3.19141V2.39453H5.77246V3.19141C5.77246 3.40275 5.6885 3.60544 5.53906 3.75488C5.38962 3.90433 5.18693 3.98828 4.97559 3.98828C4.76424 3.98828 4.56155 3.90433 4.41211 3.75488C4.26267 3.60544 4.17871 3.40275 4.17871 3.19141V2.39453H2.58496C2.30317 2.39453 2.03292 2.50647 1.83366 2.70573C1.6344 2.90499 1.52246 3.17524 1.52246 3.45703V5.58203H16.9287V3.45703C16.9287 3.17524 16.8168 2.90499 16.6175 2.70573C16.4183 2.50647 16.148 2.39453 15.8662 2.39453Z" fill="#9BC9FF"/>
<path d="M8.16309 7.44141H7.10059C6.95389 7.44141 6.83496 7.56033 6.83496 7.70703V8.50391C6.83496 8.65061 6.95389 8.76953 7.10059 8.76953H8.16309C8.30979 8.76953 8.42871 8.65061 8.42871 8.50391V7.70703C8.42871 7.56033 8.30979 7.44141 8.16309 7.44141Z" fill="#9BC9FF"/>
<path d="M4.97559 7.44141H3.91309C3.76639 7.44141 3.64746 7.56033 3.64746 7.70703V8.50391C3.64746 8.65061 3.76639 8.76953 3.91309 8.76953H4.97559C5.12229 8.76953 5.24121 8.65061 5.24121 8.50391V7.70703C5.24121 7.56033 5.12229 7.44141 4.97559 7.44141Z" fill="#9BC9FF"/>
<path d="M14.5381 7.44141H13.4756C13.3289 7.44141 13.21 7.56033 13.21 7.70703V8.50391C13.21 8.65061 13.3289 8.76953 13.4756 8.76953H14.5381C14.6848 8.76953 14.8037 8.65061 14.8037 8.50391V7.70703C14.8037 7.56033 14.6848 7.44141 14.5381 7.44141Z" fill="#9BC9FF"/>
<path d="M8.16309 9.83203H7.10059C6.95389 9.83203 6.83496 9.95096 6.83496 10.0977V10.8945C6.83496 11.0412 6.95389 11.1602 7.10059 11.1602H8.16309C8.30979 11.1602 8.42871 11.0412 8.42871 10.8945V10.0977C8.42871 9.95096 8.30979 9.83203 8.16309 9.83203Z" fill="#9BC9FF"/>
<path d="M4.97559 9.83203H3.91309C3.76639 9.83203 3.64746 9.95096 3.64746 10.0977V10.8945C3.64746 11.0412 3.76639 11.1602 3.91309 11.1602H4.97559C5.12229 11.1602 5.24121 11.0412 5.24121 10.8945V10.0977C5.24121 9.95096 5.12229 9.83203 4.97559 9.83203Z" fill="#9BC9FF"/>
<path d="M8.16309 12.2227H7.10059C6.95389 12.2227 6.83496 12.3416 6.83496 12.4883V13.2852C6.83496 13.4319 6.95389 13.5508 7.10059 13.5508H8.16309C8.30979 13.5508 8.42871 13.4319 8.42871 13.2852V12.4883C8.42871 12.3416 8.30979 12.2227 8.16309 12.2227Z" fill="#9BC9FF"/>
<path d="M11.3506 7.44141H10.2881C10.1414 7.44141 10.0225 7.56033 10.0225 7.70703V8.50391C10.0225 8.65061 10.1414 8.76953 10.2881 8.76953H11.3506C11.4973 8.76953 11.6162 8.65061 11.6162 8.50391V7.70703C11.6162 7.56033 11.4973 7.44141 11.3506 7.44141Z" fill="#9BC9FF"/>
<path d="M11.3506 9.83203H10.2881C10.1414 9.83203 10.0225 9.95096 10.0225 10.0977V10.8945C10.0225 11.0412 10.1414 11.1602 10.2881 11.1602H11.3506C11.4973 11.1602 11.6162 11.0412 11.6162 10.8945V10.0977C11.6162 9.95096 11.4973 9.83203 11.3506 9.83203Z" fill="#9BC9FF"/>
<path d="M4.97559 12.2227H3.91309C3.76639 12.2227 3.64746 12.3416 3.64746 12.4883V13.2852C3.64746 13.4319 3.76639 13.5508 3.91309 13.5508H4.97559C5.12229 13.5508 5.24121 13.4319 5.24121 13.2852V12.4883C5.24121 12.3416 5.12229 12.2227 4.97559 12.2227Z" fill="#9BC9FF"/>
<path d="M13.7412 16.207C15.5016 16.207 16.9287 14.7799 16.9287 13.0195C16.9287 11.2591 15.5016 9.83203 13.7412 9.83203C11.9808 9.83203 10.5537 11.2591 10.5537 13.0195C10.5537 14.7799 11.9808 16.207 13.7412 16.207Z" fill="#9BC9FF"/>
<path d="M15.8662 2.12891H14.5381V1.59766C14.5381 1.31586 14.4261 1.04561 14.2269 0.846355C14.0276 0.647098 13.7574 0.535156 13.4756 0.535156C13.1938 0.535156 12.9235 0.647098 12.7243 0.846355C12.525 1.04561 12.4131 1.31586 12.4131 1.59766V2.12891H10.2881V1.59766C10.2881 1.31586 10.1761 1.04561 9.97689 0.846355C9.77763 0.647098 9.50738 0.535156 9.22559 0.535156C8.94379 0.535156 8.67354 0.647098 8.47429 0.846355C8.27503 1.04561 8.16309 1.31586 8.16309 1.59766V2.12891H6.03809V1.59766C6.03809 1.31586 5.92614 1.04561 5.72689 0.846355C5.52763 0.647098 5.25738 0.535156 4.97559 0.535156C4.69379 0.535156 4.42354 0.647098 4.22428 0.846355C4.02503 1.04561 3.91309 1.31586 3.91309 1.59766V2.12891H2.58496C2.23272 2.12891 1.89491 2.26883 1.64583 2.5179C1.39676 2.76698 1.25684 3.10479 1.25684 3.45703V14.082C1.25684 14.4343 1.39676 14.7721 1.64583 15.0212C1.89491 15.2702 2.23272 15.4102 2.58496 15.4102H10.0225C10.0929 15.4102 10.1605 15.3822 10.2103 15.3324C10.2601 15.2825 10.2881 15.215 10.2881 15.1445C10.2881 15.0741 10.2601 15.0065 10.2103 14.9567C10.1605 14.9069 10.0929 14.8789 10.0225 14.8789H2.58496C2.37381 14.8783 2.17149 14.7941 2.02218 14.6448C1.87288 14.4955 1.78872 14.2932 1.78809 14.082V5.84766H16.6631V10.3633C16.6631 10.4337 16.6911 10.5013 16.7409 10.5511C16.7907 10.6009 16.8583 10.6289 16.9287 10.6289C16.9992 10.6289 17.0667 10.6009 17.1165 10.5511C17.1664 10.5013 17.1943 10.4337 17.1943 10.3633V3.45703C17.1943 3.10479 17.0544 2.76698 16.8053 2.5179C16.5563 2.26883 16.2185 2.12891 15.8662 2.12891ZM12.9443 1.59766C12.9443 1.45676 13.0003 1.32163 13.0999 1.22201C13.1996 1.12238 13.3347 1.06641 13.4756 1.06641C13.6165 1.06641 13.7516 1.12238 13.8512 1.22201C13.9509 1.32163 14.0068 1.45676 14.0068 1.59766V3.19141C14.0068 3.3323 13.9509 3.46743 13.8512 3.56706C13.7516 3.66669 13.6165 3.72266 13.4756 3.72266C13.3347 3.72266 13.1996 3.66669 13.0999 3.56706C13.0003 3.46743 12.9443 3.3323 12.9443 3.19141V1.59766ZM8.69434 1.59766C8.69434 1.45676 8.75031 1.32163 8.84994 1.22201C8.94956 1.12238 9.08469 1.06641 9.22559 1.06641C9.36648 1.06641 9.50161 1.12238 9.60124 1.22201C9.70087 1.32163 9.75684 1.45676 9.75684 1.59766V3.19141C9.75684 3.3323 9.70087 3.46743 9.60124 3.56706C9.50161 3.66669 9.36648 3.72266 9.22559 3.72266C9.08469 3.72266 8.94956 3.66669 8.84994 3.56706C8.75031 3.46743 8.69434 3.3323 8.69434 3.19141V1.59766ZM4.44434 1.59766C4.44434 1.45676 4.50031 1.32163 4.59994 1.22201C4.69956 1.12238 4.83469 1.06641 4.97559 1.06641C5.11648 1.06641 5.25161 1.12238 5.35124 1.22201C5.45086 1.32163 5.50684 1.45676 5.50684 1.59766V3.19141C5.50684 3.3323 5.45086 3.46743 5.35124 3.56706C5.25161 3.66669 5.11648 3.72266 4.97559 3.72266C4.83469 3.72266 4.69956 3.66669 4.59994 3.56706C4.50031 3.46743 4.44434 3.3323 4.44434 3.19141V1.59766ZM16.6631 5.31641H1.78809V3.45703C1.78872 3.24588 1.87288 3.04356 2.02218 2.89425C2.17149 2.74495 2.37381 2.66079 2.58496 2.66016H3.91309V3.19141C3.91309 3.4732 4.02503 3.74345 4.22428 3.94271C4.42354 4.14196 4.69379 4.25391 4.97559 4.25391C5.25738 4.25391 5.52763 4.14196 5.72689 3.94271C5.92614 3.74345 6.03809 3.4732 6.03809 3.19141V2.66016H8.16309V3.19141C8.16309 3.4732 8.27503 3.74345 8.47429 3.94271C8.67354 4.14196 8.94379 4.25391 9.22559 4.25391C9.50738 4.25391 9.77763 4.14196 9.97689 3.94271C10.1761 3.74345 10.2881 3.4732 10.2881 3.19141V2.66016H12.4131V3.19141C12.4131 3.4732 12.525 3.74345 12.7243 3.94271C12.9235 4.14196 13.1938 4.25391 13.4756 4.25391C13.7574 4.25391 14.0276 4.14196 14.2269 3.94271C14.4261 3.74345 14.5381 3.4732 14.5381 3.19141V2.66016H15.8662C16.0774 2.66079 16.2797 2.74495 16.429 2.89425C16.5783 3.04356 16.6625 3.24588 16.6631 3.45703V5.31641Z" fill="#1E81CE"/>
<path d="M8.69434 7.70703C8.69434 7.56613 8.63837 7.43101 8.53874 7.33138C8.43911 7.23175 8.30398 7.17578 8.16309 7.17578H7.10059C6.95969 7.17578 6.82456 7.23175 6.72494 7.33138C6.62531 7.43101 6.56934 7.56613 6.56934 7.70703V8.50391C6.56934 8.6448 6.62531 8.77993 6.72494 8.87956C6.82456 8.97919 6.95969 9.03516 7.10059 9.03516H8.16309C8.30398 9.03516 8.43911 8.97919 8.53874 8.87956C8.63837 8.77993 8.69434 8.6448 8.69434 8.50391V7.70703ZM7.10059 8.50391V7.70703H8.16309V8.50391H7.10059Z" fill="#1E81CE"/>
<path d="M5.50684 7.70703C5.50684 7.56613 5.45087 7.43101 5.35124 7.33138C5.25161 7.23175 5.11648 7.17578 4.97559 7.17578H3.91309C3.77219 7.17578 3.63706 7.23175 3.53744 7.33138C3.43781 7.43101 3.38184 7.56613 3.38184 7.70703V8.50391C3.38184 8.6448 3.43781 8.77993 3.53744 8.87956C3.63706 8.97919 3.77219 9.03516 3.91309 9.03516H4.97559C5.11648 9.03516 5.25161 8.97919 5.35124 8.87956C5.45087 8.77993 5.50684 8.6448 5.50684 8.50391V7.70703ZM3.91309 8.50391V7.70703H4.97559V8.50391H3.91309Z" fill="#1E81CE"/>
<path d="M14.5381 9.03516C14.679 9.03516 14.8141 8.97919 14.9137 8.87956C15.0134 8.77993 15.0693 8.6448 15.0693 8.50391V7.70703C15.0693 7.56613 15.0134 7.43101 14.9137 7.33138C14.8141 7.23175 14.679 7.17578 14.5381 7.17578H13.4756C13.3347 7.17578 13.1996 7.23175 13.0999 7.33138C13.0003 7.43101 12.9443 7.56613 12.9443 7.70703V8.50391C12.9443 8.6448 13.0003 8.77993 13.0999 8.87956C13.1996 8.97919 13.3347 9.03516 13.4756 9.03516H14.5381ZM13.4756 7.70703H14.5381V8.50391H13.4756V7.70703Z" fill="#1E81CE"/>
<path d="M8.69434 10.0977C8.69434 9.95676 8.63837 9.82163 8.53874 9.72201C8.43911 9.62238 8.30398 9.56641 8.16309 9.56641H7.10059C6.95969 9.56641 6.82456 9.62238 6.72494 9.72201C6.62531 9.82163 6.56934 9.95676 6.56934 10.0977V10.8945C6.56934 11.0354 6.62531 11.1706 6.72494 11.2702C6.82456 11.3698 6.95969 11.4258 7.10059 11.4258H8.16309C8.30398 11.4258 8.43911 11.3698 8.53874 11.2702C8.63837 11.1706 8.69434 11.0354 8.69434 10.8945V10.0977ZM7.10059 10.8945V10.0977H8.16309V10.8945H7.10059Z" fill="#1E81CE"/>
<path d="M5.50684 10.0977C5.50684 9.95676 5.45087 9.82163 5.35124 9.72201C5.25161 9.62238 5.11648 9.56641 4.97559 9.56641H3.91309C3.77219 9.56641 3.63706 9.62238 3.53744 9.72201C3.43781 9.82163 3.38184 9.95676 3.38184 10.0977V10.8945C3.38184 11.0354 3.43781 11.1706 3.53744 11.2702C3.63706 11.3698 3.77219 11.4258 3.91309 11.4258H4.97559C5.11648 11.4258 5.25161 11.3698 5.35124 11.2702C5.45087 11.1706 5.50684 11.0354 5.50684 10.8945V10.0977ZM3.91309 10.8945V10.0977H4.97559V10.8945H3.91309Z" fill="#1E81CE"/>
<path d="M8.16309 11.957H7.10059C6.95969 11.957 6.82456 12.013 6.72494 12.1126C6.62531 12.2123 6.56934 12.3474 6.56934 12.4883V13.2852C6.56934 13.4261 6.62531 13.5612 6.72494 13.6608C6.82456 13.7604 6.95969 13.8164 7.10059 13.8164H8.16309C8.30398 13.8164 8.43911 13.7604 8.53874 13.6608C8.63837 13.5612 8.69434 13.4261 8.69434 13.2852V12.4883C8.69434 12.3474 8.63837 12.2123 8.53874 12.1126C8.43911 12.013 8.30398 11.957 8.16309 11.957ZM7.10059 13.2852V12.4883H8.16309V13.2852H7.10059Z" fill="#1E81CE"/>
<path d="M10.2881 9.03516H11.3506C11.4915 9.03516 11.6266 8.97919 11.7262 8.87956C11.8259 8.77993 11.8818 8.6448 11.8818 8.50391V7.70703C11.8818 7.56613 11.8259 7.43101 11.7262 7.33138C11.6266 7.23175 11.4915 7.17578 11.3506 7.17578H10.2881C10.1472 7.17578 10.0121 7.23175 9.91244 7.33138C9.81281 7.43101 9.75684 7.56613 9.75684 7.70703V8.50391C9.75684 8.6448 9.81281 8.77993 9.91244 8.87956C10.0121 8.97919 10.1472 9.03516 10.2881 9.03516ZM10.2881 7.70703H11.3506V8.50391H10.2881V7.70703Z" fill="#1E81CE"/>
<path d="M9.75684 10.8945C9.75684 11.0354 9.81281 11.1706 9.91244 11.2702C10.0121 11.3698 10.1472 11.4258 10.2881 11.4258C10.3585 11.4258 10.4261 11.3978 10.4759 11.348C10.5257 11.2982 10.5537 11.2306 10.5537 11.1602C10.5537 11.0897 10.5257 11.0221 10.4759 10.9723C10.4261 10.9225 10.3585 10.8945 10.2881 10.8945V10.0977H11.3506C11.421 10.0977 11.4886 10.0697 11.5384 10.0199C11.5882 9.97004 11.6162 9.90248 11.6162 9.83203C11.6162 9.76158 11.5882 9.69402 11.5384 9.64421C11.4886 9.59439 11.421 9.56641 11.3506 9.56641H10.2881C10.1472 9.56641 10.0121 9.62238 9.91244 9.72201C9.81281 9.82163 9.75684 9.95676 9.75684 10.0977V10.8945Z" fill="#1E81CE"/>
<path d="M4.97559 11.957H3.91309C3.77219 11.957 3.63706 12.013 3.53744 12.1126C3.43781 12.2123 3.38184 12.3474 3.38184 12.4883V13.2852C3.38184 13.4261 3.43781 13.5612 3.53744 13.6608C3.63706 13.7604 3.77219 13.8164 3.91309 13.8164H4.97559C5.11648 13.8164 5.25161 13.7604 5.35124 13.6608C5.45087 13.5612 5.50684 13.4261 5.50684 13.2852V12.4883C5.50684 12.3474 5.45087 12.2123 5.35124 12.1126C5.25161 12.013 5.11648 11.957 4.97559 11.957ZM3.91309 13.2852V12.4883H4.97559V13.2852H3.91309Z" fill="#1E81CE"/>
<path d="M13.7412 9.56641C13.0582 9.56641 12.3906 9.76893 11.8228 10.1484C11.2549 10.5278 10.8123 11.0671 10.5509 11.6981C10.2896 12.3291 10.2212 13.0234 10.3544 13.6932C10.4877 14.363 10.8166 14.9783 11.2995 15.4613C11.7824 15.9442 12.3977 16.2731 13.0675 16.4063C13.7374 16.5395 14.4317 16.4712 15.0627 16.2098C15.6936 15.9484 16.2329 15.5058 16.6124 14.938C16.9918 14.3701 17.1943 13.7025 17.1943 13.0195C17.1933 12.104 16.8291 11.2263 16.1818 10.579C15.5344 9.93161 14.6567 9.56746 13.7412 9.56641ZM13.7412 15.9414C13.1633 15.9414 12.5984 15.77 12.1179 15.449C11.6374 15.1279 11.2629 14.6716 11.0418 14.1377C10.8206 13.6038 10.7627 13.0163 10.8755 12.4495C10.9882 11.8827 11.2665 11.3621 11.6751 10.9535C12.0838 10.5448 12.6044 10.2665 13.1712 10.1538C13.738 10.0411 14.3255 10.0989 14.8594 10.3201C15.3933 10.5412 15.8496 10.9157 16.1707 11.3962C16.4917 11.8767 16.6631 12.4416 16.6631 13.0195C16.6622 13.7942 16.354 14.5368 15.8063 15.0846C15.2585 15.6324 14.5159 15.9405 13.7412 15.9414Z" fill="#1E81CE"/>
<path d="M15.276 11.9066L13.2099 13.9726L12.271 13.0334C12.2209 12.985 12.1538 12.9582 12.0841 12.9588C12.0145 12.9594 11.9479 12.9874 11.8986 13.0366C11.8494 13.0859 11.8214 13.1525 11.8208 13.2221C11.8202 13.2918 11.847 13.3589 11.8954 13.409L13.0221 14.536C13.072 14.5858 13.1395 14.6138 13.2099 14.6138C13.2804 14.6138 13.3479 14.5858 13.3977 14.536L15.6516 12.2822C15.7 12.2321 15.7267 12.165 15.7261 12.0953C15.7255 12.0257 15.6976 11.9591 15.6483 11.9098C15.5991 11.8606 15.5325 11.8326 15.4628 11.832C15.3932 11.8314 15.3261 11.8582 15.276 11.9066Z" fill="#1E81CE"/>
</g>
<defs>
<clipPath id="clip0_2039_134706">
<rect width="17" height="17" fill="white" transform="translate(0.725586 0.00390625)"/>
</clipPath>
</defs>
</svg>
