<svg width="20" height="16" viewBox="0 0 20 16" fill="none" xmlns="http://www.w3.org/2000/svg">
<path fill-rule="evenodd" clip-rule="evenodd" d="M14.4999 10.5076V13.6851C14.4999 13.9145 14.385 14.1286 14.1939 14.2553C14.1939 14.2553 12.6648 15.2998 9.7115 15.2998C6.75825 15.2998 5.22908 14.2553 5.22908 14.2553C5.03781 14.1286 4.92289 13.9145 4.92289 13.6851V10.5076C4.92289 8.62051 6.45255 7.09085 8.33962 7.09085H11.0832C12.9703 7.09085 14.4999 8.62051 14.4999 10.5076ZM9.7115 0.25C11.2669 0.25 12.5309 1.33161 12.5309 3.07569C12.5309 4.056 12.1013 5.03648 11.4459 5.66512C10.9614 6.13007 10.3577 6.40672 9.7115 6.40672C9.06513 6.40672 8.46161 6.13007 7.97711 5.66512C7.32171 5.03648 6.89205 4.056 6.89205 3.07569C6.89205 1.33161 8.1559 0.25 9.7115 0.25ZM15.5261 1.87472C16.787 1.87472 17.8118 2.75127 17.8118 4.16501C17.8118 4.947 17.4681 5.72882 16.9452 6.23055C16.5492 6.61063 16.0546 6.8344 15.5261 6.8344C14.9977 6.8344 14.5031 6.61063 14.1069 6.23055C13.5842 5.72882 13.2405 4.947 13.2405 4.16501C13.2405 2.75127 14.2652 1.87472 15.5261 1.87472ZM3.89677 1.87472C5.15767 1.87472 6.18231 2.75127 6.18231 4.16501C6.18231 4.947 5.83884 5.72882 5.31593 6.23055C4.91977 6.61063 4.4251 6.8344 3.89677 6.8344C3.36844 6.8344 2.87377 6.61063 2.47761 6.23055C1.9547 5.72882 1.61123 4.947 1.61123 4.16501C1.61123 2.75127 2.63587 1.87472 3.89677 1.87472ZM3.5689 13.926C1.50567 13.8539 0.440471 13.1198 0.440471 13.1198C0.249203 12.9931 0.134277 12.779 0.134277 12.5496V10.8496C0.134277 8.96266 1.6641 7.43284 3.55101 7.43284H4.24253C4.38143 7.43284 4.51835 7.44121 4.65281 7.4573C3.96704 8.28542 3.55478 9.34831 3.55478 10.5076V13.6851C3.55478 13.7662 3.55955 13.8465 3.5689 13.926ZM14.77 7.4573C14.9046 7.44121 15.0416 7.43284 15.1805 7.43284H15.8718C17.7589 7.43284 19.2886 8.96266 19.2886 10.8496V12.5496C19.2886 12.779 19.1736 12.9931 18.9824 13.1198C18.9824 13.1198 17.9172 13.8539 15.8539 13.926C15.8635 13.8465 15.8682 13.7662 15.8682 13.6851V10.5076C15.8682 9.34831 15.456 8.28542 14.77 7.4573Z" fill="#6AA9FF"/>
</svg>
