<svg width="19" height="19" viewBox="0 0 19 19" fill="none" xmlns="http://www.w3.org/2000/svg">
<path d="M9.60165 18.6926C14.4959 18.6926 18.4636 14.725 18.4636 9.83066C18.4636 4.93636 14.4959 0.96875 9.60165 0.96875C4.70736 0.96875 0.739746 4.93636 0.739746 9.83066C0.739746 14.725 4.70736 18.6926 9.60165 18.6926Z" fill="url(#paint0_linear_2039_134781)"/>
<path d="M10.5464 11.8075C10.5464 11.5077 10.4724 11.2726 10.3245 11.1017C10.1764 10.9309 9.91644 10.7696 9.54463 10.618C9.17263 10.4663 8.82938 10.3125 8.51449 10.157C8.19959 10.0014 7.92822 9.82101 7.70057 9.6162C7.47292 9.41139 7.29824 9.17409 7.17693 8.90449C7.05542 8.63528 6.99477 8.30897 6.99477 7.92554C6.99477 7.28434 7.211 6.75597 7.64366 6.34044C8.07612 5.92492 8.65293 5.68309 9.37389 5.61475V4.41406H10.279V5.63779C10.9732 5.74039 11.5187 6.02594 11.9153 6.49444C12.3117 6.96314 12.51 7.55787 12.51 8.27864H10.5862C10.5862 7.88419 10.5102 7.58052 10.3584 7.36803C10.2067 7.15554 9.99029 7.0494 9.70966 7.0494C9.45916 7.0494 9.26479 7.12817 9.12615 7.28552C8.98771 7.44306 8.91839 7.66028 8.91839 7.93716C8.91839 8.21799 8.99815 8.44091 9.15747 8.60594C9.31678 8.77097 9.57299 8.92851 9.92589 9.07838C10.2788 9.22824 10.6118 9.38382 10.9247 9.54511C11.2377 9.70639 11.508 9.88934 11.7359 10.0943C11.9635 10.2992 12.1418 10.5384 12.2708 10.8116C12.3997 11.0847 12.4643 11.413 12.4643 11.796C12.4643 12.4449 12.2585 12.9743 11.8468 13.3841C11.435 13.7939 10.8745 14.033 10.1648 14.1011V15.2453H9.25987V14.0956C8.43256 14.0082 7.79805 13.7248 7.35594 13.2447C6.91383 12.7647 6.69287 12.132 6.69287 11.3466H8.61098C8.61098 11.7793 8.70669 12.1086 8.8983 12.334C9.08992 12.5599 9.36227 12.6728 9.71518 12.6728C9.97316 12.6728 10.1762 12.596 10.3243 12.4422C10.4722 12.2884 10.5464 12.0771 10.5464 11.8075Z" fill="white"/>
<defs>
<linearGradient id="paint0_linear_2039_134781" x1="9.60165" y1="17.6662" x2="9.60165" y2="1.80787" gradientUnits="userSpaceOnUse">
<stop stop-color="#2161AC"/>
<stop offset="1" stop-color="#2B7FE2"/>
</linearGradient>
</defs>
</svg>
