<svg width="19" height="19" viewBox="0 0 19 19" fill="none" xmlns="http://www.w3.org/2000/svg">
<g clip-path="url(#clip0_2039_134735)">
<path d="M16.7861 0.832031H2.66495C1.59557 0.832031 0.725586 1.70201 0.725586 2.77153V16.8925C0.725586 17.9621 1.59557 18.832 2.66508 18.832H16.7861C17.8555 18.832 18.7256 17.9621 18.7256 16.8925V2.77153C18.7256 1.70201 17.8555 0.832031 16.7861 0.832031Z" fill="#6AA9FF"/>
<path d="M16.7862 0.832031H9.72559V18.832H16.7861C17.8556 18.832 18.7256 17.9621 18.7256 16.8925V2.77153C18.7257 1.70201 17.8556 0.832031 16.7862 0.832031Z" fill="#4895FF"/>
<path d="M9.72578 11.5625C8.18907 11.5625 6.93896 12.8126 6.93896 14.3493C6.93896 15.8859 8.18907 17.136 9.72578 17.136C11.2624 17.136 12.5125 15.8859 12.5125 14.3493C12.5125 12.8126 11.2624 11.5625 9.72578 11.5625Z" fill="white"/>
<path d="M13.6792 17.1367C13.3881 17.1367 13.1519 16.9005 13.1519 16.6093V13.7852C13.1519 13.4939 13.3881 13.2578 13.6792 13.2578C13.9705 13.2578 14.2065 13.4939 14.2065 13.7852V16.6093C14.2065 16.9005 13.9705 17.1367 13.6792 17.1367Z" fill="#F4F4F4"/>
<path d="M9.72578 2.52734C8.18907 2.52734 6.93896 3.77759 6.93896 5.31416C6.93896 6.85074 8.18907 8.10085 9.72578 8.10085C11.2624 8.10085 12.5125 6.85074 12.5125 5.31416C12.5125 3.77759 11.2624 2.52734 9.72578 2.52734Z" fill="white"/>
<path d="M5.77148 6.4062C5.48035 6.4062 5.24414 6.17014 5.24414 5.87886V3.05469C5.24414 2.76355 5.48035 2.52734 5.77148 2.52734C6.06276 2.52734 6.29883 2.76355 6.29883 3.05469V5.87886C6.29883 6.17014 6.06276 6.4062 5.77148 6.4062Z" fill="white"/>
<path d="M14.2442 7.04688C12.7076 7.04688 11.4575 8.29712 11.4575 9.83369C11.4575 11.3703 12.7076 12.6204 14.2442 12.6204C15.7808 12.6204 17.0309 11.3703 17.0309 9.83369C17.0309 8.29712 15.7808 7.04688 14.2442 7.04688Z" fill="#F4F4F4"/>
<path d="M16.5039 6.40625H13.6797C13.3884 6.40625 13.1523 6.17018 13.1523 5.87891C13.1523 5.58777 13.3884 5.35156 13.6797 5.35156H16.5039C16.7951 5.35156 17.0312 5.58777 17.0312 5.87891C17.0312 6.17018 16.7951 6.40625 16.5039 6.40625Z" fill="#F4F4F4"/>
<path d="M5.20709 7.04688C3.67052 7.04688 2.42041 8.29712 2.42041 9.83369C2.42041 11.3703 3.67052 12.6204 5.20709 12.6204C6.74367 12.6204 7.99377 11.3703 7.99377 9.83369C7.99377 8.29712 6.74367 7.04688 5.20709 7.04688Z" fill="white"/>
<path d="M5.77193 14.3125H2.94775C2.65648 14.3125 2.42041 14.0763 2.42041 13.7852C2.42041 13.4939 2.65648 13.2578 2.94775 13.2578H5.77193C6.0632 13.2578 6.29927 13.4939 6.29927 13.7852C6.29927 14.0763 6.0632 14.3125 5.77193 14.3125Z" fill="white"/>
<path d="M9.72572 11.5664L9.72559 17.1399H9.72572C11.2623 17.1399 12.5124 15.8897 12.5124 14.3531C12.5124 12.8165 11.2623 11.5664 9.72572 11.5664Z" fill="#F4F4F4"/>
<path d="M12.5124 5.31416C12.5124 3.77759 11.2623 2.52734 9.72572 2.52734H9.72559V8.10071H9.72572C11.2623 8.10071 12.5124 6.85074 12.5124 5.31416Z" fill="#F4F4F4"/>
</g>
<defs>
<clipPath id="clip0_2039_134735">
<rect width="18" height="18" fill="white" transform="translate(0.725586 0.832031)"/>
</clipPath>
</defs>
</svg>
