<svg width="19" height="19" viewBox="0 0 19 19" fill="none" xmlns="http://www.w3.org/2000/svg">
<g clip-path="url(#clip0_5759_50427)">
<path d="M9.60156 18.5039C14.5721 18.5039 18.6016 14.4745 18.6016 9.50391C18.6016 4.53334 14.5721 0.503906 9.60156 0.503906C4.631 0.503906 0.601562 4.53334 0.601562 9.50391C0.601562 14.4745 4.631 18.5039 9.60156 18.5039Z" fill="#6AA9FF"/>
<path d="M18.6016 9.50391C18.6016 4.56059 14.5449 0.503906 9.60156 0.503906V18.5039C14.5449 18.5039 18.6016 14.4472 18.6016 9.50391Z" fill="#4895FF"/>
<path d="M9.60156 17.4492C13.9896 17.4492 17.5469 13.892 17.5469 9.50391C17.5469 5.11583 13.9896 1.55859 9.60156 1.55859C5.21349 1.55859 1.65625 5.11583 1.65625 9.50391C1.65625 13.892 5.21349 17.4492 9.60156 17.4492Z" fill="#EDF5FF"/>
<path d="M17.5469 9.50391C17.5469 5.142 13.9635 1.55859 9.60156 1.55859V17.4492C13.9635 17.4492 17.5469 13.8658 17.5469 9.50391Z" fill="#D5E8FE"/>
<path d="M5.12695 14.5078C5.4182 14.5078 5.6543 14.2717 5.6543 13.9805C5.6543 13.6892 5.4182 13.4531 5.12695 13.4531C4.83571 13.4531 4.59961 13.6892 4.59961 13.9805C4.59961 14.2717 4.83571 14.5078 5.12695 14.5078Z" fill="#47568C"/>
<path d="M14.0762 5.55469C14.3674 5.55469 14.6035 5.31859 14.6035 5.02734C14.6035 4.7361 14.3674 4.5 14.0762 4.5C13.7849 4.5 13.5488 4.7361 13.5488 5.02734C13.5488 5.31859 13.7849 5.55469 14.0762 5.55469Z" fill="#29376D"/>
<path d="M5.12695 5.55469C5.4182 5.55469 5.6543 5.31859 5.6543 5.02734C5.6543 4.7361 5.4182 4.5 5.12695 4.5C4.83571 4.5 4.59961 4.7361 4.59961 5.02734C4.59961 5.31859 4.83571 5.55469 5.12695 5.55469Z" fill="#47568C"/>
<path d="M14.0762 14.5078C14.3674 14.5078 14.6035 14.2717 14.6035 13.9805C14.6035 13.6892 14.3674 13.4531 14.0762 13.4531C13.7849 13.4531 13.5488 13.6892 13.5488 13.9805C13.5488 14.2717 13.7849 14.5078 14.0762 14.5078Z" fill="#29376D"/>
<path d="M4.32812 10.0312H3.27344C2.98196 10.0312 2.74609 9.79539 2.74609 9.50391C2.74609 9.21243 2.98196 8.97656 3.27344 8.97656H4.32812C4.61961 8.97656 4.85547 9.21243 4.85547 9.50391C4.85547 9.79539 4.61961 10.0312 4.32812 10.0312Z" fill="#47568C"/>
<path d="M15.9297 10.0312H14.875C14.5835 10.0312 14.3477 9.79539 14.3477 9.50391C14.3477 9.21243 14.5835 8.97656 14.875 8.97656H15.9297C16.2212 8.97656 16.457 9.21243 16.457 9.50391C16.457 9.79539 16.2212 10.0312 15.9297 10.0312Z" fill="#29376D"/>
<path d="M9.07422 3.17578V4.23047C9.07422 4.52195 9.31008 4.75781 9.60156 4.75781V2.64844C9.31008 2.64844 9.07422 2.8843 9.07422 3.17578Z" fill="#47568C"/>
<path d="M10.1289 4.23047V3.17578C10.1289 2.8843 9.89304 2.64844 9.60156 2.64844V4.75781C9.89304 4.75781 10.1289 4.52195 10.1289 4.23047Z" fill="#FF7B4A"/>
<path d="M9.60156 14.25C9.31008 14.25 9.07422 14.4859 9.07422 14.7773V15.832C9.07422 16.1235 9.31008 16.3594 9.60156 16.3594C9.89304 16.3594 10.1289 16.1235 10.1289 15.832V14.7773C10.1289 14.4859 9.89304 14.25 9.60156 14.25Z" fill="#47568C"/>
<path d="M13.1385 12.2951L10.1289 9.28555V6.33984C10.1289 6.04836 9.89304 5.8125 9.60156 5.8125C9.31008 5.8125 9.07422 6.04836 9.07422 6.33984V9.50391C9.07422 9.64397 9.12984 9.77788 9.22873 9.87674L9.60156 10.2496L12.3928 13.0408C12.5988 13.2468 12.9325 13.2468 13.1385 13.0408C13.3445 12.8349 13.3445 12.5011 13.1385 12.2951Z" fill="#47568C"/>
<path d="M10.1289 4.23047V3.17578C10.1289 2.8843 9.89304 2.64844 9.60156 2.64844V4.75781C9.89304 4.75781 10.1289 4.52195 10.1289 4.23047Z" fill="#29376D"/>
<path d="M10.1289 15.832V14.7773C10.1289 14.4859 9.89304 14.25 9.60156 14.25V16.3594C9.89304 16.3594 10.1289 16.1235 10.1289 15.832Z" fill="#29376D"/>
<path d="M13.1385 13.0408C13.3444 12.8348 13.3444 12.5011 13.1385 12.2951L10.1289 9.28555V6.33984C10.1289 6.04836 9.89304 5.8125 9.60156 5.8125V10.2496L12.3928 13.0408C12.5988 13.2468 12.9325 13.2468 13.1385 13.0408Z" fill="#29376D"/>
</g>
<defs>
<clipPath id="clip0_5759_50427">
<rect width="18" height="18" fill="white" transform="translate(0.601562 0.503906)"/>
</clipPath>
</defs>
</svg>
