<svg width="20" height="20" viewBox="0 0 20 20" fill="none" xmlns="http://www.w3.org/2000/svg">
<g clip-path="url(#clip0_2287_152527)">
<path d="M0.417108 19.9824L15.2753 19.9824C17.7196 19.9824 19.7012 18.0009 19.7012 15.5566L19.7012 0.698356C19.7012 0.523792 19.5596 0.382226 19.385 0.382226H18.4367H13.6947C13.5201 0.382226 13.3785 0.523792 13.3785 0.698356V1.33062C13.3785 1.50522 13.5201 1.64674 13.6947 1.64674H13.3785C13.0294 1.64674 12.7463 1.92984 12.7463 2.279L12.7463 6.70486C12.7463 7.05406 13.0294 7.33712 13.3785 7.33712C13.0294 7.33712 12.7463 7.62021 12.7463 7.96938L12.7463 12.3952C12.7463 12.7444 13.0294 13.0275 13.3785 13.0275C13.0294 13.0275 12.7463 13.3106 12.7463 13.6598C12.7463 13.3106 12.4632 13.0275 12.114 13.0275L7.68817 13.0275C7.339 13.0275 7.05591 13.3106 7.05591 13.6598C7.05591 13.3106 6.77281 13.0275 6.42365 13.0275L1.99779 13.0275C1.64863 13.0275 1.36553 13.3106 1.36553 13.6598H1.36546L1.36553 13.9759C1.36553 13.8013 1.22401 13.6598 1.04941 13.6598H0.417146C0.242543 13.6598 0.101016 13.8013 0.101016 13.9759V19.6663C0.100978 19.8409 0.242505 19.9824 0.417108 19.9824Z" fill="#CD916E"/>
<path d="M14.9591 16.8223H12.7462V13.6609H16.5398V15.2416C16.5398 16.1146 15.8321 16.8223 14.9591 16.8223Z" fill="#E3A578"/>
<path d="M12.1139 13.0287L7.68804 13.0287C7.33883 13.0287 7.05578 13.3118 7.05578 13.661L7.05578 16.8223H11.1655C11.6893 16.8223 12.1139 16.3976 12.1139 15.8739L12.1139 13.0287Z" fill="#E3A578"/>
<path d="M12.1139 17.4556H7.68804C7.33883 17.4556 7.05578 17.7387 7.05578 18.0879L11.4816 18.0879C11.8308 18.0879 12.1139 17.8048 12.1139 17.4556Z" fill="#E3A578"/>
<path d="M12.7462 2.27978L12.7462 6.70563C12.7462 7.05484 13.0293 7.33789 13.3785 7.33789L16.5398 7.33789V3.22817C16.5398 2.7044 16.1152 2.27978 15.5914 2.27978L12.7462 2.27978Z" fill="#E3A578"/>
<path d="M17.1721 2.27978V6.70563C17.1721 7.05484 17.4552 7.33789 17.8043 7.33789V2.91204C17.8044 2.56287 17.5213 2.27978 17.1721 2.27978Z" fill="#E3A578"/>
<path d="M12.7462 7.97122L12.7462 12.397C12.7462 12.7462 13.0293 13.0293 13.3785 13.0293H16.5398V8.91957C16.5398 8.3958 16.1152 7.97118 15.5914 7.97118L12.7462 7.97122Z" fill="#E3A578"/>
<path d="M17.1721 7.97122V12.397C17.1721 12.7462 17.4552 13.0293 17.8043 13.0293V8.60348C17.8044 8.25428 17.5213 7.97122 17.1721 7.97122Z" fill="#E3A578"/>
<path d="M6.42346 13.0287L1.99761 13.0287C1.6484 13.0287 1.36535 13.3118 1.36535 13.661L1.36535 16.8223H5.47507C5.99884 16.8223 6.42346 16.3976 6.42346 15.8739L6.42346 13.0287Z" fill="#E3A578"/>
<path d="M6.42346 17.4556H1.99761C1.6484 17.4556 1.36535 17.7387 1.36535 18.0879L5.7912 18.0879C6.14041 18.0879 6.42346 17.8048 6.42346 17.4556Z" fill="#E3A578"/>
<path d="M15.2751 18.7193L0.100789 18.7193V19.3516L15.2751 19.3516C17.3669 19.3516 19.0687 17.6498 19.0687 15.558L19.0687 0.383626H18.4365L18.4365 15.558C18.4365 17.3039 17.0211 18.7193 15.2751 18.7193Z" fill="#B67F5F"/>
<path d="M12.746 18.0859H15.2751C16.6719 18.0859 17.8042 16.9536 17.8042 15.5569V14.2923C17.8042 13.9431 17.5211 13.6601 17.1719 13.6601V15.5569C17.1719 16.6044 16.3227 17.4536 15.2752 17.4536H13.3784C13.0291 17.4536 12.746 17.7367 12.746 18.0859Z" fill="#E3A578"/>
<path d="M14.9593 2.91266V2.2804C14.9593 1.9312 15.2424 1.64814 15.5916 1.64814L16.54 1.64814C16.8892 1.64814 17.1722 1.93124 17.1722 2.2804V2.91266C17.1722 3.26187 16.8891 3.54492 16.54 3.54492L15.5916 3.54492C15.2424 3.54492 14.9593 3.26183 14.9593 2.91266Z" fill="#CD916E"/>
<path d="M16.54 3.22879V3.54492C16.8891 3.54492 17.1722 3.26187 17.1722 2.91266V2.2804C17.1722 1.9312 16.8891 1.64814 16.54 1.64814L15.5916 1.64814C15.2424 1.64814 14.9593 1.93124 14.9593 2.2804L15.5916 2.2804C16.1154 2.28037 16.54 2.70498 16.54 3.22879Z" fill="#B67F5F"/>
<path d="M1.99793 15.2402H2.63019C2.9794 15.2402 3.26245 15.5233 3.26245 15.8725L3.26245 16.8209C3.26245 17.1701 2.97936 17.4531 2.63019 17.4531H1.99793C1.64873 17.4531 1.36567 17.17 1.36567 16.8209L1.36567 15.8725C1.36567 15.5233 1.64877 15.2402 1.99793 15.2402Z" fill="#CD916E"/>
<path d="M1.6818 16.8209H1.36567C1.36567 17.17 1.64873 17.4531 1.99793 17.4531H2.63019C2.9794 17.4531 3.26245 17.17 3.26245 16.8209L3.26245 15.8725C3.26245 15.5233 2.97936 15.2402 2.63019 15.2402L2.63019 15.8725C2.63023 16.3963 2.20561 16.8209 1.6818 16.8209Z" fill="#B67F5F"/>
<path d="M14.7435 16.7467L15.1906 17.1937C15.4375 17.4406 15.8378 17.4406 16.0847 17.1937L16.7554 16.5231C17.0023 16.2762 17.0023 15.8759 16.7554 15.629L16.3083 15.1819C16.0614 14.9349 15.661 14.9349 15.4141 15.1819L14.7435 15.8525C14.4966 16.0994 14.4966 16.4997 14.7435 16.7467Z" fill="#CD916E"/>
<path d="M15.6377 15.4054L15.4141 15.1819C15.661 14.935 16.0614 14.935 16.3083 15.1819L16.7554 15.629C17.0023 15.8759 17.0023 16.2762 16.7554 16.5231L16.0847 17.1937C15.8378 17.4406 15.4375 17.4406 15.1906 17.1937L15.6377 16.7466C16.008 16.3763 16.008 15.7758 15.6377 15.4054Z" fill="#B67F5F"/>
<path d="M13.3785 1.01618L17.1721 1.01618C17.5213 1.01618 17.8043 1.29927 17.8043 1.64844L13.6946 1.64844C13.52 1.64844 13.3785 1.50691 13.3785 1.33231V1.01618Z" fill="#E3A578"/>
<path d="M0.733154 13.662L0.733154 17.4556C0.733154 17.8048 0.450062 18.0879 0.100895 18.0879L0.100895 13.9782C0.100895 13.8036 0.242422 13.662 0.417025 13.662H0.733154Z" fill="#E3A578"/>
<rect x="1.73425" y="11" width="8.16675" height="8.16675" rx="0.816675" transform="rotate(-90 1.73425 11)" fill="#B27A49"/>
<rect x="3.25696" y="9.39526" width="4.9577" height="5.11783" rx="0.65334" transform="rotate(-90 3.25696 9.39526)" fill="#FFDD4E" stroke="white" stroke-width="0.32667"/>
</g>
<defs>
<clipPath id="clip0_2287_152527">
<rect width="19.6002" height="19.6002" fill="white" transform="matrix(-1 0 0 -1 19.7012 19.9824)"/>
</clipPath>
</defs>
</svg>
