<svg width="20" height="20" viewBox="0 0 20 20" fill="none" xmlns="http://www.w3.org/2000/svg">
<g clip-path="url(#clip0_2287_152579)">
<path d="M0 0.698357L0 15.5566C0 18.0009 1.98153 19.9824 4.42585 19.9824L19.2841 19.9824C19.4586 19.9824 19.6002 19.8409 19.6002 19.6663V18.7179V13.9759C19.6002 13.8013 19.4586 13.6598 19.2841 13.6598H18.6518C18.4772 13.6598 18.3357 13.8013 18.3357 13.9759V13.6598C18.3357 13.3106 18.0526 13.0275 17.7034 13.0275L13.2776 13.0275C12.9284 13.0275 12.6453 13.3106 12.6453 13.6598C12.6453 13.3106 12.3622 13.0275 12.013 13.0275L7.58719 13.0275C7.23799 13.0275 6.95493 13.3106 6.95493 13.6598C6.95493 13.3106 6.67184 13.0275 6.32267 13.0275C6.67184 13.0275 6.95493 12.7444 6.95493 12.3953L6.95493 7.96942C6.95493 7.62025 6.67184 7.33716 6.32267 7.33716C6.67184 7.33716 6.95493 7.05406 6.95493 6.7049L6.95493 2.27904C6.95493 1.92988 6.67184 1.64678 6.32267 1.64678V1.64671L6.00654 1.64678C6.18111 1.64678 6.32267 1.50526 6.32267 1.33065L6.32267 0.698395C6.32267 0.523792 6.18111 0.382265 6.00654 0.382265H0.31613C0.141527 0.382227 0 0.523754 0 0.698357Z" fill="#CD916E"/>
<path d="M3.1615 15.2416V13.0287H6.32283V16.8223H4.74219C3.86917 16.8223 3.1615 16.1146 3.1615 15.2416Z" fill="#E3A578"/>
<path d="M6.95506 12.3984L6.95506 7.97258C6.95506 7.62338 6.67196 7.34032 6.3228 7.34032L3.1615 7.34032L3.1615 11.45C3.1615 11.9738 3.58612 12.3984 4.10989 12.3984H6.95506Z" fill="#E3A578"/>
<path d="M2.52923 12.3984L2.52923 7.97258C2.52923 7.62338 2.24614 7.34032 1.89697 7.34032L1.89697 11.7662C1.89693 12.1154 2.18003 12.3984 2.52923 12.3984Z" fill="#E3A578"/>
<path d="M17.7035 13.0287H13.2776C12.9284 13.0287 12.6454 13.3118 12.6454 13.661V16.8223H16.7551C17.2789 16.8223 17.7035 16.3976 17.7035 15.8739V13.0287Z" fill="#E3A578"/>
<path d="M17.7035 17.4556H13.2776C12.9284 17.4556 12.6454 17.7387 12.6454 18.0879H17.0712C17.4204 18.0879 17.7035 17.8048 17.7035 17.4556Z" fill="#E3A578"/>
<path d="M12.013 13.0287H7.58722C7.23801 13.0287 6.95496 13.3118 6.95496 13.661L6.95496 16.8223H11.0647C11.5884 16.8223 12.0131 16.3976 12.0131 15.8739L12.013 13.0287Z" fill="#E3A578"/>
<path d="M12.013 17.4556H7.58722C7.23801 17.4556 6.95496 17.7387 6.95496 18.0879H11.3808C11.73 18.0879 12.013 17.8048 12.013 17.4556Z" fill="#E3A578"/>
<path d="M6.95506 6.70703L6.95506 2.28118C6.95506 1.93197 6.67196 1.64892 6.3228 1.64892L3.1615 1.64892L3.1615 5.75864C3.1615 6.28241 3.58612 6.70703 4.10989 6.70703L6.95506 6.70703Z" fill="#E3A578"/>
<path d="M2.52923 6.70703L2.52923 2.28118C2.52923 1.93197 2.24614 1.64892 1.89697 1.64892L1.89697 6.07477C1.89693 6.42398 2.18003 6.70703 2.52923 6.70703Z" fill="#E3A578"/>
<path d="M1.26471 15.558L1.26471 0.383625H0.632446L0.632446 15.558C0.632446 17.6498 2.33426 19.3516 4.42604 19.3516L19.6004 19.3516V18.7193L4.42604 18.7193C2.68009 18.7193 1.26471 17.3039 1.26471 15.558Z" fill="#B67F5F"/>
<path d="M1.89697 13.0278L1.89697 15.5569C1.89697 16.9536 3.02927 18.0859 4.42605 18.0859H5.69057C6.03977 18.0859 6.32283 17.8028 6.32283 17.4537H4.42605C3.37847 17.4537 2.52927 16.6044 2.52927 15.5569L2.52927 13.6601C2.52927 13.3108 2.24618 13.0278 1.89697 13.0278Z" fill="#E3A578"/>
<path d="M17.0711 15.2402H17.7034C18.0526 15.2402 18.3356 15.5233 18.3356 15.8725V16.8209C18.3356 17.1701 18.0525 17.4531 17.7034 17.4531H17.0711C16.7219 17.4531 16.4388 17.17 16.4388 16.8209V15.8725C16.4388 15.5233 16.7219 15.2402 17.0711 15.2402Z" fill="#CD916E"/>
<path d="M16.755 16.8209H16.4388C16.4388 17.17 16.7219 17.4531 17.0711 17.4531H17.7034C18.0526 17.4531 18.3356 17.17 18.3356 16.8209V15.8725C18.3356 15.5233 18.0525 15.2402 17.7034 15.2402V15.8725C17.7034 16.3963 17.2788 16.8209 16.755 16.8209Z" fill="#B67F5F"/>
<path d="M4.74196 2.2804V2.91266C4.74196 3.26187 4.45887 3.54492 4.1097 3.54492L3.16131 3.54492C2.81211 3.54492 2.52905 3.26183 2.52905 2.91266V2.2804C2.52905 1.9312 2.81215 1.64814 3.16131 1.64814L4.1097 1.64814C4.45887 1.64814 4.74196 1.93124 4.74196 2.2804Z" fill="#CD916E"/>
<path d="M3.16131 1.96427L3.16131 1.64814C2.81215 1.64814 2.52905 1.9312 2.52905 2.2804V2.91266C2.52905 3.26187 2.81215 3.54492 3.16131 3.54492L4.1097 3.54492C4.45887 3.54492 4.74196 3.26183 4.74196 2.91266L4.1097 2.91266C3.58589 2.9127 3.16131 2.48808 3.16131 1.96427Z" fill="#B67F5F"/>
<path d="M3.23466 15.0256L2.7876 15.4727C2.54069 15.7196 2.54069 16.1199 2.7876 16.3669L3.45822 17.0375C3.70514 17.2844 4.10545 17.2844 4.35237 17.0375L4.79946 16.5904C5.04637 16.3435 5.04637 15.9431 4.79946 15.6962L4.12884 15.0256C3.88192 14.7787 3.48157 14.7787 3.23466 15.0256Z" fill="#CD916E"/>
<path d="M4.57589 15.9198L4.79942 15.6962C5.04634 15.9431 5.04634 16.3435 4.79942 16.5904L4.35233 17.0375C4.10541 17.2844 3.7051 17.2844 3.45818 17.0375L2.7876 16.3668C2.54069 16.1199 2.54069 15.7196 2.7876 15.4727L3.2347 15.9198C3.60503 16.2901 4.20556 16.2901 4.57589 15.9198Z" fill="#B67F5F"/>
<path d="M18.968 13.662V17.4556C18.968 17.8048 18.6849 18.0879 18.3357 18.0879V13.9782C18.3357 13.8036 18.4772 13.662 18.6518 13.662H18.968Z" fill="#E3A578"/>
<path d="M6.32283 1.01758L2.52923 1.01758C2.18003 1.01758 1.89697 0.734486 1.89697 0.385319L6.0067 0.385319C6.1813 0.385319 6.32283 0.526846 6.32283 0.701449V1.01758Z" fill="#E3A578"/>
</g>
<rect x="8.9834" y="11" width="8.16675" height="8.16675" rx="0.816675" transform="rotate(-90 8.9834 11)" fill="#B27A49"/>
<rect x="10.5061" y="9.39526" width="4.9577" height="5.11783" rx="0.65334" transform="rotate(-90 10.5061 9.39526)" fill="#FFDD4E" stroke="white" stroke-width="0.32667"/>
<defs>
<clipPath id="clip0_2287_152579">
<rect width="19.6002" height="19.6002" fill="white" transform="matrix(0 -1 1 0 0 19.9824)"/>
</clipPath>
</defs>
</svg>
