<svg width="20" height="20" viewBox="0 0 20 20" fill="none" xmlns="http://www.w3.org/2000/svg">
<g clip-path="url(#clip0_2287_152503)">
<path d="M19.2841 0H4.42585C1.98153 0 0 1.98153 0 4.42585V19.2841C0 19.4586 0.141527 19.6002 0.31613 19.6002H1.26452H6.0065C6.18111 19.6002 6.32263 19.4586 6.32263 19.2841V18.6518C6.32263 18.4772 6.18111 18.3357 6.0065 18.3357H6.32263C6.6718 18.3357 6.95489 18.0526 6.95489 17.7034V13.2776C6.95489 12.9284 6.6718 12.6453 6.32263 12.6453C6.6718 12.6453 6.95489 12.3622 6.95489 12.013V7.58719C6.95489 7.23799 6.6718 6.95493 6.32263 6.95493C6.6718 6.95493 6.95489 6.67184 6.95489 6.32267C6.95489 6.67184 7.23798 6.95493 7.58715 6.95493H12.013C12.3622 6.95493 12.6453 6.67184 12.6453 6.32267C12.6453 6.67184 12.9284 6.95493 13.2775 6.95493H17.7034C18.0525 6.95493 18.3356 6.67184 18.3356 6.32267H18.3357L18.3356 6.00654C18.3356 6.18111 18.4772 6.32267 18.6518 6.32267H19.284C19.4586 6.32267 19.6002 6.18111 19.6002 6.00654V0.31613C19.6002 0.141527 19.4587 0 19.2841 0Z" fill="#CD916E"/>
<path d="M4.74215 3.16016H6.95506V6.32149H3.1615V4.74084C3.1615 3.86783 3.86917 3.16016 4.74215 3.16016Z" fill="#E3A578"/>
<path d="M7.5874 6.95371H12.0133C12.3625 6.95371 12.6455 6.67062 12.6455 6.32145V3.16016H8.53579C8.01202 3.16016 7.5874 3.58478 7.5874 4.10855V6.95371Z" fill="#E3A578"/>
<path d="M7.5874 2.52679H12.0133C12.3625 2.52679 12.6455 2.2437 12.6455 1.89453H8.21966C7.87046 1.89449 7.5874 2.17759 7.5874 2.52679Z" fill="#E3A578"/>
<path d="M6.95506 17.7026V13.2768C6.95506 12.9276 6.67196 12.6445 6.3228 12.6445H3.1615V16.7543C3.1615 17.278 3.58612 17.7026 4.10989 17.7026H6.95506Z" fill="#E3A578"/>
<path d="M2.52923 17.7026V13.2768C2.52923 12.9276 2.24614 12.6445 1.89697 12.6445V17.0704C1.89693 17.4196 2.18003 17.7026 2.52923 17.7026Z" fill="#E3A578"/>
<path d="M6.95506 12.0112V7.58538C6.95506 7.23618 6.67196 6.95312 6.3228 6.95312H3.1615V11.0628C3.1615 11.5866 3.58612 12.0112 4.10989 12.0112L6.95506 12.0112Z" fill="#E3A578"/>
<path d="M2.52923 12.0112V7.58538C2.52923 7.23618 2.24614 6.95312 1.89697 6.95312V11.3789C1.89693 11.7281 2.18003 12.0112 2.52923 12.0112Z" fill="#E3A578"/>
<path d="M13.2778 6.95371H17.7037C18.0529 6.95371 18.3359 6.67062 18.3359 6.32145V3.16016H14.2262C13.7025 3.16016 13.2778 3.58478 13.2778 4.10855V6.95371Z" fill="#E3A578"/>
<path d="M13.2778 2.52679H17.7037C18.0529 2.52679 18.3359 2.2437 18.3359 1.89453H13.9101C13.5609 1.89449 13.2778 2.17759 13.2778 2.52679Z" fill="#E3A578"/>
<path d="M4.42592 1.26312H19.6003V0.630859H4.42592C2.33413 0.630859 0.632324 2.33267 0.632324 4.42445V19.5988H1.26458V4.42445C1.26458 2.67851 2.67997 1.26312 4.42592 1.26312Z" fill="#B67F5F"/>
<path d="M6.95512 1.89648H4.42605C3.02931 1.89648 1.89697 3.02878 1.89697 4.42556V5.69008C1.89697 6.03928 2.18007 6.32234 2.52923 6.32234V4.42556C2.52923 3.37798 3.37847 2.52878 4.42601 2.52878H6.32279C6.67207 2.52878 6.95512 2.24569 6.95512 1.89648Z" fill="#E3A578"/>
<path d="M4.74172 17.0698V17.702C4.74172 18.0512 4.45862 18.3343 4.10946 18.3343H3.16107C2.81186 18.3343 2.52881 18.0512 2.52881 17.702V17.0698C2.52881 16.7206 2.8119 16.4375 3.16107 16.4375H4.10946C4.45862 16.4375 4.74172 16.7206 4.74172 17.0698Z" fill="#CD916E"/>
<path d="M3.16107 16.7536V16.4375C2.8119 16.4375 2.52881 16.7206 2.52881 17.0698V17.702C2.52881 18.0512 2.8119 18.3343 3.16107 18.3343H4.10946C4.45862 18.3343 4.74172 18.0512 4.74172 17.702H4.10946C3.58565 17.7021 3.16107 17.2774 3.16107 16.7536Z" fill="#B67F5F"/>
<path d="M17.7035 4.7422H17.0712C16.722 4.7422 16.439 4.45911 16.439 4.10995V3.16156C16.439 2.81235 16.7221 2.5293 17.0712 2.5293H17.7035C18.0527 2.5293 18.3357 2.81239 18.3357 3.16156V4.10995C18.3357 4.45911 18.0526 4.7422 17.7035 4.7422Z" fill="#CD916E"/>
<path d="M18.0196 3.16156H18.3357C18.3357 2.81239 18.0527 2.5293 17.7035 2.5293H17.0712C16.722 2.5293 16.439 2.81239 16.439 3.16156V4.10995C16.439 4.45911 16.7221 4.7422 17.0712 4.7422V4.10995C17.0712 3.58614 17.4958 3.16156 18.0196 3.16156Z" fill="#B67F5F"/>
<path d="M4.95778 3.2338L4.51069 2.78675C4.26377 2.53983 3.86346 2.53983 3.61655 2.78675L2.94593 3.45737C2.69901 3.70428 2.69901 4.1046 2.94593 4.35151L3.39302 4.7986C3.63994 5.04552 4.04025 5.04552 4.28717 4.7986L4.95778 4.12799C5.2047 3.88107 5.2047 3.48072 4.95778 3.2338Z" fill="#CD916E"/>
<path d="M4.06364 4.57504L4.28717 4.79856C4.04025 5.04548 3.63994 5.04548 3.39302 4.79856L2.94593 4.35147C2.69901 4.10456 2.69901 3.70425 2.94593 3.45733L3.61659 2.78675C3.8635 2.53983 4.26381 2.53983 4.51073 2.78675L4.06364 3.23384C3.6933 3.60418 3.6933 4.2047 4.06364 4.57504Z" fill="#B67F5F"/>
<path d="M6.32283 18.9662H2.52923C2.18003 18.9662 1.89697 18.6832 1.89697 18.334H6.0067C6.1813 18.334 6.32283 18.4755 6.32283 18.6501V18.9662Z" fill="#E3A578"/>
<path d="M18.9681 6.32039V2.52679C18.9681 2.17759 19.2512 1.89453 19.6004 1.89453V6.00426C19.6004 6.17886 19.4589 6.32039 19.2843 6.32039H18.9681Z" fill="#E3A578"/>
<rect x="9.98438" y="18.1484" width="8.16675" height="8.16675" rx="0.816675" transform="rotate(-90 9.98438 18.1484)" fill="#B27A49"/>
<rect x="11.5071" y="16.5437" width="4.9577" height="5.11783" rx="0.65334" transform="rotate(-90 11.5071 16.5437)" fill="#FFDD4E" stroke="white" stroke-width="0.32667"/>
</g>
<defs>
<clipPath id="clip0_2287_152503">
<rect width="19.6002" height="19.6002" fill="white"/>
</clipPath>
</defs>
</svg>
