<svg width="20" height="20" viewBox="0 0 20 20" fill="none" xmlns="http://www.w3.org/2000/svg">
<g clip-path="url(#clip0_2287_152553)">
<path d="M19.7012 19.2841V4.42585C19.7012 1.98153 17.7196 0 15.2753 0L0.417105 0C0.24254 0 0.100975 0.141527 0.100975 0.31613V1.26452V6.0065C0.100975 6.18111 0.24254 6.32263 0.417105 6.32263H1.04936C1.22397 6.32263 1.36549 6.18111 1.36549 6.0065V6.32263C1.36549 6.6718 1.64859 6.95489 1.99775 6.95489H6.42361C6.77281 6.95489 7.05587 6.6718 7.05587 6.32263C7.05587 6.6718 7.33896 6.95489 7.68813 6.95489H12.114C12.4632 6.95489 12.7462 6.6718 12.7462 6.32263C12.7462 6.6718 13.0293 6.95489 13.3785 6.95489C13.0293 6.95489 12.7462 7.23798 12.7462 7.58715V12.013C12.7462 12.3622 13.0293 12.6453 13.3785 12.6453C13.0293 12.6453 12.7462 12.9284 12.7462 13.2775V17.7034C12.7462 18.0525 13.0293 18.3356 13.3785 18.3356V18.3357L13.6946 18.3356C13.5201 18.3356 13.3785 18.4772 13.3785 18.6518V19.284C13.3785 19.4586 13.5201 19.6002 13.6946 19.6002H19.385C19.5596 19.6002 19.7012 19.4587 19.7012 19.2841Z" fill="#CD916E"/>
<path d="M16.5398 4.74081V6.95371H13.3785V3.16016H14.9591C15.8321 3.16016 16.5398 3.86783 16.5398 4.74081Z" fill="#E3A578"/>
<path d="M12.7462 7.58398V12.0098C12.7462 12.359 13.0293 12.6421 13.3785 12.6421H16.5398V8.53237C16.5398 8.0086 16.1152 7.58398 15.5914 7.58398H12.7462Z" fill="#E3A578"/>
<path d="M17.1721 7.58398V12.0098C17.1721 12.359 17.4552 12.6421 17.8043 12.6421V8.21624C17.8044 7.86704 17.5213 7.58398 17.1721 7.58398Z" fill="#E3A578"/>
<path d="M1.99779 6.95371H6.42365C6.77285 6.95371 7.05591 6.67062 7.05591 6.32145V3.16016L2.94618 3.16016C2.42241 3.16016 1.99779 3.58478 1.99779 4.10855V6.95371Z" fill="#E3A578"/>
<path d="M1.99779 2.52679L6.42365 2.52679C6.77285 2.52679 7.05591 2.2437 7.05591 1.89453L2.63005 1.89453C2.28089 1.89449 1.99779 2.17759 1.99779 2.52679Z" fill="#E3A578"/>
<path d="M7.68826 6.95371H12.1141C12.4633 6.95371 12.7463 6.67062 12.7463 6.32145V3.16016L8.63661 3.16016C8.11284 3.16016 7.68822 3.58478 7.68822 4.10855L7.68826 6.95371Z" fill="#E3A578"/>
<path d="M7.68826 2.52679L12.1141 2.52679C12.4633 2.52679 12.7463 2.2437 12.7463 1.89453L8.32052 1.89453C7.97132 1.89449 7.68826 2.17759 7.68826 2.52679Z" fill="#E3A578"/>
<path d="M12.7462 13.2754V17.7012C12.7462 18.0505 13.0293 18.3335 13.3785 18.3335H16.5398V14.2238C16.5398 13.7 16.1152 13.2754 15.5914 13.2754H12.7462Z" fill="#E3A578"/>
<path d="M17.1721 13.2754V17.7012C17.1721 18.0505 17.4552 18.3335 17.8043 18.3335V13.9077C17.8044 13.5584 17.5213 13.2754 17.1721 13.2754Z" fill="#E3A578"/>
<path d="M18.4365 4.42445V19.5988H19.0687V4.42445C19.0687 2.33267 17.3669 0.630859 15.2751 0.630859L0.100788 0.630859V1.26312L15.2751 1.26312C17.0211 1.26312 18.4365 2.67851 18.4365 4.42445Z" fill="#B67F5F"/>
<path d="M17.8042 6.95464V4.42556C17.8042 3.02882 16.6719 1.89648 15.2751 1.89648H14.0106C13.6614 1.89648 13.3783 2.17958 13.3783 2.52874H15.2751C16.3227 2.52874 17.1719 3.37798 17.1719 4.42552V6.3223C17.1719 6.67158 17.455 6.95464 17.8042 6.95464Z" fill="#E3A578"/>
<path d="M2.63019 4.7422H1.99793C1.64873 4.7422 1.36567 4.45911 1.36567 4.10995V3.16156C1.36567 2.81235 1.64877 2.5293 1.99793 2.5293H2.63019C2.9794 2.5293 3.26245 2.81239 3.26245 3.16156V4.10995C3.26245 4.45911 2.97936 4.7422 2.63019 4.7422Z" fill="#CD916E"/>
<path d="M2.94632 3.16156H3.26245C3.26245 2.81239 2.9794 2.5293 2.63019 2.5293H1.99793C1.64873 2.5293 1.36567 2.81239 1.36567 3.16156V4.10995C1.36567 4.45911 1.64877 4.7422 1.99793 4.7422L1.99793 4.10995C1.99789 3.58614 2.42251 3.16156 2.94632 3.16156Z" fill="#B67F5F"/>
<path d="M14.9593 17.702V17.0698C14.9593 16.7206 15.2424 16.4375 15.5916 16.4375H16.54C16.8892 16.4375 17.1722 16.7206 17.1722 17.0698V17.702C17.1722 18.0512 16.8891 18.3343 16.54 18.3343H15.5916C15.2424 18.3343 14.9593 18.0512 14.9593 17.702Z" fill="#CD916E"/>
<path d="M16.54 18.0181V18.3343C16.8891 18.3343 17.1722 18.0512 17.1722 17.702V17.0698C17.1722 16.7206 16.8891 16.4375 16.54 16.4375H15.5916C15.2424 16.4375 14.9593 16.7206 14.9593 17.0698H15.5916C16.1154 17.0697 16.54 17.4943 16.54 18.0181Z" fill="#B67F5F"/>
<path d="M16.4665 4.95681L16.9136 4.50971C17.1605 4.2628 17.1605 3.86249 16.9136 3.61557L16.2429 2.94495C15.996 2.69804 15.5957 2.69804 15.3488 2.94495L14.9017 3.39204C14.6548 3.63896 14.6548 4.03927 14.9017 4.28619L15.5723 4.95681C15.8192 5.20372 16.2196 5.20372 16.4665 4.95681Z" fill="#CD916E"/>
<path d="M15.1253 4.06266L14.9018 4.28619C14.6548 4.03927 14.6548 3.63896 14.9018 3.39204L15.3488 2.94495C15.5958 2.69804 15.9961 2.69804 16.243 2.94495L16.9136 3.61561C17.1605 3.86253 17.1605 4.26284 16.9136 4.50975L16.4665 4.06266C16.0961 3.69233 15.4956 3.69233 15.1253 4.06266Z" fill="#B67F5F"/>
<path d="M0.73334 6.32039L0.73334 2.52679C0.73334 2.17759 1.01643 1.89453 1.3656 1.89453L1.3656 6.00426C1.3656 6.17886 1.22407 6.32039 1.04947 6.32039H0.73334Z" fill="#E3A578"/>
<path d="M13.3785 18.9648H17.1721C17.5213 18.9648 17.8043 19.2479 17.8043 19.5971H13.6946C13.52 19.5971 13.3785 19.4556 13.3785 19.281V18.9648Z" fill="#E3A578"/>
<rect x="1.73425" y="17.1504" width="8.16675" height="8.16675" rx="0.816675" transform="rotate(-90 1.73425 17.1504)" fill="#B27A49"/>
<rect x="3.25696" y="15.5456" width="4.9577" height="5.11783" rx="0.65334" transform="rotate(-90 3.25696 15.5456)" fill="#FFDD4E" stroke="white" stroke-width="0.32667"/>
</g>
<defs>
<clipPath id="clip0_2287_152553">
<rect width="19.6002" height="19.6002" fill="white" transform="matrix(0 1 -1 0 19.7012 0)"/>
</clipPath>
</defs>
</svg>
