<svg width="47" height="43" viewBox="0 0 47 43" fill="none" xmlns="http://www.w3.org/2000/svg">
<g clip-path="url(#clip0_2287_151883)">
<path d="M0.730705 6.49906C0.266177 6.84568 -0.000244141 7.37688 -0.000244141 7.95646L-0.000244141 10.7427C-0.000244141 11.3223 0.266177 11.8535 0.730705 12.2001C1.19523 12.5467 1.78029 12.6509 2.33589 12.4858L4.18377 11.937L9.22563 12.3403L9.22563 6.35887L4.18375 6.76223L2.33587 6.21336C1.78029 6.04831 1.19523 6.15246 0.730705 6.49906ZM3.8662 9.85513L0.57398 10.1811L0.57398 8.51807L3.8662 8.84404L3.8662 9.85513ZM1.07409 11.7399C0.760393 11.5058 0.579072 11.1486 0.574421 10.7581L3.8662 10.4322V11.4322L2.17239 11.9354C1.79224 12.0483 1.39194 11.977 1.07409 11.7399ZM2.17239 6.76379L3.8662 7.26691V8.267L0.574421 7.94109C0.579091 7.55054 0.760393 7.19335 1.07409 6.95928C1.39194 6.72214 1.79224 6.65088 2.17239 6.76379Z" fill="#BD6015"/>
<path d="M0.730705 6.49908C0.266177 6.8457 -0.000244141 7.3769 -0.000244141 7.95648L-0.000244141 9.34961H0.57398L0.57398 8.51809L3.8662 8.84406V9.34961L9.22563 9.34961V6.3589L4.18375 6.76225L2.33587 6.21339C1.78029 6.04834 1.19523 6.15248 0.730705 6.49908ZM2.17239 6.76382L3.8662 7.26693L3.8662 8.26702L0.574421 7.94111C0.579091 7.55056 0.760393 7.19338 1.07409 6.9593C1.39194 6.72217 1.79224 6.65091 2.17239 6.76382Z" fill="#BD6015"/>
<path d="M9.79982 12.2207C9.79982 11.9036 9.54273 11.6465 9.22559 11.6465C8.90846 11.6465 8.65137 11.9036 8.65137 12.2207C8.65137 12.5378 8.90846 12.7949 9.22559 12.7949C9.54273 12.7949 9.79982 12.5378 9.79982 12.2207Z" fill="#DE8144"/>
<path d="M9.79982 6.47851C9.79982 6.16137 9.54273 5.90429 9.22559 5.90429C8.90846 5.90429 8.65137 6.16137 8.65137 6.47851C8.65137 6.79565 8.90846 7.05273 9.22559 7.05273C9.54273 7.05273 9.79982 6.79565 9.79982 6.47851Z" fill="#D4702C"/>
</g>
<g clip-path="url(#clip1_2287_151883)">
<path d="M0.730705 18.7491C0.266177 19.0957 -0.000244141 19.6269 -0.000244141 20.2065L-0.000244141 22.9927C-0.000244141 23.5723 0.266177 24.1035 0.730705 24.4501C1.19523 24.7967 1.78029 24.9009 2.33589 24.7358L4.18377 24.187L9.22563 24.5903L9.22563 18.6089L4.18375 19.0122L2.33587 18.4634C1.78029 18.2983 1.19523 18.4025 0.730705 18.7491ZM3.8662 22.1051L0.57398 22.4311L0.57398 20.7681L3.8662 21.094L3.8662 22.1051ZM1.07409 23.9899C0.760393 23.7558 0.579072 23.3986 0.574421 23.0081L3.8662 22.6822V23.6822L2.17239 24.1854C1.79224 24.2983 1.39194 24.227 1.07409 23.9899ZM2.17239 19.0138L3.8662 19.5169V20.517L0.574421 20.1911C0.579091 19.8005 0.760393 19.4434 1.07409 19.2093C1.39194 18.9721 1.79224 18.9009 2.17239 19.0138Z" fill="#BD6015"/>
<path d="M0.730705 18.7491C0.266177 19.0957 -0.000244141 19.6269 -0.000244141 20.2065L-0.000244141 21.5996H0.57398L0.57398 20.7681L3.8662 21.0941V21.5996L9.22563 21.5996V18.6089L4.18375 19.0122L2.33587 18.4634C1.78029 18.2983 1.19523 18.4025 0.730705 18.7491ZM2.17239 19.0138L3.8662 19.5169L3.8662 20.517L0.574421 20.1911C0.579091 19.8006 0.760393 19.4434 1.07409 19.2093C1.39194 18.9722 1.79224 18.9009 2.17239 19.0138Z" fill="#BD6015"/>
<path d="M9.79982 24.4707C9.79982 24.1536 9.54273 23.8965 9.22559 23.8965C8.90846 23.8965 8.65137 24.1536 8.65137 24.4707C8.65137 24.7878 8.90846 25.0449 9.22559 25.0449C9.54273 25.0449 9.79982 24.7878 9.79982 24.4707Z" fill="#DE8144"/>
<path d="M9.79982 18.7285C9.79982 18.4114 9.54273 18.1543 9.22559 18.1543C8.90846 18.1543 8.65137 18.4114 8.65137 18.7285C8.65137 19.0456 8.90846 19.3027 9.22559 19.3027C9.54273 19.3027 9.79982 19.0456 9.79982 18.7285Z" fill="#D4702C"/>
</g>
<g clip-path="url(#clip2_2287_151883)">
<path d="M0.730705 30.9991C0.266177 31.3457 -0.000244141 31.8769 -0.000244141 32.4565L-0.000244141 35.2427C-0.000244141 35.8223 0.266177 36.3535 0.730705 36.7001C1.19523 37.0467 1.78029 37.1509 2.33589 36.9858L4.18377 36.437L9.22563 36.8403L9.22563 30.8589L4.18375 31.2622L2.33587 30.7134C1.78029 30.5483 1.19523 30.6525 0.730705 30.9991ZM3.8662 34.3551L0.57398 34.6811L0.57398 33.0181L3.8662 33.344L3.8662 34.3551ZM1.07409 36.2399C0.760393 36.0058 0.579072 35.6486 0.574421 35.2581L3.8662 34.9322V35.9322L2.17239 36.4354C1.79224 36.5483 1.39194 36.477 1.07409 36.2399ZM2.17239 31.2638L3.8662 31.7669V32.767L0.574421 32.4411C0.579091 32.0505 0.760393 31.6934 1.07409 31.4593C1.39194 31.2221 1.79224 31.1509 2.17239 31.2638Z" fill="#BD6015"/>
<path d="M0.730705 30.9991C0.266177 31.3457 -0.000244141 31.8769 -0.000244141 32.4565L-0.000244141 33.8496H0.57398L0.57398 33.0181L3.8662 33.3441V33.8496H9.22563V30.8589L4.18375 31.2622L2.33587 30.7134C1.78029 30.5483 1.19523 30.6525 0.730705 30.9991ZM2.17239 31.2638L3.8662 31.7669L3.8662 32.767L0.574421 32.4411C0.579091 32.0506 0.760393 31.6934 1.07409 31.4593C1.39194 31.2222 1.79224 31.1509 2.17239 31.2638Z" fill="#BD6015"/>
<path d="M9.79982 36.7207C9.79982 36.4036 9.54273 36.1465 9.22559 36.1465C8.90846 36.1465 8.65137 36.4036 8.65137 36.7207C8.65137 37.0378 8.90846 37.2949 9.22559 37.2949C9.54273 37.2949 9.79982 37.0378 9.79982 36.7207Z" fill="#DE8144"/>
<path d="M9.79982 30.9785C9.79982 30.6614 9.54273 30.4043 9.22559 30.4043C8.90846 30.4043 8.65137 30.6614 8.65137 30.9785C8.65137 31.2956 8.90846 31.5527 9.22559 31.5527C9.54273 31.5527 9.79982 31.2956 9.79982 30.9785Z" fill="#D4702C"/>
</g>
<g filter="url(#filter0_d_2287_151883)">
<rect x="11.3612" y="2" width="23.9122" height="39.2004" rx="1.17601" fill="#B27A49"/>
<rect x="13.7918" y="5.6077" width="19.0514" height="31.9875" rx="0.705607" fill="#FFDD4E" stroke="white" stroke-width="0.156802"/>
</g>
<g clip-path="url(#clip3_2287_151883)">
<path d="M45.9041 36.7002C46.3686 36.3535 46.635 35.8223 46.635 35.2428V32.4565C46.635 31.8769 46.3686 31.3457 45.9041 30.9991C45.4395 30.6525 44.8545 30.5484 44.2989 30.7134L42.451 31.2623L37.4091 30.8589V36.8403L42.451 36.437L44.2989 36.9859C44.8545 37.1509 45.4395 37.0468 45.9041 36.7002ZM42.7686 33.3441L46.0608 33.0181V34.6811L42.7686 34.3552V33.3441ZM45.5607 31.4593C45.8744 31.6934 46.0557 32.0506 46.0603 32.4412L42.7686 32.7671V31.767L44.4624 31.2639C44.8425 31.1509 45.2428 31.2222 45.5607 31.4593ZM44.4624 36.4354L42.7686 35.9323V34.9322L46.0603 35.2581C46.0557 35.6487 45.8744 36.0059 45.5607 36.2399C45.2428 36.4771 44.8425 36.5483 44.4624 36.4354Z" fill="#BD6015"/>
<path d="M45.9041 36.6982C46.3686 36.3516 46.635 35.8204 46.635 35.2408V33.8477H46.0608V34.6792L42.7686 34.3532V33.8477H37.4091V36.8384L42.451 36.435L44.2989 36.9839C44.8545 37.1489 45.4395 37.0448 45.9041 36.6982ZM44.4624 36.4334L42.7686 35.9303V34.9302L46.0603 35.2562C46.0557 35.6467 45.8744 36.0039 45.5607 36.238C45.2428 36.4751 44.8425 36.5464 44.4624 36.4334Z" fill="#BD6015"/>
<path d="M36.8349 30.9766C36.8349 31.2937 37.092 31.5508 37.4092 31.5508C37.7263 31.5508 37.9834 31.2937 37.9834 30.9766C37.9834 30.6594 37.7263 30.4023 37.4092 30.4023C37.092 30.4023 36.8349 30.6594 36.8349 30.9766Z" fill="#DE8144"/>
<path d="M36.8349 36.7188C36.8349 37.0359 37.092 37.293 37.4092 37.293C37.7263 37.293 37.9834 37.0359 37.9834 36.7188C37.9834 36.4016 37.7263 36.1445 37.4092 36.1445C37.092 36.1445 36.8349 36.4016 36.8349 36.7188Z" fill="#D4702C"/>
</g>
<g clip-path="url(#clip4_2287_151883)">
<path d="M45.9041 24.4502C46.3686 24.1035 46.635 23.5723 46.635 22.9928V20.2065C46.635 19.6269 46.3686 19.0957 45.9041 18.7491C45.4395 18.4025 44.8545 18.2984 44.2989 18.4634L42.451 19.0123L37.4091 18.6089V24.5903L42.451 24.187L44.2989 24.7359C44.8545 24.9009 45.4395 24.7968 45.9041 24.4502ZM42.7686 21.0941L46.0608 20.7681V22.4311L42.7686 22.1052V21.0941ZM45.5607 19.2093C45.8744 19.4434 46.0557 19.8006 46.0603 20.1912L42.7686 20.5171V19.517L44.4624 19.0139C44.8425 18.9009 45.2428 18.9722 45.5607 19.2093ZM44.4624 24.1854L42.7686 23.6823V22.6822L46.0603 23.0081C46.0557 23.3987 45.8744 23.7559 45.5607 23.9899C45.2428 24.2271 44.8425 24.2983 44.4624 24.1854Z" fill="#BD6015"/>
<path d="M45.9041 24.4482C46.3686 24.1016 46.635 23.5704 46.635 22.9908V21.5977H46.0608V22.4292L42.7686 22.1032V21.5977L37.4091 21.5977V24.5884L42.451 24.185L44.2989 24.7339C44.8545 24.8989 45.4395 24.7948 45.9041 24.4482ZM44.4624 24.1834L42.7686 23.6803V22.6802L46.0603 23.0062C46.0557 23.3967 45.8744 23.7539 45.5607 23.988C45.2428 24.2251 44.8425 24.2964 44.4624 24.1834Z" fill="#BD6015"/>
<path d="M36.8349 18.7266C36.8349 19.0437 37.092 19.3008 37.4092 19.3008C37.7263 19.3008 37.9834 19.0437 37.9834 18.7266C37.9834 18.4094 37.7263 18.1523 37.4092 18.1523C37.092 18.1523 36.8349 18.4094 36.8349 18.7266Z" fill="#DE8144"/>
<path d="M36.8349 24.4688C36.8349 24.7859 37.092 25.043 37.4092 25.043C37.7263 25.043 37.9834 24.7859 37.9834 24.4688C37.9834 24.1516 37.7263 23.8945 37.4092 23.8945C37.092 23.8945 36.8349 24.1516 36.8349 24.4688Z" fill="#D4702C"/>
</g>
<g clip-path="url(#clip5_2287_151883)">
<path d="M45.9041 12.2021C46.3686 11.8555 46.635 11.3243 46.635 10.7447V7.95846C46.635 7.37888 46.3686 6.84768 45.9041 6.50106C45.4395 6.15446 44.8545 6.05031 44.2989 6.21535L42.451 6.76421L37.4091 6.36087V12.3423L42.451 11.9389L44.2989 12.4878C44.8545 12.6529 45.4395 12.5487 45.9041 12.2021ZM42.7686 8.84604L46.0608 8.52007V10.1831L42.7686 9.85713V8.84604ZM45.5607 6.9613C45.8744 7.19537 46.0557 7.55256 46.0603 7.94311L42.7686 8.26902V7.26893L44.4624 6.76582C44.8425 6.65289 45.2428 6.72415 45.5607 6.9613ZM44.4624 11.9374L42.7686 11.4343V10.4342L46.0603 10.7601C46.0557 11.1506 45.8744 11.5078 45.5607 11.7419C45.2428 11.979 44.8425 12.0503 44.4624 11.9374Z" fill="#BD6015"/>
<path d="M45.9041 12.2001C46.3686 11.8535 46.635 11.3223 46.635 10.7427V9.34961H46.0608V10.1811L42.7686 9.85516V9.34961L37.4091 9.34961V12.3403L42.451 11.937L44.2989 12.4858C44.8545 12.6509 45.4395 12.5467 45.9041 12.2001ZM44.4624 11.9354L42.7686 11.4323V10.4322L46.0603 10.7581C46.0557 11.1487 45.8744 11.5058 45.5607 11.7399C45.2428 11.9771 44.8425 12.0483 44.4624 11.9354Z" fill="#BD6015"/>
<path d="M36.8349 6.47852C36.8349 6.79566 37.092 7.05275 37.4092 7.05275C37.7263 7.05275 37.9834 6.79566 37.9834 6.47852C37.9834 6.16139 37.7263 5.9043 37.4092 5.9043C37.092 5.9043 36.8349 6.16139 36.8349 6.47852Z" fill="#DE8144"/>
<path d="M36.8349 12.2207C36.8349 12.5378 37.092 12.7949 37.4092 12.7949C37.7263 12.7949 37.9834 12.5378 37.9834 12.2207C37.9834 11.9036 37.7263 11.6465 37.4092 11.6465C37.092 11.6465 36.8349 11.9036 36.8349 12.2207Z" fill="#D4702C"/>
</g>
<defs>
<filter id="filter0_d_2287_151883" x="9.79319" y="0.431984" width="27.0483" height="42.3372" filterUnits="userSpaceOnUse" color-interpolation-filters="sRGB">
<feFlood flood-opacity="0" result="BackgroundImageFix"/>
<feColorMatrix in="SourceAlpha" type="matrix" values="0 0 0 0 0 0 0 0 0 0 0 0 0 0 0 0 0 0 127 0" result="hardAlpha"/>
<feOffset/>
<feGaussianBlur stdDeviation="0.784008"/>
<feComposite in2="hardAlpha" operator="out"/>
<feColorMatrix type="matrix" values="0 0 0 0 0 0 0 0 0 0 0 0 0 0 0 0 0 0 0.25 0"/>
<feBlend mode="normal" in2="BackgroundImageFix" result="effect1_dropShadow_2287_151883"/>
<feBlend mode="normal" in="SourceGraphic" in2="effect1_dropShadow_2287_151883" result="shape"/>
</filter>
<clipPath id="clip0_2287_151883">
<rect width="9.8001" height="9.8001" fill="white" transform="matrix(0 -1 1 0 -0.00012207 14.25)"/>
</clipPath>
<clipPath id="clip1_2287_151883">
<rect width="9.8001" height="9.8001" fill="white" transform="matrix(0 -1 1 0 -0.00012207 26.5)"/>
</clipPath>
<clipPath id="clip2_2287_151883">
<rect width="9.8001" height="9.8001" fill="white" transform="matrix(0 -1 1 0 -0.00012207 38.75)"/>
</clipPath>
<clipPath id="clip3_2287_151883">
<rect width="9.8001" height="9.8001" fill="white" transform="matrix(0 1 -1 0 46.6349 28.9492)"/>
</clipPath>
<clipPath id="clip4_2287_151883">
<rect width="9.8001" height="9.8001" fill="white" transform="matrix(0 1 -1 0 46.6349 16.6992)"/>
</clipPath>
<clipPath id="clip5_2287_151883">
<rect width="9.8001" height="9.8001" fill="white" transform="matrix(0 1 -1 0 46.6349 4.44922)"/>
</clipPath>
</defs>
</svg>
