<svg width="64" height="73" viewBox="0 0 64 73" fill="none" xmlns="http://www.w3.org/2000/svg">
<g clip-path="url(#clip0_2287_151781)">
<path d="M0.731072 9.13382C0.266543 9.48044 0.00012207 10.0116 0.00012207 10.5912L0.00012207 13.3775C0.00012207 13.9571 0.266543 14.4883 0.731072 14.8349C1.1956 15.1815 1.78066 15.2856 2.33626 15.1206L4.18413 14.5717L9.226 14.9751L9.226 8.99364L4.18411 9.39699L2.33624 8.84813C1.78066 8.68308 1.1956 8.78722 0.731072 9.13382ZM3.86657 12.4899L0.574347 12.8159L0.574347 11.1528L3.86657 11.4788L3.86657 12.4899ZM1.07446 14.3746C0.760759 14.1406 0.579438 13.7834 0.574787 13.3928L3.86657 13.0669V14.067L2.17276 14.5701C1.7926 14.6831 1.39231 14.6118 1.07446 14.3746ZM2.17276 9.39856L3.86657 9.90168V10.9018L0.574787 10.5759C0.579457 10.1853 0.760759 9.82812 1.07446 9.59405C1.39231 9.35691 1.7926 9.28565 2.17276 9.39856Z" fill="#BD6015"/>
<path d="M0.731072 9.13385C0.266543 9.48047 0.00012207 10.0117 0.00012207 10.5912L0.00012207 11.9844H0.574347L0.574347 11.1529L3.86657 11.4788V11.9844L9.226 11.9844V8.99366L4.18411 9.39702L2.33624 8.84815C1.78066 8.6831 1.1956 8.78725 0.731072 9.13385ZM2.17276 9.39858L3.86657 9.9017L3.86657 10.9018L0.574787 10.5759C0.579457 10.1853 0.760759 9.82814 1.07446 9.59407C1.39231 9.35693 1.7926 9.28567 2.17276 9.39858Z" fill="#BD6015"/>
<path d="M9.8003 14.8555C9.8003 14.5383 9.54322 14.2812 9.22608 14.2812C8.90894 14.2812 8.65186 14.5383 8.65186 14.8555C8.65186 15.1726 8.90894 15.4297 9.22608 15.4297C9.54322 15.4297 9.8003 15.1726 9.8003 14.8555Z" fill="#DE8144"/>
<path d="M9.8003 9.11328C9.8003 8.79614 9.54322 8.53905 9.22608 8.53905C8.90894 8.53905 8.65186 8.79614 8.65186 9.11328C8.65186 9.43041 8.90894 9.6875 9.22608 9.6875C9.54322 9.6875 9.8003 9.43041 9.8003 9.11328Z" fill="#D4702C"/>
</g>
<g clip-path="url(#clip1_2287_151781)">
<path d="M0.731072 21.3838C0.266543 21.7304 0.00012207 22.2616 0.00012207 22.8412L0.00012207 25.6275C0.00012207 26.2071 0.266543 26.7383 0.731072 27.0849C1.1956 27.4315 1.78066 27.5356 2.33626 27.3706L4.18413 26.8217L9.226 27.2251L9.226 21.2436L4.18411 21.647L2.33624 21.0981C1.78066 20.9331 1.1956 21.0372 0.731072 21.3838ZM3.86657 24.7399L0.574347 25.0659L0.574347 23.4028L3.86657 23.7288L3.86657 24.7399ZM1.07446 26.6246C0.760759 26.3906 0.579438 26.0334 0.574787 25.6428L3.86657 25.3169V26.317L2.17276 26.8201C1.7926 26.9331 1.39231 26.8618 1.07446 26.6246ZM2.17276 21.6486L3.86657 22.1517V23.1518L0.574787 22.8259C0.579457 22.4353 0.760759 22.0781 1.07446 21.844C1.39231 21.6069 1.7926 21.5356 2.17276 21.6486Z" fill="#BD6015"/>
<path d="M0.731072 21.3838C0.266543 21.7305 0.00012207 22.2617 0.00012207 22.8412L0.00012207 24.2344H0.574347L0.574347 23.4029L3.86657 23.7288V24.2344L9.226 24.2344V21.2437L4.18411 21.647L2.33624 21.0982C1.78066 20.9331 1.1956 21.0372 0.731072 21.3838ZM2.17276 21.6486L3.86657 22.1517L3.86657 23.1518L0.574787 22.8259C0.579457 22.4353 0.760759 22.0781 1.07446 21.8441C1.39231 21.6069 1.7926 21.5357 2.17276 21.6486Z" fill="#BD6015"/>
<path d="M9.8003 27.1055C9.8003 26.7883 9.54322 26.5312 9.22608 26.5312C8.90894 26.5312 8.65186 26.7883 8.65186 27.1055C8.65186 27.4226 8.90894 27.6797 9.22608 27.6797C9.54322 27.6797 9.8003 27.4226 9.8003 27.1055Z" fill="#DE8144"/>
<path d="M9.8003 21.3633C9.8003 21.0461 9.54322 20.7891 9.22608 20.7891C8.90894 20.7891 8.65186 21.0461 8.65186 21.3633C8.65186 21.6804 8.90894 21.9375 9.22608 21.9375C9.54322 21.9375 9.8003 21.6804 9.8003 21.3633Z" fill="#D4702C"/>
</g>
<g clip-path="url(#clip2_2287_151781)">
<path d="M0.731072 33.6338C0.266543 33.9804 0.00012207 34.5116 0.00012207 35.0912L0.00012207 37.8775C0.00012207 38.4571 0.266543 38.9883 0.731072 39.3349C1.1956 39.6815 1.78066 39.7856 2.33626 39.6206L4.18413 39.0717L9.226 39.4751L9.226 33.4936L4.18411 33.897L2.33624 33.3481C1.78066 33.1831 1.1956 33.2872 0.731072 33.6338ZM3.86657 36.9899L0.574347 37.3159L0.574347 35.6528L3.86657 35.9788L3.86657 36.9899ZM1.07446 38.8746C0.760759 38.6406 0.579438 38.2834 0.574787 37.8928L3.86657 37.5669V38.567L2.17276 39.0701C1.7926 39.1831 1.39231 39.1118 1.07446 38.8746ZM2.17276 33.8986L3.86657 34.4017V35.4018L0.574787 35.0759C0.579457 34.6853 0.760759 34.3281 1.07446 34.094C1.39231 33.8569 1.7926 33.7856 2.17276 33.8986Z" fill="#BD6015"/>
<path d="M0.731072 33.6338C0.266543 33.9805 0.00012207 34.5117 0.00012207 35.0912L0.00012207 36.4844H0.574347L0.574347 35.6529L3.86657 35.9788V36.4844H9.226V33.4937L4.18411 33.897L2.33624 33.3482C1.78066 33.1831 1.1956 33.2872 0.731072 33.6338ZM2.17276 33.8986L3.86657 34.4017L3.86657 35.4018L0.574787 35.0759C0.579457 34.6853 0.760759 34.3281 1.07446 34.0941C1.39231 33.8569 1.7926 33.7857 2.17276 33.8986Z" fill="#BD6015"/>
<path d="M9.8003 39.3555C9.8003 39.0383 9.54322 38.7812 9.22608 38.7812C8.90894 38.7812 8.65186 39.0383 8.65186 39.3555C8.65186 39.6726 8.90894 39.9297 9.22608 39.9297C9.54322 39.9297 9.8003 39.6726 9.8003 39.3555Z" fill="#DE8144"/>
<path d="M9.8003 33.6133C9.8003 33.2961 9.54322 33.0391 9.22608 33.0391C8.90894 33.0391 8.65186 33.2961 8.65186 33.6133C8.65186 33.9304 8.90894 34.1875 9.22608 34.1875C9.54322 34.1875 9.8003 33.9304 9.8003 33.6133Z" fill="#D4702C"/>
</g>
<g clip-path="url(#clip3_2287_151781)">
<path d="M0.731072 45.8838C0.266543 46.2304 0.00012207 46.7616 0.00012207 47.3412L0.00012207 50.1275C0.00012207 50.7071 0.266543 51.2383 0.731072 51.5849C1.1956 51.9315 1.78066 52.0356 2.33626 51.8706L4.18413 51.3217L9.226 51.7251L9.226 45.7436L4.18411 46.147L2.33624 45.5981C1.78066 45.4331 1.1956 45.5372 0.731072 45.8838ZM3.86657 49.2399L0.574347 49.5659L0.574347 47.9028L3.86657 48.2288L3.86657 49.2399ZM1.07446 51.1246C0.760759 50.8906 0.579438 50.5334 0.574787 50.1428L3.86657 49.8169V50.817L2.17276 51.3201C1.7926 51.4331 1.39231 51.3618 1.07446 51.1246ZM2.17276 46.1486L3.86657 46.6517V47.6518L0.574787 47.3259C0.579457 46.9353 0.760759 46.5781 1.07446 46.344C1.39231 46.1069 1.7926 46.0356 2.17276 46.1486Z" fill="#BD6015"/>
<path d="M0.731072 45.8838C0.266543 46.2305 0.00012207 46.7617 0.00012207 47.3412L0.00012207 48.7344H0.574347L0.574347 47.9029L3.86657 48.2288V48.7344H9.226V45.7437L4.18411 46.147L2.33624 45.5982C1.78066 45.4331 1.1956 45.5372 0.731072 45.8838ZM2.17276 46.1486L3.86657 46.6517L3.86657 47.6518L0.574787 47.3259C0.579457 46.9353 0.760759 46.5781 1.07446 46.3441C1.39231 46.1069 1.7926 46.0357 2.17276 46.1486Z" fill="#BD6015"/>
<path d="M9.8003 51.6055C9.8003 51.2883 9.54322 51.0312 9.22608 51.0312C8.90894 51.0312 8.65186 51.2883 8.65186 51.6055C8.65186 51.9226 8.90894 52.1797 9.22608 52.1797C9.54322 52.1797 9.8003 51.9226 9.8003 51.6055Z" fill="#DE8144"/>
<path d="M9.8003 45.8633C9.8003 45.5461 9.54322 45.2891 9.22608 45.2891C8.90894 45.2891 8.65186 45.5461 8.65186 45.8633C8.65186 46.1804 8.90894 46.4375 9.22608 46.4375C9.54322 46.4375 9.8003 46.1804 9.8003 45.8633Z" fill="#D4702C"/>
</g>
<g clip-path="url(#clip4_2287_151781)">
<path d="M0.731072 58.1338C0.266543 58.4804 0.00012207 59.0116 0.00012207 59.5912L0.00012207 62.3775C0.00012207 62.9571 0.266543 63.4883 0.731072 63.8349C1.1956 64.1815 1.78066 64.2856 2.33626 64.1206L4.18413 63.5717L9.226 63.9751L9.226 57.9936L4.18411 58.397L2.33624 57.8481C1.78066 57.6831 1.1956 57.7872 0.731072 58.1338ZM3.86657 61.4899L0.574347 61.8159L0.574347 60.1528L3.86657 60.4788L3.86657 61.4899ZM1.07446 63.3746C0.760759 63.1406 0.579438 62.7834 0.574787 62.3928L3.86657 62.0669V63.067L2.17276 63.5701C1.7926 63.6831 1.39231 63.6118 1.07446 63.3746ZM2.17276 58.3986L3.86657 58.9017V59.9018L0.574787 59.5759C0.579457 59.1853 0.760759 58.8281 1.07446 58.594C1.39231 58.3569 1.7926 58.2856 2.17276 58.3986Z" fill="#BD6015"/>
<path d="M0.731072 58.1358C0.266543 58.4824 0.00012207 59.0136 0.00012207 59.5932L0.00012207 60.9863H0.574347L0.574347 60.1548L3.86657 60.4808V60.9863H9.226V57.9956L4.18411 58.399L2.33624 57.8501C1.78066 57.6851 1.1956 57.7892 0.731072 58.1358ZM2.17276 58.4005L3.86657 58.9037L3.86657 59.9037L0.574787 59.5778C0.579457 59.1873 0.760759 58.8301 1.07446 58.596C1.39231 58.3589 1.7926 58.2876 2.17276 58.4005Z" fill="#BD6015"/>
<path d="M9.8003 63.8574C9.8003 63.5403 9.54322 63.2832 9.22608 63.2832C8.90894 63.2832 8.65186 63.5403 8.65186 63.8574C8.65186 64.1746 8.90894 64.4316 9.22608 64.4316C9.54322 64.4316 9.8003 64.1746 9.8003 63.8574Z" fill="#DE8144"/>
<path d="M9.8003 58.1152C9.8003 57.7981 9.54322 57.541 9.22608 57.541C8.90894 57.541 8.65186 57.7981 8.65186 58.1152C8.65186 58.4324 8.90894 58.6895 9.22608 58.6895C9.54322 58.6895 9.8003 58.4324 9.8003 58.1152Z" fill="#D4702C"/>
</g>
<g filter="url(#filter0_d_2287_151781)">
<rect x="11.3613" y="3" width="40.8501" height="66.9673" rx="2.00902" fill="#B27A49"/>
<rect x="15.5133" y="9.16128" width="32.5461" height="54.6453" rx="1.20541" fill="#FFDD4E" stroke="white" stroke-width="0.267869"/>
</g>
<g clip-path="url(#clip5_2287_151781)">
<path d="M62.8418 63.8349C63.3063 63.4883 63.5728 62.9571 63.5728 62.3775V59.5913C63.5728 59.0117 63.3063 58.4805 62.8418 58.1339C62.3773 57.7873 61.7922 57.6831 61.2366 57.8482L59.3887 58.397L54.3469 57.9937V63.9751L59.3888 63.5718L61.2366 64.1206C61.7922 64.2857 62.3773 64.1815 62.8418 63.8349ZM59.7063 60.4789L62.9985 60.1529V61.8159L59.7063 61.4899V60.4789ZM62.4984 58.5941C62.8121 58.8282 62.9934 59.1854 62.9981 59.5759L59.7063 59.9018V58.9017L61.4001 58.3986C61.7803 58.2857 62.1806 58.357 62.4984 58.5941ZM61.4001 63.5702L59.7063 63.0671V62.067L62.9981 62.3929C62.9934 62.7834 62.8121 63.1406 62.4984 63.3747C62.1806 63.6118 61.7803 63.6831 61.4001 63.5702Z" fill="#BD6015"/>
<path d="M62.8418 63.8349C63.3063 63.4883 63.5728 62.9571 63.5728 62.3775V60.9844H62.9985V61.8159L59.7063 61.4899V60.9844H54.3469V63.9751L59.3888 63.5717L61.2366 64.1206C61.7922 64.2856 62.3773 64.1815 62.8418 63.8349ZM61.4001 63.5702L59.7063 63.067V62.067L62.9981 62.3929C62.9934 62.7834 62.8121 63.1406 62.4984 63.3747C62.1806 63.6118 61.7803 63.6831 61.4001 63.5702Z" fill="#BD6015"/>
<path d="M53.7727 58.1133C53.7727 58.4304 54.0298 58.6875 54.3469 58.6875C54.6641 58.6875 54.9211 58.4304 54.9211 58.1133C54.9211 57.7962 54.6641 57.5391 54.3469 57.5391C54.0298 57.5391 53.7727 57.7962 53.7727 58.1133Z" fill="#DE8144"/>
<path d="M53.7727 63.8555C53.7727 64.1726 54.0298 64.4297 54.3469 64.4297C54.6641 64.4297 54.9211 64.1726 54.9211 63.8555C54.9211 63.5383 54.6641 63.2812 54.3469 63.2812C54.0298 63.2812 53.7727 63.5383 53.7727 63.8555Z" fill="#D4702C"/>
</g>
<g clip-path="url(#clip6_2287_151781)">
<path d="M62.8418 51.5849C63.3063 51.2383 63.5728 50.7071 63.5728 50.1275V47.3413C63.5728 46.7617 63.3063 46.2305 62.8418 45.8839C62.3773 45.5373 61.7922 45.4331 61.2366 45.5982L59.3887 46.147L54.3469 45.7437V51.7251L59.3888 51.3218L61.2366 51.8706C61.7922 52.0357 62.3773 51.9315 62.8418 51.5849ZM59.7063 48.2289L62.9985 47.9029V49.5659L59.7063 49.2399V48.2289ZM62.4984 46.3441C62.8121 46.5782 62.9934 46.9354 62.9981 47.3259L59.7063 47.6518V46.6517L61.4001 46.1486C61.7803 46.0357 62.1806 46.107 62.4984 46.3441ZM61.4001 51.3202L59.7063 50.8171V49.817L62.9981 50.1429C62.9934 50.5334 62.8121 50.8906 62.4984 51.1247C62.1806 51.3618 61.7803 51.4331 61.4001 51.3202Z" fill="#BD6015"/>
<path d="M62.8418 51.5829C63.3063 51.2363 63.5728 50.7051 63.5728 50.1255V48.7324H62.9985V49.5639L59.7063 49.238V48.7324H54.3469V51.7231L59.3888 51.3198L61.2366 51.8686C61.7922 52.0337 62.3773 51.9296 62.8418 51.5829ZM61.4001 51.3182L59.7063 50.8151V49.815L62.9981 50.1409C62.9934 50.5315 62.8121 50.8887 62.4984 51.1227C62.1806 51.3599 61.7803 51.4311 61.4001 51.3182Z" fill="#BD6015"/>
<path d="M53.7727 45.8613C53.7727 46.1785 54.0298 46.4356 54.3469 46.4356C54.6641 46.4356 54.9211 46.1785 54.9211 45.8613C54.9211 45.5442 54.6641 45.2871 54.3469 45.2871C54.0298 45.2871 53.7727 45.5442 53.7727 45.8613Z" fill="#DE8144"/>
<path d="M53.7727 51.6035C53.7727 51.9207 54.0298 52.1777 54.3469 52.1777C54.6641 52.1777 54.9211 51.9207 54.9211 51.6035C54.9211 51.2864 54.6641 51.0293 54.3469 51.0293C54.0298 51.0293 53.7727 51.2864 53.7727 51.6035Z" fill="#D4702C"/>
</g>
<g clip-path="url(#clip7_2287_151781)">
<path d="M62.8418 39.3349C63.3063 38.9883 63.5728 38.4571 63.5728 37.8775V35.0913C63.5728 34.5117 63.3063 33.9805 62.8418 33.6339C62.3773 33.2873 61.7922 33.1831 61.2366 33.3482L59.3887 33.897L54.3469 33.4937V39.4751L59.3888 39.0718L61.2366 39.6206C61.7922 39.7857 62.3773 39.6815 62.8418 39.3349ZM59.7063 35.9789L62.9985 35.6529V37.3159L59.7063 36.9899V35.9789ZM62.4984 34.0941C62.8121 34.3282 62.9934 34.6854 62.9981 35.0759L59.7063 35.4018V34.4017L61.4001 33.8986C61.7803 33.7857 62.1806 33.857 62.4984 34.0941ZM61.4001 39.0702L59.7063 38.5671V37.567L62.9981 37.8929C62.9934 38.2834 62.8121 38.6406 62.4984 38.8747C62.1806 39.1118 61.7803 39.1831 61.4001 39.0702Z" fill="#BD6015"/>
<path d="M62.8418 39.3329C63.3063 38.9863 63.5728 38.4551 63.5728 37.8755V36.4824H62.9985V37.3139L59.7063 36.988V36.4824H54.3469V39.4731L59.3888 39.0698L61.2366 39.6186C61.7922 39.7837 62.3773 39.6796 62.8418 39.3329ZM61.4001 39.0682L59.7063 38.5651V37.565L62.9981 37.8909C62.9934 38.2815 62.8121 38.6387 62.4984 38.8727C62.1806 39.1099 61.7803 39.1811 61.4001 39.0682Z" fill="#BD6015"/>
<path d="M53.7727 33.6113C53.7727 33.9285 54.0298 34.1856 54.3469 34.1856C54.6641 34.1856 54.9211 33.9285 54.9211 33.6113C54.9211 33.2942 54.6641 33.0371 54.3469 33.0371C54.0298 33.0371 53.7727 33.2942 53.7727 33.6113Z" fill="#DE8144"/>
<path d="M53.7727 39.3535C53.7727 39.6707 54.0298 39.9277 54.3469 39.9277C54.6641 39.9277 54.9211 39.6707 54.9211 39.3535C54.9211 39.0364 54.6641 38.7793 54.3469 38.7793C54.0298 38.7793 53.7727 39.0364 53.7727 39.3535Z" fill="#D4702C"/>
</g>
<g clip-path="url(#clip8_2287_151781)">
<path d="M62.8418 27.0849C63.3063 26.7383 63.5728 26.2071 63.5728 25.6275V22.8413C63.5728 22.2617 63.3063 21.7305 62.8418 21.3839C62.3773 21.0373 61.7922 20.9331 61.2366 21.0982L59.3887 21.647L54.3469 21.2437V27.2251L59.3888 26.8218L61.2366 27.3706C61.7922 27.5357 62.3773 27.4315 62.8418 27.0849ZM59.7063 23.7289L62.9985 23.4029V25.0659L59.7063 24.7399V23.7289ZM62.4984 21.8441C62.8121 22.0782 62.9934 22.4354 62.9981 22.8259L59.7063 23.1518V22.1517L61.4001 21.6486C61.7803 21.5357 62.1806 21.607 62.4984 21.8441ZM61.4001 26.8202L59.7063 26.3171V25.317L62.9981 25.6429C62.9934 26.0334 62.8121 26.3906 62.4984 26.6247C62.1806 26.8618 61.7803 26.9331 61.4001 26.8202Z" fill="#BD6015"/>
<path d="M62.8418 27.0829C63.3063 26.7363 63.5728 26.2051 63.5728 25.6255V24.2324H62.9985V25.0639L59.7063 24.738V24.2324L54.3469 24.2324V27.2231L59.3888 26.8198L61.2366 27.3686C61.7922 27.5337 62.3773 27.4296 62.8418 27.0829ZM61.4001 26.8182L59.7063 26.3151V25.315L62.9981 25.6409C62.9934 26.0315 62.8121 26.3887 62.4984 26.6227C62.1806 26.8599 61.7803 26.9311 61.4001 26.8182Z" fill="#BD6015"/>
<path d="M53.7727 21.3613C53.7727 21.6785 54.0298 21.9356 54.3469 21.9356C54.6641 21.9356 54.9211 21.6785 54.9211 21.3613C54.9211 21.0442 54.6641 20.7871 54.3469 20.7871C54.0298 20.7871 53.7727 21.0442 53.7727 21.3613Z" fill="#DE8144"/>
<path d="M53.7727 27.1035C53.7727 27.4207 54.0298 27.6777 54.3469 27.6777C54.6641 27.6777 54.9211 27.4207 54.9211 27.1035C54.9211 26.7864 54.6641 26.5293 54.3469 26.5293C54.0298 26.5293 53.7727 26.7864 53.7727 27.1035Z" fill="#D4702C"/>
</g>
<g clip-path="url(#clip9_2287_151781)">
<path d="M62.8418 14.8369C63.3063 14.4903 63.5728 13.9591 63.5728 13.3795V10.5932C63.5728 10.0136 63.3063 9.48245 62.8418 9.13583C62.3773 8.78922 61.7922 8.68508 61.2366 8.85011L59.3887 9.39897L54.3469 8.99564V14.9771L59.3888 14.5737L61.2366 15.1226C61.7922 15.2876 62.3773 15.1835 62.8418 14.8369ZM59.7063 11.4808L62.9985 11.1548V12.8179L59.7063 12.4919V11.4808ZM62.4984 9.59607C62.8121 9.83014 62.9934 10.1873 62.9981 10.5779L59.7063 10.9038V9.9037L61.4001 9.40058C61.7803 9.28765 62.1806 9.35891 62.4984 9.59607ZM61.4001 14.5721L59.7063 14.069V13.0689L62.9981 13.3948C62.9934 13.7854 62.8121 14.1426 62.4984 14.3767C62.1806 14.6138 61.7803 14.6851 61.4001 14.5721Z" fill="#BD6015"/>
<path d="M62.8418 14.8349C63.3063 14.4883 63.5728 13.9571 63.5728 13.3775V11.9844H62.9985V12.8159L59.7063 12.4899V11.9844L54.3469 11.9844V14.9751L59.3888 14.5717L61.2366 15.1206C61.7922 15.2856 62.3773 15.1815 62.8418 14.8349ZM61.4001 14.5702L59.7063 14.067V13.067L62.9981 13.3929C62.9934 13.7834 62.8121 14.1406 62.4984 14.3747C62.1806 14.6118 61.7803 14.6831 61.4001 14.5702Z" fill="#BD6015"/>
<path d="M53.7727 9.11329C53.7727 9.43042 54.0298 9.68751 54.3469 9.68751C54.6641 9.68751 54.9211 9.43042 54.9211 9.11329C54.9211 8.79615 54.6641 8.53906 54.3469 8.53906C54.0298 8.53906 53.7727 8.79615 53.7727 9.11329Z" fill="#DE8144"/>
<path d="M53.7727 14.8555C53.7727 15.1726 54.0298 15.4297 54.3469 15.4297C54.6641 15.4297 54.9211 15.1726 54.9211 14.8555C54.9211 14.5383 54.6641 14.2812 54.3469 14.2812C54.0298 14.2812 53.7727 14.5383 53.7727 14.8555Z" fill="#D4702C"/>
</g>
<defs>
<filter id="filter0_d_2287_151781" x="8.68263" y="0.321306" width="46.2075" height="72.3242" filterUnits="userSpaceOnUse" color-interpolation-filters="sRGB">
<feFlood flood-opacity="0" result="BackgroundImageFix"/>
<feColorMatrix in="SourceAlpha" type="matrix" values="0 0 0 0 0 0 0 0 0 0 0 0 0 0 0 0 0 0 127 0" result="hardAlpha"/>
<feOffset/>
<feGaussianBlur stdDeviation="1.33935"/>
<feComposite in2="hardAlpha" operator="out"/>
<feColorMatrix type="matrix" values="0 0 0 0 0 0 0 0 0 0 0 0 0 0 0 0 0 0 0.25 0"/>
<feBlend mode="normal" in2="BackgroundImageFix" result="effect1_dropShadow_2287_151781"/>
<feBlend mode="normal" in="SourceGraphic" in2="effect1_dropShadow_2287_151781" result="shape"/>
</filter>
<clipPath id="clip0_2287_151781">
<rect width="9.8001" height="9.8001" fill="white" transform="matrix(0 -1 1 0 0 16.8848)"/>
</clipPath>
<clipPath id="clip1_2287_151781">
<rect width="9.8001" height="9.8001" fill="white" transform="matrix(0 -1 1 0 0 29.1348)"/>
</clipPath>
<clipPath id="clip2_2287_151781">
<rect width="9.8001" height="9.8001" fill="white" transform="matrix(0 -1 1 0 0 41.3848)"/>
</clipPath>
<clipPath id="clip3_2287_151781">
<rect width="9.8001" height="9.8001" fill="white" transform="matrix(0 -1 1 0 0 53.6348)"/>
</clipPath>
<clipPath id="clip4_2287_151781">
<rect width="9.8001" height="9.8001" fill="white" transform="matrix(0 -1 1 0 0 65.8848)"/>
</clipPath>
<clipPath id="clip5_2287_151781">
<rect width="9.8001" height="9.8001" fill="white" transform="matrix(0 1 -1 0 63.5728 56.084)"/>
</clipPath>
<clipPath id="clip6_2287_151781">
<rect width="9.8001" height="9.8001" fill="white" transform="matrix(0 1 -1 0 63.5728 43.834)"/>
</clipPath>
<clipPath id="clip7_2287_151781">
<rect width="9.8001" height="9.8001" fill="white" transform="matrix(0 1 -1 0 63.5728 31.584)"/>
</clipPath>
<clipPath id="clip8_2287_151781">
<rect width="9.8001" height="9.8001" fill="white" transform="matrix(0 1 -1 0 63.5728 19.334)"/>
</clipPath>
<clipPath id="clip9_2287_151781">
<rect width="9.8001" height="9.8001" fill="white" transform="matrix(0 1 -1 0 63.5728 7.08398)"/>
</clipPath>
</defs>
</svg>
