<svg width="73" height="89" viewBox="0 0 73 89" fill="none" xmlns="http://www.w3.org/2000/svg">
<g clip-path="url(#clip0_2287_151715)">
<path d="M0.731194 11.3584C0.266665 11.7051 0.000244141 12.2363 0.000244141 12.8158L0.000244141 15.6021C0.000244141 16.1817 0.266665 16.7129 0.731194 17.0595C1.19572 17.4061 1.78078 17.5102 2.33638 17.3452L4.18425 16.7963L9.22612 17.1997L9.22612 11.2182L4.18424 11.6216L2.33636 11.0727C1.78078 10.9077 1.19572 11.0118 0.731194 11.3584ZM3.86669 14.7145L0.574469 15.0405L0.574469 13.3774L3.86669 13.7034L3.86669 14.7145ZM1.07458 16.5992C0.760881 16.3652 0.57956 16.008 0.574909 15.6174L3.86669 15.2915V16.2916L2.17288 16.7947C1.79272 16.9077 1.39243 16.8364 1.07458 16.5992ZM2.17288 11.6232L3.86669 12.1263V13.1264L0.574909 12.8005C0.579579 12.4099 0.760881 12.0527 1.07458 11.8187C1.39243 11.5815 1.79272 11.5103 2.17288 11.6232Z" fill="#BD6015"/>
<path d="M0.731194 11.3585C0.266665 11.7051 0.000244141 12.2363 0.000244141 12.8159L0.000244141 14.209H0.574469L0.574469 13.3775L3.86669 13.7034V14.209L9.22612 14.209V11.2183L4.18424 11.6216L2.33636 11.0728C1.78078 10.9077 1.19572 11.0119 0.731194 11.3585ZM2.17288 11.6232L3.86669 12.1263L3.86669 13.1264L0.574909 12.8005C0.579579 12.4099 0.760881 12.0528 1.07458 11.8187C1.39243 11.5815 1.79272 11.5103 2.17288 11.6232Z" fill="#BD6015"/>
<path d="M9.8003 17.082C9.8003 16.7649 9.54322 16.5078 9.22608 16.5078C8.90894 16.5078 8.65186 16.7649 8.65186 17.082C8.65186 17.3992 8.90894 17.6562 9.22608 17.6562C9.54322 17.6562 9.8003 17.3992 9.8003 17.082Z" fill="#DE8144"/>
<path d="M9.8003 11.3379C9.8003 11.0207 9.54322 10.7637 9.22608 10.7637C8.90894 10.7637 8.65186 11.0207 8.65186 11.3379C8.65186 11.655 8.90894 11.9121 9.22608 11.9121C9.54322 11.9121 9.8003 11.655 9.8003 11.3379Z" fill="#D4702C"/>
</g>
<g clip-path="url(#clip1_2287_151715)">
<path d="M0.731194 23.6084C0.266665 23.9551 0.000244141 24.4863 0.000244141 25.0658L0.000244141 27.8521C0.000244141 28.4317 0.266665 28.9629 0.731194 29.3095C1.19572 29.6561 1.78078 29.7602 2.33638 29.5952L4.18425 29.0463L9.22612 29.4497L9.22612 23.4682L4.18424 23.8716L2.33636 23.3227C1.78078 23.1577 1.19572 23.2618 0.731194 23.6084ZM3.86669 26.9645L0.574469 27.2905L0.574469 25.6274L3.86669 25.9534L3.86669 26.9645ZM1.07458 28.8492C0.760881 28.6152 0.57956 28.258 0.574909 27.8674L3.86669 27.5415V28.5416L2.17288 29.0447C1.79272 29.1577 1.39243 29.0864 1.07458 28.8492ZM2.17288 23.8732L3.86669 24.3763V25.3764L0.574909 25.0505C0.579579 24.6599 0.760881 24.3027 1.07458 24.0687C1.39243 23.8315 1.79272 23.7603 2.17288 23.8732Z" fill="#BD6015"/>
<path d="M0.731194 23.6104C0.266665 23.957 0.000244141 24.4882 0.000244141 25.0678L0.000244141 26.4609H0.574469L0.574469 25.6294L3.86669 25.9554V26.4609L9.22612 26.4609V23.4702L4.18424 23.8736L2.33636 23.3247C1.78078 23.1597 1.19572 23.2638 0.731194 23.6104ZM2.17288 23.8751L3.86669 24.3783L3.86669 25.3784L0.574909 25.0524C0.579579 24.6619 0.760881 24.3047 1.07458 24.0706C1.39243 23.8335 1.79272 23.7622 2.17288 23.8751Z" fill="#BD6015"/>
<path d="M9.8003 29.332C9.8003 29.0149 9.54322 28.7578 9.22608 28.7578C8.90894 28.7578 8.65186 29.0149 8.65186 29.332C8.65186 29.6492 8.90894 29.9062 9.22608 29.9062C9.54322 29.9062 9.8003 29.6492 9.8003 29.332Z" fill="#DE8144"/>
<path d="M9.8003 23.5898C9.8003 23.2727 9.54322 23.0156 9.22608 23.0156C8.90894 23.0156 8.65186 23.2727 8.65186 23.5898C8.65186 23.907 8.90894 24.1641 9.22608 24.1641C9.54322 24.1641 9.8003 23.907 9.8003 23.5898Z" fill="#D4702C"/>
</g>
<g clip-path="url(#clip2_2287_151715)">
<path d="M0.731194 35.8584C0.266665 36.2051 0.000244141 36.7363 0.000244141 37.3158L0.000244141 40.1021C0.000244141 40.6817 0.266665 41.2129 0.731194 41.5595C1.19572 41.9061 1.78078 42.0102 2.33638 41.8452L4.18425 41.2963L9.22612 41.6997L9.22612 35.7182L4.18424 36.1216L2.33636 35.5727C1.78078 35.4077 1.19572 35.5118 0.731194 35.8584ZM3.86669 39.2145L0.574469 39.5405L0.574469 37.8774L3.86669 38.2034L3.86669 39.2145ZM1.07458 41.0992C0.760881 40.8652 0.57956 40.508 0.574909 40.1174L3.86669 39.7915V40.7916L2.17288 41.2947C1.79272 41.4077 1.39243 41.3364 1.07458 41.0992ZM2.17288 36.1232L3.86669 36.6263V37.6264L0.574909 37.3005C0.579579 36.9099 0.760881 36.5527 1.07458 36.3187C1.39243 36.0815 1.79272 36.0103 2.17288 36.1232Z" fill="#BD6015"/>
<path d="M0.731194 35.8604C0.266665 36.207 0.000244141 36.7382 0.000244141 37.3178L0.000244141 38.7109H0.574469L0.574469 37.8794L3.86669 38.2054V38.7109H9.22612V35.7202L4.18424 36.1236L2.33636 35.5747C1.78078 35.4097 1.19572 35.5138 0.731194 35.8604ZM2.17288 36.1251L3.86669 36.6283L3.86669 37.6284L0.574909 37.3024C0.579579 36.9119 0.760881 36.5547 1.07458 36.3206C1.39243 36.0835 1.79272 36.0122 2.17288 36.1251Z" fill="#BD6015"/>
<path d="M9.8003 41.582C9.8003 41.2649 9.54322 41.0078 9.22608 41.0078C8.90894 41.0078 8.65186 41.2649 8.65186 41.582C8.65186 41.8992 8.90894 42.1562 9.22608 42.1562C9.54322 42.1562 9.8003 41.8992 9.8003 41.582Z" fill="#DE8144"/>
<path d="M9.8003 35.8398C9.8003 35.5227 9.54322 35.2656 9.22608 35.2656C8.90894 35.2656 8.65186 35.5227 8.65186 35.8398C8.65186 36.157 8.90894 36.4141 9.22608 36.4141C9.54322 36.4141 9.8003 36.157 9.8003 35.8398Z" fill="#D4702C"/>
</g>
<g clip-path="url(#clip3_2287_151715)">
<path d="M0.731194 48.1065C0.266665 48.4531 0.000244141 48.9843 0.000244141 49.5639L0.000244141 52.3501C0.000244141 52.9297 0.266665 53.4609 0.731194 53.8075C1.19572 54.1541 1.78078 54.2583 2.33638 54.0932L4.18425 53.5444L9.22612 53.9477L9.22612 47.9663L4.18424 48.3696L2.33636 47.8208C1.78078 47.6557 1.19572 47.7599 0.731194 48.1065ZM3.86669 51.4626L0.574469 51.7885L0.574469 50.1255L3.86669 50.4515L3.86669 51.4626ZM1.07458 53.3473C0.760881 53.1132 0.57956 52.756 0.574909 52.3655L3.86669 52.0396V53.0397L2.17288 53.5428C1.79272 53.6557 1.39243 53.5844 1.07458 53.3473ZM2.17288 48.3712L3.86669 48.8743V49.8744L0.574909 49.5485C0.579579 49.158 0.760881 48.8008 1.07458 48.5667C1.39243 48.3296 1.79272 48.2583 2.17288 48.3712Z" fill="#BD6015"/>
<path d="M0.731194 48.1085C0.266665 48.4551 0.000244141 48.9863 0.000244141 49.5659L0.000244141 50.959H0.574469L0.574469 50.1275L3.86669 50.4534V50.959H9.22612V47.9683L4.18424 48.3716L2.33636 47.8228C1.78078 47.6577 1.19572 47.7619 0.731194 48.1085ZM2.17288 48.3732L3.86669 48.8763L3.86669 49.8764L0.574909 49.5505C0.579579 49.1599 0.760881 48.8028 1.07458 48.5687C1.39243 48.3315 1.79272 48.2603 2.17288 48.3732Z" fill="#BD6015"/>
<path d="M9.8003 53.8301C9.8003 53.5129 9.54322 53.2558 9.22608 53.2558C8.90894 53.2558 8.65186 53.5129 8.65186 53.8301C8.65186 54.1472 8.90894 54.4043 9.22608 54.4043C9.54322 54.4043 9.8003 54.1472 9.8003 53.8301Z" fill="#DE8144"/>
<path d="M9.8003 48.0879C9.8003 47.7707 9.54322 47.5137 9.22608 47.5137C8.90894 47.5137 8.65186 47.7707 8.65186 48.0879C8.65186 48.405 8.90894 48.6621 9.22608 48.6621C9.54322 48.6621 9.8003 48.405 9.8003 48.0879Z" fill="#D4702C"/>
</g>
<g clip-path="url(#clip4_2287_151715)">
<path d="M0.731194 60.3584C0.266665 60.7051 0.000244141 61.2363 0.000244141 61.8158L0.000244141 64.6021C0.000244141 65.1817 0.266665 65.7129 0.731194 66.0595C1.19572 66.4061 1.78078 66.5102 2.33638 66.3452L4.18425 65.7963L9.22612 66.1997L9.22612 60.2182L4.18424 60.6216L2.33636 60.0727C1.78078 59.9077 1.19572 60.0118 0.731194 60.3584ZM3.86669 63.7145L0.574469 64.0405L0.574469 62.3774L3.86669 62.7034L3.86669 63.7145ZM1.07458 65.5992C0.760881 65.3652 0.57956 65.008 0.574909 64.6174L3.86669 64.2915V65.2916L2.17288 65.7947C1.79272 65.9077 1.39243 65.8364 1.07458 65.5992ZM2.17288 60.6232L3.86669 61.1263V62.1264L0.574909 61.8005C0.579579 61.4099 0.760881 61.0527 1.07458 60.8187C1.39243 60.5815 1.79272 60.5103 2.17288 60.6232Z" fill="#BD6015"/>
<path d="M0.731194 60.3585C0.266665 60.7051 0.000244141 61.2363 0.000244141 61.8159L0.000244141 63.209H0.574469L0.574469 62.3775L3.86669 62.7034V63.209H9.22612V60.2183L4.18424 60.6216L2.33636 60.0728C1.78078 59.9077 1.19572 60.0119 0.731194 60.3585ZM2.17288 60.6232L3.86669 61.1263L3.86669 62.1264L0.574909 61.8005C0.579579 61.4099 0.760881 61.0528 1.07458 60.8187C1.39243 60.5815 1.79272 60.5103 2.17288 60.6232Z" fill="#BD6015"/>
<path d="M9.8003 66.0801C9.8003 65.7629 9.54322 65.5058 9.22608 65.5058C8.90894 65.5058 8.65186 65.7629 8.65186 66.0801C8.65186 66.3972 8.90894 66.6543 9.22608 66.6543C9.54322 66.6543 9.8003 66.3972 9.8003 66.0801Z" fill="#DE8144"/>
<path d="M9.8003 60.3379C9.8003 60.0207 9.54322 59.7637 9.22608 59.7637C8.90894 59.7637 8.65186 60.0207 8.65186 60.3379C8.65186 60.655 8.90894 60.9121 9.22608 60.9121C9.54322 60.9121 9.8003 60.655 9.8003 60.3379Z" fill="#D4702C"/>
</g>
<g clip-path="url(#clip5_2287_151715)">
<path d="M0.731194 72.6084C0.266665 72.9551 0.000244141 73.4863 0.000244141 74.0658L0.000244141 76.8521C0.000244141 77.4317 0.266665 77.9629 0.731194 78.3095C1.19572 78.6561 1.78078 78.7602 2.33638 78.5952L4.18425 78.0463L9.22612 78.4497L9.22612 72.4682L4.18424 72.8716L2.33636 72.3227C1.78078 72.1577 1.19572 72.2618 0.731194 72.6084ZM3.86669 75.9645L0.574469 76.2905L0.574469 74.6274L3.86669 74.9534L3.86669 75.9645ZM1.07458 77.8492C0.760881 77.6152 0.57956 77.258 0.574909 76.8674L3.86669 76.5415V77.5416L2.17288 78.0447C1.79272 78.1577 1.39243 78.0864 1.07458 77.8492ZM2.17288 72.8732L3.86669 73.3763V74.3764L0.574909 74.0505C0.579579 73.6599 0.760881 73.3027 1.07458 73.0687C1.39243 72.8315 1.79272 72.7603 2.17288 72.8732Z" fill="#BD6015"/>
<path d="M0.731194 72.6085C0.266665 72.9551 0.000244141 73.4863 0.000244141 74.0659L0.000244141 75.459H0.574469L0.574469 74.6275L3.86669 74.9534V75.459H9.22612V72.4683L4.18424 72.8716L2.33636 72.3228C1.78078 72.1577 1.19572 72.2619 0.731194 72.6085ZM2.17288 72.8732L3.86669 73.3763L3.86669 74.3764L0.574909 74.0505C0.579579 73.6599 0.760881 73.3028 1.07458 73.0687C1.39243 72.8315 1.79272 72.7603 2.17288 72.8732Z" fill="#BD6015"/>
<path d="M9.8003 78.3301C9.8003 78.0129 9.54322 77.7558 9.22608 77.7558C8.90894 77.7558 8.65186 78.0129 8.65186 78.3301C8.65186 78.6472 8.90894 78.9043 9.22608 78.9043C9.54322 78.9043 9.8003 78.6472 9.8003 78.3301Z" fill="#DE8144"/>
<path d="M9.8003 72.5879C9.8003 72.2707 9.54322 72.0137 9.22608 72.0137C8.90894 72.0137 8.65186 72.2707 8.65186 72.5879C8.65186 72.905 8.90894 73.1621 9.22608 73.1621C9.54322 73.1621 9.8003 72.905 9.8003 72.5879Z" fill="#D4702C"/>
</g>
<g filter="url(#filter0_d_2287_151715)">
<rect x="11.3613" y="4" width="49.8172" height="81.6675" rx="2.45002" fill="#B27A49"/>
<rect x="16.4248" y="11.5129" width="39.6904" height="66.6407" rx="1.47001" fill="#FFDD4E" stroke="white" stroke-width="0.32667"/>
</g>
<g clip-path="url(#clip6_2287_151715)">
<path d="M71.8088 78.3095C72.2734 77.9629 72.5398 77.4317 72.5398 76.8521V74.0659C72.5398 73.4863 72.2734 72.9551 71.8088 72.6085C71.3443 72.2619 70.7593 72.1577 70.2037 72.3228L68.3558 72.8716L63.3139 72.4683V78.4497L68.3558 78.0464L70.2037 78.5952C70.7593 78.7603 71.3443 78.6561 71.8088 78.3095ZM68.6733 74.9535L71.9656 74.6275V76.2905L68.6733 75.9646V74.9535ZM71.4655 73.0687C71.7792 73.3028 71.9605 73.66 71.9651 74.0505L68.6733 74.3764V73.3764L70.3672 72.8732C70.7473 72.7603 71.1476 72.8316 71.4655 73.0687ZM70.3672 78.0448L68.6733 77.5417V76.5416L71.9651 76.8675C71.9605 77.2581 71.7792 77.6152 71.4655 77.8493C71.1476 78.0864 70.7473 78.1577 70.3672 78.0448Z" fill="#BD6015"/>
<path d="M71.8088 78.3095C72.2734 77.9629 72.5398 77.4317 72.5398 76.8521V75.459H71.9656V76.2905L68.6733 75.9645V75.459H63.3139V78.4497L68.3558 78.0463L70.2037 78.5952C70.7593 78.7603 71.3443 78.6561 71.8088 78.3095ZM70.3672 78.0448L68.6733 77.5417V76.5416L71.9651 76.8675C71.9605 77.258 71.7792 77.6152 71.4655 77.8493C71.1476 78.0864 70.7473 78.1577 70.3672 78.0448Z" fill="#BD6015"/>
<path d="M62.7395 72.5879C62.7395 72.905 62.9966 73.1621 63.3137 73.1621C63.6309 73.1621 63.8879 72.905 63.8879 72.5879C63.8879 72.2708 63.6309 72.0137 63.3137 72.0137C62.9966 72.0137 62.7395 72.2708 62.7395 72.5879Z" fill="#DE8144"/>
<path d="M62.7395 78.3301C62.7395 78.6472 62.9966 78.9043 63.3137 78.9043C63.6309 78.9043 63.8879 78.6472 63.8879 78.3301C63.8879 78.0129 63.6309 77.7559 63.3137 77.7559C62.9966 77.7559 62.7395 78.0129 62.7395 78.3301Z" fill="#D4702C"/>
</g>
<g clip-path="url(#clip7_2287_151715)">
<path d="M71.8088 66.0595C72.2734 65.7129 72.5398 65.1817 72.5398 64.6021V61.8159C72.5398 61.2363 72.2734 60.7051 71.8088 60.3585C71.3443 60.0119 70.7593 59.9077 70.2037 60.0728L68.3558 60.6216L63.3139 60.2183V66.1997L68.3558 65.7964L70.2037 66.3452C70.7593 66.5103 71.3443 66.4061 71.8088 66.0595ZM68.6733 62.7035L71.9656 62.3775V64.0405L68.6733 63.7146V62.7035ZM71.4655 60.8187C71.7792 61.0528 71.9605 61.41 71.9651 61.8005L68.6733 62.1264V61.1264L70.3672 60.6232C70.7473 60.5103 71.1476 60.5816 71.4655 60.8187ZM70.3672 65.7948L68.6733 65.2917V64.2916L71.9651 64.6175C71.9605 65.0081 71.7792 65.3652 71.4655 65.5993C71.1476 65.8364 70.7473 65.9077 70.3672 65.7948Z" fill="#BD6015"/>
<path d="M71.8088 66.0595C72.2734 65.7129 72.5398 65.1817 72.5398 64.6021V63.209H71.9656V64.0405L68.6733 63.7145V63.209H63.3139V66.1997L68.3558 65.7963L70.2037 66.3452C70.7593 66.5103 71.3443 66.4061 71.8088 66.0595ZM70.3672 65.7948L68.6733 65.2917V64.2916L71.9651 64.6175C71.9605 65.008 71.7792 65.3652 71.4655 65.5993C71.1476 65.8364 70.7473 65.9077 70.3672 65.7948Z" fill="#BD6015"/>
<path d="M62.7395 60.3379C62.7395 60.655 62.9966 60.9121 63.3137 60.9121C63.6309 60.9121 63.8879 60.655 63.8879 60.3379C63.8879 60.0208 63.6309 59.7637 63.3137 59.7637C62.9966 59.7637 62.7395 60.0208 62.7395 60.3379Z" fill="#DE8144"/>
<path d="M62.7395 66.0801C62.7395 66.3972 62.9966 66.6543 63.3137 66.6543C63.6309 66.6543 63.8879 66.3972 63.8879 66.0801C63.8879 65.7629 63.6309 65.5059 63.3137 65.5059C62.9966 65.5059 62.7395 65.7629 62.7395 66.0801Z" fill="#D4702C"/>
</g>
<g clip-path="url(#clip8_2287_151715)">
<path d="M71.8088 53.8095C72.2734 53.4629 72.5398 52.9317 72.5398 52.3521V49.5659C72.5398 48.9863 72.2734 48.4551 71.8088 48.1085C71.3443 47.7619 70.7593 47.6577 70.2037 47.8228L68.3558 48.3716L63.3139 47.9683V53.9497L68.3558 53.5464L70.2037 54.0952C70.7593 54.2603 71.3443 54.1561 71.8088 53.8095ZM68.6733 50.4535L71.9656 50.1275V51.7905L68.6733 51.4646V50.4535ZM71.4655 48.5687C71.7792 48.8028 71.9605 49.16 71.9651 49.5505L68.6733 49.8764V48.8764L70.3672 48.3732C70.7473 48.2603 71.1476 48.3316 71.4655 48.5687ZM70.3672 53.5448L68.6733 53.0417V52.0416L71.9651 52.3675C71.9605 52.7581 71.7792 53.1152 71.4655 53.3493C71.1476 53.5864 70.7473 53.6577 70.3672 53.5448Z" fill="#BD6015"/>
<path d="M71.8088 53.8095C72.2734 53.4629 72.5398 52.9317 72.5398 52.3521V50.959H71.9656V51.7905L68.6733 51.4645V50.959H63.3139V53.9497L68.3558 53.5463L70.2037 54.0952C70.7593 54.2603 71.3443 54.1561 71.8088 53.8095ZM70.3672 53.5448L68.6733 53.0417V52.0416L71.9651 52.3675C71.9605 52.758 71.7792 53.1152 71.4655 53.3493C71.1476 53.5864 70.7473 53.6577 70.3672 53.5448Z" fill="#BD6015"/>
<path d="M62.7395 48.0879C62.7395 48.405 62.9966 48.6621 63.3137 48.6621C63.6309 48.6621 63.8879 48.405 63.8879 48.0879C63.8879 47.7708 63.6309 47.5137 63.3137 47.5137C62.9966 47.5137 62.7395 47.7708 62.7395 48.0879Z" fill="#DE8144"/>
<path d="M62.7395 53.8301C62.7395 54.1472 62.9966 54.4043 63.3137 54.4043C63.6309 54.4043 63.8879 54.1472 63.8879 53.8301C63.8879 53.5129 63.6309 53.2559 63.3137 53.2559C62.9966 53.2559 62.7395 53.5129 62.7395 53.8301Z" fill="#D4702C"/>
</g>
<g clip-path="url(#clip9_2287_151715)">
<path d="M71.8088 41.5595C72.2734 41.2129 72.5398 40.6817 72.5398 40.1021V37.3159C72.5398 36.7363 72.2734 36.2051 71.8088 35.8585C71.3443 35.5119 70.7593 35.4077 70.2037 35.5728L68.3558 36.1216L63.3139 35.7183V41.6997L68.3558 41.2964L70.2037 41.8452C70.7593 42.0103 71.3443 41.9061 71.8088 41.5595ZM68.6733 38.2035L71.9656 37.8775V39.5405L68.6733 39.2146V38.2035ZM71.4655 36.3187C71.7792 36.5528 71.9605 36.91 71.9651 37.3005L68.6733 37.6264V36.6264L70.3672 36.1232C70.7473 36.0103 71.1476 36.0816 71.4655 36.3187ZM70.3672 41.2948L68.6733 40.7917V39.7916L71.9651 40.1175C71.9605 40.5081 71.7792 40.8652 71.4655 41.0993C71.1476 41.3364 70.7473 41.4077 70.3672 41.2948Z" fill="#BD6015"/>
<path d="M71.8088 41.5595C72.2734 41.2129 72.5398 40.6817 72.5398 40.1021V38.709H71.9656V39.5405L68.6733 39.2145V38.709H63.3139V41.6997L68.3558 41.2963L70.2037 41.8452C70.7593 42.0103 71.3443 41.9061 71.8088 41.5595ZM70.3672 41.2948L68.6733 40.7917V39.7916L71.9651 40.1175C71.9605 40.508 71.7792 40.8652 71.4655 41.0993C71.1476 41.3364 70.7473 41.4077 70.3672 41.2948Z" fill="#BD6015"/>
<path d="M62.7395 35.8379C62.7395 36.155 62.9966 36.4121 63.3137 36.4121C63.6309 36.4121 63.8879 36.155 63.8879 35.8379C63.8879 35.5208 63.6309 35.2637 63.3137 35.2637C62.9966 35.2637 62.7395 35.5208 62.7395 35.8379Z" fill="#DE8144"/>
<path d="M62.7395 41.5801C62.7395 41.8972 62.9966 42.1543 63.3137 42.1543C63.6309 42.1543 63.8879 41.8972 63.8879 41.5801C63.8879 41.2629 63.6309 41.0059 63.3137 41.0059C62.9966 41.0059 62.7395 41.2629 62.7395 41.5801Z" fill="#D4702C"/>
</g>
<g clip-path="url(#clip10_2287_151715)">
<path d="M71.8088 29.3095C72.2734 28.9629 72.5398 28.4317 72.5398 27.8521V25.0659C72.5398 24.4863 72.2734 23.9551 71.8088 23.6085C71.3443 23.2619 70.7593 23.1577 70.2037 23.3228L68.3558 23.8716L63.3139 23.4683V29.4497L68.3558 29.0464L70.2037 29.5952C70.7593 29.7603 71.3443 29.6561 71.8088 29.3095ZM68.6733 25.9535L71.9656 25.6275V27.2905L68.6733 26.9646V25.9535ZM71.4655 24.0687C71.7792 24.3028 71.9605 24.66 71.9651 25.0505L68.6733 25.3764V24.3764L70.3672 23.8732C70.7473 23.7603 71.1476 23.8316 71.4655 24.0687ZM70.3672 29.0448L68.6733 28.5417V27.5416L71.9651 27.8675C71.9605 28.2581 71.7792 28.6152 71.4655 28.8493C71.1476 29.0864 70.7473 29.1577 70.3672 29.0448Z" fill="#BD6015"/>
<path d="M71.8088 29.3095C72.2734 28.9629 72.5398 28.4317 72.5398 27.8521V26.459H71.9656V27.2905L68.6733 26.9645V26.459L63.3139 26.459V29.4497L68.3558 29.0463L70.2037 29.5952C70.7593 29.7603 71.3443 29.6561 71.8088 29.3095ZM70.3672 29.0448L68.6733 28.5417V27.5416L71.9651 27.8675C71.9605 28.258 71.7792 28.6152 71.4655 28.8493C71.1476 29.0864 70.7473 29.1577 70.3672 29.0448Z" fill="#BD6015"/>
<path d="M62.7395 23.5879C62.7395 23.905 62.9966 24.1621 63.3137 24.1621C63.6309 24.1621 63.8879 23.905 63.8879 23.5879C63.8879 23.2708 63.6309 23.0137 63.3137 23.0137C62.9966 23.0137 62.7395 23.2708 62.7395 23.5879Z" fill="#DE8144"/>
<path d="M62.7395 29.3301C62.7395 29.6472 62.9966 29.9043 63.3137 29.9043C63.6309 29.9043 63.8879 29.6472 63.8879 29.3301C63.8879 29.0129 63.6309 28.7559 63.3137 28.7559C62.9966 28.7559 62.7395 29.0129 62.7395 29.3301Z" fill="#D4702C"/>
</g>
<g clip-path="url(#clip11_2287_151715)">
<path d="M71.8088 17.0595C72.2734 16.7129 72.5398 16.1817 72.5398 15.6021V12.8159C72.5398 12.2363 72.2734 11.7051 71.8088 11.3585C71.3443 11.0119 70.7593 10.9077 70.2037 11.0728L68.3558 11.6216L63.3139 11.2183V17.1997L68.3558 16.7964L70.2037 17.3452C70.7593 17.5103 71.3443 17.4061 71.8088 17.0595ZM68.6733 13.7035L71.9656 13.3775V15.0405L68.6733 14.7146V13.7035ZM71.4655 11.8187C71.7792 12.0528 71.9605 12.41 71.9651 12.8005L68.6733 13.1264V12.1264L70.3672 11.6232C70.7473 11.5103 71.1476 11.5816 71.4655 11.8187ZM70.3672 16.7948L68.6733 16.2917V15.2916L71.9651 15.6175C71.9605 16.0081 71.7792 16.3652 71.4655 16.5993C71.1476 16.8364 70.7473 16.9077 70.3672 16.7948Z" fill="#BD6015"/>
<path d="M71.8088 17.0576C72.2734 16.7109 72.5398 16.1797 72.5398 15.6002V14.207H71.9656V15.0385L68.6733 14.7126V14.207L63.3139 14.207V17.1977L68.3558 16.7944L70.2037 17.3433C70.7593 17.5083 71.3443 17.4042 71.8088 17.0576ZM70.3672 16.7928L68.6733 16.2897V15.2896L71.9651 15.6155C71.9605 16.0061 71.7792 16.3633 71.4655 16.5973C71.1476 16.8345 70.7473 16.9057 70.3672 16.7928Z" fill="#BD6015"/>
<path d="M62.7395 11.3359C62.7395 11.6531 62.9966 11.9102 63.3137 11.9102C63.6309 11.9102 63.8879 11.6531 63.8879 11.3359C63.8879 11.0188 63.6309 10.7617 63.3137 10.7617C62.9966 10.7617 62.7395 11.0188 62.7395 11.3359Z" fill="#DE8144"/>
<path d="M62.7395 17.0801C62.7395 17.3972 62.9966 17.6543 63.3137 17.6543C63.6309 17.6543 63.8879 17.3972 63.8879 17.0801C63.8879 16.7629 63.6309 16.5059 63.3137 16.5059C62.9966 16.5059 62.7395 16.7629 62.7395 17.0801Z" fill="#D4702C"/>
</g>
<defs>
<filter id="filter0_d_2287_151715" x="8.09463" y="0.733301" width="56.3505" height="88.2014" filterUnits="userSpaceOnUse" color-interpolation-filters="sRGB">
<feFlood flood-opacity="0" result="BackgroundImageFix"/>
<feColorMatrix in="SourceAlpha" type="matrix" values="0 0 0 0 0 0 0 0 0 0 0 0 0 0 0 0 0 0 127 0" result="hardAlpha"/>
<feOffset/>
<feGaussianBlur stdDeviation="1.63335"/>
<feComposite in2="hardAlpha" operator="out"/>
<feColorMatrix type="matrix" values="0 0 0 0 0 0 0 0 0 0 0 0 0 0 0 0 0 0 0.25 0"/>
<feBlend mode="normal" in2="BackgroundImageFix" result="effect1_dropShadow_2287_151715"/>
<feBlend mode="normal" in="SourceGraphic" in2="effect1_dropShadow_2287_151715" result="shape"/>
</filter>
<clipPath id="clip0_2287_151715">
<rect width="9.8001" height="9.8001" fill="white" transform="matrix(0 -1 1 0 0 19.1094)"/>
</clipPath>
<clipPath id="clip1_2287_151715">
<rect width="9.8001" height="9.8001" fill="white" transform="matrix(0 -1 1 0 0 31.3594)"/>
</clipPath>
<clipPath id="clip2_2287_151715">
<rect width="9.8001" height="9.8001" fill="white" transform="matrix(0 -1 1 0 0 43.6094)"/>
</clipPath>
<clipPath id="clip3_2287_151715">
<rect width="9.8001" height="9.8001" fill="white" transform="matrix(0 -1 1 0 0 55.8594)"/>
</clipPath>
<clipPath id="clip4_2287_151715">
<rect width="9.8001" height="9.8001" fill="white" transform="matrix(0 -1 1 0 0 68.1094)"/>
</clipPath>
<clipPath id="clip5_2287_151715">
<rect width="9.8001" height="9.8001" fill="white" transform="matrix(0 -1 1 0 0 80.3594)"/>
</clipPath>
<clipPath id="clip6_2287_151715">
<rect width="9.8001" height="9.8001" fill="white" transform="matrix(0 1 -1 0 72.5398 70.5586)"/>
</clipPath>
<clipPath id="clip7_2287_151715">
<rect width="9.8001" height="9.8001" fill="white" transform="matrix(0 1 -1 0 72.5398 58.3086)"/>
</clipPath>
<clipPath id="clip8_2287_151715">
<rect width="9.8001" height="9.8001" fill="white" transform="matrix(0 1 -1 0 72.5398 46.0586)"/>
</clipPath>
<clipPath id="clip9_2287_151715">
<rect width="9.8001" height="9.8001" fill="white" transform="matrix(0 1 -1 0 72.5398 33.8086)"/>
</clipPath>
<clipPath id="clip10_2287_151715">
<rect width="9.8001" height="9.8001" fill="white" transform="matrix(0 1 -1 0 72.5398 21.5586)"/>
</clipPath>
<clipPath id="clip11_2287_151715">
<rect width="9.8001" height="9.8001" fill="white" transform="matrix(0 1 -1 0 72.5398 9.30859)"/>
</clipPath>
</defs>
</svg>
