<svg width="54" height="56" viewBox="0 0 54 56" fill="none" xmlns="http://www.w3.org/2000/svg">
<g clip-path="url(#clip0_2287_151837)">
<path d="M0.730705 7.09086C0.266177 7.43748 -0.000244141 7.96867 -0.000244141 8.54826L-0.000244141 11.3345C-0.000244141 11.9141 0.266177 12.4453 0.730705 12.7919C1.19523 13.1385 1.78029 13.2427 2.33589 13.0776L4.18377 12.5288L9.22563 12.9321L9.22563 6.95067L4.18375 7.35402L2.33587 6.80516C1.78029 6.64011 1.19523 6.74425 0.730705 7.09086ZM3.8662 10.4469L0.57398 10.7729L0.57398 9.10987L3.8662 9.43583L3.8662 10.4469ZM1.07409 12.3317C0.760393 12.0976 0.579072 11.7404 0.574421 11.3499L3.8662 11.0239V12.024L2.17239 12.5272C1.79224 12.6401 1.39194 12.5688 1.07409 12.3317ZM2.17239 7.35559L3.8662 7.85871V8.8588L0.574421 8.53289C0.579091 8.14234 0.760393 7.78515 1.07409 7.55108C1.39194 7.31394 1.79224 7.24268 2.17239 7.35559Z" fill="#BD6015"/>
<path d="M0.730705 7.09088C0.266177 7.4375 -0.000244141 7.9687 -0.000244141 8.54828L-0.000244141 9.94141H0.57398L0.57398 9.10989L3.8662 9.43586V9.94141L9.22563 9.94141V6.95069L4.18375 7.35405L2.33587 6.80518C1.78029 6.64013 1.19523 6.74428 0.730705 7.09088ZM2.17239 7.35562L3.8662 7.85873L3.8662 8.85882L0.574421 8.53291C0.579091 8.14236 0.760393 7.78517 1.07409 7.5511C1.39194 7.31397 1.79224 7.2427 2.17239 7.35562Z" fill="#BD6015"/>
<path d="M9.79982 12.8125C9.79982 12.4954 9.54273 12.2383 9.22559 12.2383C8.90846 12.2383 8.65137 12.4954 8.65137 12.8125C8.65137 13.1296 8.90846 13.3867 9.22559 13.3867C9.54273 13.3867 9.79982 13.1296 9.79982 12.8125Z" fill="#DE8144"/>
<path d="M9.79982 7.07031C9.79982 6.75317 9.54273 6.49608 9.22559 6.49608C8.90846 6.49608 8.65137 6.75317 8.65137 7.07031C8.65137 7.38744 8.90846 7.64453 9.22559 7.64453C9.54273 7.64453 9.79982 7.38744 9.79982 7.07031Z" fill="#D4702C"/>
</g>
<g clip-path="url(#clip1_2287_151837)">
<path d="M0.730705 19.3409C0.266177 19.6875 -0.000244141 20.2187 -0.000244141 20.7983L-0.000244141 23.5845C-0.000244141 24.1641 0.266177 24.6953 0.730705 25.0419C1.19523 25.3885 1.78029 25.4927 2.33589 25.3276L4.18377 24.7788L9.22563 25.1821L9.22563 19.2007L4.18375 19.604L2.33587 19.0552C1.78029 18.8901 1.19523 18.9943 0.730705 19.3409ZM3.8662 22.6969L0.57398 23.0229L0.57398 21.3599L3.8662 21.6858L3.8662 22.6969ZM1.07409 24.5817C0.760393 24.3476 0.579072 23.9904 0.574421 23.5999L3.8662 23.2739V24.274L2.17239 24.7772C1.79224 24.8901 1.39194 24.8188 1.07409 24.5817ZM2.17239 19.6056L3.8662 20.1087V21.1088L0.574421 20.7829C0.579091 20.3923 0.760393 20.0351 1.07409 19.8011C1.39194 19.5639 1.79224 19.4927 2.17239 19.6056Z" fill="#BD6015"/>
<path d="M0.730705 19.3409C0.266177 19.6875 -0.000244141 20.2187 -0.000244141 20.7983L-0.000244141 22.1914H0.57398L0.57398 21.3599L3.8662 21.6859V22.1914L9.22563 22.1914V19.2007L4.18375 19.604L2.33587 19.0552C1.78029 18.8901 1.19523 18.9943 0.730705 19.3409ZM2.17239 19.6056L3.8662 20.1087L3.8662 21.1088L0.574421 20.7829C0.579091 20.3924 0.760393 20.0352 1.07409 19.8011C1.39194 19.564 1.79224 19.4927 2.17239 19.6056Z" fill="#BD6015"/>
<path d="M9.79982 25.0625C9.79982 24.7454 9.54273 24.4883 9.22559 24.4883C8.90846 24.4883 8.65137 24.7454 8.65137 25.0625C8.65137 25.3796 8.90846 25.6367 9.22559 25.6367C9.54273 25.6367 9.79982 25.3796 9.79982 25.0625Z" fill="#DE8144"/>
<path d="M9.79982 19.3203C9.79982 19.0032 9.54273 18.7461 9.22559 18.7461C8.90846 18.7461 8.65137 19.0032 8.65137 19.3203C8.65137 19.6374 8.90846 19.8945 9.22559 19.8945C9.54273 19.8945 9.79982 19.6374 9.79982 19.3203Z" fill="#D4702C"/>
</g>
<g clip-path="url(#clip2_2287_151837)">
<path d="M0.730705 31.5909C0.266177 31.9375 -0.000244141 32.4687 -0.000244141 33.0483L-0.000244141 35.8345C-0.000244141 36.4141 0.266177 36.9453 0.730705 37.2919C1.19523 37.6385 1.78029 37.7427 2.33589 37.5776L4.18377 37.0288L9.22563 37.4321L9.22563 31.4507L4.18375 31.854L2.33587 31.3052C1.78029 31.1401 1.19523 31.2443 0.730705 31.5909ZM3.8662 34.9469L0.57398 35.2729L0.57398 33.6099L3.8662 33.9358L3.8662 34.9469ZM1.07409 36.8317C0.760393 36.5976 0.579072 36.2404 0.574421 35.8499L3.8662 35.5239V36.524L2.17239 37.0272C1.79224 37.1401 1.39194 37.0688 1.07409 36.8317ZM2.17239 31.8556L3.8662 32.3587V33.3588L0.574421 33.0329C0.579091 32.6423 0.760393 32.2851 1.07409 32.0511C1.39194 31.8139 1.79224 31.7427 2.17239 31.8556Z" fill="#BD6015"/>
<path d="M0.730705 31.5909C0.266177 31.9375 -0.000244141 32.4687 -0.000244141 33.0483L-0.000244141 34.4414H0.57398L0.57398 33.6099L3.8662 33.9359V34.4414H9.22563V31.4507L4.18375 31.854L2.33587 31.3052C1.78029 31.1401 1.19523 31.2443 0.730705 31.5909ZM2.17239 31.8556L3.8662 32.3587L3.8662 33.3588L0.574421 33.0329C0.579091 32.6424 0.760393 32.2852 1.07409 32.0511C1.39194 31.814 1.79224 31.7427 2.17239 31.8556Z" fill="#BD6015"/>
<path d="M9.79982 37.3125C9.79982 36.9954 9.54273 36.7383 9.22559 36.7383C8.90846 36.7383 8.65137 36.9954 8.65137 37.3125C8.65137 37.6296 8.90846 37.8867 9.22559 37.8867C9.54273 37.8867 9.79982 37.6296 9.79982 37.3125Z" fill="#DE8144"/>
<path d="M9.79982 31.5703C9.79982 31.2532 9.54273 30.9961 9.22559 30.9961C8.90846 30.9961 8.65137 31.2532 8.65137 31.5703C8.65137 31.8874 8.90846 32.1445 9.22559 32.1445C9.54273 32.1445 9.79982 31.8874 9.79982 31.5703Z" fill="#D4702C"/>
</g>
<g clip-path="url(#clip3_2287_151837)">
<path d="M0.730705 43.8409C0.266177 44.1875 -0.000244141 44.7187 -0.000244141 45.2983L-0.000244141 48.0845C-0.000244141 48.6641 0.266177 49.1953 0.730705 49.5419C1.19523 49.8885 1.78029 49.9927 2.33589 49.8276L4.18377 49.2788L9.22563 49.6821L9.22563 43.7007L4.18375 44.104L2.33587 43.5552C1.78029 43.3901 1.19523 43.4943 0.730705 43.8409ZM3.8662 47.1969L0.57398 47.5229L0.57398 45.8599L3.8662 46.1858L3.8662 47.1969ZM1.07409 49.0817C0.760393 48.8476 0.579072 48.4904 0.574421 48.0999L3.8662 47.7739V48.774L2.17239 49.2772C1.79224 49.3901 1.39194 49.3188 1.07409 49.0817ZM2.17239 44.1056L3.8662 44.6087V45.6088L0.574421 45.2829C0.579091 44.8923 0.760393 44.5351 1.07409 44.3011C1.39194 44.0639 1.79224 43.9927 2.17239 44.1056Z" fill="#BD6015"/>
<path d="M0.730705 43.8409C0.266177 44.1875 -0.000244141 44.7187 -0.000244141 45.2983L-0.000244141 46.6914H0.57398L0.57398 45.8599L3.8662 46.1859V46.6914H9.22563V43.7007L4.18375 44.104L2.33587 43.5552C1.78029 43.3901 1.19523 43.4943 0.730705 43.8409ZM2.17239 44.1056L3.8662 44.6087L3.8662 45.6088L0.574421 45.2829C0.579091 44.8924 0.760393 44.5352 1.07409 44.3011C1.39194 44.064 1.79224 43.9927 2.17239 44.1056Z" fill="#BD6015"/>
<path d="M9.79982 49.5625C9.79982 49.2454 9.54273 48.9883 9.22559 48.9883C8.90846 48.9883 8.65137 49.2454 8.65137 49.5625C8.65137 49.8796 8.90846 50.1367 9.22559 50.1367C9.54273 50.1367 9.79982 49.8796 9.79982 49.5625Z" fill="#DE8144"/>
<path d="M9.79982 43.8203C9.79982 43.5032 9.54273 43.2461 9.22559 43.2461C8.90846 43.2461 8.65137 43.5032 8.65137 43.8203C8.65137 44.1374 8.90846 44.3945 9.22559 44.3945C9.54273 44.3945 9.79982 44.1374 9.79982 43.8203Z" fill="#D4702C"/>
</g>
<g filter="url(#filter0_d_2287_151837)">
<rect x="11.3611" y="3" width="30.8866" height="50.6338" rx="1.51902" fill="#B27A49"/>
<rect x="14.4999" y="7.65791" width="24.608" height="41.3172" rx="0.911409" fill="#FFDD4E" stroke="white" stroke-width="0.202535"/>
</g>
<g clip-path="url(#clip4_2287_151837)">
<path d="M52.8782 49.542C53.3427 49.1953 53.6091 48.6641 53.6091 48.0846V45.2983C53.6091 44.7187 53.3427 44.1875 52.8782 43.8409C52.4137 43.4943 51.8286 43.3902 51.273 43.5552L49.4251 44.1041L44.3833 43.7007V49.6821L49.4251 49.2788L51.273 49.8277C51.8286 49.9927 52.4137 49.8886 52.8782 49.542ZM49.7427 46.1859L53.0349 45.8599V47.5229L49.7427 47.197V46.1859ZM52.5348 44.3011C52.8485 44.5352 53.0298 44.8924 53.0345 45.283L49.7427 45.6089V44.6088L51.4365 44.1057C51.8167 43.9927 52.2169 44.064 52.5348 44.3011ZM51.4365 49.2772L49.7427 48.7741V47.774L53.0345 48.0999C53.0298 48.4905 52.8485 48.8477 52.5348 49.0817C52.2169 49.3189 51.8167 49.3901 51.4365 49.2772Z" fill="#BD6015"/>
<path d="M52.8782 49.54C53.3427 49.1934 53.6091 48.6622 53.6091 48.0826V46.6895H53.0349V47.521L49.7427 47.195V46.6895H44.3833V49.6802L49.4251 49.2768L51.273 49.8257C51.8286 49.9907 52.4137 49.8866 52.8782 49.54ZM51.4365 49.2752L49.7427 48.7721V47.772L53.0345 48.0979C53.0298 48.4885 52.8485 48.8457 52.5348 49.0798C52.2169 49.3169 51.8167 49.3882 51.4365 49.2752Z" fill="#BD6015"/>
<path d="M43.8091 43.8184C43.8091 44.1355 44.0662 44.3926 44.3833 44.3926C44.7004 44.3926 44.9575 44.1355 44.9575 43.8184C44.9575 43.5012 44.7004 43.2441 44.3833 43.2441C44.0662 43.2441 43.8091 43.5012 43.8091 43.8184Z" fill="#DE8144"/>
<path d="M43.8091 49.5606C43.8091 49.8777 44.0662 50.1348 44.3833 50.1348C44.7004 50.1348 44.9575 49.8777 44.9575 49.5606C44.9575 49.2434 44.7004 48.9863 44.3833 48.9863C44.0662 48.9863 43.8091 49.2434 43.8091 49.5606Z" fill="#D4702C"/>
</g>
<g clip-path="url(#clip5_2287_151837)">
<path d="M52.8782 37.292C53.3427 36.9453 53.6091 36.4141 53.6091 35.8346V33.0483C53.6091 32.4687 53.3427 31.9375 52.8782 31.5909C52.4137 31.2443 51.8286 31.1402 51.273 31.3052L49.4251 31.8541L44.3833 31.4507V37.4321L49.4251 37.0288L51.273 37.5777C51.8286 37.7427 52.4137 37.6386 52.8782 37.292ZM49.7427 33.9359L53.0349 33.6099V35.2729L49.7427 34.947V33.9359ZM52.5348 32.0511C52.8485 32.2852 53.0298 32.6424 53.0345 33.033L49.7427 33.3589V32.3588L51.4365 31.8557C51.8167 31.7427 52.2169 31.814 52.5348 32.0511ZM51.4365 37.0272L49.7427 36.5241V35.524L53.0345 35.8499C53.0298 36.2405 52.8485 36.5977 52.5348 36.8317C52.2169 37.0689 51.8167 37.1401 51.4365 37.0272Z" fill="#BD6015"/>
<path d="M52.8782 37.29C53.3427 36.9434 53.6091 36.4122 53.6091 35.8326V34.4395H53.0349V35.271L49.7427 34.945V34.4395H44.3833V37.4302L49.4251 37.0268L51.273 37.5757C51.8286 37.7407 52.4137 37.6366 52.8782 37.29ZM51.4365 37.0252L49.7427 36.5221V35.522L53.0345 35.8479C53.0298 36.2385 52.8485 36.5957 52.5348 36.8298C52.2169 37.0669 51.8167 37.1382 51.4365 37.0252Z" fill="#BD6015"/>
<path d="M43.8091 31.5684C43.8091 31.8855 44.0662 32.1426 44.3833 32.1426C44.7004 32.1426 44.9575 31.8855 44.9575 31.5684C44.9575 31.2512 44.7004 30.9941 44.3833 30.9941C44.0662 30.9941 43.8091 31.2512 43.8091 31.5684Z" fill="#DE8144"/>
<path d="M43.8091 37.3106C43.8091 37.6277 44.0662 37.8848 44.3833 37.8848C44.7004 37.8848 44.9575 37.6277 44.9575 37.3106C44.9575 36.9934 44.7004 36.7363 44.3833 36.7363C44.0662 36.7363 43.8091 36.9934 43.8091 37.3106Z" fill="#D4702C"/>
</g>
<g clip-path="url(#clip6_2287_151837)">
<path d="M52.8782 25.0439C53.3427 24.6973 53.6091 24.1661 53.6091 23.5865V20.8003C53.6091 20.2207 53.3427 19.6895 52.8782 19.3429C52.4137 18.9963 51.8286 18.8921 51.273 19.0571L49.4251 19.606L44.3833 19.2027V25.1841L49.4251 24.7807L51.273 25.3296C51.8286 25.4947 52.4137 25.3905 52.8782 25.0439ZM49.7427 21.6878L53.0349 21.3619V23.0249L49.7427 22.6989V21.6878ZM52.5348 19.8031C52.8485 20.0372 53.0298 20.3944 53.0345 20.7849L49.7427 21.1108V20.1107L51.4365 19.6076C51.8167 19.4947 52.2169 19.5659 52.5348 19.8031ZM51.4365 24.7792L49.7427 24.2761V23.276L53.0345 23.6019C53.0298 23.9924 52.8485 24.3496 52.5348 24.5837C52.2169 24.8208 51.8167 24.8921 51.4365 24.7792Z" fill="#BD6015"/>
<path d="M52.8782 25.0419C53.3427 24.6953 53.6091 24.1641 53.6091 23.5845V22.1914H53.0349V23.0229L49.7427 22.697V22.1914L44.3833 22.1914V25.1821L49.4251 24.7788L51.273 25.3276C51.8286 25.4927 52.4137 25.3885 52.8782 25.0419ZM51.4365 24.7772L49.7427 24.2741V23.274L53.0345 23.5999C53.0298 23.9905 52.8485 24.3476 52.5348 24.5817C52.2169 24.8188 51.8167 24.8901 51.4365 24.7772Z" fill="#BD6015"/>
<path d="M43.8091 19.3203C43.8091 19.6375 44.0662 19.8945 44.3833 19.8945C44.7004 19.8945 44.9575 19.6375 44.9575 19.3203C44.9575 19.0032 44.7004 18.7461 44.3833 18.7461C44.0662 18.7461 43.8091 19.0032 43.8091 19.3203Z" fill="#DE8144"/>
<path d="M43.8091 25.0625C43.8091 25.3796 44.0662 25.6367 44.3833 25.6367C44.7004 25.6367 44.9575 25.3796 44.9575 25.0625C44.9575 24.7454 44.7004 24.4883 44.3833 24.4883C44.0662 24.4883 43.8091 24.7454 43.8091 25.0625Z" fill="#D4702C"/>
</g>
<g clip-path="url(#clip7_2287_151837)">
<path d="M52.8782 12.792C53.3427 12.4453 53.6091 11.9141 53.6091 11.3346V8.5483C53.6091 7.96872 53.3427 7.43753 52.8782 7.0909C52.4137 6.7443 51.8286 6.64016 51.273 6.80519L49.4251 7.35405L44.3833 6.95072V12.9321L49.4251 12.5288L51.273 13.0777C51.8286 13.2427 52.4137 13.1386 52.8782 12.792ZM49.7427 9.43588L53.0349 9.10992V10.7729L49.7427 10.447V9.43588ZM52.5348 7.55115C52.8485 7.78522 53.0298 8.1424 53.0345 8.53295L49.7427 8.85886V7.85878L51.4365 7.35566C51.8167 7.24273 52.2169 7.31399 52.5348 7.55115ZM51.4365 12.5272L49.7427 12.0241V11.024L53.0345 11.3499C53.0298 11.7405 52.8485 12.0977 52.5348 12.3317C52.2169 12.5689 51.8167 12.6401 51.4365 12.5272Z" fill="#BD6015"/>
<path d="M52.8782 12.7919C53.3427 12.4453 53.6091 11.9141 53.6091 11.3345V9.94141H53.0349V10.7729L49.7427 10.447V9.94141L44.3833 9.94141V12.9321L49.4251 12.5288L51.273 13.0776C51.8286 13.2427 52.4137 13.1385 52.8782 12.7919ZM51.4365 12.5272L49.7427 12.0241V11.024L53.0345 11.3499C53.0298 11.7405 52.8485 12.0976 52.5348 12.3317C52.2169 12.5688 51.8167 12.6401 51.4365 12.5272Z" fill="#BD6015"/>
<path d="M43.8091 7.07032C43.8091 7.38745 44.0662 7.64454 44.3833 7.64454C44.7004 7.64454 44.9575 7.38745 44.9575 7.07032C44.9575 6.75318 44.7004 6.49609 44.3833 6.49609C44.0662 6.49609 43.8091 6.75318 43.8091 7.07032Z" fill="#DE8144"/>
<path d="M43.8091 12.8125C43.8091 13.1296 44.0662 13.3867 44.3833 13.3867C44.7004 13.3867 44.9575 13.1296 44.9575 12.8125C44.9575 12.4954 44.7004 12.2383 44.3833 12.2383C44.0662 12.2383 43.8091 12.4954 43.8091 12.8125Z" fill="#D4702C"/>
</g>
<defs>
<filter id="filter0_d_2287_151837" x="9.33573" y="0.974646" width="34.9373" height="54.6855" filterUnits="userSpaceOnUse" color-interpolation-filters="sRGB">
<feFlood flood-opacity="0" result="BackgroundImageFix"/>
<feColorMatrix in="SourceAlpha" type="matrix" values="0 0 0 0 0 0 0 0 0 0 0 0 0 0 0 0 0 0 127 0" result="hardAlpha"/>
<feOffset/>
<feGaussianBlur stdDeviation="1.01268"/>
<feComposite in2="hardAlpha" operator="out"/>
<feColorMatrix type="matrix" values="0 0 0 0 0 0 0 0 0 0 0 0 0 0 0 0 0 0 0.25 0"/>
<feBlend mode="normal" in2="BackgroundImageFix" result="effect1_dropShadow_2287_151837"/>
<feBlend mode="normal" in="SourceGraphic" in2="effect1_dropShadow_2287_151837" result="shape"/>
</filter>
<clipPath id="clip0_2287_151837">
<rect width="9.8001" height="9.8001" fill="white" transform="matrix(0 -1 1 0 -0.00012207 14.8418)"/>
</clipPath>
<clipPath id="clip1_2287_151837">
<rect width="9.8001" height="9.8001" fill="white" transform="matrix(0 -1 1 0 -0.00012207 27.0918)"/>
</clipPath>
<clipPath id="clip2_2287_151837">
<rect width="9.8001" height="9.8001" fill="white" transform="matrix(0 -1 1 0 -0.00012207 39.3418)"/>
</clipPath>
<clipPath id="clip3_2287_151837">
<rect width="9.8001" height="9.8001" fill="white" transform="matrix(0 -1 1 0 -0.00012207 51.5918)"/>
</clipPath>
<clipPath id="clip4_2287_151837">
<rect width="9.8001" height="9.8001" fill="white" transform="matrix(0 1 -1 0 53.6093 41.791)"/>
</clipPath>
<clipPath id="clip5_2287_151837">
<rect width="9.8001" height="9.8001" fill="white" transform="matrix(0 1 -1 0 53.6093 29.541)"/>
</clipPath>
<clipPath id="clip6_2287_151837">
<rect width="9.8001" height="9.8001" fill="white" transform="matrix(0 1 -1 0 53.6093 17.291)"/>
</clipPath>
<clipPath id="clip7_2287_151837">
<rect width="9.8001" height="9.8001" fill="white" transform="matrix(0 1 -1 0 53.6093 5.04102)"/>
</clipPath>
</defs>
</svg>
