<svg width="66" height="67" viewBox="0 0 66 67" fill="none" xmlns="http://www.w3.org/2000/svg">
<g clip-path="url(#clip0_2287_152159)">
<path d="M27.4262 3.55812L28.4891 4.62109L28.8082 4.30204L27.7452 3.23906L27.4262 3.55812Z" fill="#BD6015"/>
<path d="M35.7091 4.30009L36.0282 4.61914L37.0975 3.54983L36.7785 3.23078L35.7091 4.30009Z" fill="#BD6015"/>
<path d="M32.2585 13.2598C35.1245 13.2598 37.448 10.9364 37.448 8.07035C37.448 5.20427 35.1245 2.88086 32.2585 2.88086C29.3924 2.88086 27.069 5.20427 27.069 8.07035C27.069 10.9364 29.3924 13.2598 32.2585 13.2598Z" fill="#D4702C"/>
<path d="M36.9822 7.69289C36.8038 5.39247 34.9364 3.52503 32.6359 3.34669C31.2357 3.23814 29.9536 3.73968 29.0233 4.61271C28.8645 4.76174 28.6266 4.55626 28.7486 4.37588C28.8295 4.25622 28.9146 4.13937 29.0051 4.02711C27.7189 5.06341 26.9372 6.7006 27.0873 8.51259C27.2943 11.0102 29.3191 13.0348 31.8166 13.2416C33.6285 13.3916 35.2656 12.61 36.3018 11.3239C36.1895 11.4143 36.0727 11.4994 35.953 11.5804C35.7726 11.7024 35.5671 11.4645 35.7161 11.3057C36.5893 10.3754 37.0908 9.0932 36.9822 7.69289Z" fill="#BD6015"/>
<path d="M32.2585 0.623047C29.1322 0.623047 26.4499 2.55971 25.348 5.29633C25.2931 5.43264 25.3121 5.58815 25.3932 5.71069C25.5961 6.01707 26.0531 5.96265 26.1909 5.62202C27.1618 3.22275 29.5153 1.52558 32.2585 1.52558C35.0017 1.52558 37.3552 3.22275 38.3261 5.62199C38.4639 5.96262 38.9209 6.01707 39.1238 5.71066C39.2049 5.58815 39.2239 5.43261 39.169 5.2963C38.0671 2.55971 35.3847 0.623047 32.2585 0.623047Z" fill="#D4702C"/>
<path d="M25.6143 5.88274C26.5325 3.09075 29.1593 1.07431 32.2585 1.07431C35.3577 1.07431 37.9845 3.09075 38.9027 5.88271C38.9879 5.85207 39.0664 5.79738 39.1237 5.71069C39.2049 5.58815 39.2239 5.43264 39.169 5.29633C38.0671 2.55968 35.3848 0.623047 32.2585 0.623047C29.1323 0.623047 26.4499 2.55968 25.348 5.2963C25.2931 5.43261 25.3121 5.58812 25.3932 5.71066C25.4506 5.79738 25.5291 5.85207 25.6143 5.88274Z" fill="#BD6015"/>
<path d="M32.2585 12.3573C34.6262 12.3573 36.5456 10.4379 36.5456 8.07027C36.5456 5.70259 34.6262 3.7832 32.2585 3.7832C29.8908 3.7832 27.9714 5.70259 27.9714 8.07027C27.9714 10.4379 29.8908 12.3573 32.2585 12.3573Z" fill="#FFE387"/>
<path d="M32.7098 11.9048C30.3421 11.9048 28.4227 9.9854 28.4227 7.61772C28.4227 6.5488 28.814 5.57113 29.4611 4.82031C28.5488 5.60652 27.9714 6.77024 27.9714 8.06899C27.9714 10.4367 29.8908 12.3561 32.2585 12.3561C33.5573 12.3561 34.7212 11.7789 35.5075 10.8666C34.7566 11.5137 33.7787 11.9048 32.7098 11.9048Z" fill="#FFDD4E"/>
</g>
<g filter="url(#filter0_d_2287_152159)">
<path d="M32.2587 17.1504C23.2525 17.1504 15.9252 24.4774 15.9252 33.4839C15.9252 42.4904 23.2525 49.8174 32.2587 49.8174C41.2652 49.8174 48.5922 42.4904 48.5922 33.4839C48.5922 24.4774 41.2652 17.1504 32.2587 17.1504Z" fill="#B27A49"/>
<path d="M32.2583 17.1504V49.8174C41.2648 49.8174 48.5918 42.4904 48.5918 33.4839C48.5918 24.4774 41.2648 17.1504 32.2583 17.1504Z" fill="#B27A49"/>
</g>
<path d="M21.0841 33.4834C21.0841 27.3212 26.0977 22.3079 32.2596 22.3079C38.4218 22.3079 43.4351 27.3212 43.4351 33.4834C43.4351 39.6453 38.4218 44.6589 32.2596 44.6589C26.0977 44.6589 21.0841 39.6453 21.0841 33.4834Z" fill="#FFDD4E" stroke="white" stroke-width="0.32667"/>
<g clip-path="url(#clip1_2287_152159)">
<path d="M37.0913 63.4106L36.0283 62.3477L35.7093 62.6667L36.7722 63.7297L37.0913 63.4106Z" fill="#BD6015"/>
<path d="M28.8083 62.6687L28.4893 62.3496L27.42 63.4189L27.739 63.738L28.8083 62.6687Z" fill="#BD6015"/>
<path d="M32.2589 53.707C29.3928 53.707 27.0694 56.0304 27.0694 58.8964C27.0694 61.7625 29.3928 64.0859 32.2589 64.0859C35.125 64.0859 37.4484 61.7625 37.4484 58.8964C37.4484 56.0304 35.125 53.707 32.2589 53.707Z" fill="#D4702C"/>
<path d="M27.5351 59.2739C27.7135 61.5743 29.581 63.4418 31.8814 63.6201C33.2816 63.7287 34.5638 63.2271 35.4941 62.3541C35.6529 62.2051 35.8908 62.4105 35.7687 62.5909C35.6878 62.7106 35.6027 62.8274 35.5123 62.9397C36.7985 61.9034 37.5801 60.2662 37.43 58.4542C37.223 55.9566 35.1983 53.932 32.7007 53.7252C30.8888 53.5752 29.2518 54.3568 28.2155 55.6429C28.3278 55.5525 28.4447 55.4674 28.5644 55.3864C28.7447 55.2644 28.9502 55.5023 28.8012 55.6611C27.9281 56.5914 27.4265 57.8736 27.5351 59.2739Z" fill="#BD6015"/>
<path d="M32.2588 66.3438C35.3851 66.3438 38.0674 64.4071 39.1694 61.6705C39.2242 61.5342 39.2052 61.3786 39.1241 61.2561C38.9212 60.9497 38.4643 61.0041 38.3264 61.3448C37.3555 63.744 35.002 65.4412 32.2588 65.4412C29.5156 65.4412 27.1622 63.744 26.1913 61.3448C26.0534 61.0042 25.5965 60.9497 25.3936 61.2561C25.3124 61.3786 25.2934 61.5342 25.3483 61.6705C26.4502 64.4071 29.1326 66.3438 32.2588 66.3438Z" fill="#D4702C"/>
<path d="M38.9031 61.0841C37.9848 63.876 35.3581 65.8925 32.2588 65.8925C29.1596 65.8925 26.5328 63.876 25.6146 61.0841C25.5295 61.1147 25.451 61.1694 25.3936 61.2561C25.3125 61.3786 25.2934 61.5342 25.3483 61.6705C26.4502 64.4071 29.1326 66.3438 32.2588 66.3438C35.3851 66.3438 38.0674 64.4071 39.1694 61.6705C39.2242 61.5342 39.2052 61.3787 39.1241 61.2561C39.0667 61.1694 38.9882 61.1147 38.9031 61.0841Z" fill="#BD6015"/>
<path d="M32.2588 54.6095C29.8912 54.6095 27.9718 56.5288 27.9718 58.8965C27.9718 61.2642 29.8912 63.1836 32.2588 63.1836C34.6265 63.1836 36.5459 61.2642 36.5459 58.8965C36.5459 56.5288 34.6265 54.6095 32.2588 54.6095Z" fill="#FFE387"/>
<path d="M31.8076 55.0601C34.1752 55.0601 36.0946 56.9794 36.0946 59.3471C36.0946 60.416 35.7033 61.3937 35.0562 62.1445C35.9685 61.3583 36.5459 60.1946 36.5459 58.8959C36.5459 56.5282 34.6265 54.6088 32.2588 54.6088C30.9601 54.6088 29.7961 55.1859 29.0099 56.0982C29.7607 55.4511 30.7386 55.0601 31.8076 55.0601Z" fill="#FFDD4E"/>
</g>
<g clip-path="url(#clip2_2287_152159)">
<path d="M4.17516 21.7594L5.66724 21.5762L5.61225 21.1283L4.12018 21.3115L4.17516 21.7594Z" fill="#BD6015"/>
<path d="M9.86063 15.6898L10.3085 15.6348L10.1242 14.1338L9.67633 14.1888L9.86063 15.6898Z" fill="#BD6015"/>
<path d="M14.7968 23.9256C16.5613 21.6671 16.1609 18.4058 13.9024 16.6412C11.6439 14.8767 8.3826 15.2771 6.61806 17.5356C4.85353 19.7941 5.25397 23.0554 7.51247 24.82C9.77097 26.5845 13.0323 26.1841 14.7968 23.9256Z" fill="#D4702C"/>
<path d="M13.3181 16.7754C11.3955 15.4997 8.77418 15.8216 7.21736 17.5245C6.26976 18.5611 5.87562 19.8802 5.99082 21.1508C6.0105 21.3677 5.7021 21.4287 5.63508 21.2214C5.59062 21.084 5.55095 20.945 5.51816 20.8046C5.5429 22.4562 6.35179 24.0801 7.87209 25.0773C9.96763 26.4519 12.8096 26.1029 14.5102 24.2621C15.744 22.9266 16.1359 21.1554 15.7604 19.547C15.7625 19.6912 15.7577 19.8357 15.7478 19.9799C15.7329 20.1971 15.4189 20.2126 15.3855 19.9974C15.19 18.7366 14.4884 17.5519 13.3181 16.7754Z" fill="#BD6015"/>
<path d="M4.83967 16.147C2.91496 18.6106 2.78965 21.9166 4.26772 24.4698C4.34135 24.5969 4.47561 24.6777 4.6221 24.6892C4.98845 24.718 5.22689 24.3244 5.04335 24.006C3.75044 21.7638 3.86199 18.8644 5.55088 16.7027C7.23976 14.541 10.0261 13.7313 12.5145 14.4434C12.8677 14.5445 13.192 14.2179 13.0754 13.8694C13.0289 13.73 12.918 13.6193 12.7768 13.5786C9.94191 12.7621 6.76438 13.6835 4.83967 16.147Z" fill="#D4702C"/>
<path d="M4.89376 24.621C3.25897 22.1785 3.28719 18.8671 5.19528 16.4249C7.10336 13.9826 10.3095 13.1541 13.075 14.1495C13.1032 14.0635 13.1084 13.968 13.0755 13.8694C13.0288 13.73 12.918 13.6193 12.7768 13.5786C9.9419 12.7621 6.76438 13.6835 4.83967 16.147C2.91496 18.6105 2.78963 21.9166 4.2677 24.4697C4.34133 24.5969 4.47558 24.6777 4.62209 24.6892C4.72576 24.6973 4.81719 24.6691 4.89376 24.621Z" fill="#BD6015"/>
<path d="M14.0855 23.3712C15.5431 21.5055 15.2123 18.8113 13.3466 17.3536C11.4808 15.8959 8.78664 16.2267 7.32896 18.0925C5.87127 19.9582 6.20207 22.6524 8.06783 24.1101C9.93358 25.5678 12.6278 25.237 14.0855 23.3712Z" fill="#FFE387"/>
<path d="M14.0077 22.7372C12.55 24.6029 9.85578 24.9337 7.99003 23.476C7.14771 22.8179 6.61821 21.9077 6.42493 20.9355C6.48284 22.1384 7.04437 23.3099 8.06781 24.1095C9.93356 25.5671 12.6278 25.2363 14.0854 23.3706C14.885 22.3472 15.1469 21.0746 14.912 19.8934C14.9597 20.8834 14.6658 21.8948 14.0077 22.7372Z" fill="#FFDD4E"/>
</g>
<g clip-path="url(#clip3_2287_152159)">
<path d="M61.3273 21.4395H59.824V20.9882H61.3273V21.4395Z" fill="#BD6015"/>
<path d="M54.9445 16.1074H54.4933V14.5952H54.9445V16.1074Z" fill="#BD6015"/>
<path d="M51.0494 24.8824C49.0228 22.8558 49.0228 19.57 51.0494 17.5434C53.076 15.5167 56.3618 15.5167 58.3885 17.5434C60.4151 19.57 60.4151 22.8558 58.3885 24.8824C56.3618 26.909 53.076 26.909 51.0494 24.8824Z" fill="#D4702C"/>
<path d="M51.646 17.6071C53.3988 16.1066 56.0398 16.1066 57.7926 17.6071C58.8594 18.5205 59.4114 19.7817 59.4519 21.0569C59.4588 21.2745 59.7723 21.2975 59.8136 21.0836C59.841 20.9418 59.8634 20.799 59.8788 20.6557C60.0556 22.2979 59.4506 24.0083 58.0632 25.1834C56.1508 26.8031 53.2874 26.803 51.3751 25.1832C49.9879 24.0081 49.383 22.2978 49.5597 20.6557C49.5751 20.799 49.5976 20.9419 49.625 21.0837C49.6662 21.2976 49.9797 21.2747 49.9867 21.057C50.0271 19.7818 50.5791 18.5204 51.646 17.6071Z" fill="#BD6015"/>
<path d="M59.9843 15.9489C62.1949 18.1595 62.7222 21.4256 61.5663 24.1399C61.5087 24.2751 61.3853 24.3716 61.2413 24.4009C60.8811 24.4741 60.5965 24.1125 60.7399 23.7741C61.7499 21.391 61.2858 18.5268 59.3461 16.5871C57.4064 14.6473 54.5421 14.1833 52.1591 15.1933C51.8208 15.3367 51.4591 15.052 51.5323 14.6919C51.5616 14.5479 51.6581 14.4245 51.7933 14.3669C54.5076 13.211 57.7737 13.7383 59.9843 15.9489Z" fill="#D4702C"/>
<path d="M60.9633 24.3662C62.2882 21.7427 61.8567 18.4595 59.6652 16.268C57.4737 14.0765 54.1904 13.6449 51.5669 14.9698C51.5284 14.888 51.5116 14.7938 51.5323 14.6919C51.5616 14.5479 51.6581 14.4245 51.7933 14.3669C54.5076 13.211 57.7737 13.7383 59.9843 15.9489C62.1949 18.1595 62.7222 21.4256 61.5663 24.1398C61.5087 24.275 61.3853 24.3716 61.2413 24.4008C61.1394 24.4216 61.0452 24.4047 60.9633 24.3662Z" fill="#BD6015"/>
<path d="M51.6877 24.2443C50.0135 22.5701 50.0135 19.8557 51.6877 18.1815C53.3619 16.5073 56.0764 16.5073 57.7506 18.1815C59.4248 19.8557 59.4248 22.5701 57.7506 24.2443C56.0764 25.9185 53.3619 25.9185 51.6877 24.2443Z" fill="#FFE387"/>
<path d="M51.6879 23.6062C53.3621 25.2804 56.0765 25.2804 57.7507 23.6062C58.5065 22.8504 58.9211 21.8824 58.9945 20.8939C59.0836 22.0949 58.669 23.3261 57.7507 24.2444C56.0765 25.9186 53.3621 25.9186 51.6879 24.2444C50.7695 23.3261 50.3545 22.0949 50.4437 20.8939C50.517 21.8824 50.932 22.8504 51.6879 23.6062Z" fill="#FFDD4E"/>
</g>
<g clip-path="url(#clip4_2287_152159)">
<path d="M11.1698 54.0815L11.3008 52.584L10.8513 52.5447L10.7203 54.0422L11.1698 54.0815Z" fill="#BD6015"/>
<path d="M6.4149 47.2581L6.45422 46.8086L4.94775 46.6768L4.90843 47.1263L6.4149 47.2581Z" fill="#BD6015"/>
<path d="M15.4962 44.1422C13.654 41.9467 10.3807 41.6603 8.18513 43.5026C5.98958 45.3448 5.70321 48.6181 7.54549 50.8137C9.38776 53.0092 12.6611 53.2956 14.8566 51.4533C17.0521 49.611 17.3385 46.3377 15.4962 44.1422Z" fill="#D4702C"/>
<path d="M8.19541 44.1029C6.54785 45.7182 6.31771 48.3492 7.65978 50.226C8.47668 51.3684 9.68502 52.0282 10.9518 52.1797C11.168 52.2056 11.1635 52.5199 10.9469 52.5424C10.8032 52.5573 10.659 52.5672 10.5149 52.5701C12.1355 52.8893 13.8921 52.4357 15.1837 51.1559C16.9639 49.392 17.2134 46.5395 15.7663 44.4933C14.7166 43.0089 13.0656 42.2573 11.4143 42.2902C11.5557 42.3181 11.6961 42.3529 11.835 42.3925C12.0444 42.4523 11.9943 42.7626 11.7768 42.7505C10.503 42.6796 9.1983 43.1196 8.19541 44.1029Z" fill="#BD6015"/>
<path d="M5.817 52.2644C7.82651 54.6592 11.0343 55.4692 13.8389 54.5542C13.9786 54.5086 14.0855 54.3941 14.1273 54.2532C14.2316 53.9008 13.8961 53.5858 13.5466 53.6991C11.0846 54.4976 8.27168 53.7856 6.50838 51.6842C4.74508 49.5828 4.53241 46.689 5.74626 44.4031C5.9186 44.0785 5.66657 43.6935 5.30143 43.735C5.15543 43.7516 5.02405 43.837 4.95492 43.9667C3.56687 46.5699 3.80749 49.8695 5.817 52.2644Z" fill="#D4702C"/>
<path d="M14.117 53.9733C11.388 55.0645 8.15484 54.3484 6.16269 51.9743C4.17053 49.6001 4.02676 46.2918 5.57529 43.7937C5.49711 43.7482 5.40475 43.7232 5.30146 43.735C5.15544 43.7516 5.02408 43.837 4.95495 43.9667C3.56684 46.5699 3.80748 49.8695 5.81699 52.2644C7.82651 54.6592 11.0342 55.4692 13.8389 54.5542C13.9786 54.5086 14.0855 54.3941 14.1272 54.2532C14.1568 54.1535 14.1482 54.0582 14.117 53.9733Z" fill="#BD6015"/>
<path d="M14.805 44.7241C13.2831 42.9104 10.579 42.6738 8.76529 44.1957C6.95154 45.7176 6.71497 48.4217 8.23688 50.2354C9.7588 52.0492 12.4629 52.2858 14.2766 50.7639C16.0904 49.2419 16.327 46.5379 14.805 44.7241Z" fill="#FFE387"/>
<path d="M14.1694 44.666C15.6913 46.4798 15.4547 49.1839 13.641 50.7058C12.8221 51.3929 11.8216 51.7215 10.8306 51.7085C12.0192 51.9019 13.2818 51.5962 14.2767 50.7614C16.0905 49.2395 16.327 46.5354 14.8051 44.7216C13.9703 43.7267 12.78 43.2061 11.5758 43.1902C12.5541 43.3494 13.4823 43.8472 14.1694 44.666Z" fill="#FFDD4E"/>
</g>
<g clip-path="url(#clip5_2287_152159)">
<path d="M54.9828 54.0815L54.8518 52.584L55.3013 52.5447L55.4323 54.0422L54.9828 54.0815Z" fill="#BD6015"/>
<path d="M59.7377 47.2581L59.6984 46.8086L61.2048 46.6768L61.2442 47.1263L59.7377 47.2581Z" fill="#BD6015"/>
<path d="M50.6562 44.1422C52.4985 41.9467 55.7718 41.6603 57.9673 43.5026C60.1629 45.3448 60.4493 48.6181 58.607 50.8137C56.7647 53.0092 53.4914 53.2956 51.2959 51.4533C49.1003 49.611 48.8139 46.3377 50.6562 44.1422Z" fill="#D4702C"/>
<path d="M57.9569 44.1029C59.6045 45.7182 59.8346 48.3492 58.4926 50.226C57.6757 51.3684 56.4673 52.0282 55.2006 52.1797C54.9843 52.2056 54.9888 52.5199 55.2054 52.5424C55.3491 52.5573 55.4933 52.5672 55.6375 52.5701C54.0168 52.8893 52.2602 52.4357 50.9687 51.1559C49.1885 49.392 48.939 46.5395 50.386 44.4933C51.4357 43.0089 53.0868 42.2573 54.7381 42.2902C54.5966 42.3181 54.4563 42.3529 54.3173 42.3925C54.1079 42.4523 54.1581 42.7626 54.3755 42.7505C55.6494 42.6796 56.954 43.1196 57.9569 44.1029Z" fill="#BD6015"/>
<path d="M60.3353 52.2644C58.3258 54.6592 55.1181 55.4692 52.3134 54.5542C52.1737 54.5086 52.0668 54.3941 52.0251 54.2532C51.9208 53.9008 52.2562 53.5858 52.6058 53.6991C55.0678 54.4976 57.8807 53.7856 59.644 51.6842C61.4073 49.5828 61.6199 46.689 60.4061 44.4031C60.2337 44.0785 60.4858 43.6935 60.8509 43.735C60.9969 43.7516 61.1283 43.837 61.1974 43.9667C62.5855 46.5699 62.3449 49.8695 60.3353 52.2644Z" fill="#D4702C"/>
<path d="M52.0354 53.9733C54.7644 55.0645 57.9975 54.3484 59.9897 51.9743C61.9818 49.6001 62.1256 46.2918 60.577 43.7937C60.6552 43.7482 60.7476 43.7232 60.8509 43.735C60.9969 43.7516 61.1283 43.837 61.1974 43.9667C62.5855 46.5699 62.3449 49.8695 60.3353 52.2644C58.3258 54.6592 55.1181 55.4692 52.3134 54.5542C52.1737 54.5086 52.0668 54.3941 52.0251 54.2532C51.9956 54.1535 52.0041 54.0582 52.0354 53.9733Z" fill="#BD6015"/>
<path d="M51.3474 44.7241C52.8693 42.9104 55.5734 42.6738 57.3872 44.1957C59.2009 45.7176 59.4375 48.4217 57.9156 50.2354C56.3937 52.0492 53.6896 52.2858 51.8758 50.7639C50.0621 49.2419 49.8255 46.5379 51.3474 44.7241Z" fill="#FFE387"/>
<path d="M51.9831 44.666C50.4612 46.4798 50.6978 49.1839 52.5115 50.7058C53.3303 51.3929 54.3308 51.7215 55.3219 51.7085C54.1333 51.9019 52.8707 51.5962 51.8757 50.7614C50.062 49.2395 49.8254 46.5354 51.3473 44.7216C52.1822 43.7267 53.3725 43.2061 54.5767 43.1902C53.5984 43.3494 52.6702 43.8472 51.9831 44.666Z" fill="#FFDD4E"/>
</g>
<defs>
<filter id="filter0_d_2287_152159" x="15.1085" y="17.1504" width="34.3003" height="34.2994" filterUnits="userSpaceOnUse" color-interpolation-filters="sRGB">
<feFlood flood-opacity="0" result="BackgroundImageFix"/>
<feColorMatrix in="SourceAlpha" type="matrix" values="0 0 0 0 0 0 0 0 0 0 0 0 0 0 0 0 0 0 127 0" result="hardAlpha"/>
<feOffset dy="0.816675"/>
<feGaussianBlur stdDeviation="0.408337"/>
<feComposite in2="hardAlpha" operator="out"/>
<feColorMatrix type="matrix" values="0 0 0 0 0 0 0 0 0 0 0 0 0 0 0 0 0 0 0.15 0"/>
<feBlend mode="normal" in2="BackgroundImageFix" result="effect1_dropShadow_2287_152159"/>
<feBlend mode="normal" in="SourceGraphic" in2="effect1_dropShadow_2287_152159" result="shape"/>
</filter>
<clipPath id="clip0_2287_152159">
<rect width="13.8835" height="13.8835" fill="white" transform="translate(25.3169)"/>
</clipPath>
<clipPath id="clip1_2287_152159">
<rect width="13.8835" height="13.8835" fill="white" transform="matrix(-1 0 0 -1 39.2004 66.9668)"/>
</clipPath>
<clipPath id="clip2_2287_152159">
<rect width="13.8835" height="13.8835" fill="white" transform="translate(0.0742188 21.2324) rotate(-52)"/>
</clipPath>
<clipPath id="clip3_2287_152159">
<rect width="13.8835" height="13.8835" fill="white" transform="matrix(-0.707107 -0.707107 -0.707107 0.707107 65.334 20.416)"/>
</clipPath>
<clipPath id="clip4_2287_152159">
<rect width="13.8835" height="13.8835" fill="white" transform="translate(9.80078 57.9824) rotate(-130)"/>
</clipPath>
<clipPath id="clip5_2287_152159">
<rect width="13.8835" height="13.8835" fill="white" transform="matrix(0.642788 -0.766044 -0.766044 -0.642788 56.3516 57.9824)"/>
</clipPath>
</defs>
</svg>
