<svg width="66" height="67" viewBox="0 0 66 67" fill="none" xmlns="http://www.w3.org/2000/svg">
<g clip-path="url(#clip0_2287_152228)">
<path d="M3.55628 38.3188L4.61926 37.2559L4.30021 36.9368L3.23723 37.9998L3.55628 38.3188Z" fill="#BD6015"/>
<path d="M4.29972 30.0339L4.61877 29.7148L3.54947 28.6455L3.23042 28.9646L4.29972 30.0339Z" fill="#BD6015"/>
<path d="M13.2596 33.4843C13.2596 30.6183 10.9362 28.2948 8.07011 28.2948C5.20403 28.2948 2.88062 30.6183 2.88062 33.4843C2.88062 36.3504 5.20403 38.6738 8.07011 38.6738C10.9362 38.6738 13.2596 36.3504 13.2596 33.4843Z" fill="#D4702C"/>
<path d="M7.69253 28.7625C5.3921 28.9409 3.52466 30.8084 3.34632 33.1088C3.23778 34.509 3.73932 35.7912 4.61235 36.7215C4.76138 36.8803 4.55589 37.1182 4.37552 36.9962C4.25585 36.9152 4.13901 36.8301 4.02675 36.7397C5.06305 38.0259 6.70024 38.8075 8.51222 38.6574C11.0098 38.4505 13.0344 36.4257 13.2412 33.9281C13.3913 32.1162 12.6096 30.4792 11.3235 29.443C11.4139 29.5552 11.4991 29.6721 11.58 29.7918C11.7021 29.9722 11.4642 30.1776 11.3053 30.0286C10.375 29.1555 9.09283 28.6539 7.69253 28.7625Z" fill="#BD6015"/>
<path d="M0.624023 33.4841C0.624023 36.6103 2.56069 39.2927 5.2973 40.3946C5.43362 40.4495 5.58913 40.4304 5.71167 40.3493C6.01805 40.1464 5.96363 39.6895 5.62299 39.5516C3.22373 38.5807 1.52656 36.2273 1.52656 33.4841C1.52656 30.7409 3.22373 28.3874 5.62297 27.4165C5.9636 27.2787 6.01805 26.8217 5.71164 26.6188C5.58913 26.5377 5.43359 26.5186 5.29728 26.5735C2.56069 27.6755 0.624023 30.3578 0.624023 33.4841Z" fill="#D4702C"/>
<path d="M5.88372 40.1283C3.09173 39.2101 1.07529 36.5833 1.07529 33.4841C1.07529 30.3848 3.09173 27.758 5.88369 26.8398C5.85305 26.7547 5.79836 26.6762 5.71167 26.6188C5.58913 26.5377 5.43362 26.5186 5.2973 26.5736C2.56066 27.6754 0.624023 30.3578 0.624023 33.4841C0.624023 36.6103 2.56066 39.2927 5.29728 40.3946C5.43359 40.4495 5.5891 40.4305 5.71164 40.3493C5.79836 40.2919 5.85305 40.2134 5.88372 40.1283Z" fill="#BD6015"/>
<path d="M12.3572 33.4864C12.3572 31.1187 10.4378 29.1993 8.07015 29.1993C5.70247 29.1993 3.78308 31.1187 3.78308 33.4864C3.78308 35.8541 5.70247 37.7734 8.07015 37.7734C10.4378 37.7734 12.3572 35.8541 12.3572 33.4864Z" fill="#FFE387"/>
<path d="M11.9055 33.0351C11.9055 35.4028 9.98613 37.3222 7.61846 37.3222C6.54954 37.3222 5.57186 36.9309 4.82104 36.2838C5.60725 37.196 6.77097 37.7734 8.06972 37.7734C10.4374 37.7734 12.3568 35.854 12.3568 33.4864C12.3568 32.1876 11.7796 31.0236 10.8674 30.2374C11.5145 30.9882 11.9055 31.9662 11.9055 33.0351Z" fill="#FFDD4E"/>
</g>
<g clip-path="url(#clip1_2287_152228)">
<path d="M27.8345 3.55616L28.8975 4.61914L29.2165 4.30009L28.1535 3.23711L27.8345 3.55616Z" fill="#BD6015"/>
<path d="M36.1175 4.29813L36.4365 4.61719L37.5058 3.54788L37.1868 3.22883L36.1175 4.29813Z" fill="#BD6015"/>
<path d="M32.667 13.2598C35.5331 13.2598 37.8565 10.9364 37.8565 8.07035C37.8565 5.20427 35.5331 2.88086 32.667 2.88086C29.801 2.88086 27.4775 5.20427 27.4775 8.07035C27.4775 10.9364 29.801 13.2598 32.667 13.2598Z" fill="#D4702C"/>
<path d="M37.3908 7.69289C37.2124 5.39247 35.3449 3.52503 33.0445 3.34669C31.6443 3.23814 30.3621 3.73968 29.4318 4.61271C29.2731 4.76174 29.0351 4.55626 29.1572 4.37588C29.2381 4.25622 29.3232 4.13937 29.4136 4.02711C28.1274 5.06341 27.3458 6.7006 27.4959 8.51259C27.7029 11.0102 29.7276 13.0348 32.2252 13.2416C34.0371 13.3916 35.6741 12.61 36.7104 11.3239C36.5981 11.4143 36.4812 11.4994 36.3615 11.5804C36.1812 11.7024 35.9757 11.4645 36.1247 11.3057C36.9978 10.3754 37.4994 9.0932 37.3908 7.69289Z" fill="#BD6015"/>
<path d="M32.6671 0.623047C29.5408 0.623047 26.8585 2.55971 25.7565 5.29633C25.7017 5.43264 25.7207 5.58815 25.8018 5.71069C26.0047 6.01707 26.4616 5.96265 26.5995 5.62202C27.5704 3.22275 29.9239 1.52558 32.6671 1.52558C35.4103 1.52558 37.7637 3.22275 38.7346 5.62199C38.8725 5.96262 39.3294 6.01707 39.5323 5.71066C39.6135 5.58815 39.6325 5.43261 39.5776 5.2963C38.4757 2.55971 35.7933 0.623047 32.6671 0.623047Z" fill="#D4702C"/>
<path d="M26.0228 5.88274C26.9411 3.09075 29.5678 1.07431 32.6671 1.07431C35.7663 1.07431 38.3931 3.09075 39.3113 5.88271C39.3964 5.85207 39.4749 5.79738 39.5323 5.71069C39.6134 5.58815 39.6325 5.43264 39.5776 5.29633C38.4757 2.55968 35.7933 0.623047 32.6671 0.623047C29.5408 0.623047 26.8585 2.55968 25.7565 5.2963C25.7017 5.43261 25.7207 5.58812 25.8018 5.71066C25.8592 5.79738 25.9377 5.85207 26.0228 5.88274Z" fill="#BD6015"/>
<path d="M32.6669 12.3573C35.0346 12.3573 36.954 10.4379 36.954 8.07027C36.954 5.70259 35.0346 3.7832 32.6669 3.7832C30.2993 3.7832 28.3799 5.70259 28.3799 8.07027C28.3799 10.4379 30.2993 12.3573 32.6669 12.3573Z" fill="#FFE387"/>
<path d="M33.1182 11.9048C30.7505 11.9048 28.8311 9.9854 28.8311 7.61772C28.8311 6.5488 29.2225 5.57113 29.8695 4.82031C28.9573 5.60652 28.3799 6.77024 28.3799 8.06899C28.3799 10.4367 30.2993 12.3561 32.6669 12.3561C33.9657 12.3561 35.1297 11.7789 35.9159 10.8666C35.1651 11.5137 34.1871 11.9048 33.1182 11.9048Z" fill="#FFDD4E"/>
</g>
<g filter="url(#filter0_d_2287_152228)">
<path d="M32.667 17.1504C23.6608 17.1504 16.3335 24.4774 16.3335 33.4839C16.3335 42.4904 23.6608 49.8174 32.667 49.8174C41.6735 49.8174 49.0005 42.4904 49.0005 33.4839C49.0005 24.4774 41.6735 17.1504 32.667 17.1504Z" fill="#B27A49"/>
<path d="M32.6665 17.1504V49.8174C41.673 49.8174 49 42.4904 49 33.4839C49 24.4774 41.673 17.1504 32.6665 17.1504Z" fill="#B27A49"/>
</g>
<path d="M21.4924 33.4834C21.4924 27.3212 26.5061 22.3079 32.6679 22.3079C38.8302 22.3079 43.8435 27.3212 43.8435 33.4834C43.8435 39.6453 38.8302 44.6589 32.6679 44.6589C26.5061 44.6589 21.4924 39.6453 21.4924 33.4834Z" fill="#FFDD4E" stroke="white" stroke-width="0.32667"/>
<g clip-path="url(#clip2_2287_152228)">
<path d="M37.4993 63.4106L36.4363 62.3477L36.1172 62.6667L37.1802 63.7297L37.4993 63.4106Z" fill="#BD6015"/>
<path d="M29.2163 62.6687L28.8972 62.3496L27.8279 63.4189L28.147 63.738L29.2163 62.6687Z" fill="#BD6015"/>
<path d="M32.6667 53.707C29.8006 53.707 27.4772 56.0304 27.4772 58.8964C27.4772 61.7625 29.8006 64.0859 32.6667 64.0859C35.5328 64.0859 37.8562 61.7625 37.8562 58.8964C37.8562 56.0304 35.5328 53.707 32.6667 53.707Z" fill="#D4702C"/>
<path d="M27.9429 59.2739C28.1213 61.5743 29.9888 63.4418 32.2892 63.6201C33.6895 63.7287 34.9716 63.2271 35.9019 62.3541C36.0607 62.2051 36.2986 62.4105 36.1766 62.5909C36.0956 62.7106 36.0105 62.8274 35.9201 62.9397C37.2063 61.9034 37.988 60.2662 37.8378 58.4542C37.6309 55.9566 35.6061 53.932 33.1085 53.7252C31.2966 53.5752 29.6596 54.3568 28.6234 55.6429C28.7356 55.5525 28.8525 55.4674 28.9722 55.3864C29.1526 55.2644 29.3581 55.5023 29.209 55.6611C28.3359 56.5914 27.8343 57.8736 27.9429 59.2739Z" fill="#BD6015"/>
<path d="M32.6667 66.3438C35.7929 66.3438 38.4753 64.4071 39.5772 61.6705C39.6321 61.5342 39.613 61.3786 39.5319 61.2561C39.3291 60.9497 38.8721 61.0041 38.7342 61.3448C37.7633 63.744 35.4099 65.4412 32.6667 65.4412C29.9235 65.4412 27.57 63.744 26.5991 61.3448C26.4613 61.0042 26.0043 60.9497 25.8014 61.2561C25.7203 61.3786 25.7012 61.5342 25.7562 61.6705C26.8581 64.4071 29.5404 66.3438 32.6667 66.3438Z" fill="#D4702C"/>
<path d="M39.3109 61.0841C38.3927 63.876 35.7659 65.8925 32.6667 65.8925C29.5674 65.8925 26.9407 63.876 26.0224 61.0841C25.9373 61.1147 25.8588 61.1694 25.8014 61.2561C25.7203 61.3786 25.7013 61.5342 25.7562 61.6705C26.8581 64.4071 29.5404 66.3438 32.6667 66.3438C35.7929 66.3438 38.4753 64.4071 39.5772 61.6705C39.6321 61.5342 39.6131 61.3787 39.5319 61.2561C39.4745 61.1694 39.396 61.1147 39.3109 61.0841Z" fill="#BD6015"/>
<path d="M32.6668 54.6095C30.2991 54.6095 28.3797 56.5288 28.3797 58.8965C28.3797 61.2642 30.2991 63.1836 32.6668 63.1836C35.0345 63.1836 36.9539 61.2642 36.9539 58.8965C36.9539 56.5288 35.0345 54.6095 32.6668 54.6095Z" fill="#FFE387"/>
<path d="M32.2155 55.0601C34.5832 55.0601 36.5026 56.9794 36.5026 59.3471C36.5026 60.416 36.1113 61.3937 35.4642 62.1445C36.3764 61.3583 36.9539 60.1946 36.9539 58.8959C36.9539 56.5282 35.0345 54.6088 32.6668 54.6088C31.368 54.6088 30.204 55.1859 29.4178 56.0982C30.1687 55.4511 31.1466 55.0601 32.2155 55.0601Z" fill="#FFDD4E"/>
</g>
<g clip-path="url(#clip3_2287_152228)">
<path d="M61.7778 28.648L60.7148 29.7109L61.0339 30.03L62.0969 28.967L61.7778 28.648Z" fill="#BD6015"/>
<path d="M61.0341 36.9329L60.7151 37.252L61.7844 38.3213L62.1034 38.0022L61.0341 36.9329Z" fill="#BD6015"/>
<path d="M52.0744 33.4844C52.0744 36.3505 54.3978 38.6739 57.2639 38.6739C60.13 38.6739 62.4534 36.3505 62.4534 33.4844C62.4534 30.6183 60.13 28.2949 57.2639 28.2949C54.3978 28.2949 52.0744 30.6183 52.0744 33.4844Z" fill="#D4702C"/>
<path d="M57.6413 38.2062C59.9418 38.0278 61.8092 36.1604 61.9875 33.8599C62.0961 32.4597 61.5945 31.1776 60.7215 30.2473C60.5725 30.0885 60.778 29.8506 60.9583 29.9726C61.078 30.0535 61.1949 30.1386 61.3071 30.2291C60.2708 28.9429 58.6336 28.1612 56.8216 28.3113C54.3241 28.5183 52.2994 30.5431 52.0926 33.0406C51.9426 34.8525 52.7242 36.4896 54.0104 37.5258C53.9199 37.4135 53.8348 37.2967 53.7538 37.177C53.6318 36.9966 53.8697 36.7911 54.0285 36.9401C54.9588 37.8133 56.241 38.3148 57.6413 38.2062Z" fill="#BD6015"/>
<path d="M64.71 33.4827C64.71 30.3565 62.7733 27.6741 60.0367 26.5722C59.9004 26.5173 59.7449 26.5364 59.6223 26.6175C59.3159 26.8204 59.3704 27.2773 59.711 27.4152C62.1103 28.3861 63.8074 30.7395 63.8074 33.4827C63.8074 36.2259 62.1103 38.5794 59.711 39.5503C59.3704 39.6881 59.3159 40.1451 59.6223 40.348C59.7449 40.4291 59.9004 40.4482 60.0367 40.3933C62.7733 39.2913 64.71 36.609 64.71 33.4827Z" fill="#D4702C"/>
<path d="M59.4503 26.8385C62.2423 27.7567 64.2587 30.3835 64.2587 33.4827C64.2587 36.582 62.2423 39.2088 59.4503 40.127C59.4809 40.2121 59.5356 40.2906 59.6223 40.348C59.7449 40.4291 59.9004 40.4482 60.0367 40.3932C62.7733 39.2914 64.71 36.609 64.71 33.4827C64.71 30.3565 62.7733 27.6741 60.0367 26.5722C59.9004 26.5173 59.7449 26.5363 59.6223 26.6175C59.5356 26.6749 59.4809 26.7534 59.4503 26.8385Z" fill="#BD6015"/>
<path d="M52.9767 33.4824C52.9767 35.8501 54.896 37.7694 57.2637 37.7694C59.6314 37.7694 61.5508 35.8501 61.5508 33.4824C61.5508 31.1147 59.6314 29.1953 57.2637 29.1953C54.896 29.1953 52.9767 31.1147 52.9767 33.4824Z" fill="#FFE387"/>
<path d="M53.4285 33.9336C53.4285 31.566 55.3479 29.6466 57.7155 29.6466C58.7844 29.6466 59.7621 30.0379 60.5129 30.685C59.7267 29.7727 58.563 29.1953 57.2643 29.1953C54.8966 29.1953 52.9772 31.1147 52.9772 33.4824C52.9772 34.7811 53.5543 35.9451 54.4666 36.7313C53.8195 35.9805 53.4285 35.0026 53.4285 33.9336Z" fill="#FFDD4E"/>
</g>
<g clip-path="url(#clip4_2287_152228)">
<path d="M7.27333 14.9238H8.77661V14.4726H7.27333V14.9238Z" fill="#BD6015"/>
<path d="M13.6561 9.5918H14.1073V8.07957H13.6561V9.5918Z" fill="#BD6015"/>
<path d="M17.5511 18.3668C19.5777 16.3402 19.5777 13.0544 17.5511 11.0277C15.5244 9.00112 12.2386 9.00112 10.212 11.0277C8.18538 13.0544 8.18538 16.3402 10.212 18.3668C12.2386 20.3934 15.5244 20.3934 17.5511 18.3668Z" fill="#D4702C"/>
<path d="M16.9545 11.0914C15.2018 9.59093 12.5608 9.59097 10.808 11.0915C9.74115 12.0049 9.18918 13.2661 9.14869 14.5413C9.14179 14.7589 8.82825 14.7819 8.78699 14.568C8.75961 14.4262 8.73718 14.2834 8.72174 14.14C8.54501 15.7823 9.14997 17.4927 10.5374 18.6678C12.4498 20.2875 15.3132 20.2874 17.2254 18.6676C18.6127 17.4925 19.2176 15.7822 19.0409 14.1401C19.0255 14.2834 19.003 14.4262 18.9756 14.5681C18.9344 14.7819 18.6208 14.759 18.6139 14.5414C18.5735 13.2661 18.0215 12.0048 16.9545 11.0914Z" fill="#BD6015"/>
<path d="M8.61618 9.43326C6.40559 11.6438 5.8783 14.91 7.03421 17.6242C7.09179 17.7594 7.21521 17.8559 7.35921 17.8852C7.71932 17.9584 8.00395 17.5968 7.86057 17.2585C6.85056 14.8754 7.31463 12.0112 9.25437 10.0714C11.1941 8.13171 14.0583 7.66764 16.4414 8.67763C16.7797 8.82103 17.1414 8.53639 17.0681 8.17627C17.0389 8.03227 16.9424 7.90883 16.8071 7.85127C14.0929 6.69538 10.8268 7.22267 8.61618 9.43326Z" fill="#D4702C"/>
<path d="M7.63716 17.8506C6.31222 15.2271 6.74379 11.9438 8.93528 9.75235C11.1268 7.56085 14.41 7.12928 17.0335 8.45421C17.072 8.37235 17.0889 8.27817 17.0682 8.1763C17.0389 8.03228 16.9424 7.90886 16.8072 7.8513C14.0929 6.69535 10.8268 7.22266 8.61619 9.43325C6.40559 11.6438 5.87829 14.91 7.0342 17.6242C7.09178 17.7594 7.21518 17.8559 7.3592 17.8852C7.46111 17.9059 7.55529 17.8891 7.63716 17.8506Z" fill="#BD6015"/>
<path d="M16.9128 17.7287C18.587 16.0545 18.587 13.3401 16.9128 11.6659C15.2386 9.99165 12.5242 9.99165 10.85 11.6659C9.17581 13.3401 9.17581 16.0545 10.85 17.7287C12.5242 19.4029 15.2386 19.4029 16.9128 17.7287Z" fill="#FFE387"/>
<path d="M16.9127 17.0906C15.2385 18.7648 12.5241 18.7648 10.8499 17.0906C10.0941 16.3348 9.67944 15.3668 9.60608 14.3783C9.51696 15.5793 9.93154 16.8104 10.8499 17.7288C12.5241 19.403 15.2385 19.403 16.9127 17.7288C17.8311 16.8104 18.246 15.5793 18.1569 14.3783C18.0835 15.3667 17.6686 16.3348 16.9127 17.0906Z" fill="#FFDD4E"/>
</g>
<g clip-path="url(#clip5_2287_152228)">
<path d="M57.2857 52.1166L55.7825 52.1055L55.7791 52.5567L57.2824 52.5678L57.2857 52.1166Z" fill="#BD6015"/>
<path d="M50.8635 57.4018L50.4124 57.3984L50.4011 58.9106L50.8523 58.914L50.8635 57.4018Z" fill="#BD6015"/>
<path d="M47.0332 48.6003C44.9915 50.6118 44.9671 53.8975 46.9786 55.9391C48.9901 57.9807 52.2758 58.0052 54.3174 55.9937C56.3591 53.9822 56.3835 50.6965 54.372 48.6548C52.3605 46.6132 49.0748 46.5888 47.0332 48.6003Z" fill="#D4702C"/>
<path d="M47.5757 55.8803C49.3173 57.3938 51.9582 57.4134 53.7221 55.9259C54.7957 55.0205 55.3571 53.7634 55.407 52.4886C55.4156 52.271 55.7293 52.2504 55.7689 52.4645C55.7952 52.6066 55.8166 52.7495 55.831 52.893C56.0199 51.2521 55.4277 49.5372 54.049 48.3518C52.1488 46.7179 49.2855 46.6967 47.3612 48.3023C45.9652 49.4671 45.3476 51.1728 45.5121 52.8162C45.5286 52.673 45.5521 52.5303 45.5806 52.3886C45.6234 52.1751 45.9368 52.2004 45.9421 52.4181C45.973 53.6936 46.5156 54.959 47.5757 55.8803Z" fill="#BD6015"/>
<path d="M55.9013 57.6004C58.1283 55.4063 58.6798 52.1442 57.5441 49.4214C57.4876 49.2858 57.3649 49.1884 57.2211 49.158C56.8615 49.0821 56.5742 49.4416 56.7151 49.781C57.7073 52.1715 57.222 55.0322 55.2679 56.9575C53.3137 58.8828 50.4461 59.3255 48.0707 58.2978C47.7334 58.1519 47.3697 58.4338 47.4402 58.7945C47.4684 58.9387 47.564 59.0629 47.6988 59.1214C50.4043 60.2975 53.6743 59.7945 55.9013 57.6004Z" fill="#D4702C"/>
<path d="M56.9429 49.1906C58.2483 51.8239 57.7923 55.1038 55.5846 57.279C53.3768 59.4541 50.0905 59.8612 47.4769 58.5168C47.4378 58.5984 47.4202 58.6925 47.4402 58.7945C47.4684 58.9387 47.564 59.0628 47.6988 59.1214C50.4044 60.2975 53.6743 59.7945 55.9013 57.6004C58.1282 55.4063 58.6798 52.1442 57.5441 49.4214C57.4876 49.2858 57.3649 49.1884 57.2211 49.158C57.1193 49.1366 57.025 49.1527 56.9429 49.1906Z" fill="#BD6015"/>
<path d="M47.6666 49.2428C45.98 50.9045 45.9598 53.6189 47.6215 55.3055C49.2832 56.9921 51.9976 57.0123 53.6842 55.3506C55.3708 53.6889 55.391 50.9745 53.7293 49.2879C52.0675 47.6013 49.3532 47.5811 47.6666 49.2428Z" fill="#FFE387"/>
<path d="M47.6619 49.8805C49.3485 48.2188 52.0628 48.2389 53.7245 49.9255C54.4747 50.687 54.8821 51.6581 54.9481 52.647C55.0462 51.4468 54.6408 50.2125 53.7293 49.2874C52.0676 47.6008 49.3532 47.5806 47.6666 49.2423C46.7414 50.1538 46.3173 51.3818 46.3975 52.5835C46.4782 51.5956 46.9004 50.6307 47.6619 49.8805Z" fill="#FFDD4E"/>
</g>
<g clip-path="url(#clip6_2287_152228)">
<path d="M12.8019 58.0779L13.3337 56.6719L12.9117 56.5122L12.3799 57.9183L12.8019 58.0779Z" fill="#BD6015"/>
<path d="M10.0733 50.2228L10.2329 49.8008L8.81849 49.2658L8.65885 49.6878L10.0733 50.2228Z" fill="#BD6015"/>
<path d="M19.6592 49.6853C18.4807 47.0727 15.4074 45.9102 12.7949 47.0888C10.1823 48.2673 9.01981 51.3406 10.1983 53.9531C11.3769 56.5657 14.4502 57.7282 17.0627 56.5497C19.6753 55.3711 20.8378 52.2978 19.6592 49.6853Z" fill="#D4702C"/>
<path d="M12.6422 47.6685C10.6186 48.777 9.68425 51.2472 10.4676 53.4175C10.9445 54.7385 11.9288 55.701 13.1072 56.19C13.3083 56.2735 13.2189 56.5748 13.0043 56.5378C12.8619 56.5132 12.7204 56.4836 12.5809 56.4474C14.0544 57.1937 15.8682 57.233 17.4582 56.351C19.6497 55.1354 20.6627 52.4572 19.8242 50.0955C19.2159 48.3822 17.8302 47.2114 16.2317 46.7957C16.3604 46.8608 16.486 46.9323 16.609 47.0081C16.7944 47.1224 16.6621 47.4075 16.456 47.337C15.249 46.9236 13.8739 46.9937 12.6422 47.6685Z" fill="#BD6015"/>
<path d="M8.14115 54.8813C9.42667 57.731 12.295 59.3797 15.2427 59.2589C15.3895 59.2529 15.5234 59.1716 15.6018 59.0472C15.7976 58.7363 15.5601 58.3422 15.1929 58.3566C12.6067 58.4581 10.0919 57.0107 8.96385 54.5102C7.83584 52.0096 8.41514 49.1665 10.2029 47.2949C10.4567 47.0292 10.3185 46.5902 9.95572 46.5313C9.81069 46.5077 9.66108 46.5543 9.5594 46.6604C7.51799 48.7901 6.85563 52.0316 8.14115 54.8813Z" fill="#D4702C"/>
<path d="M15.6677 58.775C12.7451 59.0861 9.82691 57.5208 8.5525 54.6957C7.27808 51.8706 8.03602 48.6471 10.2034 46.662C10.1405 46.597 10.0584 46.5479 9.95575 46.5313C9.81069 46.5077 9.66111 46.5543 9.55944 46.6604C7.51796 48.7901 6.85563 52.0316 8.14115 54.8813C9.42667 57.731 12.295 59.3797 15.2427 59.2589C15.3895 59.2529 15.5234 59.1716 15.6017 59.0472C15.6572 58.9593 15.6748 58.8652 15.6677 58.775Z" fill="#BD6015"/>
<path d="M18.8365 50.0567C17.8629 47.8984 15.3241 46.9381 13.1658 47.9117C11.0076 48.8853 10.0472 51.4241 11.0208 53.5824C11.9944 55.7406 14.5333 56.701 16.6915 55.7274C18.8498 54.7538 19.8101 52.2149 18.8365 50.0567Z" fill="#FFE387"/>
<path d="M18.2393 49.8301C19.2129 51.9884 18.2525 54.5273 16.0943 55.5008C15.1199 55.9404 14.0678 55.9857 13.1173 55.7046C14.2091 56.2129 15.5073 56.2607 16.6912 55.7266C18.8494 54.753 19.8098 52.2142 18.8362 50.0559C18.3021 48.8721 17.2974 48.0484 16.1425 47.7068C17.0411 48.1252 17.7997 48.8558 18.2393 49.8301Z" fill="#FFDD4E"/>
</g>
<g clip-path="url(#clip7_2287_152228)">
<path d="M51.1764 9.01511L51.0349 10.5117L51.4841 10.5542L51.6256 9.05757L51.1764 9.01511Z" fill="#BD6015"/>
<path d="M55.8833 15.8731L55.8408 16.3223L57.3463 16.4646L57.3888 16.0154L55.8833 15.8731Z" fill="#BD6015"/>
<path d="M46.7803 18.9249C48.6072 21.1333 51.8784 21.4425 54.0867 19.6156C56.2951 17.7887 56.6043 14.5175 54.7774 12.3091C52.9505 10.1008 49.6793 9.79155 47.4709 11.6185C45.2626 13.4454 44.9534 16.7166 46.7803 18.9249Z" fill="#D4702C"/>
<path d="M54.0807 19.0157C55.7395 17.4119 55.988 14.7826 54.6591 12.8964C53.8502 11.7483 52.6464 11.0801 51.3808 10.9198C51.1647 10.8925 51.1714 10.5782 51.3882 10.5572C51.532 10.5433 51.6762 10.5344 51.8204 10.5325C50.202 10.202 48.4423 10.6433 47.1419 11.914C45.3494 13.6655 45.08 16.5162 46.5127 18.5724C47.552 20.0641 49.1978 20.8273 50.8493 20.8059C50.708 20.777 50.5679 20.7412 50.4292 20.7006C50.2202 20.6394 50.2726 20.3294 50.4899 20.343C51.7633 20.4228 53.071 19.9919 54.0807 19.0157Z" fill="#BD6015"/>
<path d="M56.5161 10.8702C54.5234 8.46135 51.3214 7.62904 48.5104 8.52439C48.3704 8.56899 48.2627 8.68278 48.22 8.82339C48.1132 9.17501 48.4464 9.49241 48.7968 9.3815C51.2643 8.60024 54.0721 9.33179 55.8207 11.4455C57.5693 13.5591 57.7618 16.4543 56.532 18.7318C56.3574 19.0551 56.6067 19.4419 56.9722 19.4029C57.1183 19.3873 57.2503 19.3029 57.3203 19.1737C58.7265 16.5802 58.5089 13.279 56.5161 10.8702Z" fill="#D4702C"/>
<path d="M48.2283 9.10336C50.9648 8.03119 54.1929 8.76982 56.1684 11.1578C58.144 13.5458 58.2647 16.8551 56.6987 19.3423C56.7766 19.3883 56.8688 19.414 56.9721 19.4029C57.1183 19.3873 57.2502 19.3029 57.3203 19.1737C58.7265 16.5802 58.5089 13.279 56.5161 10.8702C54.5234 8.46136 51.3214 7.62903 48.5104 8.52438C48.3704 8.56898 48.2627 8.68275 48.22 8.82337C48.1898 8.92288 48.1976 9.01823 48.2283 9.10336Z" fill="#BD6015"/>
<path d="M47.4758 18.3487C48.985 20.173 51.6874 20.4285 53.5117 18.9192C55.3361 17.41 55.5915 14.7076 54.0823 12.8833C52.5731 11.059 49.8707 10.8035 48.0464 12.3128C46.222 13.822 45.9666 16.5244 47.4758 18.3487Z" fill="#FFE387"/>
<path d="M48.1112 18.409C46.602 16.5846 46.8574 13.8823 48.6818 12.373C49.5054 11.6917 50.5081 11.37 51.4991 11.39C50.3118 11.1882 49.0471 11.4851 48.0464 12.313C46.2221 13.8222 45.9666 16.5246 47.4759 18.3489C48.3037 19.3496 49.4904 19.8786 50.6944 19.9029C49.7173 19.7368 48.7926 19.2326 48.1112 18.409Z" fill="#FFDD4E"/>
</g>
<defs>
<filter id="filter0_d_2287_152228" x="15.5168" y="17.1504" width="34.3003" height="34.2994" filterUnits="userSpaceOnUse" color-interpolation-filters="sRGB">
<feFlood flood-opacity="0" result="BackgroundImageFix"/>
<feColorMatrix in="SourceAlpha" type="matrix" values="0 0 0 0 0 0 0 0 0 0 0 0 0 0 0 0 0 0 127 0" result="hardAlpha"/>
<feOffset dy="0.816675"/>
<feGaussianBlur stdDeviation="0.408337"/>
<feComposite in2="hardAlpha" operator="out"/>
<feColorMatrix type="matrix" values="0 0 0 0 0 0 0 0 0 0 0 0 0 0 0 0 0 0 0.15 0"/>
<feBlend mode="normal" in2="BackgroundImageFix" result="effect1_dropShadow_2287_152228"/>
<feBlend mode="normal" in="SourceGraphic" in2="effect1_dropShadow_2287_152228" result="shape"/>
</filter>
<clipPath id="clip0_2287_152228">
<rect width="13.8835" height="13.8835" fill="white" transform="matrix(0 -1 1 0 0 40.4258)"/>
</clipPath>
<clipPath id="clip1_2287_152228">
<rect width="13.8835" height="13.8835" fill="white" transform="translate(25.7252)"/>
</clipPath>
<clipPath id="clip2_2287_152228">
<rect width="13.8835" height="13.8835" fill="white" transform="matrix(-1 0 0 -1 39.6086 66.9668)"/>
</clipPath>
<clipPath id="clip3_2287_152228">
<rect width="13.8835" height="13.8835" fill="white" transform="matrix(0 1 -1 0 65.334 26.541)"/>
</clipPath>
<clipPath id="clip4_2287_152228">
<rect width="13.8835" height="13.8835" fill="white" transform="translate(3.2666 13.9004) rotate(-45)"/>
</clipPath>
<clipPath id="clip5_2287_152228">
<rect width="13.8835" height="13.8835" fill="white" transform="translate(61.2842 53.1719) rotate(135.426)"/>
</clipPath>
<clipPath id="clip6_2287_152228">
<rect width="13.8835" height="13.8835" fill="white" transform="translate(10.4268 61.4648) rotate(-114.28)"/>
</clipPath>
<clipPath id="clip7_2287_152228">
<rect width="13.8835" height="13.8835" fill="white" transform="translate(52.5723 5.125) rotate(50.3999)"/>
</clipPath>
</defs>
</svg>
