<svg width="66" height="67" viewBox="0 0 66 67" fill="none" xmlns="http://www.w3.org/2000/svg">
<g clip-path="url(#clip0_2287_152425)">
<path d="M3.55641 38.3188L4.61938 37.2559L4.30033 36.9368L3.23735 37.9998L3.55641 38.3188Z" fill="#BD6015"/>
<path d="M4.29984 30.0339L4.6189 29.7148L3.54959 28.6455L3.23054 28.9646L4.29984 30.0339Z" fill="#BD6015"/>
<path d="M13.2595 33.4843C13.2595 30.6183 10.9361 28.2948 8.06998 28.2948C5.20391 28.2948 2.88049 30.6183 2.88049 33.4843C2.88049 36.3504 5.20391 38.6738 8.06998 38.6738C10.9361 38.6738 13.2595 36.3504 13.2595 33.4843Z" fill="#D4702C"/>
<path d="M7.69228 28.7625C5.39186 28.9409 3.52442 30.8084 3.34608 33.1088C3.23753 34.509 3.73907 35.7912 4.6121 36.7215C4.76113 36.8803 4.55565 37.1182 4.37527 36.9962C4.25561 36.9152 4.13876 36.8301 4.0265 36.7397C5.0628 38.0259 6.69999 38.8075 8.51198 38.6574C11.0096 38.4505 13.0342 36.4257 13.241 33.9281C13.391 32.1162 12.6094 30.4792 11.3232 29.443C11.4137 29.5552 11.4988 29.6721 11.5798 29.7918C11.7018 29.9722 11.4639 30.1776 11.3051 30.0286C10.3748 29.1555 9.09259 28.6539 7.69228 28.7625Z" fill="#BD6015"/>
<path d="M0.623901 33.4841C0.623901 36.6103 2.56056 39.2927 5.29718 40.3946C5.43349 40.4495 5.589 40.4304 5.71154 40.3493C6.01793 40.1464 5.96351 39.6895 5.62287 39.5516C3.22361 38.5807 1.52644 36.2273 1.52644 33.4841C1.52644 30.7409 3.22361 28.3874 5.62285 27.4165C5.96348 27.2787 6.01793 26.8217 5.71152 26.6188C5.589 26.5377 5.43347 26.5186 5.29715 26.5735C2.56056 27.6755 0.623901 30.3578 0.623901 33.4841Z" fill="#D4702C"/>
<path d="M5.8836 40.1283C3.09161 39.2101 1.07517 36.5833 1.07517 33.4841C1.07517 30.3848 3.09161 27.758 5.88357 26.8398C5.85293 26.7547 5.79823 26.6762 5.71154 26.6188C5.58901 26.5377 5.43349 26.5186 5.29718 26.5736C2.56054 27.6754 0.623901 30.3578 0.623901 33.4841C0.623901 36.6103 2.56054 39.2927 5.29715 40.3946C5.43347 40.4495 5.58898 40.4305 5.71152 40.3493C5.79823 40.2919 5.85293 40.2134 5.8836 40.1283Z" fill="#BD6015"/>
<path d="M12.357 33.4864C12.357 31.1187 10.4376 29.1993 8.0699 29.1993C5.70222 29.1993 3.78284 31.1187 3.78284 33.4864C3.78284 35.8541 5.70222 37.7734 8.0699 37.7734C10.4376 37.7734 12.357 35.8541 12.357 33.4864Z" fill="#FFE387"/>
<path d="M11.9054 33.0351C11.9054 35.4028 9.98601 37.3222 7.61833 37.3222C6.54942 37.3222 5.57174 36.9309 4.82092 36.2838C5.60713 37.196 6.77085 37.7734 8.0696 37.7734C10.4373 37.7734 12.3567 35.854 12.3567 33.4864C12.3567 32.1876 11.7795 31.0236 10.8673 30.2374C11.5143 30.9882 11.9054 31.9662 11.9054 33.0351Z" fill="#FFDD4E"/>
</g>
<g clip-path="url(#clip1_2287_152425)">
<path d="M27.8345 3.55812L28.8975 4.62109L29.2165 4.30204L28.1535 3.23906L27.8345 3.55812Z" fill="#BD6015"/>
<path d="M36.1175 4.30009L36.4365 4.61914L37.5058 3.54983L37.1868 3.23078L36.1175 4.30009Z" fill="#BD6015"/>
<path d="M32.6668 13.2598C35.5329 13.2598 37.8563 10.9364 37.8563 8.07035C37.8563 5.20427 35.5329 2.88086 32.6668 2.88086C29.8007 2.88086 27.4773 5.20427 27.4773 8.07035C27.4773 10.9364 29.8007 13.2598 32.6668 13.2598Z" fill="#D4702C"/>
<path d="M37.3906 7.69289C37.2122 5.39247 35.3447 3.52503 33.0443 3.34669C31.644 3.23814 30.3619 3.73968 29.4316 4.61271C29.2728 4.76174 29.0349 4.55626 29.1569 4.37588C29.2379 4.25622 29.323 4.13937 29.4134 4.02711C28.1272 5.06341 27.3455 6.7006 27.4957 8.51259C27.7026 11.0102 29.7274 13.0348 32.225 13.2416C34.0369 13.3916 35.6739 12.61 36.7101 11.3239C36.5979 11.4143 36.481 11.4994 36.3613 11.5804C36.1809 11.7024 35.9754 11.4645 36.1245 11.3057C36.9976 10.3754 37.4992 9.0932 37.3906 7.69289Z" fill="#BD6015"/>
<path d="M32.6669 0.623047C29.5407 0.623047 26.8583 2.55971 25.7564 5.29633C25.7015 5.43264 25.7206 5.58815 25.8017 5.71069C26.0046 6.01707 26.4615 5.96265 26.5994 5.62202C27.5703 3.22275 29.9237 1.52558 32.6669 1.52558C35.4101 1.52558 37.7636 3.22275 38.7345 5.62199C38.8723 5.96262 39.3293 6.01707 39.5322 5.71066C39.6133 5.58815 39.6324 5.43261 39.5775 5.2963C38.4755 2.55971 35.7932 0.623047 32.6669 0.623047Z" fill="#D4702C"/>
<path d="M26.0227 5.88274C26.9409 3.09075 29.5677 1.07431 32.667 1.07431C35.7662 1.07431 38.393 3.09075 39.3112 5.88271C39.3963 5.85207 39.4748 5.79738 39.5322 5.71069C39.6133 5.58815 39.6324 5.43264 39.5774 5.29633C38.4756 2.55968 35.7932 0.623047 32.667 0.623047C29.5407 0.623047 26.8583 2.55968 25.7564 5.2963C25.7015 5.43261 25.7205 5.58812 25.8017 5.71066C25.8591 5.79738 25.9376 5.85207 26.0227 5.88274Z" fill="#BD6015"/>
<path d="M32.6668 12.3573C35.0345 12.3573 36.9539 10.4379 36.9539 8.07027C36.9539 5.70259 35.0345 3.7832 32.6668 3.7832C30.2991 3.7832 28.3798 5.70259 28.3798 8.07027C28.3798 10.4379 30.2991 12.3573 32.6668 12.3573Z" fill="#FFE387"/>
<path d="M33.1181 11.9048C30.7504 11.9048 28.831 9.9854 28.831 7.61772C28.831 6.5488 29.2223 5.57113 29.8694 4.82031C28.9572 5.60652 28.3798 6.77024 28.3798 8.06899C28.3798 10.4367 30.2992 12.3561 32.6668 12.3561C33.9656 12.3561 35.1296 11.7789 35.9158 10.8666C35.165 11.5137 34.187 11.9048 33.1181 11.9048Z" fill="#FFDD4E"/>
</g>
<g filter="url(#filter0_d_2287_152425)">
<path d="M32.667 17.1504C23.6608 17.1504 16.3335 24.4774 16.3335 33.4839C16.3335 42.4904 23.6608 49.8174 32.667 49.8174C41.6735 49.8174 49.0005 42.4904 49.0005 33.4839C49.0005 24.4774 41.6735 17.1504 32.667 17.1504Z" fill="#B27A49"/>
<path d="M32.6666 17.1504V49.8174C41.6731 49.8174 49.0001 42.4904 49.0001 33.4839C49.0001 24.4774 41.6731 17.1504 32.6666 17.1504Z" fill="#B27A49"/>
</g>
<path d="M21.4924 33.4834C21.4924 27.3212 26.5061 22.3079 32.6679 22.3079C38.8302 22.3079 43.8435 27.3212 43.8435 33.4834C43.8435 39.6453 38.8302 44.6589 32.6679 44.6589C26.5061 44.6589 21.4924 39.6453 21.4924 33.4834Z" fill="#FFDD4E" stroke="white" stroke-width="0.32667"/>
<g clip-path="url(#clip2_2287_152425)">
<path d="M37.4996 63.4106L36.4366 62.3477L36.1176 62.6667L37.1806 63.7297L37.4996 63.4106Z" fill="#BD6015"/>
<path d="M29.2166 62.6687L28.8976 62.3496L27.8283 63.4189L28.1473 63.738L29.2166 62.6687Z" fill="#BD6015"/>
<path d="M32.6672 53.707C29.8011 53.707 27.4777 56.0304 27.4777 58.8964C27.4777 61.7625 29.8011 64.0859 32.6672 64.0859C35.5333 64.0859 37.8567 61.7625 37.8567 58.8964C37.8567 56.0304 35.5333 53.707 32.6672 53.707Z" fill="#D4702C"/>
<path d="M27.9434 59.2739C28.1218 61.5743 29.9893 63.4418 32.2897 63.6201C33.69 63.7287 34.9721 63.2271 35.9024 62.3541C36.0612 62.2051 36.2991 62.4105 36.1771 62.5909C36.0961 62.7106 36.011 62.8274 35.9206 62.9397C37.2068 61.9034 37.9885 60.2662 37.8383 58.4542C37.6314 55.9566 35.6066 53.932 33.109 53.7252C31.2971 53.5752 29.6601 54.3568 28.6239 55.6429C28.7361 55.5525 28.853 55.4674 28.9727 55.3864C29.1531 55.2644 29.3586 55.5023 29.2095 55.6611C28.3364 56.5914 27.8348 57.8736 27.9434 59.2739Z" fill="#BD6015"/>
<path d="M32.6672 66.3438C35.7934 66.3438 38.4758 64.4071 39.5777 61.6705C39.6326 61.5342 39.6135 61.3786 39.5324 61.2561C39.3295 60.9497 38.8726 61.0041 38.7347 61.3448C37.7638 63.744 35.4104 65.4412 32.6672 65.4412C29.924 65.4412 27.5705 63.744 26.5996 61.3448C26.4618 61.0042 26.0048 60.9497 25.8019 61.2561C25.7208 61.3786 25.7017 61.5342 25.7566 61.6705C26.8586 64.4071 29.5409 66.3438 32.6672 66.3438Z" fill="#D4702C"/>
<path d="M39.3114 61.0841C38.3932 63.876 35.7664 65.8925 32.6672 65.8925C29.5679 65.8925 26.9411 63.876 26.0229 61.0841C25.9378 61.1147 25.8593 61.1694 25.8019 61.2561C25.7208 61.3786 25.7017 61.5342 25.7567 61.6705C26.8585 64.4071 29.5409 66.3438 32.6672 66.3438C35.7934 66.3438 38.4758 64.4071 39.5777 61.6705C39.6326 61.5342 39.6136 61.3787 39.5324 61.2561C39.475 61.1694 39.3965 61.1147 39.3114 61.0841Z" fill="#BD6015"/>
<path d="M32.6673 54.6095C30.2996 54.6095 28.3802 56.5288 28.3802 58.8965C28.3802 61.2642 30.2996 63.1836 32.6673 63.1836C35.035 63.1836 36.9543 61.2642 36.9543 58.8965C36.9543 56.5288 35.035 54.6095 32.6673 54.6095Z" fill="#FFE387"/>
<path d="M32.216 55.0601C34.5837 55.0601 36.5031 56.9794 36.5031 59.3471C36.5031 60.416 36.1118 61.3937 35.4647 62.1445C36.3769 61.3583 36.9543 60.1946 36.9543 58.8959C36.9543 56.5282 35.035 54.6088 32.6673 54.6088C31.3685 54.6088 30.2045 55.1859 29.4183 56.0982C30.1692 55.4511 31.1471 55.0601 32.216 55.0601Z" fill="#FFDD4E"/>
</g>
<g clip-path="url(#clip3_2287_152425)">
<path d="M61.7772 28.648L60.7142 29.7109L61.0333 30.03L62.0963 28.967L61.7772 28.648Z" fill="#BD6015"/>
<path d="M61.0338 36.9329L60.7147 37.252L61.784 38.3213L62.1031 38.0022L61.0338 36.9329Z" fill="#BD6015"/>
<path d="M52.0741 33.4844C52.0741 36.3505 54.3976 38.6739 57.2636 38.6739C60.1297 38.6739 62.4531 36.3505 62.4531 33.4844C62.4531 30.6183 60.1297 28.2949 57.2636 28.2949C54.3976 28.2949 52.0741 30.6183 52.0741 33.4844Z" fill="#D4702C"/>
<path d="M57.6412 38.2062C59.9416 38.0278 61.8091 36.1604 61.9874 33.8599C62.096 32.4597 61.5944 31.1776 60.7214 30.2473C60.5724 30.0885 60.7778 29.8506 60.9582 29.9726C61.0779 30.0535 61.1947 30.1386 61.307 30.2291C60.2707 28.9429 58.6335 28.1612 56.8215 28.3113C54.3239 28.5183 52.2993 30.5431 52.0925 33.0406C51.9425 34.8525 52.7241 36.4896 54.0103 37.5258C53.9198 37.4135 53.8347 37.2967 53.7537 37.177C53.6317 36.9966 53.8696 36.7911 54.0284 36.9401C54.9587 37.8133 56.2409 38.3148 57.6412 38.2062Z" fill="#BD6015"/>
<path d="M64.7097 33.4827C64.7097 30.3565 62.7731 27.6741 60.0364 26.5722C59.9001 26.5173 59.7446 26.5364 59.6221 26.6175C59.3157 26.8204 59.3701 27.2773 59.7107 27.4152C62.11 28.3861 63.8072 30.7395 63.8072 33.4827C63.8072 36.2259 62.11 38.5794 59.7108 39.5503C59.3701 39.6881 59.3157 40.1451 59.6221 40.348C59.7446 40.4291 59.9002 40.4482 60.0365 40.3933C62.7731 39.2913 64.7097 36.609 64.7097 33.4827Z" fill="#D4702C"/>
<path d="M59.45 26.8385C62.242 27.7567 64.2584 30.3835 64.2584 33.4827C64.2584 36.582 62.242 39.2088 59.45 40.127C59.4807 40.2121 59.5354 40.2906 59.6221 40.348C59.7446 40.4291 59.9001 40.4482 60.0364 40.3932C62.7731 39.2914 64.7097 36.609 64.7097 33.4827C64.7097 30.3565 62.7731 27.6741 60.0365 26.5722C59.9002 26.5173 59.7446 26.5363 59.6221 26.6175C59.5354 26.6749 59.4807 26.7534 59.45 26.8385Z" fill="#BD6015"/>
<path d="M52.9765 33.4824C52.9765 35.8501 54.8959 37.7694 57.2636 37.7694C59.6313 37.7694 61.5507 35.8501 61.5507 33.4824C61.5507 31.1147 59.6313 29.1953 57.2636 29.1953C54.8959 29.1953 52.9765 31.1147 52.9765 33.4824Z" fill="#FFE387"/>
<path d="M53.4282 33.9336C53.4282 31.566 55.3476 29.6466 57.7153 29.6466C58.7842 29.6466 59.7619 30.0379 60.5127 30.685C59.7265 29.7727 58.5628 29.1953 57.264 29.1953C54.8963 29.1953 52.977 31.1147 52.977 33.4824C52.977 34.7811 53.5541 35.9451 54.4664 36.7313C53.8193 35.9805 53.4282 35.0026 53.4282 33.9336Z" fill="#FFDD4E"/>
</g>
<defs>
<filter id="filter0_d_2287_152425" x="15.5168" y="17.1504" width="34.3003" height="34.2994" filterUnits="userSpaceOnUse" color-interpolation-filters="sRGB">
<feFlood flood-opacity="0" result="BackgroundImageFix"/>
<feColorMatrix in="SourceAlpha" type="matrix" values="0 0 0 0 0 0 0 0 0 0 0 0 0 0 0 0 0 0 127 0" result="hardAlpha"/>
<feOffset dy="0.816675"/>
<feGaussianBlur stdDeviation="0.408337"/>
<feComposite in2="hardAlpha" operator="out"/>
<feColorMatrix type="matrix" values="0 0 0 0 0 0 0 0 0 0 0 0 0 0 0 0 0 0 0.15 0"/>
<feBlend mode="normal" in2="BackgroundImageFix" result="effect1_dropShadow_2287_152425"/>
<feBlend mode="normal" in="SourceGraphic" in2="effect1_dropShadow_2287_152425" result="shape"/>
</filter>
<clipPath id="clip0_2287_152425">
<rect width="13.8835" height="13.8835" fill="white" transform="matrix(0 -1 1 0 0 40.4258)"/>
</clipPath>
<clipPath id="clip1_2287_152425">
<rect width="13.8835" height="13.8835" fill="white" transform="translate(25.7252)"/>
</clipPath>
<clipPath id="clip2_2287_152425">
<rect width="13.8835" height="13.8835" fill="white" transform="matrix(-1 0 0 -1 39.6088 66.9668)"/>
</clipPath>
<clipPath id="clip3_2287_152425">
<rect width="13.8835" height="13.8835" fill="white" transform="matrix(0 1 -1 0 65.334 26.541)"/>
</clipPath>
</defs>
</svg>
