<svg width="66" height="35" viewBox="0 0 66 35" fill="none" xmlns="http://www.w3.org/2000/svg">
<g clip-path="url(#clip0_2287_152474)">
<path d="M3.55665 21.1684L4.61963 20.1055L4.30058 19.7864L3.2376 20.8494L3.55665 21.1684Z" fill="#BD6015"/>
<path d="M4.30009 12.8835L4.61914 12.5645L3.54983 11.4951L3.23078 11.8142L4.30009 12.8835Z" fill="#BD6015"/>
<path d="M13.2598 16.3339C13.2598 13.4679 10.9364 11.1445 8.07035 11.1445C5.20427 11.1445 2.88086 13.4679 2.88086 16.3339C2.88086 19.2 5.20427 21.5234 8.07035 21.5234C10.9364 21.5234 13.2598 19.2 13.2598 16.3339Z" fill="#D4702C"/>
<path d="M7.69265 11.6121C5.39222 11.7905 3.52479 13.658 3.34644 15.9584C3.2379 17.3587 3.73944 18.6408 4.61247 19.5711C4.7615 19.7299 4.55601 19.9678 4.37564 19.8458C4.25597 19.7648 4.13913 19.6797 4.02687 19.5893C5.06317 20.8755 6.70036 21.6572 8.51234 21.507C11.0099 21.3001 13.0346 19.2753 13.2413 16.7777C13.3914 14.9658 12.6098 13.3288 11.3236 12.2926C11.4141 12.4048 11.4992 12.5217 11.5802 12.6414C11.7022 12.8218 11.4643 13.0273 11.3055 12.8782C10.3752 12.0051 9.09295 11.5035 7.69265 11.6121Z" fill="#BD6015"/>
<path d="M0.624268 16.3337C0.624268 19.4599 2.56093 22.1423 5.29755 23.2442C5.43386 23.2991 5.58937 23.28 5.71191 23.1989C6.01829 22.9961 5.96387 22.5391 5.62324 22.4012C3.22397 21.4303 1.5268 19.0769 1.5268 16.3337C1.5268 13.5905 3.22397 11.237 5.62321 10.2661C5.96385 10.1283 6.01829 9.67128 5.71188 9.4684C5.58937 9.38727 5.43383 9.36823 5.29752 9.42314C2.56093 10.5251 0.624268 13.2074 0.624268 16.3337Z" fill="#D4702C"/>
<path d="M5.88396 22.9779C3.09197 22.0597 1.07553 19.4329 1.07553 16.3337C1.07553 13.2344 3.09197 10.6076 5.88393 9.68941C5.85329 9.6043 5.7986 9.5258 5.71191 9.46842C5.58937 9.38729 5.43386 9.36825 5.29755 9.42316C2.5609 10.5251 0.624268 13.2074 0.624268 16.3337C0.624268 19.4599 2.5609 22.1423 5.29752 23.2442C5.43383 23.2991 5.58934 23.2801 5.71188 23.1989C5.7986 23.1415 5.85329 23.063 5.88396 22.9779Z" fill="#BD6015"/>
<path d="M12.3573 16.336C12.3573 13.9683 10.4379 12.0489 8.07027 12.0489C5.70259 12.0489 3.7832 13.9683 3.7832 16.336C3.7832 18.7037 5.70259 20.623 8.07027 20.623C10.4379 20.623 12.3573 18.7037 12.3573 16.336Z" fill="#FFE387"/>
<path d="M11.9058 15.8847C11.9058 18.2524 9.98637 20.1718 7.6187 20.1718C6.54978 20.1718 5.57211 19.7805 4.82129 19.1334C5.60749 20.0456 6.77121 20.623 8.06997 20.623C10.4376 20.623 12.357 18.7037 12.357 16.336C12.357 15.0372 11.7799 13.8732 10.8676 13.087C11.5147 13.8379 11.9058 14.8158 11.9058 15.8847Z" fill="#FFDD4E"/>
</g>
<g filter="url(#filter0_d_2287_152474)">
<path d="M32.667 0C23.6608 0 16.3335 7.327 16.3335 16.3335C16.3335 25.34 23.6608 32.667 32.667 32.667C41.6735 32.667 49.0005 25.34 49.0005 16.3335C49.0005 7.327 41.6735 0 32.667 0Z" fill="#B27A49"/>
<path d="M32.6666 0V32.667C41.6731 32.667 49.0001 25.34 49.0001 16.3335C49.0001 7.327 41.6731 0 32.6666 0Z" fill="#B27A49"/>
</g>
<path d="M21.4919 16.333C21.4919 10.1708 26.5056 5.15748 32.6675 5.15748C38.8297 5.15748 43.843 10.1708 43.843 16.333C43.843 22.4949 38.8297 27.5085 32.6675 27.5085C26.5056 27.5085 21.4919 22.4949 21.4919 16.333Z" fill="#FFDD4E" stroke="white" stroke-width="0.32667"/>
<g clip-path="url(#clip1_2287_152474)">
<path d="M61.7779 11.4995L60.715 12.5625L61.034 12.8816L62.097 11.8186L61.7779 11.4995Z" fill="#BD6015"/>
<path d="M61.0345 19.7845L60.7155 20.1035L61.7848 21.1728L62.1038 20.8538L61.0345 19.7845Z" fill="#BD6015"/>
<path d="M52.0745 16.336C52.0745 19.2021 54.3979 21.5255 57.264 21.5255C60.1301 21.5255 62.4535 19.2021 62.4535 16.336C62.4535 13.4699 60.1301 11.1465 57.264 11.1465C54.3979 11.1465 52.0745 13.4699 52.0745 16.336Z" fill="#D4702C"/>
<path d="M57.6416 21.0578C59.942 20.8794 61.8094 19.0119 61.9878 16.7115C62.0963 15.3113 61.5948 14.0291 60.7218 13.0988C60.5727 12.94 60.7782 12.7021 60.9586 12.8241C61.0783 12.9051 61.1951 12.9902 61.3074 13.0806C60.2711 11.7944 58.6339 11.0128 56.8219 11.1629C54.3243 11.3699 52.2997 13.3946 52.0929 15.8922C51.9428 17.7041 52.7245 19.3411 54.0106 20.3774C53.9202 20.2651 53.835 20.1482 53.7541 20.0285C53.632 19.8482 53.8699 19.6427 54.0288 19.7917C54.9591 20.6648 56.2413 21.1664 57.6416 21.0578Z" fill="#BD6015"/>
<path d="M64.7101 16.3343C64.7101 13.2081 62.7734 10.5257 60.0368 9.42378C59.9005 9.36889 59.745 9.38793 59.6224 9.46903C59.3161 9.67192 59.3705 10.1289 59.7111 10.2667C62.1104 11.2376 63.8075 13.5911 63.8075 16.3343C63.8075 19.0775 62.1104 21.431 59.7111 22.4019C59.3705 22.5397 59.3161 22.9967 59.6225 23.1996C59.745 23.2807 59.9005 23.2997 60.0368 23.2448C62.7734 22.1429 64.7101 19.4605 64.7101 16.3343Z" fill="#D4702C"/>
<path d="M59.4504 9.69006C62.2424 10.6083 64.2588 13.2351 64.2588 16.3343C64.2588 19.4336 62.2424 22.0603 59.4504 22.9786C59.4811 23.0637 59.5358 23.1422 59.6224 23.1996C59.745 23.2807 59.9005 23.2997 60.0368 23.2448C62.7734 22.1429 64.7101 19.4606 64.7101 16.3343C64.7101 13.2081 62.7734 10.5257 60.0368 9.42378C59.9005 9.3689 59.745 9.38791 59.6225 9.46904C59.5358 9.52644 59.4811 9.60495 59.4504 9.69006Z" fill="#BD6015"/>
<path d="M52.9769 16.3339C52.9769 18.7016 54.8963 20.621 57.264 20.621C59.6316 20.621 61.551 18.7016 61.551 16.3339C61.551 13.9663 59.6316 12.0469 57.264 12.0469C54.8963 12.0469 52.9769 13.9663 52.9769 16.3339Z" fill="#FFE387"/>
<path d="M53.4286 16.7852C53.4286 14.4175 55.348 12.4981 57.7157 12.4981C58.7846 12.4981 59.7622 12.8895 60.5131 13.5365C59.7269 12.6243 58.5631 12.0469 57.2644 12.0469C54.8967 12.0469 52.9773 13.9663 52.9773 16.3339C52.9773 17.6327 53.5545 18.7967 54.4667 19.5829C53.8197 18.8321 53.4286 17.8541 53.4286 16.7852Z" fill="#FFDD4E"/>
</g>
<defs>
<filter id="filter0_d_2287_152474" x="15.5168" y="0" width="34.3003" height="34.3013" filterUnits="userSpaceOnUse" color-interpolation-filters="sRGB">
<feFlood flood-opacity="0" result="BackgroundImageFix"/>
<feColorMatrix in="SourceAlpha" type="matrix" values="0 0 0 0 0 0 0 0 0 0 0 0 0 0 0 0 0 0 127 0" result="hardAlpha"/>
<feOffset dy="0.816675"/>
<feGaussianBlur stdDeviation="0.408337"/>
<feComposite in2="hardAlpha" operator="out"/>
<feColorMatrix type="matrix" values="0 0 0 0 0 0 0 0 0 0 0 0 0 0 0 0 0 0 0.15 0"/>
<feBlend mode="normal" in2="BackgroundImageFix" result="effect1_dropShadow_2287_152474"/>
<feBlend mode="normal" in="SourceGraphic" in2="effect1_dropShadow_2287_152474" result="shape"/>
</filter>
<clipPath id="clip0_2287_152474">
<rect width="13.8835" height="13.8835" fill="white" transform="matrix(0 -1 1 0 0 23.2754)"/>
</clipPath>
<clipPath id="clip1_2287_152474">
<rect width="13.8835" height="13.8835" fill="white" transform="matrix(0 1 -1 0 65.334 9.39258)"/>
</clipPath>
</defs>
</svg>
