<svg width="73" height="72" viewBox="0 0 73 72" fill="none" xmlns="http://www.w3.org/2000/svg">
<g clip-path="url(#clip0_2287_152317)">
<path d="M3.55616 38.7056L4.61914 37.6426L4.30009 37.3235L3.23711 38.3865L3.55616 38.7056Z" fill="#BD6015"/>
<path d="M4.29984 30.4206L4.6189 30.1016L3.54959 29.0323L3.23054 29.3513L4.29984 30.4206Z" fill="#BD6015"/>
<path d="M13.2596 33.8691C13.2596 31.003 10.9362 28.6796 8.07011 28.6796C5.20403 28.6796 2.88062 31.003 2.88062 33.8691C2.88062 36.7352 5.20403 39.0586 8.07011 39.0586C10.9362 39.0586 13.2596 36.7352 13.2596 33.8691Z" fill="#D4702C"/>
<path d="M7.69265 29.1473C5.39222 29.3257 3.52479 31.1932 3.34644 33.4936C3.2379 34.8938 3.73944 36.1759 4.61247 37.1062C4.7615 37.265 4.55601 37.503 4.37564 37.3809C4.25597 37.3 4.13913 37.2149 4.02687 37.1244C5.06317 38.4107 6.70036 39.1923 8.51234 39.0422C11.0099 38.8352 13.0346 36.8105 13.2413 34.3129C13.3914 32.501 12.6098 30.8639 11.3236 29.8277C11.4141 29.94 11.4992 30.0569 11.5802 30.1765C11.7022 30.3569 11.4643 30.5624 11.3055 30.4134C10.3752 29.5403 9.09295 29.0387 7.69265 29.1473Z" fill="#BD6015"/>
<path d="M0.624023 33.8708C0.624023 36.997 2.56069 39.6794 5.2973 40.7813C5.43362 40.8362 5.58913 40.8172 5.71167 40.736C6.01805 40.5332 5.96363 40.0762 5.62299 39.9383C3.22373 38.9674 1.52656 36.614 1.52656 33.8708C1.52656 31.1276 3.22373 28.7741 5.62297 27.8032C5.9636 27.6654 6.01805 27.2084 5.71164 27.0055C5.58913 26.9244 5.43359 26.9053 5.29728 26.9603C2.56069 28.0622 0.624023 30.7445 0.624023 33.8708Z" fill="#D4702C"/>
<path d="M5.88372 40.515C3.09173 39.5968 1.07529 36.97 1.07529 33.8708C1.07529 30.7715 3.09173 28.1448 5.88369 27.2265C5.85305 27.1414 5.79836 27.0629 5.71167 27.0055C5.58913 26.9244 5.43362 26.9054 5.2973 26.9603C2.56066 28.0622 0.624023 30.7445 0.624023 33.8708C0.624023 36.997 2.56066 39.6794 5.29728 40.7813C5.43359 40.8362 5.5891 40.8172 5.71164 40.736C5.79836 40.6786 5.85305 40.6001 5.88372 40.515Z" fill="#BD6015"/>
<path d="M12.3573 33.8711C12.3573 31.5035 10.4379 29.5841 8.07027 29.5841C5.70259 29.5841 3.7832 31.5035 3.7832 33.8711C3.7832 36.2388 5.70259 38.1582 8.07027 38.1582C10.4379 38.1582 12.3573 36.2388 12.3573 33.8711Z" fill="#FFE387"/>
<path d="M11.9055 33.4199C11.9055 35.7875 9.98613 37.7069 7.61846 37.7069C6.54954 37.7069 5.57186 37.3156 4.82104 36.6685C5.60725 37.5808 6.77097 38.1582 8.06972 38.1582C10.4374 38.1582 12.3568 36.2388 12.3568 33.8711C12.3568 32.5724 11.7796 31.4084 10.8674 30.6222C11.5145 31.373 11.9055 32.351 11.9055 33.4199Z" fill="#FFDD4E"/>
</g>
<g clip-path="url(#clip1_2287_152317)">
<path d="M24.2418 6.59897L25.552 7.33594L25.7732 6.94267L24.463 6.2057L24.2418 6.59897Z" fill="#BD6015"/>
<path d="M32.4187 5.08153L32.812 5.30273L33.5534 3.9847L33.1601 3.7635L32.4187 5.08153Z" fill="#BD6015"/>
<path d="M31.5118 14.6401C34.2717 13.8672 35.8825 11.0034 35.1097 8.24345C34.3369 5.48354 31.473 3.87271 28.7131 4.64556C25.9532 5.41841 24.3423 8.28227 25.1152 11.0422C25.888 13.8021 28.7519 15.4129 31.5118 14.6401Z" fill="#D4702C"/>
<path d="M34.5594 8.00469C33.7673 5.83759 31.4654 4.5429 29.2021 4.99148C27.8245 5.26453 26.7251 6.09322 26.0647 7.18477C25.9519 7.3711 25.6674 7.23738 25.7363 7.03078C25.782 6.89373 25.8324 6.75826 25.8892 6.62577C24.9301 7.97052 24.6189 9.75784 25.2521 11.4622C26.1248 13.8115 28.6205 15.2151 31.0814 14.7408C32.8666 14.3967 34.2322 13.2026 34.8832 11.6846C34.7995 11.802 34.7099 11.9155 34.6165 12.0257C34.4757 12.1919 34.2137 12.0182 34.3144 11.8251C34.9043 10.6938 35.0416 9.32384 34.5594 8.00469Z" fill="#BD6015"/>
<path d="M28.1047 2.47189C25.0943 3.31489 23.0335 5.90313 22.7104 8.83551C22.6943 8.98157 22.7545 9.12619 22.8657 9.22232C23.1437 9.46264 23.569 9.28702 23.6099 8.92183C23.8979 6.34963 25.7065 4.08071 28.3481 3.34099C30.9897 2.60128 33.7136 3.60097 35.2955 5.64952C35.5201 5.94037 35.9749 5.86958 36.0876 5.51981C36.1327 5.37996 36.1091 5.22505 36.0194 5.10859C34.2204 2.77051 31.1152 1.62889 28.1047 2.47189Z" fill="#D4702C"/>
<path d="M23.1249 9.32839C23.2563 6.39222 25.242 3.74216 28.2264 2.90644C31.2109 2.07072 34.2841 3.30415 35.9212 5.74508C35.9949 5.69262 36.0557 5.61879 36.0876 5.51984C36.1327 5.37996 36.1091 5.22508 36.0194 5.10862C34.2204 2.77048 31.1152 1.62889 28.1048 2.47189C25.0943 3.31489 23.0335 5.9031 22.7104 8.83548C22.6943 8.98154 22.7545 9.12617 22.8657 9.22229C22.9443 9.29031 23.0347 9.32181 23.1249 9.32839Z" fill="#BD6015"/>
<path d="M31.2687 13.7704C33.5486 13.132 34.8794 10.7661 34.2409 8.48614C33.6025 6.20617 31.2366 4.87545 28.9566 5.5139C26.6767 6.15235 25.3459 8.51821 25.9844 10.7982C26.6228 13.0782 28.9887 14.4089 31.2687 13.7704Z" fill="#FFE387"/>
<path d="M31.5816 13.2143C29.3016 13.8527 26.9357 12.522 26.2973 10.242C26.009 9.2127 26.1222 8.16572 26.5429 7.26823C25.8764 8.2713 25.6342 9.54761 25.9844 10.7983C26.6229 13.0782 28.9887 14.409 31.2687 13.7705C32.5193 13.4203 33.4846 12.5507 33.9957 11.4602C33.4472 12.2857 32.6109 12.926 31.5816 13.2143Z" fill="#FFDD4E"/>
</g>
<g filter="url(#filter0_d_2287_152317)">
<path d="M36.342 16.3105C25.3095 16.3105 16.3335 25.2861 16.3335 36.3191C16.3335 47.352 25.3095 56.3276 36.342 56.3276C47.375 56.3276 56.3506 47.352 56.3506 36.3191C56.3506 25.2861 47.375 16.3105 36.342 16.3105Z" fill="#B27A49"/>
<path d="M36.3413 16.3105V56.3276C47.3743 56.3276 56.3498 47.352 56.3498 36.3191C56.3498 25.2861 47.3743 16.3105 36.3413 16.3105Z" fill="#B27A49"/>
</g>
<path d="M22.616 36.3217C22.616 28.7527 28.7741 22.595 36.3427 22.595C43.9117 22.595 50.0695 28.7527 50.0695 36.3217C50.0695 43.8903 43.9117 50.0485 36.3427 50.0485C28.7741 50.0485 22.616 43.8903 22.616 36.3217Z" fill="#FFDD4E" stroke="white" stroke-width="0.32667"/>
<g clip-path="url(#clip2_2287_152317)">
<path d="M68.8647 37.6833L67.5457 38.4043L67.7621 38.8002L69.0811 38.0792L68.8647 37.6833Z" fill="#BD6015"/>
<path d="M65.8215 45.4223L65.4255 45.6387L66.1509 46.9656L66.5468 46.7492L65.8215 45.4223Z" fill="#BD6015"/>
<path d="M58.1938 39.5916C57.3876 42.3419 58.9636 45.2251 61.714 46.0313C64.4643 46.8375 67.3475 45.2615 68.1537 42.5112C68.9599 39.7608 67.3839 36.8777 64.6336 36.0714C61.8832 35.2652 59.0001 36.8412 58.1938 39.5916Z" fill="#D4702C"/>
<path d="M62.2075 45.6906C64.4652 46.1665 66.7826 44.8997 67.6008 42.7423C68.0989 41.4292 67.9783 40.0577 67.4022 38.9194C67.3038 38.7251 67.568 38.5546 67.7067 38.7225C67.7988 38.8338 67.887 38.9483 67.9693 39.0667C67.3366 37.5409 65.9854 36.3303 64.2044 35.9646C61.7494 35.4606 59.237 36.8341 58.336 39.1727C57.6823 40.8692 57.9719 42.66 58.9146 44.0162C58.8594 43.883 58.8106 43.7469 58.7665 43.6093C58.7002 43.4019 58.9863 43.2716 59.0967 43.4593C59.7439 44.5588 60.8332 45.4009 62.2075 45.6906Z" fill="#BD6015"/>
<path d="M70.319 43.1458C71.1984 40.1458 70.0945 37.0269 67.7784 35.1997C67.663 35.1087 67.5084 35.0832 67.368 35.1266C67.0169 35.2351 66.9406 35.6889 67.2287 35.917C69.258 37.5236 70.2246 40.2595 69.4529 42.8919C68.6813 45.5243 66.3906 47.3053 63.8151 47.5621C63.4495 47.5986 63.2687 48.0218 63.5056 48.3027C63.6004 48.415 63.7443 48.477 63.8905 48.4627C66.8266 48.175 69.4396 46.1458 70.319 43.1458Z" fill="#D4702C"/>
<path d="M67.1407 35.2903C69.5617 36.9568 70.7578 40.0448 69.886 43.0189C69.0141 45.9929 66.3402 47.9464 63.4027 48.0422C63.4082 48.1325 63.4386 48.2232 63.5056 48.3027C63.6004 48.415 63.7442 48.477 63.8905 48.4626C66.8266 48.1751 69.4396 46.1458 70.319 43.1458C71.1984 40.1458 70.0945 37.027 67.7784 35.1997C67.663 35.1087 67.5085 35.0832 67.368 35.1266C67.2687 35.1573 67.1941 35.2172 67.1407 35.2903Z" fill="#BD6015"/>
<path d="M59.06 39.8446C58.394 42.1167 59.696 44.4985 61.968 45.1645C64.2401 45.8306 66.6219 44.5286 67.2879 42.2565C67.954 39.9845 66.652 37.6027 64.3799 36.9366C62.1079 36.2706 59.7261 37.5725 59.06 39.8446Z" fill="#FFE387"/>
<path d="M59.366 40.4057C60.032 38.1336 62.4139 36.8317 64.6859 37.4977C65.7117 37.7984 66.5398 38.4489 67.0783 39.2811C66.5804 38.1845 65.6261 37.303 64.3798 36.9377C62.1078 36.2717 59.7259 37.5736 59.0599 39.8457C58.6946 41.092 58.921 42.3713 59.5752 43.3824C59.1655 42.4799 59.0653 41.4314 59.366 40.4057Z" fill="#FFDD4E"/>
</g>
<g clip-path="url(#clip3_2287_152317)">
<path d="M63.33 19.7291L62.8184 21.1426L63.2426 21.2962L63.7543 19.8826L63.33 19.7291Z" fill="#BD6015"/>
<path d="M66.1707 27.5464L66.0171 27.9707L67.439 28.4854L67.5926 28.0612L66.1707 27.5464Z" fill="#BD6015"/>
<path d="M56.5938 28.2233C57.8096 30.8187 60.8992 31.9372 63.4946 30.7214C66.09 29.5056 67.2085 26.416 65.9927 23.8205C64.7769 21.2251 61.6873 20.1067 59.0918 21.3225C56.4964 22.5383 55.378 25.6279 56.5938 28.2233Z" fill="#D4702C"/>
<path d="M63.6385 30.1395C65.646 29.0021 66.5449 26.5188 65.7306 24.36C65.2349 23.0459 64.2368 22.0976 63.0516 21.6255C62.8493 21.5449 62.9344 21.2423 63.1495 21.2763C63.2922 21.2988 63.4342 21.3264 63.5742 21.3606C62.0901 20.6355 60.276 20.6221 58.6988 21.5267C56.5248 22.7736 55.5503 25.466 56.4225 27.8155C57.0553 29.5199 58.4575 30.6708 60.0618 31.0636C59.9322 31.0003 59.8056 30.9306 59.6815 30.8565C59.4945 30.745 59.6227 30.458 59.8298 30.5256C61.0426 30.9216 62.4165 30.8319 63.6385 30.1395Z" fill="#BD6015"/>
<path d="M68.0358 22.8624C66.7096 20.0313 63.818 18.4238 60.8723 18.5868C60.7256 18.595 60.5929 18.6782 60.5163 18.8036C60.3249 19.1173 60.568 19.508 60.935 19.4884C63.5195 19.3498 66.0548 20.7611 67.2185 23.2452C68.3821 25.7294 67.8436 28.5805 66.0828 30.4775C65.8328 30.7468 65.9773 31.1838 66.3408 31.2375C66.4862 31.259 66.6351 31.2103 66.7353 31.1027C68.746 28.944 69.3619 25.6934 68.0358 22.8624Z" fill="#D4702C"/>
<path d="M60.4543 19.0767C63.3721 18.7239 66.3124 20.2472 67.6271 23.0538C68.9418 25.8604 68.2301 29.0945 66.0913 31.1104C66.1551 31.1744 66.238 31.2223 66.3408 31.2375C66.4862 31.259 66.6351 31.2103 66.7352 31.1027C68.746 28.944 69.3619 25.6934 68.0358 22.8624C66.7096 20.0313 63.818 18.4238 60.8724 18.5868C60.7256 18.595 60.5929 18.6781 60.5163 18.8036C60.4621 18.8924 60.4459 18.9867 60.4543 19.0767Z" fill="#BD6015"/>
<path d="M57.4106 27.8397C58.415 29.9838 60.9673 30.9077 63.1114 29.9033C65.2555 28.899 66.1794 26.3466 65.175 24.2025C64.1707 22.0584 61.6183 21.1345 59.4742 22.1389C57.3301 23.1433 56.4062 25.6956 57.4106 27.8397Z" fill="#FFE387"/>
<path d="M58.0108 28.0559C57.0064 25.9118 57.9304 23.3595 60.0744 22.3551C61.0424 21.9016 62.0938 21.8413 63.0482 22.1087C61.9492 21.6162 60.6505 21.5869 59.4744 22.1379C57.3303 23.1422 56.4063 25.6946 57.4107 27.8387C57.9617 29.0148 58.9781 29.824 60.1377 30.149C59.2332 29.7436 58.4642 29.0239 58.0108 28.0559Z" fill="#FFDD4E"/>
</g>
<g clip-path="url(#clip4_2287_152317)">
<path d="M8.90712 18.9844H10.4104V18.5332H8.90712V18.9844Z" fill="#BD6015"/>
<path d="M15.2898 13.6523H15.741V12.1401H15.2898V13.6523Z" fill="#BD6015"/>
<path d="M19.1848 22.4293C21.2115 20.4027 21.2115 17.1169 19.1848 15.0902C17.1582 13.0636 13.8724 13.0636 11.8458 15.0902C9.81917 17.1169 9.81917 20.4027 11.8458 22.4293C13.8724 24.4559 17.1582 24.4559 19.1848 22.4293Z" fill="#D4702C"/>
<path d="M18.5882 15.1539C16.8354 13.6534 14.1944 13.6535 12.4417 15.154C11.3748 16.0674 10.8229 17.3286 10.7824 18.6038C10.7755 18.8214 10.4619 18.8444 10.4207 18.6305C10.3933 18.4887 10.3708 18.3459 10.3554 18.2025C10.1787 19.8448 10.7836 21.5552 12.1711 22.7303C14.0835 24.35 16.9468 24.3499 18.8591 22.7301C20.2464 21.555 20.8513 19.8447 20.6745 18.2026C20.6591 18.3459 20.6367 18.4887 20.6093 18.6306C20.568 18.8444 20.2545 18.8215 20.2476 18.6039C20.2072 17.3286 19.6552 16.0673 18.5882 15.1539Z" fill="#BD6015"/>
<path d="M10.2498 13.4958C8.03926 15.7063 7.51197 18.9725 8.66788 21.6867C8.72546 21.8219 8.84888 21.9184 8.99288 21.9477C9.35298 22.0209 9.63762 21.6593 9.49424 21.321C8.48423 18.9379 8.9483 16.0737 10.888 14.1339C12.8278 12.1942 15.692 11.7301 18.0751 12.7401C18.4134 12.8835 18.775 12.5989 18.7018 12.2388C18.6726 12.0948 18.576 11.9713 18.4408 11.9138C15.7266 10.7579 12.4604 11.2852 10.2498 13.4958Z" fill="#D4702C"/>
<path d="M9.27083 21.9131C7.94588 19.2896 8.37745 16.0063 10.5689 13.8148C12.7604 11.6234 16.0437 11.1918 18.6672 12.5167C18.7057 12.4349 18.7225 12.3407 18.7018 12.2388C18.6725 12.0948 18.576 11.9714 18.4408 11.9138C15.7266 10.7579 12.4604 11.2852 10.2499 13.4958C8.03926 15.7063 7.51196 18.9725 8.66786 21.6867C8.72544 21.8219 8.84885 21.9184 8.99286 21.9477C9.09477 21.9684 9.18896 21.9516 9.27083 21.9131Z" fill="#BD6015"/>
<path d="M18.5464 21.7912C20.2206 20.117 20.2206 17.4026 18.5464 15.7284C16.8722 14.0542 14.1578 14.0542 12.4836 15.7284C10.8094 17.4026 10.8094 20.117 12.4836 21.7912C14.1578 23.4654 16.8722 23.4654 18.5464 21.7912Z" fill="#FFE387"/>
<path d="M18.5463 21.1531C16.8721 22.8273 14.1576 22.8273 12.4834 21.1531C11.7276 20.3973 11.313 19.4293 11.2396 18.4408C11.1505 19.6418 11.5651 20.8729 12.4834 21.7913C14.1576 23.4655 16.8721 23.4655 18.5463 21.7913C19.4646 20.8729 19.8796 19.6418 19.7905 18.4408C19.7171 19.4292 19.3021 20.3973 18.5463 21.1531Z" fill="#FFDD4E"/>
</g>
<g clip-path="url(#clip5_2287_152317)">
<path d="M63.0023 55.3627L61.499 55.3516L61.4957 55.8028L62.9989 55.8139L63.0023 55.3627Z" fill="#BD6015"/>
<path d="M56.5801 60.6479L56.1289 60.6445L56.1177 62.1567L56.5689 62.1601L56.5801 60.6479Z" fill="#BD6015"/>
<path d="M52.7497 51.8464C50.7081 53.8579 50.6837 57.1436 52.6952 59.1852C54.7066 61.2268 57.9924 61.2513 60.034 59.2398C62.0756 57.2283 62.1001 53.9426 60.0886 51.9009C58.0771 49.8593 54.7914 49.8349 52.7497 51.8464Z" fill="#D4702C"/>
<path d="M53.2923 59.1264C55.0339 60.6399 57.6748 60.6595 59.4387 59.172C60.5123 58.2666 61.0736 57.0095 61.1236 55.7347C61.1321 55.5171 61.4458 55.4965 61.4855 55.7106C61.5118 55.8527 61.5332 55.9956 61.5475 56.1391C61.7365 54.4982 61.1443 52.7833 59.7656 51.5979C57.8653 49.964 55.002 49.9428 53.0778 51.5484C51.6818 52.7132 51.0642 54.4189 51.2287 56.0623C51.2452 55.9191 51.2687 55.7764 51.2971 55.6347C51.34 55.4212 51.6533 55.4465 51.6586 55.6642C51.6896 56.9397 52.2322 58.2051 53.2923 59.1264Z" fill="#BD6015"/>
<path d="M61.6178 60.8446C63.8448 58.6505 64.3964 55.3883 63.2607 52.6656C63.2041 52.5299 63.0814 52.4325 62.9376 52.4022C62.5781 52.3263 62.2908 52.6858 62.4316 53.0252C63.4239 55.4157 62.9385 58.2764 60.9844 60.2016C59.0303 62.1269 56.1627 62.5696 53.7872 61.542C53.45 61.396 53.0862 61.678 53.1568 62.0387C53.1849 62.1829 53.2805 62.307 53.4153 62.3656C56.1209 63.5416 59.3909 63.0386 61.6178 60.8446Z" fill="#D4702C"/>
<path d="M62.6594 52.4347C63.9648 55.068 63.5088 58.348 61.3011 60.5231C59.0934 62.6982 55.807 63.1054 53.1934 61.761C53.1543 61.8425 53.1368 61.9366 53.1567 62.0386C53.185 62.1828 53.2805 62.307 53.4153 62.3656C56.1209 63.5416 59.3909 63.0386 61.6178 60.8446C63.8448 58.6505 64.3964 55.3884 63.2607 52.6656C63.2041 52.53 63.0814 52.4325 62.9376 52.4022C62.8359 52.3807 62.7416 52.3968 62.6594 52.4347Z" fill="#BD6015"/>
<path d="M53.3832 52.4889C51.6965 54.1506 51.6764 56.865 53.3381 58.5516C54.9998 60.2382 57.7141 60.2584 59.4007 58.5967C61.0873 56.935 61.1075 54.2206 59.4458 52.534C57.7841 50.8474 55.0698 50.8272 53.3832 52.4889Z" fill="#FFE387"/>
<path d="M53.3784 53.1266C55.065 51.4649 57.7794 51.485 59.4411 53.1716C60.1913 53.9331 60.5987 54.9042 60.6647 55.8931C60.7627 54.6928 60.3573 53.4586 59.4458 52.5335C57.7841 50.8469 55.0698 50.8267 53.3832 52.4884C52.458 53.3999 52.0339 54.6279 52.1141 55.8296C52.1948 54.8417 52.617 53.8768 53.3784 53.1266Z" fill="#FFDD4E"/>
</g>
<g clip-path="url(#clip6_2287_152317)">
<path d="M45.4252 6.28482L46.2993 7.50781L46.6664 7.24544L45.7923 6.02244L45.4252 6.28482Z" fill="#BD6015"/>
<path d="M53.474 8.37901L53.7363 8.74609L54.9666 7.86674L54.7042 7.49966L53.474 8.37901Z" fill="#BD6015"/>
<path d="M48.5999 16.6504C51.4271 17.1207 54.1003 15.21 54.5706 12.3828C55.0409 9.55556 53.1302 6.88239 50.303 6.41209C47.4758 5.9418 44.8026 7.85247 44.3323 10.6797C43.862 13.5069 45.7727 16.1801 48.5999 16.6504Z" fill="#D4702C"/>
<path d="M54.1729 11.9323C54.3744 9.63381 52.8387 7.48525 50.5987 6.93185C49.2353 6.59501 47.8882 6.87937 46.8273 7.58791C46.6462 7.70887 46.4452 7.46713 46.5952 7.30922C46.6947 7.20446 46.7978 7.10316 46.9054 7.00726C45.4666 7.81846 44.4269 9.3052 44.2777 11.1173C44.072 13.6149 45.7371 15.9444 48.1669 16.5582C49.9296 17.0035 51.6727 16.5011 52.9059 15.4024C52.7803 15.4732 52.6511 15.538 52.5197 15.5983C52.3218 15.689 52.1581 15.4206 52.3312 15.2884C53.3451 14.514 54.0503 13.3315 54.1729 11.9323Z" fill="#BD6015"/>
<path d="M50.6733 4.18594C47.5894 3.67296 44.6257 5.14322 43.0896 7.66193C43.0131 7.78739 43.0064 7.94392 43.0663 8.0781C43.2161 8.41362 43.6758 8.43492 43.8677 8.12153C45.2191 5.9141 47.8192 4.62611 50.5252 5.07624C53.2312 5.52638 55.2743 7.58673 55.8384 10.1128C55.9184 10.4714 56.3603 10.6001 56.6107 10.3311C56.7108 10.2236 56.7551 10.0733 56.7233 9.9298C56.0854 7.04949 53.7572 4.69893 50.6733 4.18594Z" fill="#D4702C"/>
<path d="M43.2561 8.28409C44.62 5.68062 47.542 4.12254 50.5993 4.6311C53.6565 5.13965 55.9168 7.55979 56.3644 10.4646C56.4534 10.4483 56.5399 10.4072 56.6107 10.3311C56.7108 10.2236 56.7551 10.0733 56.7233 9.92983C56.0854 7.04947 53.7572 4.69893 50.6733 4.18595C47.5894 3.67296 44.6257 5.1432 43.0896 7.6619C43.0131 7.78736 43.0064 7.94389 43.0663 8.07808C43.1087 8.17304 43.1771 8.23987 43.2561 8.28409Z" fill="#BD6015"/>
<path d="M48.748 15.759C51.0836 16.1475 53.292 14.5691 53.6805 12.2335C54.069 9.89795 52.4906 7.68963 50.155 7.30112C47.8194 6.91261 45.6111 8.49102 45.2226 10.8266C44.834 13.1622 46.4125 15.3705 48.748 15.759Z" fill="#FFE387"/>
<path d="M49.2675 15.389C46.9319 15.0005 45.3535 12.7922 45.742 10.4566C45.9174 9.40216 46.4638 8.50195 47.2253 7.86748C46.1964 8.49334 45.4359 9.54654 45.2228 10.8277C44.8343 13.1633 46.4127 15.3716 48.7483 15.7601C50.0294 15.9732 51.2723 15.5949 52.1976 14.824C51.3508 15.3391 50.3219 15.5644 49.2675 15.389Z" fill="#FFDD4E"/>
</g>
<g clip-path="url(#clip7_2287_152317)">
<path d="M25.1154 66.931L24.6863 65.4902L24.2538 65.619L24.683 67.0598L25.1154 66.931Z" fill="#BD6015"/>
<path d="M18.1835 62.3348L18.0547 61.9023L16.6054 62.334L16.7342 62.7665L18.1835 62.3348Z" fill="#BD6015"/>
<path d="M25.4813 56.0973C22.9605 54.7336 19.8114 55.6716 18.4477 58.1924C17.084 60.7132 18.022 63.8623 20.5428 65.226C23.0636 66.5898 26.2127 65.6518 27.5764 63.1309C28.9402 60.6101 28.0022 57.461 25.4813 56.0973Z" fill="#D4702C"/>
<path d="M18.6779 58.7463C17.7402 60.8545 18.4942 63.3856 20.4326 64.6371C21.6125 65.3988 22.9789 65.5677 24.2125 65.2425C24.4231 65.187 24.5346 65.4809 24.3414 65.5815C24.2133 65.6483 24.0828 65.7105 23.9499 65.7662C25.5743 65.4668 27.0408 64.3987 27.7709 62.7336C28.7773 60.4384 27.9598 57.6942 25.8614 56.3239C24.3392 55.3298 22.5274 55.2383 21.004 55.8765C21.1458 55.8504 21.2891 55.8311 21.4329 55.8168C21.6496 55.7953 21.7172 56.1024 21.5105 56.1711C20.2999 56.5739 19.2486 57.463 18.6779 58.7463Z" fill="#BD6015"/>
<path d="M19.4689 67.2107C22.2186 68.6982 25.4993 68.2711 27.7707 66.3885C27.8838 66.2947 27.9411 66.1489 27.928 66.0025C27.8954 65.6365 27.4676 65.4669 27.1842 65.7009C25.1887 67.3492 22.3111 67.7221 19.8984 66.4168C17.4856 65.1116 16.2232 62.499 16.5109 59.9268C16.5517 59.5616 16.1757 59.2963 15.8514 59.4692C15.7218 59.5384 15.631 59.6661 15.6145 59.8122C15.2815 62.7434 16.7193 65.7231 19.4689 67.2107Z" fill="#D4702C"/>
<path d="M27.8155 65.746C25.6794 67.7648 22.4096 68.2884 19.6836 66.8137C16.9577 65.3391 15.6068 62.3156 16.1277 59.4231C16.0382 59.4095 15.9432 59.4203 15.8515 59.4692C15.7218 59.5384 15.6311 59.6661 15.6145 59.8121C15.2815 62.7434 16.7193 65.7231 19.4689 67.2106C22.2186 68.6982 25.4993 68.2712 27.7707 66.3885C27.8838 66.2947 27.9411 66.1489 27.928 66.0025C27.9188 65.8989 27.8758 65.8135 27.8155 65.746Z" fill="#BD6015"/>
<path d="M25.0523 56.8915C22.9698 55.7649 20.3683 56.5398 19.2417 58.6222C18.1151 60.7047 18.89 63.3062 20.9725 64.4328C23.055 65.5594 25.6564 64.7845 26.783 62.702C27.9096 60.6195 27.1347 58.0181 25.0523 56.8915Z" fill="#FFE387"/>
<path d="M24.4407 57.0729C26.5232 58.1995 27.2981 60.801 26.1715 62.8834C25.6629 63.8236 24.8535 64.4973 23.9271 64.8498C25.1035 64.5923 26.1651 63.8436 26.7831 62.7012C27.9097 60.6188 27.1348 58.0173 25.0523 56.8907C23.91 56.2727 22.6116 56.2265 21.486 56.6548C22.4543 56.4429 23.5005 56.5643 24.4407 57.0729Z" fill="#FFDD4E"/>
</g>
<g clip-path="url(#clip8_2287_152317)">
<path d="M10.5336 55.7908L11.0654 54.3848L10.6434 54.2251L10.1116 55.6312L10.5336 55.7908Z" fill="#BD6015"/>
<path d="M7.80496 47.9357L7.9646 47.5137L6.55018 46.9787L6.39054 47.4007L7.80496 47.9357Z" fill="#BD6015"/>
<path d="M17.3912 47.3982C16.2126 44.7856 13.1394 43.6231 10.5268 44.8017C7.91424 45.9802 6.75174 49.0535 7.93028 51.666C9.10882 54.2786 12.1821 55.4411 14.7947 54.2626C17.4072 53.084 18.5697 50.0107 17.3912 47.3982Z" fill="#D4702C"/>
<path d="M10.3741 45.3814C8.35051 46.4899 7.41618 48.9601 8.19955 51.1304C8.67638 52.4514 9.66078 53.4139 10.8391 53.9029C11.0403 53.9863 10.9508 54.2877 10.7362 54.2507C10.5938 54.2261 10.4523 54.1965 10.3128 54.1603C11.7863 54.9066 13.6001 54.9459 15.1901 54.0639C17.3817 52.8483 18.3946 50.1701 17.5561 47.8084C16.9478 46.0951 15.5622 44.9242 13.9637 44.5086C14.0923 44.5737 14.2179 44.6452 14.341 44.721C14.5264 44.8353 14.394 45.1204 14.188 45.0499C12.9809 44.6365 11.6059 44.7065 10.3741 45.3814Z" fill="#BD6015"/>
<path d="M5.87309 52.5942C7.15861 55.4439 10.027 57.0926 12.9746 56.9718C13.1214 56.9657 13.2554 56.8845 13.3337 56.7601C13.5296 56.4492 13.2921 56.055 12.9249 56.0695C10.3386 56.171 7.8238 54.7236 6.69579 52.2231C5.56777 49.7225 6.14707 46.8793 7.93485 45.0078C8.18867 44.742 8.05039 44.3031 7.68766 44.2442C7.54262 44.2206 7.39301 44.2672 7.29134 44.3733C5.24993 46.503 4.58756 49.7445 5.87309 52.5942Z" fill="#D4702C"/>
<path d="M13.3997 56.4879C10.4771 56.799 7.55885 55.2337 6.28443 52.4086C5.01002 49.5835 5.76796 46.3599 7.93537 44.3749C7.87244 44.3099 7.7903 44.2608 7.68769 44.2442C7.54263 44.2206 7.39305 44.2672 7.29137 44.3733C5.2499 46.503 4.58756 49.7445 5.87308 52.5942C7.1586 55.4439 10.0269 57.0926 12.9746 56.9718C13.1214 56.9658 13.2553 56.8845 13.3337 56.7601C13.3891 56.6722 13.4067 56.5781 13.3997 56.4879Z" fill="#BD6015"/>
<path d="M16.5682 47.7696C15.5946 45.6113 13.0558 44.651 10.8975 45.6246C8.73928 46.5982 7.77893 49.137 8.75253 51.2953C9.72613 53.4535 12.265 54.4139 14.4232 53.4403C16.5815 52.4667 17.5418 49.9278 16.5682 47.7696Z" fill="#FFE387"/>
<path d="M15.9711 47.543C16.9447 49.7013 15.9843 52.2401 13.8261 53.2137C12.8517 53.6533 11.7996 53.6986 10.8491 53.4175C11.9409 53.9258 13.2391 53.9736 14.423 53.4395C16.5812 52.4659 17.5416 49.9271 16.568 47.7688C16.0339 46.585 15.0292 45.7612 13.8743 45.4197C14.7729 45.838 15.5315 46.5687 15.9711 47.543Z" fill="#FFDD4E"/>
</g>
<g clip-path="url(#clip9_2287_152317)">
<path d="M46.9727 67.4901L45.9014 66.4355L45.5848 66.7571L46.6562 67.8117L46.9727 67.4901Z" fill="#BD6015"/>
<path d="M38.6839 66.8107L38.3623 66.4941L37.3015 67.5718L37.623 67.8884L38.6839 66.8107Z" fill="#BD6015"/>
<path d="M42.0639 57.8243C39.1979 57.8469 36.8929 60.1885 36.9154 63.0545C36.938 65.9205 39.2796 68.2255 42.1456 68.203C45.0116 68.1804 47.3167 65.8388 47.2941 62.9728C47.2715 60.1068 44.9299 57.8017 42.0639 57.8243Z" fill="#D4702C"/>
<path d="M37.384 63.4283C37.5805 65.7272 39.4626 67.5799 41.7644 67.7401C43.1654 67.8376 44.4436 67.326 45.367 66.4457C45.5246 66.2954 45.7641 66.499 45.6435 66.6803C45.5635 66.8006 45.4793 66.9182 45.3898 67.0311C46.6678 65.9847 47.4365 64.3414 47.2721 62.5307C47.0455 60.0348 45.0049 58.0262 42.5057 57.8391C40.6927 57.7033 39.0619 58.4978 38.0358 59.7921C38.1474 59.7007 38.2636 59.6147 38.3826 59.5328C38.562 59.4093 38.7694 59.6456 38.6216 59.8056C37.7558 60.7427 37.2644 62.0289 37.384 63.4283Z" fill="#BD6015"/>
<path d="M42.1635 70.4609C45.2896 70.4363 47.9566 68.4786 49.037 65.7334C49.0908 65.5966 49.0705 65.4413 48.9885 65.3194C48.7832 65.0146 48.3267 65.0726 48.1915 65.4143C47.2395 67.8212 44.8995 69.5368 42.1564 69.5584C39.4132 69.58 37.0465 67.9014 36.0567 65.5099C35.9162 65.1704 35.4588 65.1195 35.2584 65.4275C35.1782 65.5507 35.1604 65.7064 35.2164 65.8422C36.3398 68.5701 39.0373 70.4855 42.1635 70.4609Z" fill="#D4702C"/>
<path d="M48.7661 65.1491C47.8699 67.9482 45.2591 69.9853 42.1599 70.0097C39.0608 70.0341 36.4182 68.0384 35.478 65.2537C35.3931 65.285 35.3151 65.3404 35.2584 65.4275C35.1782 65.5507 35.1604 65.7063 35.2164 65.8422C36.3398 68.5701 39.0373 70.4855 42.1635 70.4609C45.2896 70.4363 47.9566 68.4786 49.037 65.7334C49.0908 65.5966 49.0705 65.4413 48.9885 65.3194C48.9304 65.2331 48.8514 65.1791 48.7661 65.1491Z" fill="#BD6015"/>
<path d="M42.0708 58.7275C39.7032 58.7461 37.799 60.6806 37.8177 63.0482C37.8363 65.4158 39.7708 67.32 42.1384 67.3013C44.506 67.2827 46.4102 65.3483 46.3915 62.9806C46.3729 60.613 44.4384 58.7088 42.0708 58.7275Z" fill="#FFE387"/>
<path d="M41.6233 59.1816C43.9909 59.1629 45.9253 61.0671 45.944 63.4347C45.9524 64.5036 45.5688 65.4844 44.9276 66.2402C45.8337 65.4469 46.4019 64.2787 46.3917 62.9799C46.373 60.6123 44.4386 58.7081 42.071 58.7268C40.7722 58.737 39.6128 59.3233 38.8338 60.2417C39.5795 59.5888 40.5544 59.19 41.6233 59.1816Z" fill="#FFDD4E"/>
</g>
<defs>
<filter id="filter0_d_2287_152317" x="15.5168" y="16.3105" width="41.6504" height="41.6509" filterUnits="userSpaceOnUse" color-interpolation-filters="sRGB">
<feFlood flood-opacity="0" result="BackgroundImageFix"/>
<feColorMatrix in="SourceAlpha" type="matrix" values="0 0 0 0 0 0 0 0 0 0 0 0 0 0 0 0 0 0 127 0" result="hardAlpha"/>
<feOffset dy="0.816675"/>
<feGaussianBlur stdDeviation="0.408337"/>
<feComposite in2="hardAlpha" operator="out"/>
<feColorMatrix type="matrix" values="0 0 0 0 0 0 0 0 0 0 0 0 0 0 0 0 0 0 0.15 0"/>
<feBlend mode="normal" in2="BackgroundImageFix" result="effect1_dropShadow_2287_152317"/>
<feBlend mode="normal" in="SourceGraphic" in2="effect1_dropShadow_2287_152317" result="shape"/>
</filter>
<clipPath id="clip0_2287_152317">
<rect width="13.8835" height="13.8835" fill="white" transform="matrix(0 -1 1 0 0 40.8125)"/>
</clipPath>
<clipPath id="clip1_2287_152317">
<rect width="13.8835" height="13.8835" fill="white" transform="translate(21.252 3.74219) rotate(-15.6436)"/>
</clipPath>
<clipPath id="clip2_2287_152317">
<rect width="13.8835" height="13.8835" fill="white" transform="translate(72.8706 36.6602) rotate(106.338)"/>
</clipPath>
<clipPath id="clip3_2287_152317">
<rect width="13.8835" height="13.8835" fill="white" transform="translate(65.6562 16.3125) rotate(64.8998)"/>
</clipPath>
<clipPath id="clip4_2287_152317">
<rect width="13.8835" height="13.8835" fill="white" transform="translate(4.90015 17.9629) rotate(-45)"/>
</clipPath>
<clipPath id="clip5_2287_152317">
<rect width="13.8835" height="13.8835" fill="white" transform="translate(67.0007 56.418) rotate(135.426)"/>
</clipPath>
<clipPath id="clip6_2287_152317">
<rect width="13.8835" height="13.8835" fill="white" transform="translate(43.9282 2.42969) rotate(9.44439)"/>
</clipPath>
<clipPath id="clip7_2287_152317">
<rect width="13.8835" height="13.8835" fill="white" transform="translate(25.2778 71.0625) rotate(-151.587)"/>
</clipPath>
<clipPath id="clip8_2287_152317">
<rect width="13.8835" height="13.8835" fill="white" transform="translate(8.15869 59.1777) rotate(-114.28)"/>
</clipPath>
<clipPath id="clip9_2287_152317">
<rect width="13.8835" height="13.8835" fill="white" transform="translate(49.1099 71.0293) rotate(179.549)"/>
</clipPath>
</defs>
</svg>
