<svg width="33" height="23" viewBox="0 0 33 23" fill="none" xmlns="http://www.w3.org/2000/svg">
<path d="M31.6121 12.2853H1.05507C0.433571 12.2853 -0.0531798 11.8973 0.00481682 11.4482L1.38934 0.729323C1.44012 0.335885 1.89516 0.0351562 2.43959 0.0351562H30.2276C30.7721 0.0351562 31.2271 0.335885 31.2779 0.729323L32.6624 11.4482C32.7204 11.8973 32.2336 12.2853 31.6121 12.2853Z" fill="#E3A578"/>
<path d="M1.76862 0.0527344C1.37386 0.0527344 1.044 0.353173 1.00718 0.74608L0.0034037 11.453C-0.0386439 11.9016 0.314251 12.2892 0.76484 12.2892H1.05991L2.20709 0.0527344H1.76862Z" fill="#CD916E"/>
<path d="M30.4473 0.0602035C30.8418 0.046766 31.1817 0.335802 31.2318 0.727228L32.5995 11.3938C32.6568 11.8407 32.3173 12.2401 31.867 12.2554L31.5721 12.2654L30.009 0.0751289L30.4473 0.0602035Z" fill="#CD916E"/>
<path d="M4.19336 3.87695H3.42859V12.2897H4.19336V3.87695Z" fill="#CD916E"/>
<path d="M28.5836 4.11719H27.767V12.2839H28.5836V4.11719Z" fill="#CD916E"/>
<path d="M20.2541 3.87695H19.4894V12.2897H20.2541V3.87695Z" fill="#CD916E"/>
<path d="M12.2241 3.87695H11.4594V12.2897H12.2241V3.87695Z" fill="#CD916E"/>
<path d="M6.19801 4.13611H25.6522C28.4858 4.13611 30.8059 2.48467 31.0336 0.387833C30.8363 0.182793 30.518 0.0527344 30.1605 0.0527344H1.68967C1.33223 0.0527344 1.01394 0.185311 0.81665 0.390401C1.04434 2.48724 3.36433 4.13611 6.19801 4.13611Z" fill="#CD916E"/>
<path d="M6.18901 4.11658H27.767C27.767 3.66554 27.284 3.29991 26.6882 3.29991H6.18901C3.96996 3.29991 2.08823 1.99354 1.89435 0.322467C1.88946 0.232961 1.89239 0.0332031 1.89239 0.0332031H1.68847C1.33165 0.0332031 1.01372 0.163608 0.816772 0.368701C1.04413 2.46551 3.36027 4.11658 6.18901 4.11658Z" fill="#B67F5F"/>
<path d="M6.10546 7.68044H4.19348C3.7711 7.68044 3.42871 7.33805 3.42871 6.91568V3.85656C3.42871 3.43419 3.7711 3.0918 4.19348 3.0918H6.10542C6.52779 3.0918 6.87018 3.43419 6.87018 3.85656V6.91568C6.87023 7.33805 6.52784 7.68044 6.10546 7.68044Z" fill="#CD916E"/>
<path d="M27.9938 7.88747H26.0818C25.6594 7.88747 25.317 7.54508 25.317 7.12271V4.06359C25.317 3.64122 25.6594 3.29883 26.0818 3.29883H27.9937C28.4161 3.29883 28.7585 3.64122 28.7585 4.06359V7.12271C28.7585 7.54508 28.4161 7.88747 27.9938 7.88747Z" fill="#CD916E"/>
<path d="M4.19348 5.3861C4.19348 4.54135 4.87827 3.85656 5.72306 3.85656H6.87023C6.87023 3.43419 6.52783 3.0918 6.10546 3.0918H3.42871V6.91567C3.42871 7.338 3.7711 7.68044 4.19348 7.68044V5.3861Z" fill="#B67F5F"/>
<path d="M26.0818 5.59313C26.0818 4.74838 26.7666 4.06359 27.6114 4.06359H28.7585C28.7585 3.64123 28.4161 3.29883 27.9938 3.29883H25.317V7.12271C25.317 7.54503 25.6594 7.88747 26.0818 7.88747V5.59313Z" fill="#B67F5F"/>
<rect x="10.6168" y="22.9219" width="8.16675" height="11.4334" rx="0.816675" transform="rotate(-90 10.6168 22.9219)" fill="#B27A49"/>
<rect x="12.6826" y="21.3171" width="4.9577" height="7.29563" rx="0.65334" transform="rotate(-90 12.6826 21.3171)" fill="#FFDD4E" stroke="white" stroke-width="0.32667"/>
</svg>
