<svg width="27" height="34" viewBox="0 0 27 34" fill="none" xmlns="http://www.w3.org/2000/svg">
<path d="M14.7147 32.278L14.7147 1.72097C14.7147 1.09946 15.1027 0.612714 15.5518 0.67071L26.2707 2.05523C26.6641 2.10602 26.9648 2.56106 26.9648 3.10549L26.9648 30.8935C26.9648 31.438 26.6641 31.893 26.2707 31.9438L15.5518 33.3283C15.1027 33.3863 14.7147 32.8995 14.7147 32.278Z" fill="#E3A578"/>
<path d="M26.9481 2.43463C26.9481 2.03987 26.6477 1.71002 26.2548 1.6732L15.5479 0.669419C15.0992 0.627372 14.7117 0.980266 14.7117 1.43086V1.72593L26.9481 2.8731V2.43463Z" fill="#CD916E"/>
<path d="M26.9398 31.1133C26.9532 31.5078 26.6642 31.8477 26.2728 31.8979L15.6062 33.2655C15.1593 33.3228 14.7599 32.9833 14.7446 32.533L14.7346 32.2381L26.9249 30.6751L26.9398 31.1133Z" fill="#CD916E"/>
<path d="M23.124 4.85852V4.09375L14.7113 4.09375L14.7113 4.85852L23.124 4.85852Z" fill="#CD916E"/>
<path d="M22.8832 29.2503V28.4336L14.7164 28.4336L14.7164 29.2503L22.8832 29.2503Z" fill="#CD916E"/>
<path d="M23.124 20.921V20.1562L14.7113 20.1563L14.7113 20.921L23.124 20.921Z" fill="#CD916E"/>
<path d="M23.1244 12.8898V12.125L14.7116 12.125L14.7116 12.8898L23.1244 12.8898Z" fill="#CD916E"/>
<path d="M22.8647 6.86378L22.8647 26.318C22.8647 29.1516 24.5162 31.4717 26.613 31.6994C26.8181 31.5021 26.9481 31.1837 26.9481 30.8263L26.9481 2.35544C26.9481 1.998 26.8155 1.67971 26.6105 1.48242C24.5136 1.71011 22.8647 4.0301 22.8647 6.86378Z" fill="#CD916E"/>
<path d="M22.8831 6.85661L22.8831 28.4346C23.3341 28.4346 23.6997 27.9516 23.6997 27.3558L23.6997 6.85661C23.6997 4.63757 25.0061 2.75583 26.6772 2.56196C26.7667 2.55706 26.9664 2.56 26.9664 2.56V2.35607C26.9664 1.99925 26.836 1.68132 26.6309 1.48438C24.5341 1.71173 22.8831 4.02788 22.8831 6.85661Z" fill="#B67F5F"/>
<path d="M19.3185 6.7705L19.3185 4.85852C19.3185 4.43614 19.6609 4.09375 20.0832 4.09375L23.1423 4.09375C23.5647 4.09375 23.9071 4.43614 23.9071 4.85852L23.9071 6.77046C23.9071 7.19283 23.5647 7.53522 23.1423 7.53522L20.0832 7.53522C19.6609 7.53527 19.3185 7.19287 19.3185 6.7705Z" fill="#CD916E"/>
<path d="M19.1112 28.6611L19.1112 26.7491C19.1112 26.3268 19.4536 25.9844 19.8759 25.9844L22.9351 25.9844C23.3574 25.9844 23.6998 26.3268 23.6998 26.7491L23.6998 28.6611C23.6998 29.0835 23.3574 29.4258 22.9351 29.4258L19.8759 29.4258C19.4536 29.4259 19.1112 29.0835 19.1112 28.6611Z" fill="#CD916E"/>
<path d="M21.6128 4.85852C22.4575 4.85852 23.1423 5.5433 23.1423 6.3881V7.53527C23.5647 7.53527 23.9071 7.19287 23.9071 6.7705L23.9071 4.09375L20.0832 4.09375C19.6609 4.09375 19.3185 4.43614 19.3185 4.85852L21.6128 4.85852Z" fill="#B67F5F"/>
<path d="M21.4055 26.7491C22.2503 26.7491 22.9351 27.4339 22.9351 28.2787V29.4259C23.3574 29.4259 23.6998 29.0835 23.6998 28.6611L23.6998 25.9844L19.876 25.9844C19.4536 25.9844 19.1112 26.3268 19.1112 26.7491H21.4055Z" fill="#B67F5F"/>
<rect x="4.07874" y="11.2832" width="8.16675" height="11.4334" rx="0.816675" fill="#B27A49"/>
<rect x="5.68396" y="13.3489" width="4.9577" height="7.29563" rx="0.65334" fill="#FFDD4E" stroke="white" stroke-width="0.32667"/>
</svg>
