<svg width="27" height="34" viewBox="0 0 27 34" fill="none" xmlns="http://www.w3.org/2000/svg">
<path d="M12.2854 1.72201L12.2854 32.279C12.2854 32.9005 11.8974 33.3873 11.4483 33.3293L0.729445 31.9448C0.336007 31.894 0.0352783 31.4389 0.0352783 30.8945L0.0352783 3.10646C0.0352783 2.56203 0.336007 2.10699 0.729445 2.05621L11.4483 0.671684C11.8974 0.613689 12.2854 1.10051 12.2854 1.72201Z" fill="#E3A578"/>
<path d="M0.0518799 31.5654C0.0518799 31.9601 0.352319 32.29 0.745226 32.3268L11.4521 33.3306C11.9008 33.3726 12.2883 33.0197 12.2883 32.5691V32.2741L0.0518799 31.1269L0.0518799 31.5654Z" fill="#CD916E"/>
<path d="M0.0602035 2.88673C0.046766 2.4922 0.335802 2.15231 0.727228 2.10214L11.3938 0.734479C11.8407 0.677184 12.2401 1.01668 12.2554 1.46701L12.2654 1.76191L0.0751289 3.32495L0.0602035 2.88673Z" fill="#CD916E"/>
<path d="M3.87598 29.1395V29.9043H12.2887V29.1395H3.87598Z" fill="#CD916E"/>
<path d="M4.11682 4.74973V5.56641L12.2836 5.56641V4.74973L4.11682 4.74973Z" fill="#CD916E"/>
<path d="M3.87598 13.0809V13.8457H12.2887V13.0809H3.87598Z" fill="#CD916E"/>
<path d="M3.87561 21.1102V21.875H12.2884V21.1102H3.87561Z" fill="#CD916E"/>
<path d="M4.13525 27.1362L4.13525 7.68204C4.13525 4.84842 2.48382 2.5283 0.386979 2.30061C0.181938 2.4979 0.0518799 2.81626 0.0518799 3.1737L0.0518799 31.6446C0.0518799 32.002 0.184457 32.3203 0.389547 32.5176C2.48638 32.2899 4.13525 29.9699 4.13525 27.1362Z" fill="#CD916E"/>
<path d="M4.11707 27.1453L4.11707 5.56731C3.66603 5.56731 3.3004 6.05034 3.3004 6.64619L3.3004 27.1453C3.3004 29.3644 1.99402 31.2461 0.322955 31.44C0.233449 31.4449 0.0336914 31.442 0.0336914 31.442L0.0336914 31.6459C0.0336914 32.0027 0.164097 32.3206 0.369189 32.5176C2.466 32.2902 4.11707 29.9741 4.11707 27.1453Z" fill="#B67F5F"/>
<path d="M7.68166 27.2275V29.1395C7.68166 29.5619 7.33927 29.9043 6.9169 29.9043H3.85778C3.43541 29.9043 3.09302 29.5619 3.09302 29.1395L3.09302 27.2276C3.09302 26.8052 3.43541 26.4628 3.85778 26.4628H6.9169C7.33927 26.4628 7.68166 26.8052 7.68166 27.2275Z" fill="#CD916E"/>
<path d="M7.88906 5.34083V7.25281C7.88906 7.67518 7.54667 8.01758 7.12429 8.01758H4.06518C3.64281 8.01758 3.30042 7.67518 3.30042 7.25281L3.30042 5.34087C3.30042 4.9185 3.64281 4.57611 4.06518 4.57611H7.12429C7.54667 4.57606 7.88906 4.91845 7.88906 5.34083Z" fill="#CD916E"/>
<path d="M5.38732 29.1395C4.54257 29.1395 3.85778 28.4547 3.85778 27.61L3.85778 26.4628C3.43541 26.4628 3.09302 26.8052 3.09302 27.2275L3.09302 29.9043H6.9169C7.33922 29.9043 7.68166 29.5619 7.68166 29.1395H5.38732Z" fill="#B67F5F"/>
<path d="M5.59471 7.25281C4.74997 7.25281 4.06518 6.56802 4.06518 5.72323V4.57606C3.64281 4.57606 3.30042 4.91846 3.30042 5.34083L3.30042 8.01758H7.12429C7.54662 8.01758 7.88906 7.67518 7.88906 7.25281H5.59471Z" fill="#B67F5F"/>
<rect x="22.9213" y="22.7168" width="8.16675" height="11.4334" rx="0.816675" transform="rotate(-180 22.9213 22.7168)" fill="#B27A49"/>
<rect x="21.316" y="20.6511" width="4.9577" height="7.29563" rx="0.65334" transform="rotate(-180 21.316 20.6511)" fill="#FFDD4E" stroke="white" stroke-width="0.32667"/>
</svg>
