<svg width="33" height="24" viewBox="0 0 33 24" fill="none" xmlns="http://www.w3.org/2000/svg">
<path d="M1.05587 11.4706L31.6129 11.4706C32.2344 11.4706 32.7211 11.8586 32.6632 12.3077L31.2786 23.0265C31.2278 23.42 30.7728 23.7207 30.2284 23.7207L2.44032 23.7207C1.8959 23.7207 1.44086 23.42 1.39007 23.0265L0.00554657 12.3077C-0.0524483 11.8586 0.434368 11.4706 1.05587 11.4706Z" fill="#E3A578"/>
<path d="M30.8991 23.7031C31.2939 23.7031 31.6237 23.4027 31.6605 23.0098L32.6643 12.3029C32.7064 11.8542 32.3535 11.4667 31.9029 11.4667H31.6078L30.4606 23.7031H30.8991Z" fill="#CD916E"/>
<path d="M2.22047 23.6957C1.82594 23.7091 1.48605 23.4201 1.43588 23.0286L0.0682192 12.3621C0.0109241 11.9151 0.350422 11.5158 0.80075 11.5005L1.09565 11.4904L2.65869 23.6807L2.22047 23.6957Z" fill="#CD916E"/>
<path d="M28.4744 19.8789H29.2391V11.4661H28.4744V19.8789Z" fill="#CD916E"/>
<path d="M4.08408 19.6387H4.90076L4.90076 11.4719H4.08408L4.08408 19.6387Z" fill="#CD916E"/>
<path d="M12.4136 19.8789H13.1783L13.1783 11.4661H12.4136L12.4136 19.8789Z" fill="#CD916E"/>
<path d="M20.4436 19.8789H21.2084V11.4661H20.4436V19.8789Z" fill="#CD916E"/>
<path d="M26.4697 19.6198L7.01554 19.6198C4.18192 19.6198 1.86179 21.2712 1.63411 23.368C1.83139 23.5731 2.14975 23.7031 2.5072 23.7031L30.9781 23.7031C31.3355 23.7031 31.6538 23.5705 31.8511 23.3655C31.6234 21.2686 29.3034 19.6198 26.4697 19.6198Z" fill="#CD916E"/>
<path d="M26.479 19.6393L4.90093 19.6393C4.90093 20.0903 5.38396 20.4559 5.97981 20.4559L26.479 20.4559C28.698 20.4559 30.5797 21.7623 30.7736 23.4334C30.7785 23.5229 30.7756 23.7227 30.7756 23.7227H30.9795C31.3363 23.7227 31.6543 23.5923 31.8512 23.3872C31.6238 21.2903 29.3077 19.6393 26.479 19.6393Z" fill="#B67F5F"/>
<path d="M26.5625 16.0735H28.4745C28.8969 16.0735 29.2393 16.4159 29.2393 16.8382V19.8973C29.2393 20.3197 28.8969 20.6621 28.4745 20.6621H26.5626C26.1402 20.6621 25.7978 20.3197 25.7978 19.8973V16.8382C25.7977 16.4159 26.1401 16.0735 26.5625 16.0735Z" fill="#CD916E"/>
<path d="M4.6742 15.8664H6.58619C7.00856 15.8664 7.35095 16.2088 7.35095 16.6312L7.35095 19.6903C7.35095 20.1127 7.00856 20.4551 6.58619 20.4551H4.67425C4.25187 20.4551 3.90948 20.1127 3.90948 19.6903L3.90948 16.6312C3.90943 16.2088 4.25183 15.8664 4.6742 15.8664Z" fill="#CD916E"/>
<path d="M28.4745 18.3678C28.4745 19.2126 27.7897 19.8973 26.9449 19.8973H25.7977C25.7977 20.3197 26.1401 20.6621 26.5625 20.6621H29.2393V16.8382C29.2393 16.4159 28.8969 16.0735 28.4745 16.0735V18.3678Z" fill="#B67F5F"/>
<path d="M6.58619 18.1608C6.58619 19.0055 5.9014 19.6903 5.05661 19.6903H3.90943C3.90943 20.1127 4.25183 20.4551 4.6742 20.4551H7.35095L7.35095 16.6312C7.35095 16.2089 7.00856 15.8664 6.58619 15.8664L6.58619 18.1608Z" fill="#B67F5F"/>
<rect x="22.0511" y="0.833984" width="8.16675" height="11.4334" rx="0.816675" transform="rotate(90 22.0511 0.833984)" fill="#B27A49"/>
<rect x="19.9853" y="2.43873" width="4.9577" height="7.29563" rx="0.65334" transform="rotate(90 19.9853 2.43873)" fill="#FFDD4E" stroke="white" stroke-width="0.32667"/>
</svg>
