<svg width="52" height="55" viewBox="0 0 52 55" fill="none" xmlns="http://www.w3.org/2000/svg">
<g clip-path="url(#clip0_2287_152119)">
<path d="M0.914055 24.5069C0.449527 24.8535 0.183105 25.3847 0.183105 25.9643L0.183105 28.7505C0.183105 29.3301 0.449527 29.8613 0.914055 30.2079C1.37858 30.5545 1.96364 30.6587 2.51924 30.4936L4.36712 29.9448L9.40898 30.3481L9.40898 24.3667L4.3671 24.77L2.51922 24.2212C1.96364 24.0561 1.37858 24.1603 0.914055 24.5069ZM4.04955 27.8629L0.75733 28.1889L0.75733 26.5259L4.04955 26.8519L4.04955 27.8629ZM1.25744 29.7477C0.943742 29.5136 0.762421 29.1564 0.75777 28.7659L4.04955 28.44V29.4401L2.35574 29.9432C1.97559 30.0561 1.57529 29.9848 1.25744 29.7477ZM2.35574 24.7716L4.04955 25.2747V26.2748L0.75777 25.9489C0.762441 25.5584 0.943742 25.2012 1.25744 24.9671C1.57529 24.73 1.97559 24.6587 2.35574 24.7716Z" fill="#BD6015"/>
<path d="M0.914055 24.5088C0.449527 24.8555 0.183105 25.3867 0.183105 25.9662L0.183105 27.3594H0.75733L0.75733 26.5279L4.04955 26.8538V27.3594L9.40898 27.3594V24.3687L4.3671 24.772L2.51922 24.2232C1.96364 24.0581 1.37858 24.1622 0.914055 24.5088ZM2.35574 24.7736L4.04955 25.2767V26.2768L0.75777 25.9509C0.762441 25.5603 0.943742 25.2031 1.25744 24.9691C1.57529 24.7319 1.97559 24.6607 2.35574 24.7736Z" fill="#BD6015"/>
<path d="M9.98329 30.2305C9.98329 29.9133 9.7262 29.6562 9.40906 29.6562C9.09193 29.6562 8.83484 29.9133 8.83484 30.2305C8.83484 30.5476 9.09193 30.8047 9.40906 30.8047C9.7262 30.8047 9.98329 30.5476 9.98329 30.2305Z" fill="#DE8144"/>
<path d="M9.98329 24.4883C9.98329 24.1711 9.7262 23.9141 9.40906 23.9141C9.09193 23.9141 8.83484 24.1711 8.83484 24.4883C8.83484 24.8054 9.09193 25.0625 9.40906 25.0625C9.7262 25.0625 9.98329 24.8054 9.98329 24.4883Z" fill="#D4702C"/>
</g>
<g clip-path="url(#clip1_2287_152119)">
<path d="M28.7591 0.73095C28.4125 0.266421 27.8813 0 27.3017 0H24.5155C23.9359 0 23.4047 0.266421 23.0581 0.73095C22.7115 1.19548 22.6073 1.78054 22.7724 2.33614L23.3212 4.18401L22.9179 9.22588H28.8993L28.496 4.18399L29.0448 2.33612C29.2099 1.78054 29.1057 1.19548 28.7591 0.73095ZM25.403 3.86645L25.0771 0.574225H26.7401L26.4141 3.86645H25.403ZM23.5183 1.07434C23.7524 0.760637 24.1096 0.579316 24.5001 0.574665L24.826 3.86645H23.8259L23.3228 2.17264C23.2099 1.79248 23.2812 1.39219 23.5183 1.07434ZM28.4944 2.17264L27.9913 3.86645H26.9912L27.3171 0.574665C27.7076 0.579335 28.0648 0.760637 28.2989 1.07434C28.536 1.39219 28.6073 1.79248 28.4944 2.17264Z" fill="#BD6015"/>
<path d="M28.7591 0.73095C28.4125 0.266421 27.8813 0 27.3017 0H25.9086V0.574225H26.7401L26.4141 3.86645H25.9086V9.22588H28.8993L28.4959 4.18399L29.0448 2.33612C29.2098 1.78054 29.1057 1.19548 28.7591 0.73095ZM28.4944 2.17264L27.9912 3.86645H26.9912L27.3171 0.574665C27.7076 0.579335 28.0648 0.760637 28.2989 1.07434C28.536 1.39219 28.6073 1.79248 28.4944 2.17264Z" fill="#BD6015"/>
<path d="M23.0374 9.80079C23.3545 9.80079 23.6116 9.5437 23.6116 9.22657C23.6116 8.90943 23.3545 8.65234 23.0374 8.65234C22.7202 8.65234 22.4631 8.90943 22.4631 9.22657C22.4631 9.5437 22.7202 9.80079 23.0374 9.80079Z" fill="#DE8144"/>
<path d="M28.7797 9.80079C29.0968 9.80079 29.3539 9.5437 29.3539 9.22657C29.3539 8.90943 29.0968 8.65234 28.7797 8.65234C28.4625 8.65234 28.2054 8.90943 28.2054 9.22657C28.2054 9.5437 28.4625 9.80079 28.7797 9.80079Z" fill="#D4702C"/>
</g>
<g filter="url(#filter0_d_2287_152119)">
<rect x="11.6168" y="13.0664" width="28.5836" height="28.5836" rx="2.45002" fill="#B27A49"/>
<rect x="14.5911" y="15.802" width="22.6339" height="23.1119" rx="1.47001" fill="#FFDD4E" stroke="white" stroke-width="0.32667"/>
</g>
<g clip-path="url(#clip2_2287_152119)">
<path d="M23.0583 53.9858C23.4049 54.4504 23.9361 54.7168 24.5157 54.7168H27.3019C27.8815 54.7168 28.4127 54.4504 28.7593 53.9858C29.1059 53.5213 29.2101 52.9363 29.045 52.3807L28.4962 50.5328L28.8995 45.4909H22.9181L23.3214 50.5328L22.7726 52.3807C22.6075 52.9363 22.7117 53.5213 23.0583 53.9858ZM26.4143 50.8504L26.7403 54.1426H25.0773L25.4032 50.8504H26.4143ZM28.2991 53.6425C28.065 53.9562 27.7078 54.1375 27.3173 54.1421L26.9914 50.8504H27.9914L28.4946 52.5442C28.6075 52.9243 28.5362 53.3246 28.2991 53.6425ZM23.323 52.5442L23.8261 50.8504H24.8262L24.5003 54.1421C24.1097 54.1375 23.7526 53.9562 23.5185 53.6425C23.2813 53.3246 23.2101 52.9243 23.323 52.5442Z" fill="#BD6015"/>
<path d="M23.0584 53.9858C23.405 54.4504 23.9362 54.7168 24.5158 54.7168H25.9089V54.1426H25.0774L25.4034 50.8504H25.9089L25.9089 45.4909H22.9182L23.3216 50.5328L22.7727 52.3807C22.6077 52.9363 22.7118 53.5213 23.0584 53.9858ZM23.3231 52.5442L23.8263 50.8504H24.8264L24.5004 54.1421C24.1099 54.1375 23.7527 53.9562 23.5186 53.6425C23.2815 53.3246 23.2102 52.9243 23.3231 52.5442Z" fill="#BD6015"/>
<path d="M28.78 44.918C28.4629 44.918 28.2058 45.175 28.2058 45.4922C28.2058 45.8093 28.4629 46.0664 28.78 46.0664C29.0972 46.0664 29.3542 45.8093 29.3542 45.4922C29.3542 45.175 29.0972 44.918 28.78 44.918Z" fill="#DE8144"/>
<path d="M23.0377 44.918C22.7206 44.918 22.4635 45.175 22.4635 45.4922C22.4635 45.8093 22.7206 46.0664 23.0377 46.0664C23.3548 46.0664 23.6119 45.8093 23.6119 45.4922C23.6119 45.175 23.3548 44.918 23.0377 44.918Z" fill="#D4702C"/>
</g>
<g clip-path="url(#clip3_2287_152119)">
<path d="M50.9031 30.2099C51.3676 29.8633 51.634 29.3321 51.634 28.7525V25.9663C51.634 25.3867 51.3676 24.8555 50.9031 24.5089C50.4386 24.1623 49.8535 24.0581 49.2979 24.2232L47.45 24.772L42.4082 24.3687V30.3501L47.45 29.9468L49.2979 30.4956C49.8535 30.6607 50.4386 30.5565 50.9031 30.2099ZM47.7676 26.8539L51.0598 26.5279V28.1909L47.7676 27.8649V26.8539ZM50.5597 24.9691C50.8734 25.2032 51.0547 25.5604 51.0594 25.9509L47.7676 26.2768V25.2767L49.4614 24.7736C49.8416 24.6607 50.2418 24.732 50.5597 24.9691ZM49.4614 29.9452L47.7676 29.4421V28.442L51.0594 28.7679C51.0547 29.1584 50.8734 29.5156 50.5597 29.7497C50.2418 29.9868 49.8416 30.0581 49.4614 29.9452Z" fill="#BD6015"/>
<path d="M50.9031 30.2099C51.3676 29.8633 51.634 29.3321 51.634 28.7525V27.3594H51.0598V28.1909L47.7676 27.8649V27.3594H42.4082V30.3501L47.45 29.9467L49.2979 30.4956C49.8535 30.6606 50.4386 30.5565 50.9031 30.2099ZM49.4614 29.9452L47.7676 29.442V28.442L51.0594 28.7679C51.0547 29.1584 50.8734 29.5156 50.5597 29.7497C50.2418 29.9868 49.8416 30.0581 49.4614 29.9452Z" fill="#BD6015"/>
<path d="M41.834 24.4883C41.834 24.8054 42.0911 25.0625 42.4082 25.0625C42.7253 25.0625 42.9824 24.8054 42.9824 24.4883C42.9824 24.1712 42.7253 23.9141 42.4082 23.9141C42.0911 23.9141 41.834 24.1712 41.834 24.4883Z" fill="#DE8144"/>
<path d="M41.834 30.2305C41.834 30.5476 42.0911 30.8047 42.4082 30.8047C42.7253 30.8047 42.9824 30.5476 42.9824 30.2305C42.9824 29.9133 42.7253 29.6562 42.4082 29.6562C42.0911 29.6562 41.834 29.9133 41.834 30.2305Z" fill="#D4702C"/>
</g>
<defs>
<filter id="filter0_d_2287_152119" x="8.35012" y="9.79971" width="35.117" height="35.1174" filterUnits="userSpaceOnUse" color-interpolation-filters="sRGB">
<feFlood flood-opacity="0" result="BackgroundImageFix"/>
<feColorMatrix in="SourceAlpha" type="matrix" values="0 0 0 0 0 0 0 0 0 0 0 0 0 0 0 0 0 0 127 0" result="hardAlpha"/>
<feOffset/>
<feGaussianBlur stdDeviation="1.63335"/>
<feComposite in2="hardAlpha" operator="out"/>
<feColorMatrix type="matrix" values="0 0 0 0 0 0 0 0 0 0 0 0 0 0 0 0 0 0 0.25 0"/>
<feBlend mode="normal" in2="BackgroundImageFix" result="effect1_dropShadow_2287_152119"/>
<feBlend mode="normal" in="SourceGraphic" in2="effect1_dropShadow_2287_152119" result="shape"/>
</filter>
<clipPath id="clip0_2287_152119">
<rect width="9.8001" height="9.8001" fill="white" transform="matrix(0 -1 1 0 0.18335 32.2578)"/>
</clipPath>
<clipPath id="clip1_2287_152119">
<rect width="9.8001" height="9.8001" fill="white" transform="translate(21.0087)"/>
</clipPath>
<clipPath id="clip2_2287_152119">
<rect width="9.8001" height="9.8001" fill="white" transform="matrix(-1 0 0 -1 30.8088 54.7168)"/>
</clipPath>
<clipPath id="clip3_2287_152119">
<rect width="9.8001" height="9.8001" fill="white" transform="matrix(0 1 -1 0 51.6339 22.459)"/>
</clipPath>
</defs>
</svg>
