<svg width="50" height="55" viewBox="0 0 50 55" fill="none" xmlns="http://www.w3.org/2000/svg">
<g clip-path="url(#clip0_2287_152144)">
<path d="M27.7594 0.73095C27.4127 0.266421 26.8815 0 26.302 0H23.5157C22.9361 0 22.4049 0.266421 22.0583 0.73095C21.7117 1.19548 21.6076 1.78054 21.7726 2.33614L22.3215 4.18401L21.9181 9.22588H27.8996L27.4962 4.18399L28.0451 2.33612C28.2101 1.78054 28.106 1.19548 27.7594 0.73095ZM24.4033 3.86645L24.0773 0.574225H25.7404L25.4144 3.86645H24.4033ZM22.5186 1.07434C22.7526 0.760637 23.1098 0.579316 23.5004 0.574665L23.8263 3.86645H22.8262L22.3231 2.17264C22.2101 1.79248 22.2814 1.39219 22.5186 1.07434ZM27.4946 2.17264L26.9915 3.86645H25.9914L26.3173 0.574665C26.7079 0.579335 27.0651 0.760637 27.2991 1.07434C27.5363 1.39219 27.6075 1.79248 27.4946 2.17264Z" fill="#BD6015"/>
<path d="M27.7593 0.73095C27.4127 0.266421 26.8815 0 26.3019 0H24.9088V0.574225H25.7403L25.4144 3.86645H24.9088V9.22588H27.8995L27.4962 4.18399L28.045 2.33612C28.2101 1.78054 28.1059 1.19548 27.7593 0.73095ZM27.4946 2.17264L26.9915 3.86645H25.9914L26.3173 0.574665C26.7079 0.579335 27.065 0.760637 27.2991 1.07434C27.5363 1.39219 27.6075 1.79248 27.4946 2.17264Z" fill="#BD6015"/>
<path d="M22.0376 9.80079C22.3547 9.80079 22.6118 9.5437 22.6118 9.22657C22.6118 8.90943 22.3547 8.65234 22.0376 8.65234C21.7205 8.65234 21.4634 8.90943 21.4634 9.22657C21.4634 9.5437 21.7205 9.80079 22.0376 9.80079Z" fill="#DE8144"/>
<path d="M27.7799 9.80079C28.097 9.80079 28.3541 9.5437 28.3541 9.22657C28.3541 8.90943 28.097 8.65234 27.7799 8.65234C27.4628 8.65234 27.2057 8.90943 27.2057 9.22657C27.2057 9.5437 27.4628 9.80079 27.7799 9.80079Z" fill="#D4702C"/>
</g>
<g filter="url(#filter0_d_2287_152144)">
<rect x="10.6167" y="13.0664" width="28.5836" height="28.5836" rx="2.45002" fill="#B27A49"/>
<rect x="13.5909" y="15.802" width="22.6339" height="23.1119" rx="1.47001" fill="#FFDD4E" stroke="white" stroke-width="0.32667"/>
</g>
<g clip-path="url(#clip1_2287_152144)">
<path d="M22.0579 53.9858C22.4045 54.4504 22.9357 54.7168 23.5153 54.7168H26.3015C26.8811 54.7168 27.4123 54.4504 27.7589 53.9858C28.1056 53.5213 28.2097 52.9363 28.0447 52.3807L27.4958 50.5328L27.8991 45.4909H21.9177L22.3211 50.5328L21.7722 52.3807C21.6071 52.9363 21.7113 53.5213 22.0579 53.9858ZM25.414 50.8504L25.7399 54.1426H24.0769L24.4029 50.8504H25.414ZM27.2987 53.6425C27.0646 53.9562 26.7074 54.1375 26.3169 54.1421L25.991 50.8504H26.9911L27.4942 52.5442C27.6071 52.9243 27.5359 53.3246 27.2987 53.6425ZM22.3226 52.5442L22.8257 50.8504H23.8258L23.4999 54.1421C23.1094 54.1375 22.7522 53.9562 22.5181 53.6425C22.281 53.3246 22.2097 52.9243 22.3226 52.5442Z" fill="#BD6015"/>
<path d="M22.058 53.9858C22.4047 54.4504 22.9359 54.7168 23.5154 54.7168H24.9086V54.1426H24.0771L24.403 50.8504H24.9086L24.9086 45.4909H21.9179L22.3212 50.5328L21.7723 52.3807C21.6073 52.9363 21.7114 53.5213 22.058 53.9858ZM22.3228 52.5442L22.8259 50.8504H23.826L23.5001 54.1421C23.1095 54.1375 22.7523 53.9562 22.5183 53.6425C22.2811 53.3246 22.2099 52.9243 22.3228 52.5442Z" fill="#BD6015"/>
<path d="M27.7797 44.918C27.4625 44.918 27.2054 45.175 27.2054 45.4922C27.2054 45.8093 27.4625 46.0664 27.7797 46.0664C28.0968 46.0664 28.3539 45.8093 28.3539 45.4922C28.3539 45.175 28.0968 44.918 27.7797 44.918Z" fill="#DE8144"/>
<path d="M22.0375 44.918C21.7203 44.918 21.4632 45.175 21.4632 45.4922C21.4632 45.8093 21.7203 46.0664 22.0375 46.0664C22.3546 46.0664 22.6117 45.8093 22.6117 45.4922C22.6117 45.175 22.3546 44.918 22.0375 44.918Z" fill="#D4702C"/>
</g>
<defs>
<filter id="filter0_d_2287_152144" x="7.35" y="9.79971" width="35.117" height="35.1174" filterUnits="userSpaceOnUse" color-interpolation-filters="sRGB">
<feFlood flood-opacity="0" result="BackgroundImageFix"/>
<feColorMatrix in="SourceAlpha" type="matrix" values="0 0 0 0 0 0 0 0 0 0 0 0 0 0 0 0 0 0 127 0" result="hardAlpha"/>
<feOffset/>
<feGaussianBlur stdDeviation="1.63335"/>
<feComposite in2="hardAlpha" operator="out"/>
<feColorMatrix type="matrix" values="0 0 0 0 0 0 0 0 0 0 0 0 0 0 0 0 0 0 0.25 0"/>
<feBlend mode="normal" in2="BackgroundImageFix" result="effect1_dropShadow_2287_152144"/>
<feBlend mode="normal" in="SourceGraphic" in2="effect1_dropShadow_2287_152144" result="shape"/>
</filter>
<clipPath id="clip0_2287_152144">
<rect width="9.8001" height="9.8001" fill="white" transform="translate(20.0085)"/>
</clipPath>
<clipPath id="clip1_2287_152144">
<rect width="9.8001" height="9.8001" fill="white" transform="matrix(-1 0 0 -1 29.8086 54.7168)"/>
</clipPath>
</defs>
</svg>
