<svg width="39" height="21" viewBox="0 0 39 21" fill="none" xmlns="http://www.w3.org/2000/svg">
<g clip-path="url(#clip0_2287_151919)">
<path d="M19.2841 0H4.42585C1.98153 0 0 1.98153 0 4.42585V19.2841C0 19.4586 0.141527 19.6002 0.31613 19.6002H1.26452H6.0065C6.18111 19.6002 6.32263 19.4586 6.32263 19.2841V18.6518C6.32263 18.4772 6.18111 18.3357 6.0065 18.3357H6.32263C6.6718 18.3357 6.95489 18.0526 6.95489 17.7034V13.2776C6.95489 12.9284 6.6718 12.6453 6.32263 12.6453C6.6718 12.6453 6.95489 12.3622 6.95489 12.013V7.58719C6.95489 7.23799 6.6718 6.95493 6.32263 6.95493C6.6718 6.95493 6.95489 6.67184 6.95489 6.32267C6.95489 6.67184 7.23798 6.95493 7.58715 6.95493H12.013C12.3622 6.95493 12.6453 6.67184 12.6453 6.32267C12.6453 6.67184 12.9284 6.95493 13.2775 6.95493H17.7034C18.0525 6.95493 18.3356 6.67184 18.3356 6.32267H18.3357L18.3356 6.00654C18.3356 6.18111 18.4772 6.32267 18.6518 6.32267H19.284C19.4586 6.32267 19.6002 6.18111 19.6002 6.00654V0.31613C19.6002 0.141527 19.4587 0 19.2841 0Z" fill="#CD916E"/>
<path d="M4.74203 3.16211H6.95493V6.32345H3.16138V4.7428C3.16138 3.86978 3.86905 3.16211 4.74203 3.16211Z" fill="#E3A578"/>
<path d="M7.5874 6.95567H12.0133C12.3625 6.95567 12.6455 6.67257 12.6455 6.32341V3.16211H8.53579C8.01202 3.16211 7.5874 3.58673 7.5874 4.1105V6.95567Z" fill="#E3A578"/>
<path d="M7.5874 2.52874H12.0133C12.3625 2.52874 12.6455 2.24565 12.6455 1.89648H8.21966C7.87046 1.89645 7.5874 2.17954 7.5874 2.52874Z" fill="#E3A578"/>
<path d="M6.95493 17.7046V13.2787C6.95493 12.9295 6.67184 12.6465 6.32267 12.6465H3.16138V16.7562C3.16138 17.28 3.586 17.7046 4.10977 17.7046H6.95493Z" fill="#E3A578"/>
<path d="M2.52923 17.7046V13.2787C2.52923 12.9295 2.24614 12.6465 1.89697 12.6465V17.0723C1.89693 17.4215 2.18003 17.7046 2.52923 17.7046Z" fill="#E3A578"/>
<path d="M6.95493 12.0132V7.58734C6.95493 7.23813 6.67184 6.95508 6.32267 6.95508H3.16138V11.0648C3.16138 11.5886 3.586 12.0132 4.10977 12.0132L6.95493 12.0132Z" fill="#E3A578"/>
<path d="M2.52923 12.0132V7.58734C2.52923 7.23813 2.24614 6.95508 1.89697 6.95508V11.3809C1.89693 11.7301 2.18003 12.0132 2.52923 12.0132Z" fill="#E3A578"/>
<path d="M13.2776 6.95567H17.7034C18.0526 6.95567 18.3357 6.67257 18.3357 6.32341V3.16211H14.226C13.7022 3.16211 13.2776 3.58673 13.2776 4.1105V6.95567Z" fill="#E3A578"/>
<path d="M13.2776 2.52874H17.7034C18.0526 2.52874 18.3357 2.24565 18.3357 1.89648H13.9098C13.5606 1.89645 13.2776 2.17954 13.2776 2.52874Z" fill="#E3A578"/>
<path d="M4.42592 1.26312H19.6003V0.630859H4.42592C2.33413 0.630859 0.632324 2.33267 0.632324 4.42445V19.5988H1.26458V4.42445C1.26458 2.67851 2.67997 1.26312 4.42592 1.26312Z" fill="#B67F5F"/>
<path d="M6.95512 1.89648H4.42605C3.02931 1.89648 1.89697 3.02878 1.89697 4.42556V5.69008C1.89697 6.03928 2.18007 6.32234 2.52923 6.32234V4.42556C2.52923 3.37798 3.37847 2.52878 4.42601 2.52878H6.32279C6.67207 2.52878 6.95512 2.24569 6.95512 1.89648Z" fill="#E3A578"/>
<path d="M4.74172 17.0717V17.704C4.74172 18.0532 4.45862 18.3362 4.10946 18.3362H3.16107C2.81186 18.3362 2.52881 18.0531 2.52881 17.704V17.0717C2.52881 16.7225 2.8119 16.4395 3.16107 16.4395H4.10946C4.45862 16.4395 4.74172 16.7225 4.74172 17.0717Z" fill="#CD916E"/>
<path d="M3.16107 16.7556V16.4395C2.8119 16.4395 2.52881 16.7225 2.52881 17.0717V17.704C2.52881 18.0532 2.8119 18.3362 3.16107 18.3362H4.10946C4.45862 18.3362 4.74172 18.0531 4.74172 17.704H4.10946C3.58565 17.704 3.16107 17.2794 3.16107 16.7556Z" fill="#B67F5F"/>
<path d="M17.7032 4.7422H17.071C16.7218 4.7422 16.4387 4.45911 16.4387 4.10995V3.16156C16.4387 2.81235 16.7218 2.5293 17.071 2.5293H17.7032C18.0524 2.5293 18.3355 2.81239 18.3355 3.16156V4.10995C18.3355 4.45911 18.0524 4.7422 17.7032 4.7422Z" fill="#CD916E"/>
<path d="M18.0194 3.16156H18.3355C18.3355 2.81239 18.0524 2.5293 17.7032 2.5293H17.071C16.7218 2.5293 16.4387 2.81239 16.4387 3.16156V4.10995C16.4387 4.45911 16.7218 4.7422 17.071 4.7422V4.10995C17.0709 3.58614 17.4956 3.16156 18.0194 3.16156Z" fill="#B67F5F"/>
<path d="M4.95754 3.23576L4.51045 2.7887C4.26353 2.54179 3.86322 2.54179 3.6163 2.7887L2.94569 3.45932C2.69877 3.70624 2.69877 4.10655 2.94569 4.35346L3.39278 4.80056C3.63969 5.04747 4.04 5.04747 4.28692 4.80056L4.95754 4.12994C5.20446 3.88302 5.20446 3.48267 4.95754 3.23576Z" fill="#CD916E"/>
<path d="M4.06339 4.57699L4.28692 4.80052C4.04 5.04743 3.63969 5.04743 3.39278 4.80052L2.94569 4.35343C2.69877 4.10651 2.69877 3.7062 2.94569 3.45928L3.61634 2.7887C3.86326 2.54179 4.26357 2.54179 4.51049 2.7887L4.06339 3.23579C3.69306 3.60613 3.69306 4.20665 4.06339 4.57699Z" fill="#B67F5F"/>
<path d="M6.32283 18.9682H2.52923C2.18003 18.9682 1.89697 18.6851 1.89697 18.3359H6.0067C6.1813 18.3359 6.32283 18.4775 6.32283 18.6521V18.9682Z" fill="#E3A578"/>
<path d="M18.968 6.32234V2.52874C18.968 2.17954 19.2511 1.89648 19.6003 1.89648V6.00621C19.6003 6.18081 19.4587 6.32234 19.2841 6.32234H18.968Z" fill="#E3A578"/>
</g>
<g clip-path="url(#clip1_2287_151919)">
<path d="M38.3833 19.2841V4.42585C38.3833 1.98153 36.4018 0 33.9574 0L19.0992 0C18.9247 0 18.7831 0.141527 18.7831 0.31613V1.26452V6.0065C18.7831 6.1811 18.9247 6.32263 19.0992 6.32263L19.7315 6.32263C19.9061 6.32263 20.0476 6.1811 20.0476 6.0065V6.32263C20.0476 6.6718 20.3307 6.95489 20.6799 6.95489L25.1057 6.95489C25.4549 6.95489 25.738 6.6718 25.738 6.32263C25.738 6.6718 26.0211 6.95489 26.3703 6.95489L30.7961 6.95489C31.1453 6.95489 31.4284 6.6718 31.4284 6.32263C31.4284 6.6718 31.7115 6.95489 32.0606 6.95489C31.7115 6.95489 31.4284 7.23798 31.4284 7.58715V12.013C31.4284 12.3622 31.7115 12.6453 32.0606 12.6453C31.7115 12.6453 31.4284 12.9284 31.4284 13.2775L31.4284 17.7034C31.4284 18.0525 31.7115 18.3356 32.0606 18.3356H32.3768C32.2022 18.3356 32.0606 18.4772 32.0606 18.6518V19.284C32.0606 19.4586 32.2022 19.6002 32.3768 19.6002H38.0672C38.2418 19.6002 38.3833 19.4587 38.3833 19.2841Z" fill="#CD916E"/>
<path d="M35.2219 4.74276V6.95567H32.0606V3.16211H33.6412C34.5142 3.16211 35.2219 3.86978 35.2219 4.74276Z" fill="#E3A578"/>
<path d="M31.4284 7.58594V12.0118C31.4284 12.361 31.7115 12.6441 32.0606 12.6441H35.2219V8.53433C35.2219 8.01056 34.7973 7.58594 34.2735 7.58594L31.4284 7.58594Z" fill="#E3A578"/>
<path d="M35.8543 7.58594V12.0118C35.8543 12.361 36.1374 12.6441 36.4866 12.6441V8.2182C36.4866 7.86899 36.2035 7.58594 35.8543 7.58594Z" fill="#E3A578"/>
<path d="M20.6799 6.95567L25.1058 6.95567C25.455 6.95567 25.738 6.67257 25.738 6.32341V3.16211L21.6283 3.16211C21.1045 3.16211 20.6799 3.58673 20.6799 4.1105V6.95567Z" fill="#E3A578"/>
<path d="M20.6799 2.52874L25.1058 2.52874C25.455 2.52874 25.738 2.24565 25.738 1.89648L21.3122 1.89648C20.963 1.89645 20.6799 2.17954 20.6799 2.52874Z" fill="#E3A578"/>
<path d="M26.3704 6.95567L30.7962 6.95567C31.1454 6.95567 31.4285 6.67257 31.4285 6.32341V3.16211L27.3187 3.16211C26.795 3.16211 26.3704 3.58673 26.3704 4.1105L26.3704 6.95567Z" fill="#E3A578"/>
<path d="M26.3704 2.52874L30.7962 2.52874C31.1454 2.52874 31.4285 2.24565 31.4285 1.89648L27.0027 1.89648C26.6534 1.89645 26.3704 2.17954 26.3704 2.52874Z" fill="#E3A578"/>
<path d="M31.4284 13.2773V17.7032C31.4284 18.0524 31.7115 18.3355 32.0606 18.3355H35.2219V14.2257C35.2219 13.702 34.7973 13.2773 34.2735 13.2773H31.4284Z" fill="#E3A578"/>
<path d="M35.8543 13.2773V17.7032C35.8543 18.0524 36.1374 18.3355 36.4866 18.3355V13.9096C36.4866 13.5604 36.2035 13.2773 35.8543 13.2773Z" fill="#E3A578"/>
<path d="M37.1187 4.42445V19.5988H37.751V4.42445C37.751 2.33267 36.0492 0.630859 33.9574 0.630859L18.783 0.630859V1.26312L33.9574 1.26312C35.7033 1.26312 37.1187 2.67851 37.1187 4.42445Z" fill="#B67F5F"/>
<path d="M36.4866 6.95464V4.42556C36.4866 3.02882 35.3543 1.89648 33.9575 1.89648L32.693 1.89648C32.3438 1.89648 32.0607 2.17958 32.0607 2.52874L33.9575 2.52874C35.0051 2.52874 35.8543 3.37798 35.8543 4.42552V6.3223C35.8543 6.67158 36.1374 6.95464 36.4866 6.95464Z" fill="#E3A578"/>
<path d="M21.3123 4.7422H20.6801C20.3309 4.7422 20.0478 4.45911 20.0478 4.10995V3.16156C20.0478 2.81235 20.3309 2.5293 20.6801 2.5293H21.3123C21.6615 2.5293 21.9446 2.81239 21.9446 3.16156V4.10995C21.9446 4.45911 21.6615 4.7422 21.3123 4.7422Z" fill="#CD916E"/>
<path d="M21.6285 3.16156H21.9446C21.9446 2.81239 21.6615 2.5293 21.3123 2.5293H20.6801C20.3309 2.5293 20.0478 2.81239 20.0478 3.16156V4.10995C20.0478 4.45911 20.3309 4.7422 20.6801 4.7422V4.10995C20.68 3.58614 21.1046 3.16156 21.6285 3.16156Z" fill="#B67F5F"/>
<path d="M33.6416 17.704V17.0717C33.6416 16.7225 33.9247 16.4395 34.2738 16.4395H35.2222C35.5714 16.4395 35.8545 16.7225 35.8545 17.0717V17.704C35.8545 18.0532 35.5714 18.3362 35.2222 18.3362H34.2738C33.9247 18.3362 33.6416 18.0531 33.6416 17.704Z" fill="#CD916E"/>
<path d="M35.2222 18.0201V18.3362C35.5714 18.3362 35.8545 18.0532 35.8545 17.704V17.0717C35.8545 16.7225 35.5714 16.4395 35.2222 16.4395H34.2738C33.9247 16.4395 33.6416 16.7225 33.6416 17.0717H34.2738C34.7977 17.0717 35.2222 17.4963 35.2222 18.0201Z" fill="#B67F5F"/>
<path d="M35.1488 4.95876L35.5958 4.51167C35.8427 4.26475 35.8427 3.86444 35.5958 3.61752L34.9252 2.94691C34.6783 2.69999 34.278 2.69999 34.0311 2.94691L33.584 3.394C33.337 3.64091 33.337 4.04123 33.584 4.28814L34.2546 4.95876C34.5015 5.20568 34.9018 5.20568 35.1488 4.95876Z" fill="#CD916E"/>
<path d="M33.8075 4.06461L33.584 4.28814C33.3371 4.04123 33.3371 3.64091 33.584 3.394L34.0311 2.94691C34.278 2.69999 34.6783 2.69999 34.9252 2.94691L35.5958 3.61756C35.8427 3.86448 35.8427 4.26479 35.5958 4.51171L35.1487 4.06461C34.7784 3.69428 34.1779 3.69428 33.8075 4.06461Z" fill="#B67F5F"/>
<path d="M32.0605 18.9688H35.8541C36.2033 18.9688 36.4863 19.2518 36.4863 19.601H32.3766C32.202 19.601 32.0605 19.4595 32.0605 19.2849V18.9688Z" fill="#E3A578"/>
</g>
<rect x="26.1333" y="9.79883" width="9.8001" height="13.8835" rx="0.816675" transform="rotate(90 26.1333 9.79883)" fill="#B27A49"/>
<rect x="24.3459" y="11.595" width="6.20673" height="10.2901" rx="0.65334" transform="rotate(90 24.3459 11.595)" fill="#FFDD4E" stroke="white" stroke-width="0.32667"/>
<defs>
<clipPath id="clip0_2287_151919">
<rect width="19.6002" height="19.6002" fill="white"/>
</clipPath>
<clipPath id="clip1_2287_151919">
<rect width="19.6002" height="19.6002" fill="white" transform="matrix(0 1 -1 0 38.3835 0)"/>
</clipPath>
</defs>
</svg>
