<svg width="22" height="39" viewBox="0 0 22 39" fill="none" xmlns="http://www.w3.org/2000/svg">
<g clip-path="url(#clip0_2287_152069)">
<path d="M21.6045 19.368L21.6263 4.50983C21.6299 2.06552 19.6513 0.0810792 17.207 0.0774955L2.34877 0.0557114C2.1742 0.0554555 2.03243 0.196775 2.03217 0.371377L2.03078 1.31977L2.02383 6.06174C2.02357 6.23635 2.16493 6.37808 2.3395 6.37834L2.97175 6.37926C3.14636 6.37952 3.28809 6.2382 3.28835 6.0636L3.28788 6.37973C3.28737 6.72889 3.57005 7.0124 3.91922 7.01291L8.34507 7.0194C8.69427 7.01991 8.97774 6.73724 8.97825 6.38807C8.97774 6.73724 9.26042 7.02074 9.60958 7.02126L14.0354 7.02774C14.3846 7.02826 14.6681 6.74558 14.6686 6.39641C14.6681 6.74558 14.9508 7.02909 15.3 7.0296C14.9508 7.02909 14.6673 7.31176 14.6668 7.66093L14.6603 12.0868C14.6598 12.4359 14.9424 12.7195 15.2916 12.72C14.9424 12.7195 14.6589 13.0021 14.6584 13.3513L14.6519 17.7771C14.6514 18.1263 14.9341 18.4098 15.2833 18.4103L15.2833 18.4104L15.5994 18.4108C15.4248 18.4105 15.2831 18.5519 15.2828 18.7265L15.2819 19.3587C15.2816 19.5333 15.423 19.6751 15.5975 19.6753L21.2879 19.6837C21.4625 19.684 21.6043 19.5426 21.6045 19.368Z" fill="#CD916E"/>
<path d="M18.4642 4.82088L18.461 7.03379L15.2997 7.02915L15.3052 3.2356L16.8859 3.23792C17.7589 3.2392 18.4655 3.94791 18.4642 4.82088Z" fill="#E3A578"/>
<path d="M14.6664 7.66045L14.6599 12.0863C14.6594 12.4355 14.9421 12.719 15.2913 12.7195L18.4525 12.7241L18.4586 8.6144C18.4593 8.09064 18.0353 7.66539 17.5116 7.66463L14.6664 7.66045Z" fill="#E3A578"/>
<path d="M19.0924 7.66509L19.0859 12.0909C19.0853 12.4401 19.368 12.7236 19.7172 12.7241L19.7237 8.29827C19.7242 7.94907 19.4416 7.6656 19.0924 7.66509Z" fill="#E3A578"/>
<path d="M3.919 7.0127L8.34485 7.01919C8.69405 7.0197 8.97752 6.73702 8.97803 6.38786L8.98267 3.22656L4.87294 3.22054C4.34918 3.21977 3.92393 3.64377 3.92317 4.16753L3.919 7.0127Z" fill="#E3A578"/>
<path d="M3.92558 2.58578L8.35143 2.59227C8.70064 2.59278 8.98411 2.3101 8.98462 1.96094L4.55877 1.95445C4.2096 1.9539 3.9261 2.23658 3.92558 2.58578Z" fill="#E3A578"/>
<path d="M9.60946 7.02051L14.0353 7.027C14.3845 7.02751 14.6679 6.74484 14.6685 6.39567L14.6731 3.23438L10.5634 3.22835C10.0396 3.22758 9.61436 3.65158 9.6136 4.17535L9.60946 7.02051Z" fill="#E3A578"/>
<path d="M9.61605 2.59359L14.0419 2.60008C14.3911 2.60059 14.6745 2.31792 14.675 1.96875L10.2492 1.96226C9.90003 1.96171 9.61656 2.24439 9.61605 2.59359Z" fill="#E3A578"/>
<path d="M14.6581 13.3499L14.6516 17.7758C14.6511 18.125 14.9338 18.4084 15.283 18.4089L18.4442 18.4136L18.4503 14.3039C18.451 13.7801 18.027 13.3548 17.5033 13.3541L14.6581 13.3499Z" fill="#E3A578"/>
<path d="M19.084 13.3565L19.0776 17.7823C19.077 18.1315 19.3597 18.415 19.7089 18.4155L19.7154 13.9897C19.7159 13.6405 19.4333 13.357 19.084 13.3565Z" fill="#E3A578"/>
<path d="M20.3619 4.50751L20.3397 19.6818L20.9719 19.6828L20.9942 4.50843C20.9973 2.41665 19.2979 0.712349 17.2062 0.709282L2.03184 0.687034L2.03091 1.31929L17.2052 1.34154C18.9512 1.3441 20.3645 2.76156 20.3619 4.50751Z" fill="#B67F5F"/>
<path d="M19.7257 7.03471L19.7294 4.50564C19.7315 3.10889 18.6009 1.9749 17.2041 1.97285L15.9396 1.971C15.5904 1.97049 15.3069 2.25317 15.3064 2.60233L17.2032 2.60511C18.2507 2.60665 19.0987 3.45713 19.0971 4.50467L19.0944 6.40145C19.0939 6.75073 19.3765 7.0342 19.7257 7.03471Z" fill="#E3A578"/>
<path d="M4.55517 4.79987L3.92291 4.79894C3.57371 4.79843 3.29107 4.51492 3.29158 4.16576L3.29297 3.21737C3.29348 2.86816 3.57699 2.58552 3.92616 2.58604L4.55842 2.58696C4.90762 2.58748 5.19026 2.87098 5.18975 3.22015L5.18836 4.16854C5.18784 4.5177 4.90434 4.80038 4.55517 4.79987Z" fill="#CD916E"/>
<path d="M4.87362 3.21969L5.18975 3.22015C5.19026 2.87098 4.90762 2.58748 4.55842 2.58696L3.92616 2.58604C3.57695 2.58552 3.29348 2.8682 3.29297 3.21737L3.29158 4.16576C3.29107 4.51492 3.57375 4.79843 3.92291 4.79894L3.92384 4.16668C3.92457 3.64288 4.34981 3.21892 4.87362 3.21969Z" fill="#B67F5F"/>
<path d="M16.8648 17.7808L16.8658 17.1485C16.8663 16.7993 17.1498 16.5167 17.4989 16.5172L18.4473 16.5186C18.7965 16.5191 19.0792 16.8026 19.0787 17.1518L19.0777 17.784C19.0772 18.1333 18.7937 18.4159 18.4446 18.4154L17.4962 18.414C17.147 18.4135 16.8643 18.13 16.8648 17.7808Z" fill="#CD916E"/>
<path d="M18.445 18.0993L18.4446 18.4154C18.7937 18.4159 19.0772 18.1333 19.0777 17.784L19.0787 17.1518C19.0792 16.8026 18.7965 16.5191 18.4473 16.5186L17.4989 16.5172C17.1498 16.5167 16.8663 16.7994 16.8658 17.1485L17.498 17.1495C18.0218 17.1502 18.4458 17.5754 18.445 18.0993Z" fill="#B67F5F"/>
<path d="M18.3912 5.03596L18.8389 4.58952C19.0861 4.34297 19.0867 3.94265 18.8402 3.69538L18.1705 3.02378C17.924 2.7765 17.5237 2.77591 17.2764 3.02247L16.8286 3.4689C16.5814 3.71545 16.5808 4.11577 16.8273 4.36304L17.497 5.03464C17.7435 5.28192 18.1439 5.28251 18.3912 5.03596Z" fill="#CD916E"/>
<path d="M17.0512 4.13985L16.8274 4.36304C16.5808 4.11577 16.5814 3.71545 16.8287 3.4689L17.2764 3.02247C17.5237 2.77591 17.924 2.7765 18.1706 3.02378L18.8402 3.69541C19.0867 3.94269 19.0861 4.343 18.8389 4.58956L18.3924 4.14181C18.0226 3.77093 17.4221 3.77005 17.0512 4.13985Z" fill="#B67F5F"/>
<path d="M2.65544 6.37805L2.661 2.58446C2.66151 2.23525 2.94502 1.95261 3.29419 1.95312L3.28816 6.06285C3.28791 6.23745 3.14617 6.37877 2.97157 6.37851L2.65544 6.37805Z" fill="#E3A578"/>
<path d="M15.2819 19.0404L19.0755 19.0459C19.4247 19.0465 19.7073 19.33 19.7068 19.6791L15.5971 19.6731C15.4225 19.6729 15.2812 19.5311 15.2815 19.3565L15.2819 19.0404Z" fill="#E3A578"/>
</g>
<g clip-path="url(#clip1_2287_152069)">
<path d="M2.29237 38.4385L17.1506 38.4603C19.5949 38.4639 21.5793 36.4853 21.5829 34.0409L21.6047 19.1827C21.6049 19.0082 21.4636 18.8664 21.289 18.8662L20.3406 18.8648L15.5987 18.8578C15.4241 18.8576 15.2823 18.9989 15.2821 19.1735L15.2811 19.8057C15.2809 19.9803 15.4222 20.1221 15.5968 20.1223L15.2807 20.1219C14.9315 20.1214 14.648 20.404 14.6475 20.7532L14.641 25.1791C14.6405 25.5283 14.9232 25.8117 15.2723 25.8122C14.9232 25.8117 14.6397 26.0944 14.6391 26.4436L14.6327 30.8694C14.6321 31.2186 14.9148 31.5021 15.264 31.5026C14.9148 31.5021 14.6313 31.7848 14.6308 32.1339C14.6313 31.7848 14.3486 31.5013 13.9995 31.5008L9.57362 31.4943C9.22445 31.4937 8.94095 31.7764 8.94044 32.1256C8.94095 31.7764 8.65827 31.4929 8.3091 31.4924L3.88325 31.4859C3.53409 31.4854 3.25058 31.7681 3.25007 32.1172L3.24961 32.4334C3.24986 32.2588 3.10854 32.117 2.93394 32.1168L2.30168 32.1159C2.12708 32.1156 1.98534 32.257 1.98509 32.4315L1.97674 38.1219C1.97645 38.2965 2.11777 38.4383 2.29237 38.4385Z" fill="#CD916E"/>
<path d="M16.839 35.2985L14.6261 35.2952L14.6308 32.1339L18.4243 32.1394L18.422 33.7201C18.4207 34.5931 17.712 35.2997 16.839 35.2985Z" fill="#E3A578"/>
<path d="M13.9992 31.5014L9.57336 31.4949C9.22416 31.4944 8.94069 31.777 8.94018 32.1262L8.93554 35.2875L13.0453 35.2935C13.569 35.2943 13.9943 34.8703 13.995 34.3465L13.9992 31.5014Z" fill="#E3A578"/>
<path d="M13.9926 35.9283L9.56678 35.9218C9.21757 35.9213 8.9341 36.204 8.93359 36.5531L13.3594 36.5596C13.7086 36.5602 13.9921 36.2775 13.9926 35.9283Z" fill="#E3A578"/>
<path d="M14.6472 20.7527L14.6407 25.1786C14.6402 25.5278 14.9229 25.8113 15.2721 25.8118L18.4333 25.8164L18.4394 21.7067C18.4401 21.1829 18.0161 20.7577 17.4924 20.7569L14.6472 20.7527Z" fill="#E3A578"/>
<path d="M19.0734 20.7593L19.0669 25.1852C19.0664 25.5344 19.3491 25.8178 19.6982 25.8184L19.7047 21.3925C19.7053 21.0433 19.4226 20.7598 19.0734 20.7593Z" fill="#E3A578"/>
<path d="M14.6392 26.4442L14.6327 30.87C14.6322 31.2192 14.9148 31.5027 15.264 31.5032L18.4253 31.5078L18.4313 27.3981C18.4321 26.8743 18.0081 26.4491 17.4843 26.4483L14.6392 26.4442Z" fill="#E3A578"/>
<path d="M19.0649 26.4508L19.0584 30.8766C19.0579 31.2258 19.3405 31.5093 19.6897 31.5098L19.6962 27.084C19.6967 26.7347 19.4141 26.4513 19.0649 26.4508Z" fill="#E3A578"/>
<path d="M8.30903 31.4936L3.88318 31.4871C3.53397 31.4866 3.25051 31.7692 3.24999 32.1184L3.24536 35.2797L7.35508 35.2857C7.87885 35.2865 8.30409 34.8625 8.30486 34.3387L8.30903 31.4936Z" fill="#E3A578"/>
<path d="M8.3022 35.9185L3.87635 35.912C3.52714 35.9115 3.24367 36.1942 3.24316 36.5434L7.66901 36.5499C8.01821 36.5504 8.30168 36.2677 8.3022 35.9185Z" fill="#E3A578"/>
<path d="M17.1526 37.1962L1.97832 37.1739L1.9774 37.8062L17.1517 37.8284C19.2435 37.8315 20.9478 36.1322 20.9509 34.0404L20.9731 18.8661L20.3409 18.8651L20.3186 34.0395C20.3161 35.7854 18.8986 37.1987 17.1526 37.1962Z" fill="#B67F5F"/>
<path d="M14.6242 36.559L17.1533 36.5627C18.55 36.5647 19.684 35.4341 19.6861 34.0373L19.6879 32.7728C19.6884 32.4236 19.4058 32.1401 19.0566 32.1396L19.0538 34.0364C19.0523 35.084 18.2018 35.9319 17.1543 35.9304L15.2575 35.9276C14.9082 35.9271 14.6247 36.2098 14.6242 36.559Z" fill="#E3A578"/>
<path d="M16.8593 21.3899L16.8602 20.7576C16.8607 20.4084 17.1443 20.1258 17.4934 20.1263L18.4418 20.1277C18.791 20.1282 19.0737 20.4117 19.0731 20.7609L19.0722 21.3931C19.0717 21.7423 18.7882 22.025 18.439 22.0245L17.4906 22.0231C17.1415 22.0226 16.8588 21.7391 16.8593 21.3899Z" fill="#CD916E"/>
<path d="M18.4395 21.7083L18.439 22.0245C18.7882 22.025 19.0717 21.7423 19.0722 21.3931L19.0731 20.7609C19.0737 20.4117 18.791 20.1282 18.4418 20.1277L17.4934 20.1263C17.1443 20.1258 16.8607 20.4085 16.8602 20.7576L17.4925 20.7586C18.0163 20.7593 18.4403 21.1845 18.4395 21.7083Z" fill="#B67F5F"/>
<path d="M3.88009 33.6993L4.51234 33.7002C4.86155 33.7007 5.14419 33.9842 5.14367 34.3334L5.14228 35.2818C5.14177 35.631 4.85827 35.9136 4.5091 35.9131L3.87684 35.9122C3.52764 35.9117 3.245 35.6282 3.24551 35.279L3.2469 34.3306C3.24741 33.9815 3.53092 33.6988 3.88009 33.6993Z" fill="#CD916E"/>
<path d="M3.56164 35.2795L3.24551 35.279C3.245 35.6282 3.52764 35.9117 3.87684 35.9122L4.5091 35.9131C4.8583 35.9136 5.14177 35.631 5.14228 35.2818L5.14367 34.3334C5.14419 33.9842 4.86151 33.7007 4.51234 33.7002L4.51142 34.3325C4.51069 34.8563 4.08545 35.2803 3.56164 35.2795Z" fill="#B67F5F"/>
<path d="M16.6237 35.2259L17.0701 35.6736C17.3167 35.9209 17.717 35.9214 17.9643 35.6749L18.6359 35.0053C18.8832 34.7587 18.8838 34.3584 18.6372 34.1111L18.1908 33.6634C17.9442 33.4161 17.5439 33.4155 17.2966 33.6621L16.625 34.3317C16.3777 34.5782 16.3772 34.9786 16.6237 35.2259Z" fill="#CD916E"/>
<path d="M17.5198 33.8859L17.2966 33.6621C17.5439 33.4155 17.9442 33.4161 18.1908 33.6634L18.6372 34.1111C18.8838 34.3584 18.8832 34.7587 18.6359 35.0053L17.9643 35.6749C17.717 35.9214 17.3167 35.9209 17.0701 35.6736L17.5179 35.2271C17.8887 34.8573 17.8896 34.2568 17.5198 33.8859Z" fill="#B67F5F"/>
<path d="M2.61782 32.1171L2.61226 35.9107C2.61174 36.2599 2.32824 36.5426 1.97907 36.542L1.9851 32.4323C1.98535 32.2577 2.12709 32.1164 2.30169 32.1167L2.61782 32.1171Z" fill="#E3A578"/>
</g>
<rect x="11.7935" y="26.2051" width="9.8001" height="13.8835" rx="0.816675" transform="rotate(-179.916 11.7935 26.2051)" fill="#B27A49"/>
<rect x="10.0007" y="24.4146" width="6.20673" height="10.2901" rx="0.65334" transform="rotate(-179.916 10.0007 24.4146)" fill="#FFDD4E" stroke="white" stroke-width="0.32667"/>
<defs>
<clipPath id="clip0_2287_152069">
<rect width="19.6002" height="19.6002" fill="white" transform="translate(21.6328 0.0839844) rotate(90.084)"/>
</clipPath>
<clipPath id="clip1_2287_152069">
<rect width="19.6002" height="19.6002" fill="white" transform="translate(21.5764 38.4668) rotate(-179.916)"/>
</clipPath>
</defs>
</svg>
