<svg width="22" height="39" viewBox="0 0 22 39" fill="none" xmlns="http://www.w3.org/2000/svg">
<g clip-path="url(#clip0_2287_151969)">
<path d="M0.928908 19.1828L0.907124 34.0409C0.90354 36.4853 2.88217 38.4697 5.32648 38.4733L20.1847 38.4951C20.3592 38.4953 20.501 38.354 20.5013 38.1794L20.5027 37.231L20.5096 32.489C20.5099 32.3144 20.3685 32.1727 20.194 32.1724L19.5617 32.1715C19.3871 32.1713 19.2454 32.3126 19.2451 32.4872L19.2456 32.1711C19.2461 31.8219 18.9634 31.5384 18.6142 31.5379L14.1884 31.5314C13.8392 31.5309 13.5557 31.8135 13.5552 32.1627C13.5557 31.8135 13.273 31.53 12.9239 31.5295L8.49801 31.523C8.14881 31.5225 7.86534 31.8052 7.86483 32.1544C7.86534 31.8052 7.58266 31.5217 7.2335 31.5212C7.58266 31.5217 7.86617 31.239 7.86668 30.8899L7.87317 26.464C7.87368 26.1148 7.59101 25.8313 7.24184 25.8308C7.59101 25.8313 7.87451 25.5486 7.87502 25.1995L7.88151 20.7736C7.88203 20.4245 7.59935 20.141 7.25018 20.1404L7.25018 20.1404L6.93405 20.14C7.10862 20.1402 7.25039 19.9989 7.25065 19.8243L7.25157 19.1921C7.25183 19.0175 7.11047 18.8757 6.93591 18.8755L1.2455 18.8671C1.0709 18.8668 0.929164 19.0081 0.928908 19.1828Z" fill="#CD916E"/>
<path d="M4.06872 33.7299L4.07197 31.517L7.2333 31.5216L7.22774 35.3152L5.64709 35.3129C4.77408 35.3116 4.06744 34.6029 4.06872 33.7299Z" fill="#E3A578"/>
<path d="M7.86631 30.8903L7.8728 26.4645C7.87331 26.1153 7.59063 25.8318 7.24146 25.8313L4.08017 25.8267L4.07414 29.9364C4.07338 30.4601 4.49737 30.8854 5.02114 30.8862L7.86631 30.8903Z" fill="#E3A578"/>
<path d="M3.44036 30.8857L3.44685 26.4598C3.44737 26.1106 3.16469 25.8272 2.81552 25.8267L2.80903 30.2525C2.80848 30.6017 3.09116 30.8852 3.44036 30.8857Z" fill="#E3A578"/>
<path d="M18.614 31.5381L14.1881 31.5316C13.8389 31.5311 13.5554 31.8138 13.5549 32.1629L13.5503 35.3242L17.66 35.3302C18.1838 35.331 18.609 34.907 18.6098 34.3832L18.614 31.5381Z" fill="#E3A578"/>
<path d="M18.6071 35.965L14.1813 35.9585C13.8321 35.958 13.5486 36.2407 13.5481 36.5898L17.9739 36.5963C18.3231 36.5969 18.6066 36.3142 18.6071 35.965Z" fill="#E3A578"/>
<path d="M12.9235 31.5303L8.49768 31.5238C8.14848 31.5233 7.86501 31.8059 7.8645 32.1551L7.85986 35.3164L11.9696 35.3224C12.4934 35.3232 12.9186 34.8992 12.9194 34.3754L12.9235 31.5303Z" fill="#E3A578"/>
<path d="M12.9169 35.9572L8.4911 35.9507C8.14189 35.9502 7.85842 36.2329 7.85791 36.582L12.2837 36.5885C12.6329 36.5891 12.9164 36.3064 12.9169 35.9572Z" fill="#E3A578"/>
<path d="M7.87461 25.2009L7.8811 20.775C7.88161 20.4258 7.59893 20.1424 7.24976 20.1418L4.08847 20.1372L4.08245 24.2469C4.08168 24.7707 4.50567 25.1959 5.02944 25.1967L7.87461 25.2009Z" fill="#E3A578"/>
<path d="M3.44891 25.1943L3.4554 20.7684C3.45591 20.4192 3.17323 20.1358 2.82407 20.1353L2.81758 24.5611C2.81703 24.9103 3.0997 25.1938 3.44891 25.1943Z" fill="#E3A578"/>
<path d="M2.17151 34.0433L2.19376 18.8689L1.5615 18.868L1.53925 34.0423C1.53619 36.1341 3.2355 37.8384 5.32728 37.8415L20.5016 37.8637L20.5025 37.2315L5.32821 37.2092C3.58226 37.2067 2.16895 35.7892 2.17151 34.0433Z" fill="#B67F5F"/>
<path d="M2.80746 31.5161L2.80376 34.0451C2.80171 35.4419 3.93234 36.5759 5.32912 36.5779L6.59364 36.5798C6.94284 36.5803 7.22631 36.2976 7.22683 35.9484L5.33005 35.9457C4.28247 35.9441 3.43452 35.0936 3.43605 34.0461L3.43883 32.1493C3.43935 31.8001 3.15667 31.5166 2.80746 31.5161Z" fill="#E3A578"/>
<path d="M17.9783 33.7509L18.6105 33.7518C18.9597 33.7524 19.2424 34.0359 19.2419 34.385L19.2405 35.3334C19.24 35.6826 18.9565 35.9653 18.6073 35.9647L17.975 35.9638C17.6258 35.9633 17.3432 35.6798 17.3437 35.3306L17.3451 34.3822C17.3456 34.0331 17.6291 33.7504 17.9783 33.7509Z" fill="#CD916E"/>
<path d="M17.6598 35.3311L17.3437 35.3306C17.3432 35.6798 17.6258 35.9633 17.975 35.9638L18.6073 35.9647C18.9565 35.9653 19.24 35.6826 19.2405 35.3334L19.2419 34.385C19.2424 34.0359 18.9597 33.7524 18.6105 33.7518L18.6096 34.3841C18.6089 34.9079 18.1836 35.3319 17.6598 35.3311Z" fill="#B67F5F"/>
<path d="M5.66837 20.77L5.66745 21.4022C5.66693 21.7514 5.38343 22.0341 5.03426 22.0336L4.08587 22.0322C3.73667 22.0317 3.45403 21.7482 3.45454 21.399L3.45547 20.7667C3.45598 20.4175 3.73949 20.1349 4.08865 20.1354L5.03704 20.1368C5.38621 20.1373 5.66888 20.4208 5.66837 20.77Z" fill="#CD916E"/>
<path d="M4.08819 20.4515L4.08865 20.1354C3.73949 20.1349 3.45598 20.4175 3.45547 20.7667L3.45454 21.399C3.45403 21.7482 3.73671 22.0317 4.08587 22.0322L5.03426 22.0336C5.38343 22.0341 5.66693 21.7514 5.66745 21.4022L5.03519 21.4013C4.51138 21.4006 4.08742 20.9753 4.08819 20.4515Z" fill="#B67F5F"/>
<path d="M4.14205 33.5148L3.69434 33.9613C3.44707 34.2078 3.44648 34.6081 3.69303 34.8554L4.36267 35.527C4.60922 35.7743 5.00953 35.7749 5.25681 35.5283L5.70456 35.0819C5.95184 34.8353 5.95242 34.435 5.70587 34.1877L5.03623 33.5161C4.78968 33.2689 4.38933 33.2683 4.14205 33.5148Z" fill="#CD916E"/>
<path d="M5.48198 34.4109L5.70583 34.1877C5.95238 34.435 5.9518 34.8353 5.70452 35.0819L5.25677 35.5283C5.00949 35.7749 4.60918 35.7743 4.36263 35.527L3.69303 34.8554C3.44648 34.6081 3.44707 34.2078 3.69434 33.9612L4.14078 34.409C4.51057 34.7798 5.1111 34.7807 5.48198 34.4109Z" fill="#B67F5F"/>
<path d="M19.8775 32.1708L19.872 35.9644C19.8714 36.3136 19.5879 36.5962 19.2388 36.5957L19.2448 32.486C19.2451 32.3114 19.3868 32.1701 19.5614 32.1703L19.8775 32.1708Z" fill="#E3A578"/>
<path d="M7.25104 19.5084L3.45745 19.5029C3.10825 19.5024 2.82561 19.2189 2.82612 18.8697L6.93584 18.8757C7.11044 18.876 7.25176 19.0177 7.25151 19.1923L7.25104 19.5084Z" fill="#E3A578"/>
</g>
<g clip-path="url(#clip1_2287_151969)">
<path d="M20.2406 0.112257L5.38239 0.0904733C2.93807 0.0868896 0.953638 2.06552 0.950054 4.50983L0.92827 19.368C0.928014 19.5426 1.06933 19.6844 1.24394 19.6846L2.19232 19.686L6.9343 19.693C7.1089 19.6932 7.25064 19.5519 7.2509 19.3773L7.25182 18.745C7.25208 18.5704 7.11076 18.4287 6.93616 18.4284L7.25229 18.4289C7.60145 18.4294 7.88496 18.1467 7.88547 17.7976L7.89196 13.3717C7.89247 13.0225 7.60979 12.7391 7.26063 12.7385C7.60979 12.7391 7.8933 12.4564 7.89381 12.1072L7.9003 7.68136C7.90082 7.33216 7.61814 7.04869 7.26897 7.04818C7.61814 7.04869 7.90165 6.76601 7.90216 6.41685C7.90165 6.76601 8.18432 7.04952 8.53349 7.05003L12.9593 7.05652C13.3085 7.05703 13.592 6.77436 13.5925 6.42519C13.592 6.77436 13.8747 7.05786 14.2239 7.05837L18.6497 7.06486C18.9989 7.06537 19.2824 6.7827 19.2829 6.43353L19.2834 6.1174C19.2831 6.29197 19.4244 6.43374 19.599 6.434L20.2313 6.43492C20.4059 6.43518 20.5476 6.29382 20.5479 6.11926L20.5562 0.42885C20.5565 0.254248 20.4152 0.112513 20.2406 0.112257Z" fill="#CD916E"/>
<path d="M5.69417 3.25232L7.90708 3.25556L7.90244 6.41689L4.10889 6.41133L4.11121 4.83069C4.11249 3.95767 4.8212 3.25104 5.69417 3.25232Z" fill="#E3A578"/>
<path d="M8.53374 7.04941L12.9596 7.0559C13.3088 7.05641 13.5923 6.77374 13.5928 6.42457L13.5974 3.26328L9.48769 3.25725C8.96393 3.25648 8.53868 3.68048 8.53792 4.20425L8.53374 7.04941Z" fill="#E3A578"/>
<path d="M8.54033 2.62249L12.9662 2.62898C13.3154 2.62949 13.5989 2.34682 13.5994 1.99765L9.17352 1.99116C8.82431 1.99061 8.54084 2.27329 8.54033 2.62249Z" fill="#E3A578"/>
<path d="M7.88599 17.798L7.89248 13.3722C7.89299 13.023 7.61031 12.7395 7.26115 12.739L4.09985 12.7344L4.09383 16.8441C4.09306 17.3679 4.51706 17.7931 5.04083 17.7939L7.88599 17.798Z" fill="#E3A578"/>
<path d="M3.4598 17.7915L3.46629 13.3656C3.4668 13.0164 3.18413 12.7329 2.83496 12.7324L2.82847 17.1583C2.82792 17.5074 3.1106 17.7909 3.4598 17.7915Z" fill="#E3A578"/>
<path d="M7.89405 12.1066L7.90054 7.68079C7.90105 7.33158 7.61837 7.04812 7.2692 7.0476L4.10791 7.04297L4.10188 11.1527C4.10112 11.6765 4.52511 12.1017 5.04888 12.1025L7.89405 12.1066Z" fill="#E3A578"/>
<path d="M3.46835 12.1L3.47484 7.6742C3.47535 7.325 3.19267 7.04153 2.84351 7.04102L2.83702 11.4668C2.83647 11.816 3.11914 12.0995 3.46835 12.1Z" fill="#E3A578"/>
<path d="M14.2242 7.05722L18.65 7.06371C18.9992 7.06423 19.2827 6.78155 19.2832 6.43238L19.2878 3.27109L15.1781 3.26506C14.6544 3.26429 14.2291 3.68829 14.2283 4.21206L14.2242 7.05722Z" fill="#E3A578"/>
<path d="M14.2308 2.63031L18.6566 2.63679C19.0058 2.63731 19.2893 2.35463 19.2898 2.00546L14.8639 1.99897C14.5147 1.99842 14.2313 2.2811 14.2308 2.63031Z" fill="#E3A578"/>
<path d="M5.38055 1.35462L20.5549 1.37687L20.5558 0.744606L5.38148 0.722359C3.2897 0.719292 1.5854 2.41861 1.58233 4.51039L1.56008 19.6847L2.19234 19.6856L2.21459 4.51131C2.21715 2.76537 3.63461 1.35206 5.38055 1.35462Z" fill="#B67F5F"/>
<path d="M7.90898 1.98984L5.3799 1.98613C3.98316 1.98408 2.84917 3.11471 2.84712 4.5115L2.84527 5.77601C2.84476 6.12522 3.12743 6.40869 3.4766 6.4092L3.47938 4.51242C3.48092 3.46485 4.3314 2.61689 5.37894 2.61843L7.27571 2.62121C7.625 2.62172 7.90846 2.33904 7.90898 1.98984Z" fill="#E3A578"/>
<path d="M5.67365 17.1609L5.67272 17.7932C5.67221 18.1424 5.3887 18.425 5.03954 18.4245L4.09115 18.4231C3.74194 18.4226 3.4593 18.1391 3.45982 17.7899L3.46074 17.1576C3.46125 16.8084 3.74476 16.5258 4.09393 16.5263L5.04232 16.5277C5.39148 16.5282 5.67416 16.8117 5.67365 17.1609Z" fill="#CD916E"/>
<path d="M4.09347 16.8424L4.09393 16.5263C3.74476 16.5258 3.46125 16.8084 3.46074 17.1576L3.45982 17.7899C3.4593 18.1391 3.74198 18.4226 4.09115 18.4231L5.03954 18.4245C5.3887 18.425 5.67221 18.1423 5.67272 17.7932L5.04046 17.7922C4.51666 17.7915 4.0927 17.3663 4.09347 16.8424Z" fill="#B67F5F"/>
<path d="M18.6531 4.85148L18.0209 4.85055C17.6717 4.85004 17.389 4.56653 17.3895 4.21737L17.3909 3.26898C17.3914 2.91977 17.6749 2.63713 18.0241 2.63765L18.6564 2.63857C19.0056 2.63908 19.2882 2.92259 19.2877 3.27176L19.2863 4.22015C19.2858 4.56931 19.0023 4.85199 18.6531 4.85148Z" fill="#CD916E"/>
<path d="M18.9716 3.27129L19.2877 3.27176C19.2882 2.92259 19.0056 2.63908 18.6564 2.63857L18.0241 2.63765C17.6749 2.63713 17.3914 2.91981 17.3909 3.26898L17.3895 4.21737C17.389 4.56653 17.6717 4.85004 18.0209 4.85055L18.0218 4.21829C18.0225 3.69449 18.4478 3.27053 18.9716 3.27129Z" fill="#B67F5F"/>
<path d="M5.90949 3.32491L5.46305 2.87721C5.2165 2.62993 4.81619 2.62934 4.56891 2.8759L3.89731 3.54553C3.65003 3.79208 3.64945 4.19239 3.896 4.43967L4.34244 4.88742C4.58899 5.1347 4.9893 5.13528 5.23658 4.88873L5.90818 4.2191C6.15546 3.97254 6.15604 3.57219 5.90949 3.32491Z" fill="#CD916E"/>
<path d="M5.01338 4.66484L5.23658 4.88869C4.9893 5.13524 4.58899 5.13466 4.34244 4.88738L3.896 4.43963C3.64945 4.19236 3.65003 3.79204 3.89731 3.54549L4.56895 2.8759C4.81623 2.62934 5.21654 2.62993 5.46309 2.87721L5.01535 3.32364C4.64447 3.69343 4.64359 4.29396 5.01338 4.66484Z" fill="#B67F5F"/>
<path d="M19.9151 6.43561L19.9207 2.64202C19.9212 2.29282 20.2047 2.01018 20.5539 2.01069L20.5479 6.12041C20.5476 6.29501 20.4059 6.43633 20.2313 6.43608L19.9151 6.43561Z" fill="#E3A578"/>
</g>
<rect x="10.7397" y="12.3477" width="9.8001" height="13.8835" rx="0.816675" transform="rotate(0.0840035 10.7397 12.3477)" fill="#B27A49"/>
<rect x="12.5327" y="14.1382" width="6.20673" height="10.2901" rx="0.65334" transform="rotate(0.0840035 12.5327 14.1382)" fill="#FFDD4E" stroke="white" stroke-width="0.32667"/>
<defs>
<clipPath id="clip0_2287_151969">
<rect width="19.6002" height="19.6002" fill="white" transform="translate(0.900391 38.4668) rotate(-89.916)"/>
</clipPath>
<clipPath id="clip1_2287_151969">
<rect width="19.6002" height="19.6002" fill="white" transform="translate(0.956543 0.0839844) rotate(0.0840032)"/>
</clipPath>
</defs>
</svg>
