<svg width="40" height="22" viewBox="0 0 40 22" fill="none" xmlns="http://www.w3.org/2000/svg">
<g clip-path="url(#clip0_2287_152019)">
<path d="M19.9154 21.6719H34.7736C37.2179 21.6719 39.1995 19.6903 39.1995 17.246V2.38781C39.1995 2.21324 39.0579 2.07168 38.8833 2.07168H37.9349H33.193C33.0184 2.07168 32.8768 2.21324 32.8768 2.38781V3.02007C32.8768 3.19467 33.0184 3.3362 33.193 3.3362H32.8768C32.5277 3.3362 32.2446 3.61929 32.2446 3.96846V8.39431C32.2446 8.74352 32.5277 9.02657 32.8768 9.02657C32.5277 9.02657 32.2446 9.30966 32.2446 9.65883V14.0847C32.2446 14.4339 32.5277 14.7169 32.8768 14.7169C32.5277 14.7169 32.2446 15 32.2446 15.3492C32.2446 15 31.9615 14.7169 31.6123 14.7169H27.1865C26.8373 14.7169 26.5542 15 26.5542 15.3492C26.5542 15 26.2711 14.7169 25.9219 14.7169H21.4961C21.1469 14.7169 20.8638 15 20.8638 15.3492H20.8637L20.8638 15.6653C20.8638 15.4908 20.7223 15.3492 20.5477 15.3492H19.9154C19.7408 15.3492 19.5993 15.4908 19.5993 15.6653V21.3557C19.5993 21.5303 19.7408 21.6719 19.9154 21.6719Z" fill="#CD916E"/>
<path d="M34.4574 18.5098H32.2445V15.3484H36.0381V16.9291C36.0381 17.8021 35.3304 18.5098 34.4574 18.5098Z" fill="#E3A578"/>
<path d="M31.6121 14.7162H27.1862C26.837 14.7162 26.5539 14.9993 26.5539 15.3485V18.5098H30.6637C31.1874 18.5098 31.6121 18.0851 31.6121 17.5614V14.7162Z" fill="#E3A578"/>
<path d="M31.6121 19.1431H27.1862C26.837 19.1431 26.5539 19.4262 26.5539 19.7754H30.9798C31.329 19.7754 31.6121 19.4923 31.6121 19.1431Z" fill="#E3A578"/>
<path d="M32.2445 3.96728V8.39313C32.2445 8.74234 32.5276 9.02539 32.8768 9.02539H36.0381V4.91567C36.0381 4.3919 35.6135 3.96728 35.0897 3.96728H32.2445Z" fill="#E3A578"/>
<path d="M36.6702 3.96728V8.39313C36.6702 8.74234 36.9533 9.02539 37.3025 9.02539V4.59954C37.3025 4.25037 37.0194 3.96728 36.6702 3.96728Z" fill="#E3A578"/>
<path d="M32.2445 9.65872V14.0845C32.2445 14.4337 32.5276 14.7168 32.8768 14.7168H36.0381V10.6071C36.0381 10.0833 35.6135 9.65868 35.0897 9.65868L32.2445 9.65872Z" fill="#E3A578"/>
<path d="M36.6702 9.65872V14.0845C36.6702 14.4337 36.9533 14.7168 37.3025 14.7168V10.291C37.3025 9.94177 37.0194 9.65872 36.6702 9.65872Z" fill="#E3A578"/>
<path d="M25.9216 14.7162H21.4958C21.1466 14.7162 20.8635 14.9993 20.8635 15.3485V18.5098H24.9732C25.497 18.5098 25.9216 18.0851 25.9216 17.5614V14.7162Z" fill="#E3A578"/>
<path d="M25.9216 19.1431H21.4958C21.1466 19.1431 20.8635 19.4262 20.8635 19.7754H25.2894C25.6386 19.7754 25.9216 19.4923 25.9216 19.1431Z" fill="#E3A578"/>
<path d="M34.7733 20.4088H19.599V21.041H34.7733C36.8651 21.041 38.5669 19.3392 38.5669 17.2474V2.07308H37.9346V17.2474C37.9346 18.9934 36.5192 20.4088 34.7733 20.4088Z" fill="#B67F5F"/>
<path d="M32.2443 19.7754H34.7734C36.1702 19.7754 37.3025 18.6431 37.3025 17.2463V15.9818C37.3025 15.6326 37.0194 15.3495 36.6702 15.3495V17.2463C36.6702 18.2939 35.821 19.1431 34.7735 19.1431H32.8767C32.5274 19.1431 32.2443 19.4262 32.2443 19.7754Z" fill="#E3A578"/>
<path d="M34.4575 4.60212V3.96986C34.4575 3.62065 34.7406 3.3376 35.0898 3.3376H36.0382C36.3874 3.3376 36.6704 3.62069 36.6704 3.96986V4.60212C36.6704 4.95132 36.3873 5.23438 36.0382 5.23438H35.0898C34.7406 5.23438 34.4575 4.95128 34.4575 4.60212Z" fill="#CD916E"/>
<path d="M36.0382 4.91825V5.23438C36.3873 5.23438 36.6704 4.95132 36.6704 4.60212V3.96986C36.6704 3.62065 36.3873 3.3376 36.0382 3.3376H35.0898C34.7406 3.3376 34.4575 3.62069 34.4575 3.96986H35.0898C35.6136 3.96982 36.0382 4.39444 36.0382 4.91825Z" fill="#B67F5F"/>
<path d="M21.496 16.9297H22.1282C22.4774 16.9297 22.7605 17.2128 22.7605 17.5619V18.5103C22.7605 18.8595 22.4774 19.1426 22.1282 19.1426H21.496C21.1468 19.1426 20.8637 18.8595 20.8637 18.5103V17.5619C20.8637 17.2128 21.1468 16.9297 21.496 16.9297Z" fill="#CD916E"/>
<path d="M21.1799 18.5103H20.8637C20.8637 18.8595 21.1468 19.1426 21.496 19.1426H22.1282C22.4774 19.1426 22.7605 18.8595 22.7605 18.5103V17.5619C22.7605 17.2128 22.4774 16.9297 22.1282 16.9297V17.5619C22.1283 18.0857 21.7037 18.5103 21.1799 18.5103Z" fill="#B67F5F"/>
<path d="M34.2417 18.4361L34.6888 18.8832C34.9357 19.1301 35.336 19.1301 35.5829 18.8832L36.2535 18.2126C36.5004 17.9656 36.5004 17.5653 36.2535 17.3184L35.8064 16.8713C35.5595 16.6244 35.1592 16.6244 34.9123 16.8713L34.2417 17.5419C33.9948 17.7889 33.9948 18.1892 34.2417 18.4361Z" fill="#CD916E"/>
<path d="M35.1358 17.0949L34.9123 16.8714C35.1592 16.6244 35.5595 16.6244 35.8064 16.8714L36.2535 17.3184C36.5004 17.5654 36.5004 17.9657 36.2535 18.2126L35.5829 18.8832C35.336 19.1301 34.9356 19.1301 34.6887 18.8832L35.1358 18.4361C35.5062 18.0657 35.5062 17.4652 35.1358 17.0949Z" fill="#B67F5F"/>
<path d="M32.8766 2.70368H36.6702C37.0194 2.70368 37.3025 2.98677 37.3025 3.33594H33.1928C33.0182 3.33594 32.8766 3.19441 32.8766 3.01981V2.70368Z" fill="#E3A578"/>
<path d="M20.2312 15.3495V19.1431C20.2312 19.4923 19.9481 19.7754 19.5989 19.7754V15.6657C19.5989 15.4911 19.7405 15.3495 19.9151 15.3495H20.2312Z" fill="#E3A578"/>
</g>
<g clip-path="url(#clip1_2287_152019)">
<path d="M0.815674 2.38781L0.815674 17.246C0.815674 19.6903 2.79721 21.6719 5.24153 21.6719L20.0997 21.6719C20.2743 21.6719 20.4159 21.5303 20.4159 21.3557V20.4074V15.6654C20.4159 15.4908 20.2743 15.3492 20.0997 15.3492H19.4675C19.2929 15.3492 19.1514 15.4908 19.1514 15.6654V15.3492C19.1514 15.0001 18.8683 14.717 18.5191 14.717H14.0932C13.744 14.717 13.461 15.0001 13.461 15.3492C13.461 15.0001 13.1779 14.717 12.8287 14.717L8.40286 14.717C8.05366 14.717 7.7706 15.0001 7.7706 15.3492C7.7706 15.0001 7.48751 14.717 7.13835 14.717C7.48751 14.717 7.7706 14.4339 7.7706 14.0847L7.7706 9.65887C7.7706 9.3097 7.48751 9.02661 7.13835 9.02661C7.48751 9.02661 7.7706 8.74352 7.7706 8.39435L7.7706 3.9685C7.7706 3.61933 7.48751 3.33624 7.13835 3.33624H6.82222C6.99678 3.33624 7.13835 3.19471 7.13835 3.02011V2.38785C7.13835 2.21324 6.99678 2.07172 6.82222 2.07172H1.1318C0.957201 2.07168 0.815674 2.21321 0.815674 2.38781Z" fill="#CD916E"/>
<path d="M3.97705 16.9291L3.97705 14.7162H7.13839L7.13839 18.5098H5.55774C4.68473 18.5098 3.97705 17.8021 3.97705 16.9291Z" fill="#E3A578"/>
<path d="M7.77061 14.0859L7.77061 9.66008C7.77061 9.31088 7.48751 9.02782 7.13835 9.02782H3.97705L3.97705 13.1375C3.97705 13.6613 4.40167 14.0859 4.92544 14.0859H7.77061Z" fill="#E3A578"/>
<path d="M3.34491 14.0859L3.34491 9.66008C3.34491 9.31088 3.06181 9.02782 2.71265 9.02782L2.71265 13.4537C2.71261 13.8029 2.9957 14.0859 3.34491 14.0859Z" fill="#E3A578"/>
<path d="M18.5191 14.7162H14.0932C13.744 14.7162 13.4609 14.9993 13.4609 15.3485V18.5098H17.5707C18.0944 18.5098 18.5191 18.0851 18.5191 17.5614V14.7162Z" fill="#E3A578"/>
<path d="M18.5191 19.1431H14.0932C13.744 19.1431 13.4609 19.4262 13.4609 19.7754L17.8868 19.7754C18.236 19.7754 18.5191 19.4923 18.5191 19.1431Z" fill="#E3A578"/>
<path d="M12.8286 14.7162H8.40277C8.05356 14.7162 7.77051 14.9993 7.77051 15.3485L7.77051 18.5098H11.8802C12.404 18.5098 12.8286 18.0851 12.8286 17.5614L12.8286 14.7162Z" fill="#E3A578"/>
<path d="M12.8286 19.1431H8.40277C8.05356 19.1431 7.77051 19.4262 7.77051 19.7754L12.1963 19.7754C12.5455 19.7754 12.8286 19.4923 12.8286 19.1431Z" fill="#E3A578"/>
<path d="M7.77061 8.39453L7.77061 3.96868C7.77061 3.61947 7.48751 3.33642 7.13835 3.33642L3.97705 3.33642L3.97705 7.44614C3.97705 7.96991 4.40167 8.39453 4.92544 8.39453H7.77061Z" fill="#E3A578"/>
<path d="M3.34491 8.39453L3.34491 3.96868C3.34491 3.61947 3.06181 3.33642 2.71265 3.33642L2.71265 7.76227C2.71261 8.11148 2.9957 8.39453 3.34491 8.39453Z" fill="#E3A578"/>
<path d="M2.08026 17.2474L2.08026 2.07308H1.448L1.448 17.2474C1.448 19.3392 3.14981 21.041 5.24159 21.041L20.4159 21.041V20.4088L5.24159 20.4088C3.49564 20.4088 2.08026 18.9934 2.08026 17.2474Z" fill="#B67F5F"/>
<path d="M2.71265 14.7172L2.71265 17.2463C2.71265 18.6431 3.84494 19.7754 5.24172 19.7754H6.50624C6.85545 19.7754 7.1385 19.4923 7.1385 19.1431H5.24172C4.19415 19.1431 3.34494 18.2939 3.34494 17.2464L3.34494 15.3496C3.34494 15.0003 3.06185 14.7172 2.71265 14.7172Z" fill="#E3A578"/>
<path d="M17.8867 16.9297H18.5189C18.8681 16.9297 19.1512 17.2128 19.1512 17.5619V18.5103C19.1512 18.8595 18.8681 19.1426 18.5189 19.1426H17.8867C17.5374 19.1426 17.2544 18.8595 17.2544 18.5103V17.5619C17.2544 17.2128 17.5375 16.9297 17.8867 16.9297Z" fill="#CD916E"/>
<path d="M17.5705 18.5103H17.2544C17.2544 18.8595 17.5374 19.1426 17.8867 19.1426H18.5189C18.8681 19.1426 19.1512 18.8595 19.1512 18.5103V17.5619C19.1512 17.2128 18.8681 16.9297 18.5189 16.9297V17.5619C18.519 18.0857 18.0943 18.5103 17.5705 18.5103Z" fill="#B67F5F"/>
<path d="M5.55763 3.96986V4.60212C5.55763 4.95132 5.27454 5.23438 4.92538 5.23438H3.97699C3.62778 5.23438 3.34473 4.95128 3.34473 4.60212L3.34473 3.96986C3.34473 3.62065 3.62782 3.3376 3.97699 3.3376H4.92538C5.27454 3.3376 5.55763 3.62069 5.55763 3.96986Z" fill="#CD916E"/>
<path d="M3.97699 3.65373V3.3376C3.62782 3.3376 3.34473 3.62065 3.34473 3.96986L3.34473 4.60212C3.34473 4.95132 3.62782 5.23438 3.97699 5.23438H4.92538C5.27454 5.23438 5.55763 4.95128 5.55763 4.60212H4.92538C4.40157 4.60215 3.97699 4.17753 3.97699 3.65373Z" fill="#B67F5F"/>
<path d="M4.05021 16.7151L3.60316 17.1622C3.35624 17.4091 3.35624 17.8094 3.60316 18.0563L4.27377 18.7269C4.52069 18.9738 4.921 18.9738 5.16792 18.7269L5.61501 18.2798C5.86193 18.0329 5.86193 17.6326 5.61501 17.3857L4.94439 16.7151C4.69747 16.4682 4.29713 16.4682 4.05021 16.7151Z" fill="#CD916E"/>
<path d="M5.39144 17.6092L5.61497 17.3857C5.86189 17.6326 5.86189 18.0329 5.61497 18.2798L5.16788 18.7269C4.92096 18.9738 4.52065 18.9738 4.27374 18.7269L3.60316 18.0563C3.35624 17.8093 3.35624 17.409 3.60316 17.1621L4.05025 17.6092C4.42058 17.9795 5.02111 17.9795 5.39144 17.6092Z" fill="#B67F5F"/>
<path d="M7.1385 2.70508L3.34491 2.70508C2.9957 2.70508 2.71265 2.42199 2.71265 2.07282L6.82237 2.07282C6.99697 2.07282 7.1385 2.21435 7.1385 2.38895V2.70508Z" fill="#E3A578"/>
</g>
<rect x="13.0657" y="11.873" width="9.8001" height="13.8835" rx="0.816675" transform="rotate(-90 13.0657 11.873)" fill="#B27A49"/>
<rect x="14.853" y="10.0769" width="6.20673" height="10.2901" rx="0.65334" transform="rotate(-90 14.853 10.0769)" fill="#FFDD4E" stroke="white" stroke-width="0.32667"/>
<defs>
<clipPath id="clip0_2287_152019">
<rect width="19.6002" height="19.6002" fill="white" transform="matrix(-1 0 0 -1 39.1992 21.6719)"/>
</clipPath>
<clipPath id="clip1_2287_152019">
<rect width="19.6002" height="19.6002" fill="white" transform="matrix(0 -1 1 0 0.81543 21.6719)"/>
</clipPath>
</defs>
</svg>
