<svg width="24" height="25" viewBox="0 0 24 25" fill="none" xmlns="http://www.w3.org/2000/svg">
<path d="M12.5 2.81641H9.5C8.94772 2.81641 8.5 3.26412 8.5 3.81641V4.81641C8.5 5.36869 8.94772 5.81641 9.5 5.81641H12.5C13.0523 5.81641 13.5 5.36869 13.5 4.81641V3.81641C13.5 3.26412 13.0523 2.81641 12.5 2.81641Z" fill="white"/>
<path d="M17 3.81641H14.5V4.81641C14.5 5.34684 14.2893 5.85555 13.9142 6.23062C13.5391 6.60569 13.0304 6.81641 12.5 6.81641H9.5C8.96957 6.81641 8.46086 6.60569 8.08579 6.23062C7.71071 5.85555 7.5 5.34684 7.5 4.81641V3.81641H5C4.60218 3.81641 4.22064 3.97444 3.93934 4.25575C3.65804 4.53705 3.5 4.91858 3.5 5.31641V20.3164C3.5 20.7142 3.65804 21.0958 3.93934 21.3771C4.22064 21.6584 4.60218 21.8164 5 21.8164H12.5C11.8388 20.9331 11.4884 19.8559 11.5033 18.7527C11.5182 17.6494 11.8976 16.5821 12.5824 15.717C13.2672 14.8519 14.2189 14.2375 15.2893 13.9697C16.3596 13.7019 17.4885 13.7957 18.5 14.2364V5.31641C18.5 4.91858 18.342 4.53705 18.0607 4.25575C17.7794 3.97444 17.3978 3.81641 17 3.81641Z" fill="white"/>
<path d="M16.5 14.8164C15.7089 14.8164 14.9355 15.051 14.2777 15.4905C13.6199 15.9301 13.1072 16.5548 12.8045 17.2857C12.5017 18.0166 12.4225 18.8208 12.5769 19.5968C12.7312 20.3727 13.1122 21.0854 13.6716 21.6448C14.231 22.2042 14.9437 22.5852 15.7196 22.7395C16.4956 22.8939 17.2998 22.8147 18.0307 22.5119C18.7616 22.2092 19.3864 21.6965 19.8259 21.0387C20.2654 20.3809 20.5 19.6075 20.5 18.8164C20.5 17.7555 20.0786 16.7381 19.3284 15.988C18.5783 15.2378 17.5609 14.8164 16.5 14.8164ZM17.915 19.5214C17.9619 19.5679 17.9991 19.6232 18.0244 19.6841C18.0498 19.745 18.0629 19.8104 18.0629 19.8764C18.0629 19.9424 18.0498 20.0078 18.0244 20.0687C17.9991 20.1296 17.9619 20.1849 17.915 20.2314C17.8683 20.2777 17.8129 20.3144 17.752 20.3393C17.691 20.3642 17.6258 20.3768 17.56 20.3764C17.4942 20.3768 17.429 20.3642 17.368 20.3393C17.3071 20.3144 17.2517 20.2777 17.205 20.2314L16.5 19.5214L15.795 20.2314C15.7483 20.2777 15.6929 20.3144 15.632 20.3393C15.571 20.3642 15.5058 20.3768 15.44 20.3764C15.3742 20.3768 15.309 20.3642 15.248 20.3393C15.1871 20.3144 15.1317 20.2777 15.085 20.2314C15.0381 20.1849 15.0009 20.1296 14.9756 20.0687C14.9502 20.0078 14.9371 19.9424 14.9371 19.8764C14.9371 19.8104 14.9502 19.745 14.9756 19.6841C15.0009 19.6232 15.0381 19.5679 15.085 19.5214L15.795 18.8164L15.085 18.1114C14.9909 18.0173 14.938 17.8896 14.938 17.7564C14.938 17.6233 14.9909 17.4956 15.085 17.4014C15.1792 17.3073 15.3069 17.2544 15.44 17.2544C15.5732 17.2544 15.7009 17.3073 15.795 17.4014L16.5 18.1114L17.205 17.4014C17.2516 17.3548 17.307 17.3178 17.3679 17.2926C17.4288 17.2673 17.4941 17.2544 17.56 17.2544C17.6259 17.2544 17.6912 17.2673 17.7521 17.2926C17.813 17.3178 17.8684 17.3548 17.915 17.4014C17.9616 17.448 17.9986 17.5034 18.0238 17.5643C18.0491 17.6252 18.062 17.6905 18.062 17.7564C18.062 17.8223 18.0491 17.8876 18.0238 17.9485C17.9986 18.0094 17.9616 18.0648 17.915 18.1114L17.205 18.8164L17.915 19.5214Z" fill="white"/>
</svg>
