<svg width="24" height="25" viewBox="0 0 24 25" fill="none" xmlns="http://www.w3.org/2000/svg">
<g clip-path="url(#clip0_4943_4348)">
<path fill-rule="evenodd" clip-rule="evenodd" d="M3.4657 6.31572H6.38779V7.90244C6.38779 8.179 6.61199 8.4032 6.88856 8.4032C7.16512 8.4032 7.38932 8.179 7.38932 7.90244V6.31572H12.6341V7.90244C12.6341 8.179 12.8583 8.4032 13.1348 8.4032C13.4114 8.4032 13.6356 8.179 13.6356 7.90244V6.31572H16.5576C16.8823 6.31572 17.1512 6.56111 17.1809 6.88436L17.652 12.0094C17.4292 11.9863 17.2031 11.9742 16.9741 11.9742C13.3956 11.9742 10.4947 14.8751 10.4947 18.4536C10.4947 19.3337 10.6706 20.1727 10.9884 20.9377H2.89434C2.5371 20.9377 2.22956 20.802 1.98881 20.5381C1.74801 20.2742 1.64104 19.9555 1.67371 19.5997L2.8424 6.88436C2.87212 6.56111 3.14104 6.31572 3.4657 6.31572ZM6.38779 6.23327V4.44808C6.38779 3.451 6.79532 2.54491 7.4519 1.88833C8.10848 1.23175 9.01457 0.824219 10.0116 0.824219C11.0087 0.824219 11.9148 1.23175 12.5714 1.88833C13.228 2.54491 13.6355 3.45105 13.6355 4.44808V6.23327H12.634V4.44808C12.634 3.72747 12.3389 3.07192 11.8633 2.59642C11.3878 2.12087 10.7323 1.8257 10.0116 1.8257C9.29104 1.8257 8.63554 2.12087 8.15999 2.59642C7.68445 3.07192 7.38927 3.72742 7.38927 4.44808V6.23327H6.38779ZM16.974 13.0992C14.0169 13.0992 11.6197 15.4965 11.6197 18.4536C11.6197 21.4107 14.0169 23.8079 16.974 23.8079C19.9311 23.8079 22.3284 21.4107 22.3284 18.4536C22.3284 15.4965 19.9311 13.0992 16.974 13.0992ZM14.3568 18.7705L15.9587 20.2417C16.1832 20.4482 16.5306 20.4373 16.7417 20.2196L19.6001 17.4828C19.8234 17.2681 19.8303 16.9129 19.6155 16.6896C19.4007 16.4664 19.0455 16.4595 18.8223 16.6742L16.3311 19.0594L15.1171 17.9444C14.8889 17.7345 14.5338 17.7493 14.3239 17.9774C14.1139 18.2055 14.1287 18.5606 14.3568 18.7705Z" fill="white"/>
</g>
<defs>
<clipPath id="clip0_4943_4348">
<rect width="24" height="24" fill="white" transform="translate(0 0.316406)"/>
</clipPath>
</defs>
</svg>
