<svg width="24" height="24" viewBox="0 0 24 24" fill="none" xmlns="http://www.w3.org/2000/svg">
<path fill-rule="evenodd" clip-rule="evenodd" d="M1 7C1 5.4087 1.63214 3.88258 2.75736 2.75736C3.88258 1.63214 5.4087 1 7 1H17C18.5913 1 20.1174 1.63214 21.2426 2.75736C22.3679 3.88258 23 5.4087 23 7V17C23 18.5913 22.3679 20.1174 21.2426 21.2426C20.1174 22.3679 18.5913 23 17 23H7C5.4087 23 3.88258 22.3679 2.75736 21.2426C1.63214 20.1174 1 18.5913 1 17V7ZM7 3C5.93913 3 4.92172 3.42143 4.17157 4.17157C3.42143 4.92172 3 5.93913 3 7V17C3 18.0609 3.42143 19.0783 4.17157 19.8284C4.92172 20.5786 5.93913 21 7 21H17C18.0609 21 19.0783 20.5786 19.8284 19.8284C20.5786 19.0783 21 18.0609 21 17V7C21 5.93913 20.5786 4.92172 19.8284 4.17157C19.0783 3.42143 18.0609 3 17 3H7Z" fill="white"/>
<path fill-rule="evenodd" clip-rule="evenodd" d="M11 12V5H13V11H19V13H12C11.7348 13 11.4804 12.8946 11.2929 12.7071C11.1054 12.5196 11 12.2652 11 12Z" fill="white"/>
</svg>
