<svg width="12" height="21" viewBox="0 0 12 21" fill="none" xmlns="http://www.w3.org/2000/svg">
<path d="M7.52597 9.01611V5.55219H10.3301C11.1548 5.55219 11.8559 4.85116 11.8559 4.02642C11.8559 3.20168 11.1961 2.45941 10.3301 2.45941H7.52597V2.08827C7.52597 1.26353 6.82494 0.5625 6.0002 0.5625C5.17546 0.5625 4.47443 1.26353 4.47443 2.08827V2.45941C2.04144 2.66559 0.144531 4.72745 0.144531 7.20168C0.144531 9.6759 2.04144 11.7378 4.47443 11.9439V15.4079H1.6703C0.845562 15.4079 0.144531 16.1089 0.144531 16.9336C0.144531 17.7584 0.845562 18.4594 1.6703 18.4594H4.47443V18.8305C4.47443 19.6553 5.17546 20.3563 6.0002 20.3563C6.82494 20.3563 7.52597 19.6553 7.52597 18.8305V18.4594C9.95896 18.2532 11.8559 16.1914 11.8559 13.7171C11.8559 11.2429 9.95896 9.22229 7.52597 9.01611ZM7.52597 15.4079V12.0677C8.26824 12.2738 8.80432 12.9336 8.80432 13.7584C8.80432 14.5419 8.26824 15.2429 7.52597 15.4079ZM4.47443 5.59343V8.93363C3.73216 8.72745 3.19608 8.06765 3.19608 7.24291C3.19608 6.45941 3.73216 5.75838 4.47443 5.59343Z" fill="white"/>
</svg>
