<svg width="16" height="22" viewBox="0 0 16 22" fill="none" xmlns="http://www.w3.org/2000/svg">
<path d="M1.33333 22H14.6667C15.0203 22 15.3594 21.8551 15.6095 21.5973C15.8595 21.3394 16 20.9897 16 20.625V5.5C16 5.13533 15.8595 4.78559 15.6095 4.52773C15.3594 4.26987 15.0203 4.125 14.6667 4.125H11.9933C11.9613 1.84112 10.188 0 8 0C5.812 0 4.03867 1.84112 4.00667 4.125H1.33333C0.979711 4.125 0.640573 4.26987 0.390524 4.52773C0.140476 4.78559 0 5.13533 0 5.5V20.625C0 20.9897 0.140476 21.3394 0.390524 21.5973C0.640573 21.8551 0.979711 22 1.33333 22ZM10 8.25H6C5.82319 8.25 5.65362 8.17757 5.5286 8.04864C5.40357 7.9197 5.33333 7.74484 5.33333 7.5625C5.33333 7.38016 5.40357 7.2053 5.5286 7.07636C5.65362 6.94743 5.82319 6.875 6 6.875H10C10.1768 6.875 10.3464 6.94743 10.4714 7.07636C10.5964 7.2053 10.6667 7.38016 10.6667 7.5625C10.6667 7.74484 10.5964 7.9197 10.4714 8.04864C10.3464 8.17757 10.1768 8.25 10 8.25ZM8 1.375C9.44933 1.375 10.628 2.60288 10.66 4.125H5.34C5.372 2.60288 6.55067 1.375 8 1.375Z" fill="white"/>
</svg>
