<svg width="96" height="88" viewBox="0 0 96 88" fill="none" xmlns="http://www.w3.org/2000/svg">
<g filter="url(#filter0_dddd_1002_64517)">
<path d="M75.4411 70.8597H18.5618C15.6445 70.8597 13.0757 68.9376 12.2527 66.1388L10.353 59.6797H83.65L81.7504 66.1388C80.927 68.9376 78.3584 70.8597 75.4411 70.8597Z" fill="#FFD71A"/>
<path d="M15.2418 66.1388L13.3421 59.6797H10.3525L12.2522 66.1388C13.0754 68.9376 15.644 70.8595 18.5613 70.8595H21.5506C18.6336 70.8597 16.065 68.9376 15.2418 66.1388Z" fill="#FFB31A"/>
<path d="M47.0012 3.08984C42.4612 3.08984 38.7808 6.7703 38.7808 11.3103V19.5307H55.2216V11.3103C55.2218 6.7703 51.5413 3.08984 47.0012 3.08984Z" fill="#FF8353"/>
<path d="M48.496 3.22802C48.0109 3.13879 47.512 3.08984 47.0012 3.08984C42.4612 3.08984 38.7808 6.7703 38.7808 11.3103V19.5307H41.7701V11.3103C41.7703 7.28112 44.6701 3.9312 48.496 3.22802Z" fill="#FF5A52"/>
<path d="M47.001 14.0996C28.8797 14.0996 14.1895 28.8114 14.1895 46.9595C14.1895 48.9887 14.3532 50.8645 14.7049 52.792L79.2943 52.8077C79.6347 50.9099 79.8123 48.9554 79.8123 46.9593C79.8125 28.8116 65.1223 14.0996 47.001 14.0996Z" fill="#FFD71A"/>
<path d="M17.1793 46.9595C17.1793 29.3133 31.0687 14.9178 48.4961 14.1351C48.0004 14.1127 47.5024 14.0996 47.0013 14.0996C28.88 14.0996 14.1899 28.8114 14.1899 46.9595C14.1899 48.9887 14.3537 50.8645 14.7052 52.792L79.2945 52.8077C79.2945 52.8077 79.2945 52.8073 79.2948 52.8069L17.6946 52.7918C17.3431 50.8645 17.1793 48.9887 17.1793 46.9595Z" fill="#FFB31A"/>
<path d="M83.5406 48.501H10.4621C7.39719 48.501 4.9126 50.9856 4.9126 54.0505C4.9126 57.1154 7.39719 59.6 10.4621 59.6H83.5406C86.6055 59.6 89.0901 57.1154 89.0901 54.0505C89.0901 50.9856 86.6055 48.501 83.5406 48.501Z" fill="#FF8353"/>
<path d="M7.90197 54.0505C7.90197 50.9856 10.3866 48.501 13.4515 48.501H10.4621C7.39719 48.501 4.9126 50.9856 4.9126 54.0505C4.9126 57.1154 7.39719 59.6 10.4621 59.6H13.4515C10.3866 59.5998 7.90197 57.1152 7.90197 54.0505Z" fill="#FF5A52"/>
<path d="M79.9359 85.1785C88.2803 85.1785 95.0447 78.4141 95.0447 70.0697C95.0447 61.7254 88.2803 54.9609 79.9359 54.9609C71.5916 54.9609 64.8271 61.7254 64.8271 70.0697C64.8271 78.4141 71.5916 85.1785 79.9359 85.1785Z" fill="#58DC72"/>
<path d="M67.8167 70.0697C67.8167 62.2298 73.7882 55.786 81.4307 55.0351C80.9388 54.9867 80.4405 54.9609 79.9359 54.9609C71.5916 54.9609 64.8271 61.7254 64.8271 70.0697C64.8271 78.414 71.5916 85.1785 79.9359 85.1785C80.4405 85.1785 80.9388 85.1525 81.4307 85.1044C73.7882 84.3537 67.8167 77.9096 67.8167 70.0697Z" fill="#25B77E"/>
<path d="M88.5697 69.073H80.9326V61.4359C80.9326 60.8856 80.4864 60.4395 79.9361 60.4395C79.3858 60.4395 78.9397 60.8856 78.9397 61.4359V69.073H71.3026C70.7523 69.073 70.3062 69.5191 70.3062 70.0694C70.3062 70.6197 70.7523 71.0659 71.3026 71.0659H78.9397V78.703C78.9397 79.2533 79.3858 79.6994 79.9361 79.6994C80.4864 79.6994 80.9326 79.2533 80.9326 78.703V71.0659H88.5697C89.12 71.0659 89.5661 70.6197 89.5661 70.0694C89.5661 69.5191 89.12 69.073 88.5697 69.073Z" fill="white"/>
<path d="M23.3041 13.2187C22.9597 13.2187 22.6247 13.04 22.4402 12.7201L19.1137 6.95875C18.8385 6.48217 19.0017 5.87266 19.4784 5.59751C19.9552 5.32236 20.5645 5.48572 20.8397 5.96229L24.166 11.7239C24.5592 12.3628 24.0458 13.2372 23.3041 13.2187Z" fill="#FF5A52"/>
<path d="M7.5342 28.9867C7.3652 28.9867 7.19399 28.9436 7.03688 28.8529L1.27528 25.5266C0.798704 25.2514 0.635348 24.6419 0.910496 24.1653C1.18544 23.6888 1.79496 23.5256 2.27173 23.8005L8.03333 27.1269C8.91639 27.5968 8.51273 29.0239 7.5342 28.9867Z" fill="#FF5A52"/>
<path d="M86.4679 28.9875C85.4891 29.0248 85.0861 27.5973 85.9687 27.128L91.7303 23.8016C92.2075 23.5265 92.8164 23.6898 93.0916 24.1664C93.3667 24.643 93.2036 25.2525 92.7268 25.5276L86.965 28.854C86.8083 28.9444 86.6369 28.9875 86.4679 28.9875Z" fill="#FF5A52"/>
<path d="M70.698 13.2189C69.9562 13.2372 69.4427 12.3628 69.8361 11.7239L73.1625 5.96229C73.4374 5.48572 74.0469 5.32236 74.5237 5.59751C75.0003 5.87266 75.1636 6.48217 74.8885 6.95875L71.5621 12.7203C71.3774 13.0402 71.0425 13.2189 70.698 13.2189Z" fill="#FF5A52"/>
</g>
<defs>
<filter id="filter0_dddd_1002_64517" x="-6.86646" y="0.542073" width="103.185" height="87.1844" filterUnits="userSpaceOnUse" color-interpolation-filters="sRGB">
<feFlood flood-opacity="0" result="BackgroundImageFix"/>
<feColorMatrix in="SourceAlpha" type="matrix" values="0 0 0 0 0 0 0 0 0 0 0 0 0 0 0 0 0 0 127 0" result="hardAlpha"/>
<feOffset/>
<feGaussianBlur stdDeviation="0.636943"/>
<feColorMatrix type="matrix" values="0 0 0 0 0.278431 0 0 0 0 0.278431 0 0 0 0 0.278431 0 0 0 0.1 0"/>
<feBlend mode="normal" in2="BackgroundImageFix" result="effect1_dropShadow_1002_64517"/>
<feColorMatrix in="SourceAlpha" type="matrix" values="0 0 0 0 0 0 0 0 0 0 0 0 0 0 0 0 0 0 127 0" result="hardAlpha"/>
<feOffset dx="-1.27389"/>
<feGaussianBlur stdDeviation="0.636943"/>
<feColorMatrix type="matrix" values="0 0 0 0 0.278431 0 0 0 0 0.278431 0 0 0 0 0.278431 0 0 0 0.09 0"/>
<feBlend mode="normal" in2="effect1_dropShadow_1002_64517" result="effect2_dropShadow_1002_64517"/>
<feColorMatrix in="SourceAlpha" type="matrix" values="0 0 0 0 0 0 0 0 0 0 0 0 0 0 0 0 0 0 127 0" result="hardAlpha"/>
<feOffset dx="-2.54777"/>
<feGaussianBlur stdDeviation="0.636943"/>
<feColorMatrix type="matrix" values="0 0 0 0 0.278431 0 0 0 0 0.278431 0 0 0 0 0.278431 0 0 0 0.05 0"/>
<feBlend mode="normal" in2="effect2_dropShadow_1002_64517" result="effect3_dropShadow_1002_64517"/>
<feColorMatrix in="SourceAlpha" type="matrix" values="0 0 0 0 0 0 0 0 0 0 0 0 0 0 0 0 0 0 127 0" result="hardAlpha"/>
<feOffset dx="-5.09554"/>
<feGaussianBlur stdDeviation="1.27389"/>
<feColorMatrix type="matrix" values="0 0 0 0 0.278431 0 0 0 0 0.278431 0 0 0 0 0.278431 0 0 0 0.01 0"/>
<feBlend mode="normal" in2="effect3_dropShadow_1002_64517" result="effect4_dropShadow_1002_64517"/>
<feBlend mode="normal" in="SourceGraphic" in2="effect4_dropShadow_1002_64517" result="shape"/>
</filter>
</defs>
</svg>
